<svg width="103" height="74" viewBox="0 0 103 74" fill="none" xmlns="http://www.w3.org/2000/svg">
<g opacity="0.6" clip-path="url(#clip0_124_3552)">
<path d="M83.2074 32.1912C83.0638 32.2415 82.8776 32.1704 82.8776 32.1704C77.7072 30.3 72.3346 28.7731 66.9034 27.5395C58.2487 25.3897 49.1311 24.2202 40.2528 24.1941C31.4169 24.2894 22.5757 25.7502 14.5322 28.5677C11.0849 29.7753 7.76535 31.3471 4.67449 33.1116C4.14249 33.4343 3.6105 33.757 3.03596 33.9583C2.60506 34.1092 2.13162 34.1387 1.86035 33.8247C1.58909 33.5106 1.6051 33.096 1.99345 32.8236C2.4829 32.3794 2.92981 31.8138 3.4618 31.4911C5.36105 30.0077 7.48902 28.7169 9.84571 27.6186C15.2347 25.0491 21.2513 23.3506 27.337 22.3097C34.9442 21.0085 42.748 20.7293 50.4188 21.4511C56.5415 21.8971 62.5898 23.051 68.4784 24.6698C73.1488 26.0336 77.6596 27.8623 82.0267 29.7414C82.5853 29.9548 83.0427 30.34 83.6438 30.6748C84.0001 31.2318 83.9416 31.525 83.2074 32.1912Z" fill="black"/>
<path d="M98.2067 41.3921C98.0526 40.4916 97.51 39.8635 97.01 39.3569C94.5847 36.1159 91.9146 33.0969 89.1009 30.1283C87.5584 28.4869 86.0584 26.9671 84.5159 25.3257C84.0585 24.9405 83.8458 24.3333 83.4894 23.7763C83.4469 23.6549 83.649 23.3114 83.7927 23.2611C83.9363 23.2107 84.2236 23.1101 84.4098 23.1813C85.0108 23.5161 85.4683 23.9013 85.9257 24.2865C90.0852 27.8745 93.8564 31.735 97.3403 35.696C98.4253 36.9522 99.4093 38.3801 100.351 39.6866C100.707 40.2435 101.25 40.8716 101.462 41.4789C101.973 42.9363 101.265 44.1386 99.7012 44.2774C98.7543 44.3364 97.8074 44.3954 96.9616 44.2826C93.2486 43.8106 89.7378 42.9951 86.227 42.1796C85.3386 41.9454 84.4503 41.7112 83.5619 41.4769C83.0034 41.2635 82.5885 40.9998 82.6045 40.5851C82.6205 40.1704 82.9663 39.7766 83.5834 39.6968C84.0143 39.5459 84.3867 39.6881 84.6739 39.5875C86.6103 39.591 88.5891 39.7159 90.5094 40.1341C92.4298 40.5523 94.1639 40.8993 96.0842 41.3174C96.7438 41.3591 97.446 41.5222 98.2067 41.3921Z" fill="black"/>
</g>
<defs>
<clipPath id="clip0_124_3552">
<rect width="45.6838" height="91.7713" fill="white" transform="translate(15.6719 73.7108) rotate(-109.305)"/>
</clipPath>
</defs>
</svg>
