<svg width="14" height="16" viewBox="0 0 14 16" fill="none" xmlns="http://www.w3.org/2000/svg">
<path d="M12.3914 2.00349H10.6638V1.46729C10.6638 1.03041 10.3064 0.673035 9.86952 0.673035C9.43264 0.673035 9.07527 1.03041 9.07527 1.46729L9.07513 2.00349H4.90494V1.46729C4.90494 1.03041 4.54756 0.673035 4.11069 0.673035C3.67381 0.673035 3.31643 1.03041 3.31643 1.46729L3.3163 2.00349H1.58868C0.71489 2.00349 0 2.71838 0 3.59217V14.0574C0 14.9312 0.71489 15.646 1.58868 15.646H12.4113C13.2851 15.646 14 14.9312 14 14.0574V3.59217C13.9802 2.71838 13.2653 2.00349 12.3915 2.00349H12.3914ZM9.21402 12.5283H4.76582C4.32894 12.5283 3.97157 12.1709 3.97157 11.734C3.97157 11.2971 4.32894 10.9398 4.76582 10.9398H9.23388C9.67076 10.9398 10.0281 11.2971 10.0281 11.734C10.0281 12.1709 9.67076 12.5283 9.21392 12.5283H9.21402ZM10.346 9.88714H3.63398C3.19711 9.88714 2.83973 9.52976 2.83973 9.09289C2.83973 8.65601 3.19711 8.29863 3.63398 8.29863H10.3261C10.763 8.29863 11.1204 8.65601 11.1204 9.09289C11.1205 9.52976 10.783 9.88714 10.3461 9.88714H10.346ZM1.5886 5.77652V3.59206H3.31622V4.12827C3.31622 4.56514 3.67359 4.92252 4.11047 4.92252C4.54735 4.92252 4.90472 4.56514 4.90472 4.12827L4.90486 3.59206H9.07505V4.12827C9.07505 4.56514 9.43243 4.92252 9.8693 4.92252C10.3062 4.92252 10.6636 4.56514 10.6636 4.12827L10.6637 3.59206H12.3913V5.77652H1.5886Z" fill="#64D370"/>
</svg>
