<svg width="48" height="30" viewBox="0 0 48 30" fill="none" xmlns="http://www.w3.org/2000/svg">
<path d="M30.8934 10.4473L17.3066 5.98464C17.1579 5.93517 17.0586 6.0341 17.0586 6.18283V24.6788C17.0586 24.7781 17.1081 24.8275 17.2073 24.877L30.7942 29.3396C30.8934 29.3891 31.0422 29.2902 31.0422 29.1414V10.6455C30.9927 10.5462 30.9432 10.4968 30.8934 10.4469V10.4473Z" fill="#64D370"/>
<path d="M44.2374 4.25275L32.1382 0.285706H32.0389L19.9397 4.25275C19.7415 4.30222 19.7415 4.55022 19.9397 4.60003L32.0389 8.56708H32.1382L44.2374 4.60003C44.3861 4.60003 44.3861 4.35203 44.2374 4.25275Z" fill="#64D370"/>
<path d="M46.8586 5.98464L33.2718 10.4473C33.1725 10.4967 33.123 10.5466 33.123 10.6455V29.1414C33.123 29.2902 33.2718 29.3396 33.3711 29.3396L46.9579 24.877C47.0572 24.8275 47.1066 24.7777 47.1066 24.6788V6.18283C47.1066 6.0341 46.9579 5.93517 46.8586 5.98464Z" fill="#64D370"/>
<path d="M11.1571 5.93494H1.38844C0.644773 5.93494 0 6.52987 0 7.32337C0 8.06704 0.594938 8.71181 1.38844 8.71181H11.1571C11.9007 8.71181 12.5455 8.11687 12.5455 7.32337C12.496 6.57936 11.9008 5.93494 11.1571 5.93494Z" fill="#64D370"/>
<path d="M11.1571 13.6267H1.38844C0.644773 13.6267 0 14.2217 0 15.0152C0 15.7588 0.594938 16.4036 1.38844 16.4036L11.1571 16.404C11.9007 16.404 12.5455 15.809 12.5455 15.0155C12.496 14.2715 11.9008 13.6267 11.1571 13.6267V13.6267Z" fill="#64D370"/>
<path d="M11.1571 21.36H1.38844C0.644773 21.36 0 21.9549 0 22.7484C0 23.5419 0.594938 24.1369 1.38844 24.1369H11.1571C11.9007 24.1369 12.5455 23.5419 12.5455 22.7484C12.5455 21.9549 11.9008 21.36 11.1571 21.36Z" fill="#64D370"/>
</svg>
