<svg width="23" height="23" viewBox="0 0 23 23" fill="none" xmlns="http://www.w3.org/2000/svg">
<circle cx="11.5" cy="11.5" r="11.5" fill="#64D370"/>
<path d="M15.6553 6.6553C14.5528 5.54959 13.1048 5 11.6569 5C10.209 5 8.7609 5.54959 7.65859 6.6553C5.44714 8.8669 5.44714 12.4473 7.65859 14.6558L11.6569 18.6541L15.6553 14.6558C16.761 13.5533 17.3138 12.1053 17.3138 10.6574C17.314 9.20928 16.7611 7.76127 15.6553 6.65568V6.6553ZM11.6569 13.3197C10.1859 13.3197 8.99455 12.1284 8.99455 10.6573C8.99455 9.18627 10.1859 7.99168 11.6569 7.99168C13.128 7.99168 14.3193 9.18623 14.3193 10.6573C14.3193 12.1282 13.128 13.3197 11.6569 13.3197Z" fill="white"/>
</svg>
