<svg width="21" height="26" viewBox="0 0 21 26" fill="none" xmlns="http://www.w3.org/2000/svg">
<path d="M17.223 3.75883C15.3855 1.91599 12.9722 1 10.5591 1C8.1459 1 5.73236 1.91599 3.89517 3.75883C0.209423 7.44483 0.209423 13.4121 3.89517 17.093L10.5591 23.7569L17.223 17.093C19.0658 15.2555 19.9872 12.8422 19.9872 10.4291C19.9875 8.01547 19.066 5.60212 17.223 3.75947V3.75883ZM10.5591 14.8662C8.10729 14.8662 6.12178 12.8806 6.12178 10.4289C6.12178 7.97712 8.10729 5.98614 10.5591 5.98614C13.0108 5.98614 14.9963 7.97705 14.9963 10.4289C14.9963 12.8804 13.0108 14.8662 10.5591 14.8662Z" stroke="#64D370" stroke-width="1.88564"/>
</svg>
