<svg width="38" height="40" viewBox="0 0 38 40" fill="none" xmlns="http://www.w3.org/2000/svg">
<rect x="0.863281" y="0.570251" width="24.4126" height="13.7984" rx="2.12283" fill="#D9D9D9"/>
<rect x="0.863281" y="9.06146" width="24.4126" height="2.65354" fill="#C4BFBF"/>
<rect x="6.57031" y="8.97443" width="31.1938" height="17.6313" rx="2.71251" fill="#D9D9D9"/>
<rect x="6.57031" y="19.8246" width="31.1938" height="3.39063" fill="#C4BFBF"/>
<path d="M9.97879 37.6201L8.11804 34.9428L8.94242 34.4324L11.1329 37.6201H9.97879ZM6.34364 37.6201V32.1242H7.34861V37.6201H6.34364ZM7.04241 35.3039V34.4246H8.89531V35.3039H7.04241ZM9.03664 34.9899L8.10233 34.8643L9.97879 32.1242H11.0623L9.03664 34.9899ZM14.3133 37.6201V36.7721L14.2584 36.5915V35.1076C14.2584 34.8198 14.172 34.5973 13.9993 34.4403C13.8265 34.278 13.5648 34.1969 13.2141 34.1969C12.9786 34.1969 12.7457 34.2335 12.5154 34.3068C12.2903 34.3801 12.0993 34.4822 11.9422 34.613L11.5575 33.8985C11.7826 33.7258 12.0495 33.5976 12.3583 33.5138C12.6724 33.4249 12.9969 33.3804 13.3319 33.3804C13.9391 33.3804 14.4075 33.5269 14.7373 33.82C15.0723 34.1079 15.2398 34.5554 15.2398 35.1626V37.6201H14.3133ZM12.9943 37.675C12.6802 37.675 12.4055 37.6227 12.1699 37.518C11.9344 37.4081 11.7512 37.2589 11.6203 37.0705C11.4947 36.8768 11.4319 36.6596 11.4319 36.4188C11.4319 36.1833 11.4868 35.9713 11.5968 35.7829C11.7119 35.5944 11.8977 35.4453 12.1542 35.3353C12.4107 35.2254 12.7509 35.1705 13.1749 35.1705H14.3918V35.8221H13.2455C12.9105 35.8221 12.6855 35.8771 12.5703 35.987C12.4552 36.0917 12.3976 36.2225 12.3976 36.3796C12.3976 36.5575 12.4683 36.6988 12.6096 36.8035C12.7509 36.9082 12.9472 36.9605 13.1984 36.9605C13.4392 36.9605 13.6538 36.9056 13.8422 36.7957C14.0359 36.6858 14.1746 36.5235 14.2584 36.3089L14.4232 36.8977C14.329 37.1437 14.1589 37.3348 13.9129 37.4709C13.6721 37.607 13.3659 37.675 12.9943 37.675ZM18.7782 37.675C18.438 37.675 18.1265 37.5965 17.8439 37.4395C17.5665 37.2825 17.344 37.0469 17.1765 36.7329C17.0143 36.4136 16.9331 36.0105 16.9331 35.5238C16.9331 35.0317 17.0116 34.6287 17.1687 34.3147C17.3309 34.0006 17.5508 33.7677 17.8282 33.6159C18.1056 33.4589 18.4223 33.3804 18.7782 33.3804C19.1917 33.3804 19.5555 33.4693 19.8695 33.6473C20.1888 33.8253 20.44 34.0739 20.6232 34.3932C20.8117 34.7125 20.9059 35.0893 20.9059 35.5238C20.9059 35.9582 20.8117 36.3377 20.6232 36.6622C20.44 36.9815 20.1888 37.2301 19.8695 37.4081C19.5555 37.586 19.1917 37.675 18.7782 37.675ZM16.4542 39.1432V33.4275H17.3885V34.4167L17.3571 35.5316L17.4356 36.6465V39.1432H16.4542ZM18.6683 36.8349C18.9038 36.8349 19.1132 36.7826 19.2964 36.6779C19.4848 36.5732 19.634 36.4214 19.7439 36.2225C19.8538 36.0236 19.9088 35.7907 19.9088 35.5238C19.9088 35.2516 19.8538 35.0187 19.7439 34.825C19.634 34.6261 19.4848 34.4743 19.2964 34.3696C19.1132 34.2649 18.9038 34.2126 18.6683 34.2126C18.4327 34.2126 18.2207 34.2649 18.0323 34.3696C17.8439 34.4743 17.6947 34.6261 17.5848 34.825C17.4749 35.0187 17.4199 35.2516 17.4199 35.5238C17.4199 35.7907 17.4749 36.0236 17.5848 36.2225C17.6947 36.4214 17.8439 36.5732 18.0323 36.6779C18.2207 36.7826 18.4327 36.8349 18.6683 36.8349ZM22.6008 37.6201V34.0242L22.8285 34.2597H21.1247V33.4275H25.0504V34.2597H23.3545L23.5822 34.0242V37.6201H22.6008ZM29.9941 37.6201V33.4275H30.9755V37.6201H29.9941ZM27.8036 34.8093C28.3427 34.8093 28.751 34.9297 29.0284 35.1705C29.311 35.4112 29.4524 35.7515 29.4524 36.1911C29.4524 36.6465 29.2953 37.0024 28.9813 37.2589C28.6725 37.5101 28.2328 37.6331 27.6623 37.6279L25.7623 37.6201V33.4275H26.7437V34.8014L27.8036 34.8093ZM27.5759 36.9056C27.8638 36.9108 28.0836 36.8506 28.2354 36.725C28.3872 36.5994 28.4631 36.4162 28.4631 36.1754C28.4631 35.9346 28.3872 35.7619 28.2354 35.6572C28.0889 35.5473 27.869 35.4897 27.5759 35.4845L26.7437 35.4767V36.8977L27.5759 36.9056Z" fill="black"/>
</svg>
