<svg width="37" height="38" viewBox="0 0 37 38" fill="none" xmlns="http://www.w3.org/2000/svg">
<path fill-rule="evenodd" clip-rule="evenodd" d="M25.2433 32.7563C28.4337 32.7563 31.8949 33.8481 35.7271 37.2363C36.1111 37.5755 36.6222 37.1539 36.2865 36.7322C32.5215 31.9873 29.039 31.084 25.566 30.3209C21.3169 29.3858 19.1323 26.9998 17.6095 24.3806C17.3068 23.8601 17.1702 23.9519 17.1431 24.622C17.109 25.4405 17.1667 26.5252 17.3504 27.5922C17.1785 27.5992 17.0065 27.5981 16.8322 27.5981C10.7553 27.5981 5.82787 22.68 5.82787 16.6137C5.82787 10.5486 10.7553 5.63173 16.8334 5.63173C22.9103 5.63173 27.8378 10.5486 27.8378 16.6137C27.8378 17.0459 27.8166 17.4734 27.7671 17.8915C26.9639 17.7467 25.3823 17.7302 24.2729 17.8256C23.856 17.8621 23.9149 18.0564 24.2305 18.1129C27.8684 18.7689 30.3663 21.0195 30.9386 25.1025C30.9504 25.1967 31.0753 25.2238 31.1235 25.1426C32.6704 22.567 33.4852 19.6181 33.4801 16.6137C33.4801 7.43949 26.0265 0 16.8334 0C7.63917 0 0.185547 7.43831 0.185547 16.6137C0.185547 25.7903 7.63917 33.2298 16.8334 33.2298C19.2712 33.2298 21.6926 32.7563 25.2433 32.7563ZM26.4823 26.7242C27.223 27.3484 27.448 28.0915 27.057 28.6156C26.8391 28.9029 26.4858 29.0619 26.0618 29.0619C25.6482 29.062 25.2477 28.917 24.9301 28.6521C24.2564 28.0644 24.0586 27.1128 24.4978 26.5723C24.6698 26.3603 24.9489 26.2437 25.2834 26.2437C25.6897 26.2437 26.116 26.4145 26.4823 26.7242ZM29.8999 25.1367C30.0083 25.8645 29.7786 26.166 29.5466 26.166C29.2934 26.166 28.9766 25.8716 28.6033 25.2886C28.2335 24.7139 28.098 24.0544 28.2818 23.7211C28.4019 23.5009 28.6551 23.4043 28.9743 23.5256C29.5925 23.7576 29.834 24.7021 29.8999 25.1367Z" fill="#FF8C00"/>
</svg>
