<svg width="35" height="38" viewBox="0 0 35 38" fill="none" xmlns="http://www.w3.org/2000/svg">
<rect x="0.384766" y="0.140564" width="34.1531" height="22.7687" rx="3.14051" fill="#2D9CDB"/>
<rect x="6.07812" y="5.12115" width="22.7687" height="2.13457" fill="white"/>
<rect x="6.07812" y="8.67883" width="22.7687" height="2.13457" fill="white"/>
<rect x="6.07812" y="12.2364" width="13.5189" height="2.13457" fill="white"/>
<rect x="6.07812" y="15.794" width="13.5189" height="2.13457" fill="white"/>
<circle cx="25.2875" cy="15.0825" r="2.84609" fill="#56CCF2"/>
<path d="M10.7487 35.6986C10.33 35.6986 9.94003 35.6305 9.57887 35.4944C9.22295 35.3531 8.91151 35.1568 8.64457 34.9056C8.38286 34.6491 8.17872 34.3481 8.03217 34.0027C7.88561 33.6572 7.81233 33.2804 7.81233 32.8721C7.81233 32.4638 7.88561 32.087 8.03217 31.7415C8.17872 31.3961 8.38547 31.0977 8.65242 30.8465C8.91936 30.59 9.2308 30.3937 9.58672 30.2576C9.94265 30.1163 10.3326 30.0456 10.7566 30.0456C11.2067 30.0456 11.6176 30.1242 11.9892 30.2812C12.3608 30.433 12.6749 30.6607 12.9314 30.9642L12.2719 31.5845C12.073 31.3699 11.8505 31.2103 11.6045 31.1056C11.3585 30.9956 11.0916 30.9407 10.8037 30.9407C10.5158 30.9407 10.2515 30.9878 10.0107 31.082C9.77515 31.1762 9.5684 31.3097 9.39044 31.4824C9.21771 31.6552 9.08162 31.8593 8.98217 32.0948C8.88796 32.3304 8.84085 32.5895 8.84085 32.8721C8.84085 33.1548 8.88796 33.4138 8.98217 33.6494C9.08162 33.8849 9.21771 34.0891 9.39044 34.2618C9.5684 34.4345 9.77515 34.568 10.0107 34.6622C10.2515 34.7564 10.5158 34.8035 10.8037 34.8035C11.0916 34.8035 11.3585 34.7512 11.6045 34.6465C11.8505 34.5366 12.073 34.3717 12.2719 34.1519L12.9314 34.78C12.6749 35.0783 12.3608 35.306 11.9892 35.463C11.6176 35.6201 11.2041 35.6986 10.7487 35.6986ZM16.3 33.9634C16.1011 34.0577 15.8891 34.1362 15.664 34.199C15.4442 34.2565 15.2113 34.2853 14.9653 34.2853C14.4366 34.2853 14.0257 34.1623 13.7326 33.9163C13.4395 33.6703 13.293 33.2882 13.293 32.77V31.4275H14.2744V32.7072C14.2744 32.9846 14.3529 33.1862 14.5099 33.3118C14.6722 33.4374 14.8946 33.5002 15.1773 33.5002C15.3657 33.5002 15.5541 33.4767 15.7426 33.4295C15.931 33.3824 16.1168 33.317 16.3 33.2333V33.9634ZM16.2293 35.6201V31.4275H17.2107V35.6201H16.2293ZM20.4855 35.675C20.0196 35.675 19.6114 35.5834 19.2607 35.4002C18.9152 35.2118 18.6457 34.9553 18.452 34.6308C18.2636 34.3063 18.1693 33.9373 18.1693 33.5238C18.1693 33.105 18.2609 32.736 18.4441 32.4167C18.6326 32.0922 18.889 31.8384 19.2136 31.6552C19.5433 31.472 19.9176 31.3804 20.3363 31.3804C20.7446 31.3804 21.1083 31.4693 21.4276 31.6473C21.7469 31.8253 21.9982 32.0765 22.1813 32.401C22.3645 32.7255 22.4561 33.1076 22.4561 33.5473C22.4561 33.5892 22.4535 33.6363 22.4483 33.6886C22.4483 33.741 22.4457 33.7907 22.4404 33.8378H18.9466V33.1862H21.9223L21.5375 33.3903C21.5428 33.1495 21.4931 32.9375 21.3884 32.7543C21.2837 32.5711 21.1397 32.4272 20.9565 32.3225C20.7786 32.2178 20.5718 32.1655 20.3363 32.1655C20.0955 32.1655 19.8835 32.2178 19.7003 32.3225C19.5224 32.4272 19.3811 32.5738 19.2764 32.7622C19.1769 32.9454 19.1272 33.1626 19.1272 33.4138V33.5709C19.1272 33.8221 19.1848 34.0446 19.2999 34.2382C19.4151 34.4319 19.5773 34.5811 19.7867 34.6858C19.9961 34.7904 20.2368 34.8428 20.509 34.8428C20.7446 34.8428 20.9565 34.8061 21.145 34.7329C21.3334 34.6596 21.5009 34.5444 21.6475 34.3874L22.1735 34.992C21.9851 35.2118 21.7469 35.3819 21.459 35.5023C21.1764 35.6174 20.8519 35.675 20.4855 35.675ZM24.24 35.6201V32.0242L24.4677 32.2597H22.764V31.4275H26.6896V32.2597H24.9938L25.2215 32.0242V35.6201H24.24Z" fill="black"/>
</svg>
