<svg width="71" height="24" viewBox="0 0 71 24" fill="none" xmlns="http://www.w3.org/2000/svg">
<path d="M51.3527 1.46906C50.2363 1.02617 48.4657 0.53717 46.2763 0.53717C40.6872 0.53717 36.7513 3.51761 36.7272 7.77874C36.6807 10.9226 39.5451 12.6688 41.6874 13.717C43.8771 14.7882 44.6215 15.4873 44.6215 16.4421C44.5992 17.9085 42.8521 18.5844 41.2226 18.5844C38.963 18.5844 37.7522 18.236 35.9123 17.4201L35.167 17.0704L34.375 21.9839C35.7024 22.5887 38.1481 23.1254 40.6872 23.1489C46.6257 23.1489 50.492 20.2146 50.5378 15.6736C50.5604 13.1819 49.0478 11.2726 45.787 9.71246C43.8075 8.71094 42.5952 8.03562 42.5952 7.01088C42.6184 6.0793 43.6205 5.12512 45.8551 5.12512C47.695 5.07839 49.0469 5.52066 50.071 5.96324L50.5829 6.19567L51.3527 1.46906Z" fill="#00579F"/>
<path d="M58.8659 15.069C59.332 13.8115 61.1255 8.94467 61.1255 8.94467C61.102 8.99141 61.5907 7.66398 61.8702 6.84908L62.2657 8.73515C62.2657 8.73515 63.3375 13.9746 63.5702 15.069C62.6857 15.069 59.9838 15.069 58.8659 15.069ZM65.8521 0.934631H61.4743C60.1243 0.934631 59.0987 1.33017 58.5162 2.75075L50.1094 22.823H56.048C56.048 22.823 57.0257 20.1215 57.2358 19.5396C57.8873 19.5396 63.6643 19.5396 64.5024 19.5396C64.6649 20.3081 65.1778 22.823 65.1778 22.823H70.4181L65.8521 0.934631Z" fill="#00579F"/>
<path d="M20.45 0.934631L14.9072 15.8606L14.3015 12.8335C13.2768 9.34052 10.063 5.54549 6.47656 3.6585L11.5535 22.8001H17.5385L26.4347 0.934631H20.45Z" fill="#00579F"/>
<path d="M9.75576 0.934631H0.649798L0.556641 1.3769C7.65986 3.19333 12.3642 7.57175 14.297 12.8344L12.3175 2.77458C11.9916 1.37659 10.99 0.980746 9.75576 0.934631Z" fill="#FAA61A"/>
<path d="M30.8394 22.8234H25.1797L28.7197 0.934631H34.3791L30.8394 22.8234Z" fill="#00579F"/>
</svg>
