<svg width="31" height="38" viewBox="0 0 31 38" fill="none" xmlns="http://www.w3.org/2000/svg">
<path d="M0.148438 8.20306L4.71223 16.3605V21.3364L0.153776 29.4778L0.148438 8.20306Z" fill="#5B57A2"/>
<path d="M17.6738 13.3921L21.9503 10.771L30.7022 10.7629L17.6738 18.7442V13.3921Z" fill="#D90751"/>
<path d="M17.6499 8.15497L17.6741 18.9552L13.0996 16.1444V0L17.6502 8.15497H17.6499Z" fill="#FAB718"/>
<path d="M30.7025 10.7629L21.9502 10.771L17.6499 8.15497L13.0996 0L30.7022 10.7629H30.7025Z" fill="#ED6F26"/>
<path d="M17.6741 29.523V24.2831L13.0996 21.5257L13.1021 37.6862L17.6741 29.523Z" fill="#63B22F"/>
<path d="M21.9373 26.9259L4.71192 16.3605L0.148438 8.20306L30.6815 26.9152L21.937 26.9259H21.9373Z" fill="#1487C9"/>
<path d="M13.1016 37.6862L17.6729 29.523L21.9387 26.9258L30.6828 26.9152L13.1016 37.6862Z" fill="#017F36"/>
<path d="M0.154297 29.4778L13.135 21.5261L8.77092 18.8484L4.71275 21.3364L0.154297 29.4778Z" fill="#984995"/>
</svg>
