<svg width="35" height="27" viewBox="0 0 35 27" fill="none" xmlns="http://www.w3.org/2000/svg">
<path d="M12.1009 11.5281C13.4211 12.1411 14.4348 13.0605 15.1421 14.2864C15.8965 15.4651 16.2737 16.8561 16.2737 18.4592C16.2737 20.8166 15.5193 22.7262 14.0105 24.1879C12.5017 25.6495 10.5685 26.3803 8.21105 26.3803C5.85356 26.3803 3.92042 25.6495 2.41163 24.1879C0.902835 22.7262 0.148438 20.8166 0.148438 18.4592C0.148438 17.3747 0.289887 16.2903 0.572786 15.2058C0.855685 14.1214 1.49221 12.5183 2.48235 10.3965L7.00873 0H15.425L12.1009 11.5281ZM30.6308 11.5281C31.951 12.1411 32.9647 13.0605 33.672 14.2864C34.4263 15.4651 34.8035 16.8561 34.8035 18.4592C34.8035 20.8166 34.0491 22.7262 32.5404 24.1879C31.0316 25.6495 29.0984 26.3803 26.7409 26.3803C24.3834 26.3803 22.4503 25.6495 20.9415 24.1879C19.4327 22.7262 18.6783 20.8166 18.6783 18.4592C18.6783 17.3747 18.8198 16.2903 19.1027 15.2058C19.3856 14.1214 20.0221 12.5183 21.0122 10.3965L25.5386 0H33.9548L30.6308 11.5281Z" fill="#64D370"/>
</svg>
