<svg width="72" height="13" viewBox="0 0 72 13" fill="none" xmlns="http://www.w3.org/2000/svg">
<path d="M6 0.159546L7.76336 3.73249L11.7063 4.30544L8.85317 7.0866L9.52671 11.0136L6 9.15955L2.47329 11.0136L3.14683 7.0866L0.293661 4.30544L4.23664 3.73249L6 0.159546Z" fill="#FF9900"/>
<path d="M21 0.159546L22.7634 3.73249L26.7063 4.30544L23.8532 7.0866L24.5267 11.0136L21 9.15955L17.4733 11.0136L18.1468 7.0866L15.2937 4.30544L19.2366 3.73249L21 0.159546Z" fill="#FF9900"/>
<path d="M36 0.159546L37.7634 3.73249L41.7063 4.30544L38.8532 7.0866L39.5267 11.0136L36 9.15955L32.4733 11.0136L33.1468 7.0866L30.2937 4.30544L34.2366 3.73249L36 0.159546Z" fill="#FF9900"/>
<path d="M51 0.159546L52.7634 3.73249L56.7063 4.30544L53.8532 7.0866L54.5267 11.0136L51 9.15955L47.4733 11.0136L48.1468 7.0866L45.2937 4.30544L49.2366 3.73249L51 0.159546Z" fill="#FF9900"/>
<path d="M66 0.159546L67.7634 3.73249L71.7063 4.30544L68.8532 7.0866L69.5267 11.0136L66 9.15955L62.4733 11.0136L63.1468 7.0866L60.2937 4.30544L64.2366 3.73249L66 0.159546Z" fill="#FF9900"/>
</svg>
