<svg width="18" height="14" viewBox="0 0 18 14" fill="none" xmlns="http://www.w3.org/2000/svg">
<path d="M9 0.409546C4.03036 0.409546 0 7.15955 0 7.15955C0 7.15955 4.03022 13.9095 9 13.9095C13.9705 13.9095 18 7.15955 18 7.15955C18 7.15955 13.9706 0.409546 9 0.409546ZM9 11.6595C6.51518 11.6595 4.5 9.64486 4.5 7.15955C4.5 4.67437 6.51522 2.65955 9 2.65955C11.4852 2.65955 13.5 4.67423 13.5 7.15955C13.5 9.64472 11.4851 11.6595 9 11.6595Z" fill="#64D370"/>
<path d="M11.2498 7.15946C11.2498 8.40214 10.2426 9.40937 8.99991 9.40937C7.75723 9.40937 6.75 8.40214 6.75 7.15946C6.75 5.91678 7.75723 4.90955 8.99991 4.90955C10.2426 4.90955 11.2498 5.91678 11.2498 7.15946Z" fill="#64D370"/>
</svg>
