<svg width="925" height="600" viewBox="0 0 925 600" fill="none" xmlns="http://www.w3.org/2000/svg">
<g opacity="0.6" clip-path="url(#clip0_153_305)">
<path d="M889.464 39.2768C889.215 39.2768 888.967 39.2768 888.719 39.2768C878.785 35.7891 868.852 33.0487 858.919 30.5574C842.777 26.5714 826.387 24.3293 810.246 25.0766C794.352 25.5749 779.204 29.0627 765.297 35.0417C759.337 37.7821 753.874 41.0207 748.908 44.7576C748.163 45.2559 747.169 46.0033 746.176 46.5015C745.431 46.9998 744.438 46.7506 743.941 46.2524C743.444 45.505 743.444 44.7576 743.941 44.2594C744.686 43.2629 745.431 42.2664 746.176 41.2699C749.156 38.0312 752.632 35.5399 756.357 33.2978C765.297 27.817 775.479 24.0801 786.406 21.5889C799.567 18.5994 813.474 17.852 827.629 18.8485C838.804 19.5959 849.73 21.5889 860.657 24.5784C869.349 27.0697 877.792 30.5574 886.235 34.2943C887.229 34.7926 888.222 35.2908 889.215 36.0382C890.457 37.2838 890.457 38.0312 889.464 39.2768Z" fill="black"/>
<path d="M918.519 57.463C918.022 55.7191 917.029 54.4735 916.036 53.2278C910.821 46.7505 905.357 40.7715 899.646 34.7925C896.417 31.5538 893.437 28.3152 890.209 25.0766C889.216 24.08 888.719 23.0835 887.974 22.087C887.726 21.8379 887.974 21.3397 888.222 21.0905C888.471 20.8414 888.967 20.8414 889.216 21.0905C890.209 21.5888 891.451 22.3362 892.196 23.0835C900.391 30.3082 908.337 37.782 915.539 45.754C917.774 48.2453 920.009 50.9857 921.996 53.7261C922.989 54.9717 923.734 55.9682 924.479 57.2138C925.969 60.2034 924.727 62.4455 921.996 62.9438C920.506 63.1929 918.767 63.1929 917.029 62.9438C910.324 62.1964 903.867 60.7016 897.162 58.9577C895.424 58.4595 893.934 58.2104 892.196 57.7121C890.954 57.7121 890.209 56.9647 890.209 55.9682C890.209 55.2208 890.706 54.2243 891.699 53.9752C892.444 53.7261 893.189 53.7261 893.686 53.7261C897.162 53.477 900.639 53.9752 904.116 54.4735C907.592 55.2208 910.821 55.9682 914.297 56.7156C915.787 57.2138 917.029 57.7121 918.519 57.463Z" fill="black"/>
</g>
<g opacity="0.6" clip-path="url(#clip1_153_305)">
<path d="M689.651 380.084C689.787 379.284 689.81 378.782 690.038 378.187C690.402 374.578 690.971 370.877 692.134 367.403C692.841 365.118 694.051 362.856 695.649 360.912C696.609 359.747 697.659 358.786 698.71 357.826C702.981 354.693 708.488 355.442 711.941 359.322C715.485 363.408 715.945 368.868 713.023 373.371C711.835 375.131 710.351 376.777 708.684 378.012C705.029 380.87 700.826 382.496 696.348 383.505C695.639 383.574 694.725 383.735 694.109 384.009C694.086 384.512 694.064 385.014 694.041 385.517C694.294 388.852 694.959 392.004 695.715 395.362C696.906 400.249 698.302 405.045 700.201 409.864C703.703 419.387 708.963 427.881 715.571 435.528C721.036 441.714 727.46 446.734 734.842 450.589C739.665 453.12 744.602 455.355 749.561 457.087C751.253 457.565 752.83 458.34 754.407 459.116C755.001 459.344 755.687 459.777 756.167 460.302C756.258 460.508 756.441 460.919 756.327 461.216C756.213 461.513 755.802 461.696 755.597 461.788C754.797 461.651 753.997 461.515 753.197 461.378C747.918 460.035 742.867 458.098 737.93 455.863C732.307 453.195 727.004 450.138 722.135 446.396C714.454 440.212 708.44 432.793 703.477 424.413C700.755 419.961 698.353 415.12 696.66 410.21C695.241 405.916 693.913 401.828 692.494 397.534C691.258 393.652 690.524 389.792 690.202 385.749C690.225 385.246 690.042 384.835 690.064 384.333C688.762 384.174 687.254 384.107 685.951 383.948C679.941 383.176 674.204 380.805 669.016 377.451C661.678 372.592 655.916 366.292 651.525 358.643C646.378 349.852 643.471 340.557 642.62 330.346C642.298 326.303 642.478 322.282 643.367 318.192C644.735 312.412 647.383 307.292 651.31 302.834C651.744 302.148 652.475 301.577 653.297 301.211C653.503 301.119 653.8 301.233 653.892 301.439C653.983 301.644 654.075 301.85 653.961 302.147C653.847 302.444 653.641 302.535 653.321 302.924C650.855 306.238 648.869 310.078 647.364 314.442C645.63 319.401 645.404 324.427 645.773 329.681C646.945 341.719 650.881 352.772 658.405 362.475C662.772 368.41 668.305 373.089 675.002 376.51C679.139 378.608 683.618 379.815 688.234 380.222C688.44 380.131 688.942 380.153 689.651 380.084ZM693.901 379.669C694.403 379.691 694.495 379.897 694.7 379.805C699.567 379.116 703.885 377.193 707.356 373.924C708.407 372.963 709.252 372.095 709.914 370.815C711.466 367.661 710.71 364.303 707.989 362.067C706.343 360.584 704.332 360.494 702.482 361.318C701.66 361.684 700.723 362.347 699.992 362.919C698.736 363.971 697.868 365.342 697.298 366.828C695.335 370.165 694.56 373.957 693.991 377.659C693.968 378.161 693.832 378.961 693.901 379.669Z" fill="black"/>
<path d="M776.849 466.361C776.277 465.631 775.705 464.9 775.134 464.17C773.419 461.978 771.704 459.787 769.989 457.595C769.509 457.07 769.326 456.659 769.051 456.042C768.868 455.631 768.593 455.015 768.616 454.512C768.456 453.599 768.889 452.913 769.712 452.547C770.329 452.272 771.037 452.203 771.517 452.728C774.718 455.489 778.032 457.954 780.593 461.492C781.074 462.017 781.44 462.84 781.714 463.456C782.721 465.717 782.219 467.91 780.232 469.534C779.707 470.014 779.296 470.197 778.679 470.472C774.545 472.805 770.044 474.317 765.269 475.212C764.56 475.281 764.058 475.259 763.555 475.236C763.052 475.214 762.869 474.803 762.595 474.186C762.617 473.684 762.64 473.181 763.051 472.998C763.668 472.723 764.285 472.449 764.901 472.174C766.638 471.647 768.374 471.12 769.813 470.479C771.047 469.93 772.486 469.289 773.72 468.74C774.953 468.191 775.981 467.733 776.849 466.361Z" fill="black"/>
</g>
<g opacity="0.6" clip-path="url(#clip2_153_305)">
<path d="M505.591 551.294C505.058 551.117 504.524 550.939 503.813 550.761C501.147 549.872 498.658 548.628 496.703 546.673C495.814 545.784 494.747 544.718 494.214 543.474C493.858 542.763 493.681 541.874 493.503 540.985C493.147 538.497 494.569 536.541 497.058 536.008C498.125 535.653 499.369 535.83 500.436 536.008C503.28 536.719 505.235 538.319 506.658 540.985C507.546 542.763 508.258 544.718 508.613 546.673C508.791 547.206 508.791 547.917 508.969 548.628C509.502 548.984 510.035 548.984 510.568 548.984C516.257 549.517 521.59 548.273 526.568 545.606C530.301 543.474 533.678 540.807 536.345 537.608C545.233 526.943 550.566 514.856 552.166 500.992C553.055 493.527 552.344 486.239 550.211 479.129C548.789 474.508 546.655 470.242 543.989 466.154C542.033 463.132 539.722 460.111 537.234 457.444C529.945 449.623 521.235 445.002 510.924 443.58C507.013 443.047 532.391 461.934 528.48 462.112C525.281 462.29 513.591 453.161 510.568 453.872C509.146 454.405 512.938 457.96 511.515 459.204C536.936 473.26 530.386 460.529 506.184 451.223C535.16 466.346 519.529 462.467 520.24 462.112C521.485 461.579 532.078 458.751 508.613 447.571C511.102 446.86 512.346 452.596 514.835 452.418C520.168 452.062 509.502 441.269 514.835 442.514C521.768 443.936 527.99 446.957 533.501 451.223C538.478 455.134 542.389 459.933 545.944 465.443C547.544 467.931 548.966 470.42 550.211 473.264C553.944 481.618 555.366 490.505 554.833 499.748C554.122 510.946 550.566 521.255 544.878 530.854C542.389 534.942 539.545 538.852 536.167 542.229C530.301 547.917 523.546 551.294 515.368 552.183C513.946 552.361 512.524 552.361 511.102 552.361C510.568 552.361 510.213 552.183 509.68 552.183C509.324 552.894 509.324 553.427 509.324 553.783C509.146 560.537 507.546 567.114 504.702 573.335C502.747 577.601 500.08 581.689 496.703 585.066C496.347 585.422 495.814 585.955 495.458 586.31C495.103 586.488 494.747 586.666 494.392 586.666C493.858 586.666 493.325 586.133 493.503 585.599C493.681 585.244 493.858 584.888 494.036 584.533C495.103 582.4 496.525 580.445 497.947 578.49C503.28 571.024 505.769 562.67 505.769 553.605C505.769 552.539 505.769 552.005 505.591 551.294ZM505.235 547.562C505.235 546.673 504.88 545.784 504.702 544.895C504.347 543.651 503.813 542.407 502.924 541.341C501.858 539.919 500.436 539.208 498.658 539.385C497.414 539.563 497.058 540.096 497.414 541.163C497.591 541.874 497.947 542.585 498.48 543.296C500.08 545.429 502.213 546.851 504.702 547.562C504.88 547.562 505.058 547.562 505.235 547.562Z" fill="black"/>
<path d="M496.347 595.376C495.103 596.442 493.68 597.509 492.258 598.22C491.547 598.575 491.014 598.931 490.303 599.108C488.703 599.464 487.459 599.108 486.214 598.042C485.325 597.331 484.792 596.442 484.259 595.376C483.192 593.243 482.659 590.932 481.948 588.621C481.948 588.444 481.948 588.088 481.77 587.91C481.77 587.377 481.948 587.022 482.481 586.844C483.014 586.666 483.37 586.666 483.725 587.022C484.081 587.555 484.614 587.91 484.792 588.444C485.681 590.043 486.57 591.643 487.281 593.065C487.636 593.776 487.992 594.487 488.525 595.02C488.881 595.553 489.236 595.731 489.947 595.553C491.192 595.198 492.081 594.309 493.147 593.776C493.858 593.42 494.392 592.887 495.103 592.532C495.458 592.354 495.814 592.176 495.991 591.998C496.702 591.821 497.236 591.821 497.591 592.354C497.947 592.709 497.947 593.42 497.591 593.954C497.414 594.131 497.236 594.487 497.058 594.665C497.058 594.842 496.703 595.198 496.347 595.376Z" fill="black"/>
</g>
<g opacity="0.6" clip-path="url(#clip3_153_305)">
<path d="M200.319 443.33C200.386 443.092 200.69 442.92 200.69 442.92C208.961 438.054 216.894 432.578 224.421 426.73C236.709 417.597 247.913 406.871 257.057 395.305C265.964 383.672 272.708 370.656 276.479 357.314C278.096 351.596 279.002 345.678 279.369 339.864C279.402 338.844 279.435 337.824 279.704 336.871C279.906 336.157 280.345 335.509 281.121 335.471C281.898 335.433 282.54 335.872 282.575 336.654C282.779 337.74 283.219 338.894 283.186 339.914C283.595 343.889 283.463 347.968 282.791 352.152C281.347 361.778 277.877 371.345 273.291 380.34C267.558 391.584 260.001 402.055 250.991 411.343C244.006 418.888 235.972 425.622 227.364 431.679C220.41 436.402 212.882 440.449 205.42 444.257C204.508 444.772 203.428 444.981 202.28 445.428C201.03 445.332 200.624 444.96 200.319 443.33Z" fill="black"/>
<path d="M170.333 453.635C171.922 454.342 173.475 454.266 174.793 454.124C182.426 454.224 189.958 453.78 197.558 453.098C201.746 452.738 205.698 452.311 209.886 451.952C210.966 451.743 212.149 452.077 213.399 452.173C213.635 452.24 213.974 452.85 213.906 453.088C213.839 453.326 213.704 453.803 213.4 453.974C212.252 454.422 211.172 454.631 210.091 454.84C200.128 456.655 190.131 457.688 180.268 458.245C177.161 458.395 173.884 458.241 170.844 458.154C169.594 458.058 168.041 458.133 166.858 457.799C164.02 456.996 162.836 454.861 164.219 452.679C165.096 451.383 165.973 450.087 167.019 449.097C171.575 444.724 176.47 440.962 181.364 437.2C182.647 436.276 183.93 435.352 185.213 434.429C186.124 433.914 186.968 433.638 187.61 434.077C188.253 434.516 188.524 435.365 188.018 436.251C187.816 436.965 187.208 437.308 187.073 437.785C185.083 440.309 182.855 442.767 180.223 444.853C177.59 446.939 175.261 448.853 172.628 450.939C171.886 451.759 170.907 452.511 170.333 453.635Z" fill="black"/>
</g>
<g opacity="0.6" clip-path="url(#clip4_153_305)">
<path d="M116.333 59.8788C116.721 60.5654 116.815 61.0549 117.204 61.7415C118.85 64.9775 120.051 68.5533 120.805 72.4688C121.276 74.916 121.501 77.4107 120.986 80.0479C120.776 81.6113 120.319 83.2221 119.815 84.5883C117.505 89.8556 111.916 92.709 106.606 91.7016C101.297 90.6941 98.1814 86.4721 98.3772 80.8507C98.4461 78.5532 99.0554 76.4054 100.158 74.1626C102.069 69.4797 104.815 65.1437 108.441 61.3993C109.087 60.7673 109.732 60.1353 110.378 59.5033C110.037 59.0614 109.943 58.572 109.602 58.1301C107.556 55.4785 105.358 53.3639 103.161 51.2494C99.494 48.1488 95.8274 45.0482 91.7146 42.2873C83.83 37.2075 75.0424 34.0784 65.3517 32.8998C57.5288 32.1228 49.5427 33.1539 41.3934 35.993C36.6025 37.6774 31.3655 39.7016 26.2227 42.2153C24.2969 42.8401 22.6649 43.6622 21.0329 44.4842C20.293 44.6268 19.5532 44.7693 19.0599 44.8644C18.8133 44.9119 18.4724 44.4699 18.4252 44.2252C18.3781 43.9805 18.5304 43.4436 18.777 43.396C19.4226 42.7641 20.3619 42.3293 21.0075 41.6973C26.0559 38.6942 31.4452 36.133 36.6822 34.1088C42.6591 31.9421 48.6831 30.02 54.6963 29.3691C64.2092 28.2977 73.1601 29.6188 81.6539 32.5507C86.3179 34.1902 90.8296 36.3665 94.9424 39.1274C98.4676 41.4938 101.793 44.1525 105.119 46.8112C108.151 49.2727 110.737 52.0739 113.123 55.1673C113.464 55.6093 113.758 55.8065 114.099 56.2484C115.484 55.4739 116.823 54.4546 117.961 53.7276C123.949 50.2897 130.22 48.3202 136.527 47.8664C145.84 47.0872 154.639 48.9453 162.828 52.9512C172.439 57.6983 180.654 64.4912 186.979 73.4246C189.706 76.96 191.788 81.1274 193.13 85.4373C195.095 91.6574 195.581 98.1627 194.247 104.511C193.942 105.585 193.884 106.611 193.039 107.536C192.84 107.828 192.593 107.875 192.299 107.678C192.053 107.726 191.958 107.236 191.958 107.236C191.911 106.991 192.064 106.455 192.016 106.21C192.6 101.275 192.198 96.5304 191.255 91.636C189.924 86.055 187.407 80.9563 184.244 76.4895C176.309 65.8359 166.426 58.3493 154.396 54.322C147.03 51.9341 139.501 51.3543 131.856 52.8273C126.923 53.7776 122.426 55.6593 117.871 58.5673C117.425 58.9071 116.979 59.2468 116.333 59.8788ZM112.812 62.8415C112.365 63.1813 112.119 63.2288 112.119 63.2288C108.245 67.0207 105.253 71.4042 103.683 76.529C103.179 77.8951 102.969 79.4585 102.958 80.7296C103.172 84.4954 105.663 86.8072 109.257 86.8761C111.571 86.9379 113.403 85.8237 114.846 84.0227C115.445 83.146 115.996 82.0246 116.301 80.9507C116.758 79.3398 116.921 77.5318 116.837 75.7712C116.576 71.7607 115.376 68.185 113.881 64.412C113.588 64.2148 113.2 63.5281 112.812 62.8415Z" fill="black"/>
<path d="M8.6806 49.402C9.71422 49.4567 10.7478 49.5114 11.8286 49.8107C14.9766 50.2194 17.878 50.6756 21.0261 51.0843C21.8131 51.1865 22.3535 51.3362 22.8938 51.4859C23.4342 51.6356 24.0218 52.03 24.3627 52.4719C24.9974 53.111 25.1388 53.8452 24.8342 54.9191C24.4824 55.7483 24.0363 56.088 23.0498 56.2781C18.6687 56.107 13.8887 56.5203 9.11947 55.6626C8.33247 55.5604 7.54546 55.4582 6.71131 55.1113C4.16169 53.8259 2.99749 51.766 3.26586 49.1763C3.37103 48.3946 3.52335 47.8576 3.67567 47.3207C5.24602 42.1959 7.94429 37.6152 10.9835 33.4764C11.629 32.8444 12.2746 32.2124 12.7207 31.8727C13.2139 31.7776 13.7072 31.6826 14.2947 32.077C14.8822 32.4714 14.9765 32.9608 14.8242 33.4978C14.4253 34.0823 14.0735 34.9115 13.6745 35.4959C12.7243 37.2018 11.7742 38.9077 10.824 40.6136C10.367 42.2245 9.61626 43.6381 9.1593 45.249C8.85466 46.3229 8.35055 47.689 8.6806 49.402Z" fill="black"/>
</g>
<defs>
<clipPath id="clip0_153_305">
<rect width="181.283" height="44.5936" fill="white" transform="translate(743.693 18.5997)"/>
</clipPath>
<clipPath id="clip1_153_305">
<rect width="76.7462" height="206.078" fill="white" transform="translate(629.857 311.648) rotate(-24.0029)"/>
</clipPath>
<clipPath id="clip2_153_305">
<rect width="72.707" height="158.016" fill="white" transform="translate(481.947 441.27)"/>
</clipPath>
<clipPath id="clip3_153_305">
<rect width="87.2484" height="149.292" fill="white" transform="translate(203.616 313.305) rotate(15.7842)"/>
</clipPath>
<clipPath id="clip4_153_305">
<rect width="180.329" height="108.66" fill="white" transform="translate(0.143066 34.2961) rotate(-10.9054)"/>
</clipPath>
</defs>
</svg>
