<svg width="236" height="240" viewBox="0 0 236 240" fill="none" xmlns="http://www.w3.org/2000/svg">
<g opacity="0.5">
<path d="M12.4639 152.461C17.7844 158.247 23.882 162.643 30.3167 165.685C35.8371 168.354 41.0517 169.94 46.1977 170.646C52.4609 171.486 57.5383 171.311 62.3099 170.053C63.19 169.984 64.0357 169.475 64.6785 169.203C65.1186 169.169 65.3214 168.932 65.7615 168.897L66.4043 168.626C66.4386 169.066 66.4729 169.506 66.7444 170.149C66.7817 173.469 67.9019 176.482 69.2249 179.258C70.2765 181.39 71.5309 183.286 72.7854 185.181C74.7856 188.125 77.3944 190.358 81.0518 191.844C86.8094 194.717 93.3097 195.76 100.35 195.21C106.07 194.764 111.688 192.996 117.642 189.874C122.311 187.294 126.436 183.429 128.936 178.583C130.491 175.804 131.808 172.822 132.482 170.111C132.685 169.874 132.65 169.434 132.853 169.196L133.768 169.568C134.445 169.737 135.156 170.346 135.833 170.514C137.222 171.292 138.611 172.069 140.202 172.609C146.637 175.651 153.543 176.219 160.515 174.789C162.478 174.414 164.441 174.039 166.369 173.224C167.655 172.681 168.501 172.172 169.787 171.629C174.658 168.812 178.75 164.506 181.418 158.982C183.309 154.848 184.049 150.14 183.163 144.45C182.414 140.522 181.226 136.629 178.954 133.041C177.937 131.348 177.191 130.299 176.005 129.285C175.531 128.879 174.819 128.27 173.736 128.576C173.533 128.813 173.331 129.05 173.128 129.288C172.959 129.965 172.993 130.406 173.502 131.252C173.739 131.455 173.774 131.895 174.011 132.098C174.248 132.301 174.045 132.538 174.282 132.741C176.623 137.209 177.846 141.543 178.426 146.149C179.624 158.68 170.526 166.92 161.152 168.759C158.106 169.44 154.823 169.918 151.234 169.312C149 169.043 147.171 168.3 145.342 167.557C142.836 166.645 140.059 165.09 137.282 163.535C137.045 163.332 136.807 163.129 136.57 162.927C136.333 162.724 136.096 162.521 135.859 162.318C135.147 161.709 134.91 161.506 134.807 160.185C135.038 154.63 133.51 149.213 130.661 143.898C130.118 142.612 129.372 141.563 128.389 140.31C127.88 139.464 127.169 138.855 126.457 138.246C126.22 138.044 125.983 137.841 125.509 137.435C125.474 136.994 125.677 136.757 125.44 136.554C125.911 134.081 127.06 131.777 128.446 129.675C130.846 126.387 133.517 123.743 136.46 121.741C137.711 120.757 139.2 119.977 141.163 119.602C142.146 120.854 143.297 121.429 144.212 121.8C144.449 122.003 144.686 122.206 144.686 122.206C145.16 122.612 145.398 122.815 145.229 123.493C145.026 123.73 145.263 123.933 145.06 124.17C145.095 124.61 144.689 125.085 144.723 125.525C144.589 126.643 144.658 127.524 145.369 128.133C146.081 128.741 146.555 129.147 147.875 129.044C148.315 129.01 149.195 128.941 149.838 128.67C150.278 128.635 150.481 128.398 150.447 127.958C150.649 127.72 150.615 127.28 150.344 126.637L150.106 126.434L148.515 125.894C148.481 125.454 148.684 125.216 148.649 124.776C148.852 124.539 148.852 124.539 148.818 124.098C149.492 121.388 148.915 119.661 146.815 118.275C146.577 118.072 146.34 117.869 146.103 117.666C145.866 117.463 145.629 117.26 145.392 117.057C145.392 117.057 145.392 117.057 145.154 116.854L145.357 116.617C145.797 116.583 146.237 116.548 146.677 116.514L147.117 116.48L147.557 116.445C147.997 116.411 148.235 116.614 148.437 116.376C148.877 116.342 149.52 116.07 149.486 115.63C149.452 115.19 149.62 114.512 149.146 114.106C147.96 113.092 146.369 112.551 145.048 112.654C143.526 112.995 142.24 113.538 141.226 114.725C141.023 114.962 140.82 115.199 140.82 115.199C140.38 115.234 139.94 115.268 139.94 115.268C139.06 115.337 138.18 115.405 137.3 115.474C134.694 116.121 132.36 117.41 129.654 119.615C125.494 123.04 122.722 127.243 120.9 132.258C120.697 132.495 120.934 132.698 120.731 132.935L120.494 132.732C120.697 132.495 120.46 132.292 120.662 132.055C122.385 128.598 123.194 124.77 123.088 120.57L123.222 119.452C123.153 118.572 123.322 117.894 123.253 117.014C123.219 116.573 123.388 115.896 123.116 115.253C122.845 114.609 122.776 113.729 122.742 113.289C122.164 111.562 121.79 109.598 121.213 107.871C119.55 103.571 118.969 98.9658 119.032 94.0884C119.295 86.0949 121.792 78.3699 126.32 71.1507C126.32 71.1507 126.32 71.1506 126.523 70.9133C127.712 74.807 128.663 78.4978 129.852 82.3915L130.532 85.4391C130.872 86.9628 131.415 88.2493 131.755 89.7731C132.027 90.4163 132.298 91.0595 132.57 91.7027C132.604 92.143 133.518 92.5146 133.958 92.4802C134.398 92.4459 135.041 92.1742 135.21 91.4966C135.378 90.819 135.547 90.1415 135.276 89.4982C134.73 85.3329 133.947 80.9645 132.723 76.6305C132.078 74.0233 131.229 71.6533 130.346 68.8431L129.734 66.6761C129.734 66.6761 129.497 66.4731 129.7 66.2358C131.828 62.3046 139.066 55.7598 143.126 53.8925C143.126 53.8925 143.126 53.8925 143.16 54.3328L143.266 58.5325C143.269 61.4115 143.509 64.4933 143.715 67.1349C143.784 68.0155 143.852 68.8961 143.921 69.7766L143.989 70.6571C144.024 71.0974 144.058 71.5377 144.295 71.7406C144.532 71.9436 145.007 72.3495 145.684 72.5181C146.124 72.4837 146.767 72.2121 146.935 71.5345C147.104 70.8569 147.272 70.1793 147.238 69.7391L147.169 68.8585C147.201 66.4199 147.029 64.2185 147.061 61.7799C146.923 60.0188 146.989 58.0204 146.852 56.2593C146.783 55.3788 146.68 54.058 146.612 53.1774C146.577 52.7372 146.543 52.2969 146.746 52.0596L146.712 51.6193C146.914 51.382 146.914 51.382 146.914 51.382C152.26 48.9714 156.76 47.0698 161.329 46.0487C162.852 45.7083 164.375 45.368 165.661 44.8246L166.744 44.5186C167.184 44.4843 167.827 44.2126 168.232 43.738C168.875 43.4663 169.246 42.5514 168.975 41.9082C168.906 41.0277 168.195 40.4188 167.315 40.4875C166.875 40.5219 166.198 40.3532 165.758 40.3876C165.318 40.4219 164.675 40.6936 164.235 40.728C162.712 41.0683 160.952 41.2057 159.429 41.5461C152.254 43.2135 145.623 46.1675 139.297 50.2049C133.614 53.9707 128.88 58.5483 124.925 64.6153C121.174 70.445 118.877 75.0538 117.257 79.8312C115.334 86.4041 114.189 91.5874 114.363 96.6677C108.026 89.1894 99.5937 86.0826 88.796 86.704C86.8331 87.0788 84.633 87.2505 82.4329 87.4223C81.1129 87.5253 79.3528 87.6627 78.0327 87.7658C76.9498 88.0718 76.0698 88.1405 74.9869 88.4465C73.904 88.7525 72.6182 89.2959 71.7725 89.8048L71.1296 90.0765C68.1181 91.1975 65.8181 92.9274 64.0267 95.5034C59.6324 101.605 57.2011 107.331 56.5985 113.801C56.0616 118.273 56.879 123.081 58.7793 127.584C59.0164 127.787 58.8136 128.024 59.0508 128.227C58.8136 128.024 58.8136 128.024 58.5764 127.821C52.9874 124.271 46.4184 122.348 39.2752 121.576C34.1635 121.311 28.9176 122.163 23.0974 124.168C19.6459 125.324 16.2286 126.919 12.6428 129.192C10.1057 130.719 8.24565 132.415 6.85996 134.516C5.67713 136.38 5.6115 138.379 6.42591 140.308C7.58339 146.641 9.58359 149.585 12.4639 152.461ZM19.9785 152.317C19.1328 152.826 18.4899 153.098 17.8127 152.929C14.0181 149.682 10.5949 145.52 9.4747 142.507C19.361 144.393 29.2816 146.719 38.965 148.842C45.0596 150.359 51.1543 151.877 57.2146 152.954C61.7177 153.931 65.1036 154.774 68.0495 155.652L66.3327 164.866C59.9726 168.463 48.7006 168.679 42.5717 166.721C45.7174 164.482 48.3889 161.838 50.8232 158.99C51.4317 158.278 51.8375 157.803 52.6832 157.294C53.0889 156.82 53.4946 156.345 53.9003 155.87C54.306 155.396 54.0346 154.753 53.7631 154.109C53.2888 153.703 52.6116 153.535 52.2059 154.009C51.563 154.281 50.9544 154.993 50.5487 155.468C48.8916 156.926 47.2344 158.384 45.7801 159.605C44.3258 160.826 42.6686 162.284 41.2143 163.505C40.8086 163.98 39.9629 164.489 39.5572 164.963L39.1514 165.438C34.174 164.055 24.2161 158.409 20.8615 155.128C24.1102 154.21 26.8503 152.445 29.3531 150.478C29.556 150.241 30.1989 149.969 30.6046 149.495C30.8075 149.257 30.976 148.58 30.9417 148.139C30.9074 147.699 29.993 147.328 29.7902 147.565C29.1473 147.837 28.5045 148.108 27.8616 148.38C27.0159 148.889 25.7301 149.432 24.8844 149.941C22.7529 150.993 21.4671 151.537 19.9785 152.317ZM63.8596 130.288C62.0623 127.106 61.0763 122.975 61.2076 118.978C61.4045 112.983 63.6329 107.494 68.23 101.155C69.2443 99.9685 70.0557 99.0193 71.3414 98.4759C71.5443 98.2386 71.9843 98.2043 72.1872 97.967L72.8301 97.6953C74.3187 96.9147 75.8073 96.1341 77.3302 95.7937C78.4131 95.4877 79.496 95.1817 80.5789 94.8756L81.2217 94.604C81.4246 94.3667 81.6618 94.5696 82.1018 94.5353C82.5418 94.5009 82.5418 94.5009 82.9818 94.4666C87.9906 93.4111 92.8651 93.4735 97.6054 94.6538C104.377 96.3399 109.526 99.9244 113.052 105.407C116.341 110.688 117.904 116.545 118.148 122.506C118.185 125.825 117.748 128.739 116.431 131.721L116.228 131.958C116.059 132.635 115.857 132.873 115.451 133.347C115.214 133.144 114.774 133.179 114.536 132.976C110.473 131.964 106.919 131.799 103.433 132.514C100.827 133.16 98.39 133.129 95.3099 133.369C94.6327 133.201 93.9898 133.473 93.3126 133.304L92.8726 133.338C87.7952 133.513 83.2951 135.415 79.7779 138.569C78.9665 139.518 78.3579 140.23 77.3093 140.976L76.4979 141.925C76.2951 142.163 75.8893 142.637 75.6865 142.874L75.4836 143.112C75.2465 142.909 75.2465 142.909 75.0093 142.706C70.0632 138.884 66.4028 134.519 63.8596 130.288ZM126.469 149.762C126.775 150.846 127.318 152.132 127.624 153.216C129.084 157.753 129.156 161.512 128.516 164.663C127.405 170.286 125.142 175.335 121.93 179.573C120.51 181.234 119.09 182.895 117.399 183.913C111.073 187.95 104.813 189.989 98.6183 190.03C93.1009 190.239 88.3606 189.059 83.7545 186.761C81.2144 185.409 79.5542 183.988 78.0969 182.33C73.8936 176.678 72.0933 170.618 73.1359 164.114C73.5386 160.76 74.4157 157.812 75.4956 154.628C77.3526 150.053 79.9211 146.087 83.6068 142.256C85.8726 140.086 88.4098 138.559 91.2527 138.116C92.1328 138.047 92.7756 137.775 93.6557 137.707L94.0957 137.672L94.8415 138.721C95.0787 138.924 95.0787 138.924 95.5187 138.89L96.3987 138.821C97.0416 138.55 97.9216 138.481 98.3617 138.447C100.527 137.835 102.728 137.663 105.639 138.1C106.316 138.269 106.994 138.437 107.434 138.403C108.111 138.571 108.551 138.537 109.228 138.706C109.465 138.909 109.905 138.874 109.905 138.874C111.022 139.009 111.699 139.177 112.782 138.871C113.662 138.802 114.102 138.768 114.577 139.174C120.706 141.132 124.297 144.616 126.469 149.762ZM64.2833 147.087C64.0118 146.444 64.1803 145.766 63.9089 145.123C63.6031 144.039 62.8573 142.99 62.5515 141.907C62.0429 141.06 61.7371 139.977 61.2285 139.131C63.803 140.923 70.6121 145.928 72.0694 147.586L69.2324 153.788C68.9952 153.585 68.7924 153.822 68.5552 153.619C67.878 153.45 67.2008 153.282 66.5237 153.113C65.6093 152.742 64.255 152.404 63.3406 152.033C59.7175 150.987 55.6544 149.975 52.0313 148.929L45.2595 147.243C38.0133 145.151 32.1559 143.837 26.0955 142.759C22.0668 142.188 18.2408 141.379 14.1777 140.368L11.9433 140.099C11.7061 139.896 11.5033 140.134 11.2661 139.931C11.6718 139.456 12.3147 139.184 12.5175 138.947C18.1319 134.301 25.0007 131.55 33.0896 130.254C33.9696 130.185 34.6468 130.354 34.9183 130.997C35.1898 131.64 35.6641 132.046 35.9356 132.689C36.4099 133.095 36.4442 133.535 36.9185 133.941C39.6302 137.495 41.8676 140.642 44.2736 143.112C44.9851 143.721 45.6965 144.33 46.1709 144.736C46.6452 145.142 47.2881 144.87 47.4909 144.633C47.6938 144.395 47.8623 143.718 47.828 143.278C47.5565 142.634 47.2851 141.991 46.5736 141.382C43.8276 137.389 40.6758 133.87 37.727 130.113C43.9559 130.513 50.0848 132.471 55.6738 136.021C56.1481 136.427 56.3853 136.63 56.6568 137.273C57.5055 139.643 58.7942 141.978 59.6429 144.348C60.1516 145.195 60.6602 146.041 60.7288 146.921C60.7631 147.362 61.2374 147.768 61.7118 148.173C61.9489 148.376 62.6261 148.545 63.0661 148.511C63.9119 148.002 64.3176 147.527 64.2833 147.087Z" fill="#B1CEA5"/>
<path d="M163.933 104.978C163.528 105.452 163.325 105.689 162.479 106.198C162.276 106.436 161.836 106.47 161.633 106.707L161.193 106.742C160.956 106.539 160.956 106.539 161.159 106.301C161.259 104.743 162.07 103.794 162.847 102.405C163.253 101.93 163.422 101.252 163.827 100.778C163.624 101.015 163.387 100.812 163.184 101.049L160.613 102.136C157.196 103.732 153.744 104.887 150.327 106.483C148.195 107.535 146.267 108.35 143.898 109.199L140.683 110.558C140.243 110.592 140.041 110.829 139.601 110.864C138.958 111.135 138.28 110.967 138.009 110.324C137.298 109.715 137.466 109.037 137.837 108.122C138.243 107.648 138.446 107.41 139.089 107.139C139.935 106.63 140.78 106.121 141.626 105.612L142.066 105.577C147.006 103.641 152.149 101.468 157.09 99.5319C159.018 98.7169 161.387 97.8676 163.553 97.2555C164.399 96.7465 165.279 96.6778 166.362 96.3718C167.95 94.033 169.064 91.2883 170.381 88.3063C172.576 82.3766 173.755 77.6335 174.258 72.7218L170.672 74.995C167.492 76.7936 164.549 78.7952 161.572 80.3565C158.392 82.1551 155.449 84.1566 152.066 86.1925L147.837 88.7374C147.634 88.9747 147.397 88.7718 147.397 88.7718L146.246 88.1973C146.043 88.4346 146.043 88.4346 145.84 88.6719C141.717 95.4166 138.812 100.737 136.549 105.786C135.603 107.854 134.42 109.718 133.44 111.345C133.035 111.819 132.663 112.734 132.257 113.209C131.852 113.683 131.683 114.361 131.277 114.836C130.669 115.548 130.026 115.819 129.552 115.413C128.874 115.245 128.366 114.398 128.5 113.281C128.669 112.603 128.837 111.925 129.006 111.248L129.209 111.011C130.963 105.115 133.868 99.7944 136.2 95.6258C138.937 90.9826 142.045 85.4245 145.188 80.3066C149.717 73.0873 153.671 67.0203 157.694 61.8337C159.114 60.1725 160.331 58.7486 161.751 57.0874L163.171 55.4263C163.577 54.9516 163.982 54.477 164.625 54.2053C165.031 53.7307 165.708 53.8993 165.945 54.1023C166.623 54.2709 166.691 55.1514 166.488 55.3887C166.32 56.0663 166.151 56.7439 165.746 57.2185C165.137 57.9305 164.968 58.6081 164.36 59.32C163.954 59.7946 163.548 60.2693 163.177 61.1842C158.648 68.4035 153.917 75.8601 149.151 82.8765C149.794 82.6048 150.403 81.8928 151.046 81.6212C152.737 80.6032 154.192 79.3823 155.883 78.3643C159.909 76.0568 163.935 73.7492 167.758 71.6789C169.449 70.661 171.581 69.6086 173.272 68.5907C173.475 68.3534 173.915 68.319 174.118 68.0817L174.321 67.8444C174.524 67.6071 174.286 67.4041 174.489 67.1668L174.352 65.4057C174.215 63.6446 173.841 61.6805 173.703 59.9195C173.635 59.0389 173.363 58.3957 173.295 57.5151C173.023 56.8719 172.954 55.9913 172.92 55.5511C172.817 54.2302 172.511 53.1467 172.443 52.2661C172.611 51.5886 172.78 50.911 173.423 50.6393C174.066 50.3677 174.743 50.5362 175.657 50.9078C176.132 51.3137 176.369 51.5167 176.64 52.16C177.386 53.2091 177.692 54.2926 177.795 55.6135L178.032 55.8164C178.338 56.8999 178.441 58.2208 178.746 59.3043C179.53 63.6727 179.398 67.6695 179.233 71.2261C178.259 78.6108 176.167 85.8613 172.722 92.7746C169.713 96.7746 167.348 100.503 163.933 104.978Z" fill="#B1CEA5"/>
<path d="M151.115 116.608C151.926 115.659 153.246 115.556 154.6 115.893C154.838 116.096 155.075 116.299 155.109 116.74C155.143 117.18 154.94 117.417 154.738 117.654C154.535 117.892 154.535 117.892 154.095 117.926L153.892 118.163C153.046 118.672 152.269 120.062 152.778 120.908C153.118 122.432 154.066 123.244 155.252 124.258C156.641 125.036 158.198 125.136 159.721 124.795C161.447 124.218 162.698 123.234 163.238 121.642C162.967 120.999 162.289 120.83 161.815 120.424C161.341 120.018 160.664 119.849 159.986 119.681C159.749 119.478 159.072 119.309 158.835 119.106C157.921 118.735 157.446 118.329 156.532 117.957C155.82 117.348 155.549 116.705 155.955 116.231C156.158 115.993 156.158 115.993 156.36 115.756L156.8 115.722C157.24 115.687 157.681 115.653 157.918 115.856C160.592 116.09 162.861 116.799 164.961 118.185C165.435 118.591 165.875 118.557 166.112 118.76C167.773 120.18 167.944 122.382 166.524 124.043C165.915 124.755 165.51 125.229 164.867 125.501C164.664 125.738 164.224 125.773 164.021 126.01C163.175 126.519 162.33 127.028 161.044 127.571C157.39 128.964 153.089 127.749 151.258 124.127C150.715 122.841 150.172 121.554 150.103 120.674C149.763 119.15 150.1 117.795 151.115 116.608Z" fill="#B1CEA5"/>
<path d="M159.762 133.873C160 134.076 160.237 134.279 160.474 134.482C160.711 134.685 160.711 134.685 160.948 134.888L161.185 135.091C161.151 134.65 160.914 134.447 160.88 134.007C160.642 133.804 160.608 133.364 160.371 133.161C160.134 132.958 160.1 132.518 160.065 132.078C159.794 131.434 159.759 130.994 159.488 130.351C159.419 129.47 159.588 128.793 160.231 128.521C160.874 128.249 161.551 128.418 162.262 129.027C163.72 130.685 164.534 132.615 164.671 134.376C164.774 135.696 164.64 136.814 164.269 137.729C164.1 138.407 163.457 138.678 163.051 139.153C162.849 139.39 162.611 139.187 162.409 139.425C161.766 139.696 161.088 139.528 160.377 138.919C159.903 138.513 159.191 137.904 158.717 137.498C158.243 137.092 157.971 136.449 157.497 136.043L157.26 135.84C157.057 136.077 156.854 136.315 156.211 136.586C155.365 137.095 154.248 136.961 153.537 136.352C153.299 136.149 153.028 135.506 153.231 135.269C153.196 134.829 153.399 134.591 153.602 134.354C153.805 134.117 153.805 134.117 154.245 134.082C154.685 134.048 154.888 133.811 155.294 133.336L155.496 133.099C156.308 132.149 157.391 131.843 158.339 132.655C159.017 132.824 159.491 133.23 159.762 133.873Z" fill="#B1CEA5"/>
<path d="M169.364 120.721C168.924 120.755 168.044 120.824 167.738 119.74C167.23 118.894 168.075 118.385 168.481 117.91C168.684 117.673 168.887 117.436 169.124 117.639C169.327 117.401 169.53 117.164 169.767 117.367C170.173 116.892 170.375 116.655 170.578 116.418C170.341 116.215 169.901 116.249 169.664 116.046C169.664 116.046 169.427 115.843 169.224 116.081L168.784 116.115C168.107 115.946 166.989 115.812 166.312 115.644C165.872 115.678 165.161 115.069 165.329 114.391C165.295 113.951 165.464 113.274 165.666 113.036C166.072 112.562 166.512 112.527 166.952 112.493C168.272 112.39 169.389 112.524 170.269 112.455C170.947 112.624 171.387 112.59 171.861 112.996C172.775 113.367 173.487 113.976 173.793 115.06C174.064 115.703 173.93 116.821 173.558 117.736C172.984 118.888 172.376 119.6 171.09 120.143C170.65 120.177 170.244 120.652 169.804 120.686C170.244 120.652 169.804 120.686 169.364 120.721Z" fill="#B1CEA5"/>
<path d="M154.224 113.93C153.819 114.405 153.616 114.642 153.413 114.88C153.007 115.354 152.567 115.388 152.33 115.186C151.89 115.22 151.619 114.577 151.381 114.374C151.076 113.29 151.447 112.375 152.021 111.223C152.427 110.748 153.07 110.477 153.95 110.408C154.39 110.374 154.864 110.78 155.304 110.745L155.541 110.948L155.744 110.711L155.947 110.474C156.15 110.236 156.15 110.236 156.116 109.796C156.487 108.881 157.13 108.61 157.57 108.575C158.01 108.541 158.45 108.506 159.399 109.318C160.347 110.13 161.33 111.382 161.468 113.143C161.502 113.584 161.333 114.261 161.13 114.498C160.928 114.736 160.928 114.736 160.725 114.973C160.725 114.973 160.522 115.21 160.285 115.007C159.405 115.076 159.133 114.433 158.659 114.027C158.422 113.824 158.625 113.587 158.387 113.384C158.15 113.181 158.353 112.944 158.116 112.741C157.136 114.367 156.696 114.402 154.224 113.93Z" fill="#B1CEA5"/>
<path d="M172.895 129.082C172.692 129.319 172.049 129.591 171.406 129.862C171.203 130.1 170.56 130.371 170.357 130.609C169.917 130.643 169.274 130.915 168.8 130.509C168.326 130.103 168.054 129.46 168.257 129.222C168.426 128.545 168.594 127.867 169 127.393C169.203 127.155 169.406 126.918 169.609 126.681C168.931 126.512 168.457 126.106 167.78 125.938C166.628 125.363 166.797 124.685 166.763 124.245C166.931 123.568 167.574 123.296 167.777 123.059C167.98 122.821 168.623 122.55 169.063 122.515C171.06 122.581 172.449 123.358 173.466 125.051C174.686 126.506 174.146 128.098 172.895 129.082Z" fill="#B1CEA5"/>
<path d="M160.021 120.122C160.935 120.494 161.241 121.577 161.073 122.255C160.904 122.932 160.498 123.407 160.093 123.881C159.89 124.119 159.89 124.119 159.45 124.153C159.247 124.39 159.01 124.188 159.01 124.188C157.893 124.053 156.775 123.919 155.827 123.107C155.352 122.701 154.844 121.855 155.012 121.178C155.181 120.5 155.587 120.025 156.467 119.957C157.347 119.888 157.99 119.616 158.87 119.548C159.107 119.751 159.344 119.953 160.021 120.122Z" fill="#B1CEA5"/>
<path d="M123.156 118.572C122.716 118.606 122.479 118.404 122.242 118.201C122.005 117.998 122.207 117.76 122.173 117.32C122.376 117.083 122.782 116.609 123.221 116.574C123.221 116.574 123.459 116.777 123.661 116.54C123.661 116.54 123.898 116.743 124.136 116.946C124.373 117.149 124.17 117.386 124.204 117.826C124.001 118.063 123.799 118.301 123.799 118.301C123.596 118.538 123.156 118.572 123.156 118.572Z" fill="#B1CEA5"/>
<path d="M80.9547 159.297C79.5004 160.518 79.1977 162.313 80.2149 164.006C80.4521 164.209 80.4864 164.649 80.7236 164.852C80.995 165.495 81.2665 166.138 81.3351 167.019C81.2352 168.577 81.981 169.626 82.9296 170.438C83.8783 171.25 85.2326 171.587 86.5526 171.484C87.4327 171.415 88.0755 171.144 89.1584 170.838C89.3613 170.6 89.8013 170.566 89.8013 170.566C91.2899 169.785 92.067 168.396 91.9641 167.075C91.7925 164.874 91.4525 163.35 91.1124 161.826C90.8752 161.623 90.8409 161.183 90.8409 161.183C90.0951 160.134 86.6063 157.97 85.2863 158.073C83.6948 157.533 82.1719 157.873 80.9547 159.297ZM82.8207 163.359C82.5835 163.156 82.5835 163.156 82.5492 162.716C82.0406 161.87 82.2092 161.192 83.0549 160.683C83.9006 160.174 84.3406 160.14 85.4578 160.274L85.9321 160.68C86.4065 161.086 86.8808 161.492 87.1179 161.695C87.3551 161.898 87.5923 162.101 87.6266 162.541C87.6609 162.981 87.6952 163.422 87.7295 163.862C88.001 164.505 87.8324 165.183 88.1039 165.826C88.2068 167.147 88.004 167.384 86.9211 167.69C86.2782 167.962 85.3982 168.031 84.9581 168.065C84.5181 168.099 84.281 167.896 84.2467 167.456C84.0095 167.253 83.9752 166.813 84.178 166.575C84.1094 165.695 83.5665 164.408 82.8207 163.359Z" fill="#B1CEA5"/>
<path d="M97.0642 158.703C96.8614 158.94 96.8614 158.94 96.8957 159.381C97.1329 159.584 97.5729 159.549 97.81 159.752C99.1987 160.53 99.7417 161.816 99.2017 163.409C98.8646 164.764 97.8503 165.95 96.8017 166.697C96.1589 166.968 95.956 167.206 95.076 167.274C94.4331 167.546 93.7559 167.377 93.2816 166.971C93.0444 166.768 92.8073 166.565 93.0101 166.328C92.9415 165.448 93.5844 165.176 94.2272 164.904L94.4301 164.667C95.2758 164.158 95.9187 163.886 96.3244 163.412C96.5273 163.174 96.493 162.734 96.493 162.734C96.2558 162.531 96.2558 162.531 95.7815 162.125C95.7815 162.125 95.7815 162.125 95.5443 161.922L95.3071 161.719C93.9185 160.942 93.6127 159.858 93.9498 158.503C94.1527 158.266 94.1184 157.826 94.1184 157.826C94.3212 157.588 94.0841 157.385 94.2869 157.148C93.644 157.42 93.4412 157.657 92.7983 157.929C92.3583 157.963 91.6811 157.794 91.444 157.592C91.2068 157.389 91.1382 156.508 91.341 156.271C91.9153 155.119 92.9639 154.372 94.2496 153.829C94.8925 153.557 95.5697 153.726 95.8068 153.929C96.9583 154.503 97.7041 155.553 97.367 156.908C97.4013 157.348 97.2328 158.026 97.0642 158.703Z" fill="#B1CEA5"/>
<path d="M80.1074 159.806C79.9045 160.044 79.7017 160.281 79.2616 160.315L78.8216 160.35C78.5845 160.147 78.3816 160.384 78.3816 160.384L78.1788 160.621C78.4159 160.824 78.4502 161.265 78.4502 161.265C79.4332 162.517 79.5361 163.838 78.9962 165.43C78.8276 166.108 78.4219 166.582 78.2533 167.26L78.2876 167.7L80.082 168.003C80.082 168.003 80.3192 168.206 80.5563 168.409L80.5907 168.849C80.4221 169.527 79.9821 169.561 79.5764 170.036C78.9335 170.307 78.4935 170.342 78.0534 170.376C77.1734 170.445 76.2591 170.073 75.7504 169.227C75.2418 168.381 74.9703 167.738 75.3417 166.823C75.7132 165.908 75.8817 165.23 76.2874 164.756C77.3017 163.569 77.0302 162.926 76.0816 162.114C75.8444 161.911 75.6072 161.708 75.5729 161.268C75.3014 160.625 75.2328 159.744 75.4014 159.066C75.5699 158.389 76.1785 157.677 76.8214 157.405C78.31 156.625 79.9015 157.165 80.6817 158.654C80.4788 158.892 80.5131 159.332 80.1074 159.806Z" fill="#B1CEA5"/>
<path d="M79.44 174.032C79.88 173.998 80.1171 174.201 80.3543 174.404C80.5915 174.607 80.5915 174.607 80.3886 174.844L80.4229 175.284C80.2201 175.522 80.2544 175.962 80.0515 176.199L80.2544 175.962C81.743 175.181 82.183 175.147 83.5717 175.924C83.8088 176.127 83.8088 176.127 84.046 176.33C84.2489 176.093 84.2146 175.653 84.1802 175.212L84.1459 174.772C84.1116 174.332 83.8745 174.129 83.8402 173.689C83.8059 173.248 84.2116 172.774 84.4144 172.536C84.8544 172.502 85.2945 172.468 85.7688 172.874C86.7174 173.685 87.0232 174.769 86.889 175.887C86.7547 177.005 86.1805 178.157 85.5719 178.869C85.3691 179.106 85.3691 179.106 85.1662 179.343C84.3205 179.852 83.2033 179.718 82.4918 179.109C82.2546 178.906 82.0174 178.703 81.7803 178.5C81.5774 178.738 81.3746 178.975 80.9689 179.45C79.9203 180.196 78.8031 180.062 78.0573 179.012C77.0743 177.76 76.9371 175.999 77.9514 174.813C78.9999 174.066 79.44 174.032 79.44 174.032Z" fill="#B1CEA5"/>
<path d="M87.8225 156.546C87.6197 156.783 87.6197 156.783 87.8225 156.546C87.1796 156.818 86.9425 156.615 86.9425 156.615C86.9425 156.615 86.9425 156.615 86.7053 156.412C86.4681 156.209 86.4681 156.209 86.4338 155.769C86.3995 155.328 86.6024 155.091 86.5681 154.651C86.9395 153.736 86.8709 152.855 86.3622 152.009C86.1937 152.687 85.9908 152.924 85.8223 153.602C85.0795 155.431 83.9966 155.737 83.3194 155.569C82.6422 155.4 82.2365 155.875 81.8308 156.349C81.6279 156.587 80.7479 156.655 80.5107 156.452C80.2736 156.249 79.7992 155.844 80.0021 155.606C80.102 154.048 80.7106 153.336 82.2335 152.996C82.6735 152.961 83.1136 152.927 83.1136 152.927L83.3164 152.69C83.485 152.012 83.6878 151.775 84.0935 151.3C84.8707 149.911 85.9535 149.605 87.3422 150.382C88.4937 150.957 89.2395 152.006 89.1053 153.124C89.2082 154.445 89.3111 155.765 87.8225 156.546Z" fill="#B1CEA5"/>
<path d="M90.1063 174.528C89.8692 174.325 90.072 174.088 90.072 174.088C90.2749 173.851 90.2749 173.851 90.4778 173.613L91.7978 173.51L92.2035 173.036C92.6092 172.561 92.8121 172.324 93.455 172.052C93.6579 171.815 93.6578 171.815 93.6235 171.374L93.3864 171.171C93.1492 170.969 92.9121 170.766 93.1149 170.528C93.0806 170.088 92.8091 169.445 93.2148 168.97C93.6205 168.495 94.2635 168.224 94.5006 168.427C94.9406 168.392 95.6178 168.561 96.0922 168.967C96.8037 169.576 97.3123 170.422 97.3809 171.303C97.4495 172.183 97.0781 173.098 96.4695 173.81C95.861 174.522 95.0152 175.031 93.9666 175.777C93.9666 175.777 93.9666 175.777 93.7638 176.014C92.918 176.523 91.598 176.627 90.6493 175.815C90.4121 175.612 90.175 175.409 90.1407 174.968C90.1063 174.528 90.1063 174.528 90.1063 174.528Z" fill="#B1CEA5"/>
<path d="M90.8257 112.681L91.0285 112.444L92.7543 111.866C91.297 110.208 91.6341 108.853 92.4112 107.464L91.9712 107.498C91.0912 107.567 90.1768 107.195 89.2282 106.383C88.7539 105.977 88.6853 105.097 89.091 104.622C89.2595 103.945 89.6995 103.91 90.1395 103.876C91.0196 103.807 92.1025 103.501 92.7454 103.229C93.1854 103.195 93.3882 102.958 93.8282 102.923C94.9111 102.617 96.0283 102.752 96.7398 103.361C97.4513 103.969 97.7571 105.053 97.6228 106.171C97.4543 106.848 97.2857 107.526 96.88 108.001C96.4743 108.475 96.5086 108.915 96.1029 109.39L95.9 109.627L96.1372 109.83C96.3744 110.033 96.6458 110.677 96.883 110.879C97.3916 111.726 97.4602 112.606 97.2917 113.284C97.1231 113.961 96.5146 114.673 95.8717 114.945C95.2288 115.217 94.586 115.488 93.7059 115.557C92.183 115.897 91.4372 114.848 90.6571 113.359C90.6228 112.919 90.6228 112.919 90.8257 112.681Z" fill="#B1CEA5"/>
<path d="M82.0958 120.006C82.5015 119.531 82.9415 119.497 83.6187 119.666C84.0587 119.631 84.2959 119.834 84.7702 120.24C85.0074 120.443 85.2445 120.646 85.4817 120.849C86.1902 118.579 86.3931 118.342 88.5246 117.289C88.5246 117.289 88.2874 117.086 88.2531 116.646C88.0159 116.443 88.0159 116.443 87.9816 116.003C87.4387 114.716 87.8444 114.242 88.453 113.53C89.2987 113.021 90.1787 112.952 90.8902 113.561C91.6017 114.17 92.3475 115.219 92.6533 116.303C93.0277 118.267 92.6906 119.622 90.7963 120.877C90.5934 121.114 90.1534 121.149 89.9506 121.386L89.9848 121.826C90.0192 122.267 89.8163 122.504 89.8506 122.944C89.4792 123.859 89.1078 124.774 88.2621 125.283C88.0592 125.52 87.822 125.317 87.6192 125.555C86.5363 125.861 85.4191 125.726 84.4704 124.915C83.7589 124.306 83.4874 123.662 83.0131 123.257L82.5388 122.851C82.3016 122.648 82.2673 122.207 82.233 121.767C81.7244 120.921 81.6901 120.481 82.0958 120.006Z" fill="#B1CEA5"/>
<path d="M70.05 121.612C70.3558 122.696 71.0673 123.305 71.9817 123.676C72.6589 123.845 73.5389 123.776 74.3846 123.267C74.5875 123.03 74.5875 123.03 74.7904 122.793C75.0275 122.996 75.2647 123.198 75.5019 123.401C76.4505 124.213 77.8049 124.551 78.8534 123.804C79.0563 123.567 79.4963 123.533 79.6992 123.295C80.9163 121.871 81.6591 120.042 81.5219 118.281C81.7248 118.043 81.4876 117.84 81.2161 117.197C81.2161 117.197 81.2162 117.197 80.979 116.994L81.419 116.96C82.5019 116.654 83.5848 116.348 84.4305 115.839C85.4791 115.092 86.5277 114.346 87.3048 112.957C87.6762 112.042 88.0476 111.127 87.979 110.246C88.1476 109.569 87.8761 108.925 87.6046 108.282C87.3332 107.639 86.656 107.47 85.9788 107.302C85.9102 106.421 85.6044 105.338 85.3329 104.695C85.5701 104.898 86.0101 104.863 86.4501 104.829C86.653 104.592 86.8902 104.794 87.093 104.557C88.5816 103.776 89.393 102.827 89.933 101.235C90.473 99.6423 90.1329 98.1185 89.3528 96.6291C88.8441 95.7829 88.1326 95.1741 87.2526 95.2428C86.5754 95.0742 85.7297 95.5831 85.1211 96.2951C84.9182 96.5324 84.5125 97.007 84.3097 97.2443C83.8354 96.8384 83.5982 96.6354 83.1239 96.2295C82.6495 95.8236 81.9724 95.655 81.2952 95.4864C80.618 95.3177 79.9751 95.5894 79.5694 96.064C78.3523 97.4879 78.0151 98.8431 78.3552 100.367C78.661 101.45 79.3725 102.059 80.4554 101.753C80.6582 101.516 80.8954 101.719 80.8611 101.279L81.6039 99.4488L81.8411 99.6518C82.0783 99.8547 82.0782 99.8547 82.3154 100.058C83.7384 101.275 84.4156 101.444 85.9042 100.663L85.7013 100.901C85.4985 101.138 85.4985 101.138 85.2956 101.375C85.0928 101.613 84.9242 102.29 84.7214 102.528C84.5185 102.765 84.7557 102.968 84.79 103.408C84.5528 103.205 84.0785 102.799 83.8413 102.596C82.8927 101.784 81.7754 101.65 80.6925 101.956C79.4068 102.5 78.5611 103.008 77.9868 104.161C78.1897 103.923 77.9525 103.72 78.1554 103.483C77.7467 101.079 75.3064 98.1687 72.632 97.9345C71.5148 97.8002 70.4319 98.1063 69.8233 98.8182C69.0119 99.7674 68.6405 100.682 68.9462 101.766C69.0149 102.646 69.2863 103.29 69.795 104.136C69.8293 104.576 70.3036 104.982 70.5408 105.185L70.7779 105.388L70.5751 105.625C70.1693 106.1 70.2037 106.54 70.0008 106.777C69.4265 107.93 68.8866 109.522 69.9039 111.214C71.124 112.67 72.6812 112.769 74.0013 112.666C74.4413 112.632 74.4413 112.632 74.6442 112.395C74.847 112.157 74.847 112.157 75.0499 111.92C75.2527 111.683 75.4213 111.005 74.947 110.599C74.7098 110.396 74.404 109.313 73.0496 108.976C72.8125 108.773 72.6096 109.01 72.3724 108.807C72.1353 108.604 72.3381 108.367 72.541 108.129C72.7439 107.892 72.9124 107.214 73.3524 107.18C74.1639 106.231 74.2981 105.113 73.7552 103.827C73.518 103.624 73.4837 103.183 73.2465 102.98C73.0094 102.777 72.975 102.337 72.7379 102.134C73.4151 102.303 73.9237 103.149 76.0925 105.416C76.3297 105.619 76.3296 105.619 76.7697 105.585C76.9725 105.347 77.4125 105.313 77.6154 105.076C77.2097 105.55 77.0411 106.228 76.6354 106.702L76.264 107.617L76.7384 108.023L76.264 107.617C75.1155 109.922 75.0499 111.92 76.7443 113.781C77.4901 114.83 78.2016 115.439 79.116 115.811C78.9131 116.048 78.9131 116.048 78.9131 116.048C78.7103 116.285 78.5074 116.523 78.5417 116.963L78.3388 117.2C78.136 117.437 78.1703 117.878 77.9674 118.115L77.7303 117.912C76.9845 116.863 75.8673 116.729 74.8187 117.475C74.6158 117.712 74.413 117.95 74.2101 118.187C74.0073 118.424 74.0072 118.424 73.8044 118.662L73.6015 118.899C73.5672 118.459 73.5672 118.459 73.5329 118.018C73.7358 117.781 73.7015 117.341 73.9043 117.103C74.1072 116.866 74.0729 116.426 74.2757 116.189C74.2414 115.748 74.2071 115.308 73.97 115.105C73.4956 114.699 73.2585 114.496 72.8184 114.531C71.9384 114.599 71.2955 114.871 71.127 115.548C70.0128 118.293 69.4728 119.886 70.05 121.612ZM81.41 108.323C81.6129 108.086 81.5786 107.645 81.7814 107.408L81.9843 107.171C81.9843 107.171 82.4243 107.136 82.4586 107.577C82.6958 107.78 82.7301 108.22 82.9673 108.423C82.4929 108.017 82.0529 108.051 81.41 108.323ZM84.5931 109.403L85.236 109.132C85.1017 110.249 84.7303 111.164 84.1218 111.876C83.3103 112.826 82.2618 113.572 80.7045 113.472C79.8245 113.541 79.3501 113.135 78.8758 112.729L80.4987 110.83C80.4987 110.83 80.7358 111.033 80.533 111.271C80.5673 111.711 80.8045 111.914 81.2788 112.32C81.7531 112.726 82.6331 112.657 83.276 112.385C83.4789 112.148 83.6817 111.911 83.8846 111.673C84.4932 110.961 84.4245 110.081 84.5931 109.403C84.5931 109.403 84.3902 109.641 84.5931 109.403Z" fill="#B1CEA5"/>
<path d="M84.2742 165.018C84.2399 164.578 84.2398 164.578 84.2398 164.578L84.4427 164.34C84.6456 164.103 84.4084 163.9 84.6113 163.663C84.8141 163.425 85.017 163.188 85.2198 162.951C85.4227 162.713 85.8627 162.679 86.0999 162.882C86.777 163.051 87.4886 163.66 87.5572 164.54C87.8286 165.183 87.6601 165.861 87.2544 166.335C87.0515 166.573 87.0515 166.573 86.8486 166.81C86.6458 167.047 86.2058 167.082 85.7658 167.116C84.8857 167.185 84.4114 166.779 84.3428 165.898C84.5113 165.221 84.2742 165.018 84.2742 165.018Z" fill="#B1CEA5"/>
</g>
</svg>
