<svg width="212" height="209" viewBox="0 0 212 209" fill="none" xmlns="http://www.w3.org/2000/svg">
<g opacity="0.5">
<path d="M75.9532 11.9747C70.9011 16.7357 67.0837 22.1693 64.4659 27.8868C62.1667 32.7926 60.8208 37.417 60.2514 41.9718C59.5751 47.5152 59.7823 52.0003 60.9427 56.2042C61.0125 56.9812 61.4706 57.7233 61.7171 58.2886C61.752 58.6771 61.9636 58.854 61.9985 59.2425L62.245 59.8078C61.8567 59.8426 61.4684 59.8775 60.9034 60.124C57.9738 60.1909 55.3256 61.2117 52.889 62.4093C51.0174 63.3604 49.3574 64.4883 47.6973 65.6163C45.1189 67.414 43.1753 69.7423 41.9013 72.9896C39.4254 78.107 38.5724 83.8621 39.1308 90.078C39.5845 95.1285 41.203 100.074 44.0213 105.304C46.3466 109.404 49.8019 113.01 54.1057 115.17C56.575 116.515 59.2211 117.648 61.6206 118.216C61.8322 118.393 62.2204 118.358 62.432 118.535L62.1135 119.347C61.9717 119.947 61.4417 120.582 61.2999 121.182C60.628 122.417 59.9561 123.653 59.4958 125.065C56.8781 130.782 56.4483 136.891 57.7833 143.037C58.1345 144.768 58.4856 146.499 59.2251 148.195C59.7181 149.325 60.1762 150.068 60.6692 151.198C63.2061 155.474 67.0496 159.046 71.9533 161.348C75.6224 162.977 79.7866 163.582 84.7995 162.741C88.2592 162.039 91.684 160.949 94.8273 158.905C96.3107 157.988 97.2291 157.318 98.1125 156.26C98.4659 155.837 98.996 155.202 98.7146 154.248C98.503 154.071 98.2914 153.894 98.0798 153.717C97.4799 153.575 97.0917 153.61 96.35 154.068C96.1733 154.28 95.785 154.315 95.6083 154.527C95.4316 154.738 95.22 154.561 95.0433 154.773C91.1233 156.887 87.3103 158.012 83.2507 158.572C72.202 159.759 64.8334 151.804 63.1124 143.538C62.4798 140.854 62.0239 137.957 62.5213 134.78C62.7351 132.802 63.3721 131.179 64.0091 129.555C64.7878 127.331 66.1316 124.861 67.4753 122.391C67.652 122.179 67.8287 121.967 68.0054 121.756C68.1821 121.544 68.3588 121.332 68.5355 121.121C69.0656 120.486 69.2423 120.274 70.4071 120.17C75.3131 120.317 80.0794 118.911 84.7411 116.339C85.871 115.846 86.7894 115.176 87.8844 114.294C88.6261 113.836 89.1562 113.201 89.6863 112.566C89.863 112.355 90.0397 112.143 90.3931 111.72C90.7813 111.685 90.9929 111.862 91.1696 111.65C93.3576 112.041 95.4037 113.032 97.2731 114.235C100.201 116.323 102.563 118.656 104.36 121.237C105.242 122.332 105.946 123.64 106.297 125.371C105.202 126.252 104.707 127.276 104.389 128.088C104.212 128.299 104.035 128.511 104.035 128.511C103.682 128.934 103.505 129.146 102.905 129.004C102.694 128.827 102.517 129.039 102.305 128.862C101.917 128.897 101.494 128.543 101.106 128.578C100.117 128.471 99.3409 128.54 98.8108 129.175C98.2807 129.81 97.9274 130.234 98.0321 131.399C98.067 131.788 98.1367 132.565 98.3832 133.13C98.4181 133.518 98.6297 133.695 99.018 133.66C99.2296 133.837 99.6179 133.802 100.183 133.556L100.36 133.344L100.82 131.932C101.208 131.897 101.42 132.074 101.808 132.039C102.02 132.216 102.02 132.216 102.408 132.181C104.807 132.749 106.326 132.222 107.528 130.352C107.704 130.14 107.881 129.928 108.058 129.717C108.234 129.505 108.411 129.293 108.588 129.082C108.588 129.082 108.588 129.082 108.764 128.87L108.976 129.047C109.011 129.435 109.046 129.824 109.081 130.212L109.116 130.601L109.151 130.989C109.185 131.378 109.009 131.589 109.22 131.766C109.255 132.155 109.502 132.72 109.89 132.685C110.278 132.65 110.878 132.792 111.232 132.369C112.115 131.311 112.575 129.899 112.471 128.733C112.154 127.391 111.661 126.26 110.603 125.376C110.392 125.199 110.18 125.023 110.18 125.023C110.145 124.634 110.11 124.246 110.11 124.246C110.041 123.469 109.971 122.692 109.901 121.915C109.303 119.618 108.141 117.569 106.167 115.2C103.1 111.559 99.3607 109.153 94.9151 107.593C94.7035 107.417 94.5268 107.628 94.3152 107.451L94.4919 107.24C94.7035 107.417 94.8802 107.205 95.0918 107.382C98.161 108.869 101.549 109.544 105.255 109.408L106.243 109.515C107.02 109.445 107.619 109.587 108.396 109.517C108.784 109.483 109.384 109.625 109.949 109.378C110.514 109.132 111.291 109.062 111.679 109.027C113.197 108.499 114.927 108.148 116.445 107.621C120.223 106.107 124.283 105.547 128.589 105.552C135.648 105.703 142.493 107.83 148.913 111.758C148.913 111.758 148.913 111.758 149.125 111.935C145.7 113.025 142.452 113.904 139.027 114.994L136.344 115.627C135.002 115.943 133.872 116.436 132.531 116.752C131.966 116.998 131.401 117.245 130.836 117.491C130.448 117.526 130.129 118.338 130.164 118.727C130.199 119.115 130.445 119.68 131.045 119.822C131.645 119.964 132.245 120.106 132.81 119.86C136.481 119.335 140.329 118.598 144.142 117.473C146.437 116.875 148.52 116.101 150.992 115.292L152.898 114.729C152.898 114.729 153.075 114.518 153.287 114.695C156.779 116.535 162.632 122.864 164.322 126.433C164.322 126.433 164.322 126.433 163.934 126.468L160.228 126.604C157.686 126.636 154.968 126.88 152.639 127.089C151.862 127.159 151.085 127.228 150.309 127.298L149.532 127.368C149.144 127.402 148.756 127.437 148.579 127.649C148.402 127.861 148.049 128.284 147.907 128.884C147.942 129.273 148.189 129.838 148.788 129.98C149.388 130.122 149.988 130.264 150.376 130.229L151.153 130.159C153.306 130.162 155.248 129.988 157.401 129.991C158.954 129.851 160.718 129.889 162.272 129.75C163.048 129.68 164.213 129.576 164.99 129.506C165.378 129.471 165.766 129.436 165.978 129.613L166.366 129.578C166.578 129.755 166.578 129.755 166.578 129.755C168.761 134.455 170.487 138.412 171.435 142.439C171.752 143.781 172.068 145.124 172.561 146.254L172.842 147.208C172.877 147.597 173.124 148.162 173.547 148.516C173.793 149.081 174.605 149.4 175.17 149.153C175.946 149.084 176.477 148.449 176.407 147.672C176.372 147.283 176.514 146.683 176.479 146.295C176.444 145.906 176.197 145.341 176.162 144.952C175.846 143.61 175.707 142.056 175.39 140.714C173.844 134.39 171.167 128.56 167.537 123.011C164.154 118.028 160.064 113.891 154.667 110.459C149.482 107.203 145.39 105.22 141.156 103.838C135.334 102.206 130.747 101.247 126.264 101.453C132.799 95.7758 135.454 88.2926 134.793 78.757C134.442 77.0262 134.268 75.0837 134.093 73.1412C133.988 71.9757 133.849 70.4217 133.744 69.2562C133.463 68.3024 133.393 67.5254 133.111 66.5716C132.83 65.6177 132.337 64.4871 131.879 63.7449L131.633 63.1796C130.612 60.5297 129.061 58.5149 126.768 56.9582C121.336 53.1374 116.256 51.0475 110.539 50.5812C106.586 50.1524 102.35 50.924 98.3949 52.6494C98.2182 52.8611 98.0066 52.6842 97.8299 52.8959C98.0066 52.6842 98.0066 52.6842 98.1833 52.4726C101.259 47.4972 102.889 41.6724 103.495 35.352C103.676 30.832 102.869 26.2049 101.039 21.0821C99.9833 18.0437 98.5393 15.0402 96.4953 11.8947C95.1211 9.66821 93.605 8.04187 91.7356 6.83883C90.0778 5.81264 88.313 5.77509 86.6181 6.51455C81.0403 7.60224 78.4619 9.39998 75.9532 11.9747ZM76.1582 18.614C75.7002 17.8719 75.4537 17.3065 75.5955 16.7064C78.4226 13.3198 82.0611 10.2521 84.7093 9.23129C83.1474 17.9872 81.1972 26.7779 79.4236 35.3569C78.1475 40.7584 76.8713 46.1598 75.9834 51.5264C75.1676 55.5158 74.4586 58.5166 73.7147 61.1289L65.5629 59.7061C62.3214 54.1224 62.0139 44.1635 63.6784 38.7272C65.6874 41.4842 68.0498 43.8179 70.5889 45.94C71.2237 46.4705 71.6469 46.8242 72.105 47.5663C72.5282 47.92 72.9513 48.2737 73.3745 48.6274C73.7977 48.981 74.3627 48.7346 74.9277 48.4881C75.2811 48.0647 75.4228 47.4646 74.9997 47.1109C74.7532 46.5456 74.1184 46.0151 73.6952 45.6614C72.3908 44.2119 71.0863 42.7624 69.9935 41.4897C68.9006 40.217 67.5961 38.7675 66.5033 37.4948C66.0801 37.1411 65.622 36.3989 65.1988 36.0453L64.7756 35.6916C65.9449 31.2788 70.8247 22.4212 73.6867 19.4231C74.5309 22.2846 76.1167 24.6879 77.8793 26.8796C78.0909 27.0565 78.3373 27.6218 78.7605 27.9755C78.9721 28.1523 79.572 28.2943 79.9603 28.2595C80.3486 28.2247 80.6671 27.4129 80.4555 27.236C80.209 26.6707 79.9625 26.1054 79.716 25.5401C79.2579 24.7979 78.765 23.6672 78.3069 22.925C77.3558 21.0522 76.8628 19.9215 76.1582 18.614ZM96.0608 57.1666C98.8508 55.5457 102.487 54.6321 106.017 54.7072C111.311 54.8198 116.18 56.7329 121.823 60.7305C122.881 61.6147 123.727 62.3221 124.22 63.4527C124.432 63.6296 124.467 64.0181 124.678 64.1949L124.925 64.7602C125.629 66.0677 126.334 67.3752 126.65 68.7176C126.932 69.6714 127.213 70.6252 127.494 71.5791L127.741 72.1444C127.952 72.3212 127.776 72.5329 127.811 72.9214C127.846 73.3099 127.846 73.3099 127.88 73.6984C128.864 78.1139 128.86 82.4221 127.867 86.6233C126.449 92.6248 123.339 97.2117 118.535 100.384C113.908 103.344 108.754 104.786 103.494 105.062C100.565 105.129 97.9887 104.772 95.3427 103.639L95.1311 103.462C94.5312 103.32 94.3196 103.143 93.8964 102.789C94.0731 102.578 94.0382 102.189 94.2149 101.978C95.0657 98.3767 95.1748 95.2339 94.5073 92.1608C93.9096 89.8646 93.9119 87.7105 93.6676 84.991C93.8094 84.3908 93.5628 83.8255 93.7046 83.2253L93.6698 82.8368C93.4626 78.3517 91.7371 74.3944 88.9166 71.3185C88.0703 70.6112 87.4355 70.0806 86.7658 69.1616L85.9194 68.4543C85.7079 68.2775 85.2847 67.9238 85.0731 67.7469L84.8615 67.5701C85.0382 67.3585 85.0382 67.3584 85.2149 67.1468C88.5372 62.7367 92.3524 59.4574 96.0608 57.1666ZM79.521 112.695C78.5678 112.976 77.4378 113.469 76.4845 113.75C72.4948 115.087 69.1769 115.189 66.3891 114.656C61.4134 113.731 56.9328 111.783 53.1591 108.989C51.6779 107.751 50.1968 106.513 49.2806 105.029C45.6509 99.4798 43.7858 93.9684 43.6855 88.4946C43.4434 83.621 44.436 79.4199 46.4167 75.326C47.5838 73.0674 48.8207 71.5857 50.2691 70.281C55.2144 66.5086 60.5457 64.8556 66.298 65.7104C69.2624 66.0319 71.8735 66.7768 74.6962 67.6985C78.7536 69.2928 82.2809 71.522 85.7012 74.7399C87.6405 76.7199 89.0147 78.9464 89.4357 81.4543C89.5055 82.2312 89.752 82.7966 89.8218 83.5736L89.8567 83.9621L88.9383 84.6319C88.7616 84.8435 88.7616 84.8435 88.7965 85.232L88.8663 86.009C89.1128 86.5744 89.1826 87.3514 89.2175 87.7399C89.7803 89.6475 89.9548 91.59 89.5992 94.1675C89.4574 94.7676 89.3156 95.3678 89.3505 95.7563C89.2087 96.3565 89.2436 96.7449 89.1018 97.3451C88.9251 97.5567 88.96 97.9453 88.96 97.9453C88.8531 98.9339 88.7113 99.5341 88.9927 100.488C89.0625 101.265 89.0974 101.653 88.744 102.077C87.0796 107.513 84.0409 110.723 79.521 112.695ZM81.2361 57.713C81.8011 57.4665 82.401 57.6085 82.9659 57.362C83.9192 57.0807 84.8376 56.4109 85.7909 56.1296C86.5325 55.6714 87.4858 55.3901 88.2275 54.932C86.6721 57.2254 82.3246 63.2939 80.8761 64.5987L75.3725 62.1551C75.5492 61.9434 75.3376 61.7666 75.5143 61.555C75.6561 60.9548 75.7979 60.3546 75.9397 59.7545C76.2582 58.9427 76.5418 57.7424 76.8603 56.9305C77.746 53.7181 78.5967 50.1171 79.4824 46.9047L80.9004 40.9031C82.6717 34.4782 83.7712 29.2885 84.659 23.9219C85.1215 20.3557 85.7956 16.9664 86.6464 13.3655L86.8602 11.3882C87.0369 11.1765 86.8253 10.9997 87.002 10.788C87.4251 11.1417 87.6716 11.707 87.8832 11.8838C92.0431 16.7977 94.5429 22.8396 95.7709 29.9746C95.8407 30.7515 95.6989 31.3517 95.134 31.5982C94.569 31.8447 94.2156 32.268 93.6506 32.5145C93.2972 32.9378 92.9089 32.9726 92.5555 33.3959C89.4471 35.8287 86.692 37.8381 84.5367 39.9895C84.0066 40.6245 83.4766 41.2595 83.1232 41.6828C82.7698 42.1061 83.0163 42.6715 83.2279 42.8483C83.4395 43.0251 84.0393 43.1671 84.4276 43.1323C84.9926 42.8858 85.5576 42.6393 86.0877 42.0044C89.5844 39.5368 92.6581 36.7156 95.9432 34.0712C95.6552 39.5798 93.9908 45.016 90.915 49.9914C90.5616 50.4147 90.3849 50.6264 89.8199 50.8729C87.7367 51.6472 85.6884 52.8099 83.6051 53.5842C82.8635 54.0424 82.1218 54.5005 81.3452 54.5701C80.9569 54.605 80.6035 55.0283 80.2502 55.4516C80.0735 55.6633 79.9317 56.2634 79.9666 56.6519C80.4246 57.3941 80.8478 57.7478 81.2361 57.713Z" fill="#C2D6BF"/>
<path d="M119.441 145.339C119.017 144.985 118.806 144.808 118.348 144.066C118.136 143.889 118.101 143.501 117.89 143.324L117.855 142.935C118.031 142.724 118.031 142.724 118.243 142.9C119.619 142.973 120.466 143.68 121.7 144.353C122.124 144.706 122.723 144.848 123.147 145.202C122.935 145.025 123.112 144.814 122.9 144.637L121.914 142.375C120.47 139.372 119.414 136.334 117.97 133.33C117.019 131.457 116.28 129.761 115.506 127.677L114.273 124.85C114.238 124.462 114.027 124.285 113.992 123.897C113.745 123.331 113.887 122.731 114.452 122.485C114.982 121.85 115.582 121.992 116.393 122.31C116.817 122.664 117.028 122.841 117.275 123.406C117.733 124.148 118.191 124.891 118.649 125.633L118.684 126.021C120.444 130.367 122.416 134.89 124.176 139.235C124.916 140.931 125.69 143.016 126.253 144.923C126.711 145.666 126.781 146.443 127.062 147.396C129.143 148.776 131.578 149.733 134.224 150.866C139.481 152.744 143.68 153.738 148.021 154.132L145.977 150.987C144.356 148.195 142.559 145.615 141.149 143C139.529 140.208 137.731 137.628 135.899 134.659L133.609 130.949C133.397 130.772 133.574 130.56 133.574 130.56L134.069 129.537C133.857 129.36 133.857 129.36 133.646 129.183C127.649 125.609 122.922 123.096 118.442 121.148C116.607 120.333 114.949 119.307 113.503 118.458C113.08 118.104 112.269 117.785 111.845 117.431C111.422 117.078 110.822 116.936 110.399 116.582C109.764 116.052 109.518 115.486 109.871 115.063C110.013 114.463 110.755 114.005 111.743 114.112C112.343 114.254 112.943 114.396 113.542 114.538L113.754 114.715C118.976 116.204 123.703 118.718 127.407 120.735C131.534 123.106 136.473 125.797 141.023 128.521C147.443 132.449 152.839 135.881 157.459 139.383C158.94 140.621 160.21 141.682 161.691 142.92L163.172 144.158C163.595 144.511 164.019 144.865 164.265 145.43C164.688 145.784 164.547 146.384 164.37 146.596C164.228 147.196 163.451 147.266 163.24 147.089C162.64 146.947 162.04 146.805 161.617 146.451C160.982 145.921 160.382 145.779 159.748 145.248C159.324 144.895 158.901 144.541 158.09 144.222C151.67 140.294 145.039 136.189 138.796 132.05C139.042 132.615 139.677 133.146 139.924 133.711C140.84 135.195 141.933 136.468 142.849 137.952C144.928 141.486 147.006 145.02 148.873 148.377C149.79 149.862 150.741 151.735 151.657 153.219C151.868 153.396 151.903 153.784 152.115 153.961L152.327 154.138C152.538 154.315 152.715 154.103 152.926 154.28L154.48 154.141C156.033 154.001 157.762 153.65 159.316 153.511C160.092 153.441 160.657 153.195 161.434 153.125C161.999 152.879 162.775 152.809 163.163 152.774C164.328 152.67 165.282 152.389 166.058 152.319C166.658 152.461 167.258 152.603 167.504 153.168C167.751 153.734 167.609 154.334 167.291 155.145C166.937 155.569 166.761 155.78 166.196 156.027C165.277 156.697 164.324 156.978 163.159 157.083L162.982 157.294C162.029 157.575 160.864 157.68 159.911 157.961C156.063 158.698 152.534 158.623 149.393 158.513C142.864 157.728 136.442 155.954 130.304 152.98C126.742 150.362 123.426 148.31 119.441 145.339Z" fill="#C2D6BF"/>
<path d="M109.04 134.133C109.887 134.84 109.991 136.005 109.708 137.206C109.531 137.417 109.354 137.629 108.966 137.664C108.578 137.699 108.366 137.522 108.155 137.345C107.943 137.168 107.943 137.168 107.908 136.78L107.697 136.603C107.239 135.861 106.004 135.188 105.262 135.646C103.921 135.962 103.214 136.809 102.33 137.867C101.658 139.103 101.586 140.48 101.903 141.822C102.431 143.341 103.312 144.437 104.723 144.898C105.288 144.652 105.43 144.051 105.783 143.628C106.137 143.205 106.279 142.605 106.42 142.004C106.597 141.793 106.739 141.193 106.916 140.981C107.234 140.169 107.588 139.746 107.906 138.934C108.436 138.299 109.001 138.052 109.424 138.406C109.636 138.583 109.636 138.583 109.847 138.76L109.882 139.148C109.917 139.537 109.952 139.925 109.775 140.137C109.597 142.503 108.994 144.515 107.793 146.385C107.439 146.808 107.474 147.197 107.297 147.409C106.06 148.89 104.119 149.064 102.638 147.826C102.003 147.296 101.58 146.942 101.333 146.377C101.122 146.2 101.087 145.812 100.875 145.635C100.417 144.893 99.9591 144.15 99.4661 143.02C98.1987 139.804 99.2262 135.992 102.405 134.336C103.535 133.843 104.664 133.35 105.441 133.281C106.783 132.964 107.982 133.248 109.04 134.133Z" fill="#C2D6BF"/>
<path d="M93.8893 141.954C93.7126 142.166 93.5359 142.377 93.3592 142.589C93.1825 142.801 93.1826 142.801 93.0059 143.012L92.8292 143.224C93.2175 143.189 93.3941 142.977 93.7824 142.943C93.9591 142.731 94.3474 142.696 94.5241 142.484C94.7008 142.273 95.0891 142.238 95.4774 142.203C96.0424 141.957 96.4306 141.922 96.9956 141.675C97.7722 141.606 98.3721 141.748 98.6186 142.313C98.8651 142.878 98.7233 143.479 98.1932 144.113C96.7447 145.418 95.0498 146.158 93.4966 146.297C92.3318 146.402 91.3436 146.294 90.5321 145.975C89.9323 145.833 89.6858 145.268 89.2626 144.914C89.051 144.738 89.2277 144.526 89.0161 144.349C88.7696 143.784 88.9114 143.184 89.4415 142.549C89.7949 142.125 90.3249 141.49 90.6783 141.067C91.0317 140.644 91.5967 140.397 91.9501 139.974L92.1268 139.762C91.9152 139.585 91.7036 139.409 91.4571 138.843C90.999 138.101 91.1059 137.112 91.636 136.477C91.8127 136.266 92.3777 136.019 92.5893 136.196C92.9775 136.161 93.1891 136.338 93.4007 136.515C93.6123 136.692 93.6123 136.692 93.6472 137.08C93.6821 137.469 93.8937 137.646 94.3169 137.999L94.5285 138.176C95.3749 138.883 95.6563 139.837 94.9495 140.684C94.8077 141.284 94.4543 141.707 93.8893 141.954Z" fill="#C2D6BF"/>
<path d="M105.598 150.302C105.563 149.913 105.494 149.136 106.447 148.855C107.189 148.397 107.647 149.139 108.07 149.493C108.281 149.67 108.493 149.847 108.316 150.058C108.528 150.235 108.74 150.412 108.563 150.624C108.986 150.977 109.198 151.154 109.409 151.331C109.586 151.119 109.551 150.731 109.728 150.519C109.728 150.519 109.904 150.307 109.693 150.131L109.658 149.742C109.8 149.142 109.907 148.153 110.048 147.553C110.013 147.165 110.544 146.53 111.143 146.672C111.532 146.637 112.132 146.779 112.343 146.956C112.766 147.309 112.801 147.698 112.836 148.086C112.941 149.252 112.834 150.24 112.904 151.017C112.762 151.618 112.797 152.006 112.444 152.429C112.125 153.241 111.595 153.876 110.642 154.158C110.077 154.404 109.089 154.297 108.277 153.978C107.254 153.482 106.619 152.952 106.126 151.821C106.091 151.433 105.668 151.079 105.633 150.69C105.668 151.079 105.633 150.69 105.598 150.302Z" fill="#C2D6BF"/>
<path d="M111.436 136.854C111.013 136.501 110.801 136.324 110.59 136.147C110.167 135.793 110.132 135.405 110.308 135.193C110.274 134.805 110.839 134.558 111.015 134.347C111.969 134.065 112.78 134.384 113.803 134.88C114.226 135.234 114.473 135.799 114.543 136.576C114.577 136.964 114.224 137.388 114.259 137.776L114.082 137.988L114.294 138.165L114.505 138.341C114.717 138.518 114.717 138.518 115.105 138.484C115.917 138.802 116.163 139.368 116.198 139.756C116.233 140.145 116.268 140.533 115.561 141.38C114.854 142.227 113.759 143.108 112.206 143.247C111.818 143.282 111.218 143.14 111.006 142.963C110.795 142.786 110.795 142.786 110.583 142.61C110.583 142.61 110.372 142.433 110.548 142.221C110.479 141.444 111.044 141.198 111.397 140.774C111.574 140.563 111.785 140.739 111.962 140.528C112.139 140.316 112.35 140.493 112.527 140.281C111.081 139.432 111.046 139.043 111.436 136.854Z" fill="#C2D6BF"/>
<path d="M98.2541 153.507C98.0426 153.33 97.7961 152.765 97.5496 152.199C97.338 152.022 97.0915 151.457 96.8799 151.28C96.845 150.892 96.5985 150.326 96.9519 149.903C97.3053 149.48 97.8703 149.233 98.0818 149.41C98.6817 149.552 99.2816 149.694 99.7048 150.048C99.9164 150.225 100.128 150.402 100.34 150.578C100.481 149.978 100.835 149.555 100.977 148.955C101.472 147.931 102.072 148.073 102.46 148.038C103.06 148.18 103.306 148.746 103.518 148.923C103.729 149.099 103.976 149.665 104.011 150.053C103.974 151.819 103.302 153.054 101.819 153.97C100.547 155.064 99.1354 154.603 98.2541 153.507Z" fill="#C2D6BF"/>
<path d="M106.03 142.039C105.711 142.851 104.758 143.132 104.158 142.99C103.558 142.848 103.135 142.495 102.712 142.141C102.5 141.964 102.5 141.964 102.465 141.575C102.254 141.399 102.431 141.187 102.431 141.187C102.537 140.198 102.644 139.21 103.351 138.363C103.704 137.94 104.446 137.482 105.046 137.624C105.646 137.766 106.069 138.119 106.139 138.896C106.209 139.673 106.455 140.239 106.525 141.016C106.348 141.227 106.172 141.439 106.03 142.039Z" fill="#C2D6BF"/>
<path d="M107.018 109.445C106.983 109.057 107.16 108.845 107.336 108.633C107.513 108.422 107.724 108.599 108.113 108.564C108.324 108.741 108.747 109.094 108.782 109.483C108.782 109.483 108.605 109.694 108.817 109.871C108.817 109.871 108.64 110.083 108.464 110.294C108.287 110.506 108.075 110.329 107.687 110.364C107.476 110.187 107.264 110.01 107.264 110.01C107.053 109.833 107.018 109.445 107.018 109.445Z" fill="#C2D6BF"/>
<path d="M70.634 72.5684C69.5411 71.2958 67.953 71.0466 66.4697 71.9629C66.293 72.1745 65.9047 72.2093 65.728 72.421C65.163 72.6675 64.598 72.914 63.8214 72.9836C62.445 72.9113 61.5266 73.5811 60.8198 74.4277C60.113 75.2744 59.8294 76.4747 59.9341 77.6402C60.0039 78.4172 60.2504 78.9825 60.5318 79.9364C60.7434 80.1132 60.7783 80.5017 60.7783 80.5017C61.4829 81.8093 62.7175 82.4818 63.8824 82.3773C65.8239 82.2032 67.1654 81.887 68.507 81.5709C68.6837 81.3592 69.072 81.3244 69.072 81.3244C69.9904 80.6546 71.8642 77.5493 71.7595 76.3838C72.2198 74.9718 71.9035 73.6295 70.634 72.5684ZM67.0673 74.259C67.244 74.0474 67.2441 74.0474 67.6323 74.0125C68.374 73.5544 68.9739 73.6964 69.432 74.4386C69.8901 75.1808 69.925 75.5693 69.8181 76.5579L69.4647 76.9812C69.1113 77.4046 68.7579 77.8279 68.5812 78.0396C68.4045 78.2512 68.2278 78.4629 67.8395 78.4977C67.4512 78.5326 67.063 78.5674 66.6747 78.6022C66.1097 78.8487 65.5098 78.7066 64.9448 78.9531C63.7799 79.0576 63.5683 78.8808 63.2869 77.927C63.0404 77.3616 62.9707 76.5846 62.9358 76.1961C62.9009 75.8076 63.0776 75.5959 63.4658 75.5611C63.6425 75.3495 64.0308 75.3146 64.2424 75.4915C65.019 75.4218 66.149 74.9288 67.0673 74.259Z" fill="#C2D6BF"/>
<path d="M71.3243 86.8009C71.1127 86.6241 71.1127 86.6241 70.7244 86.6589C70.5477 86.8706 70.5826 87.2591 70.4059 87.4707C69.734 88.7059 68.6041 89.1989 67.1927 88.738C65.9929 88.454 64.935 87.5698 64.2653 86.6508C64.0188 86.0854 63.8072 85.9086 63.7374 85.1316C63.4909 84.5663 63.6327 83.9661 63.9861 83.5428C64.1628 83.3311 64.3395 83.1195 64.5511 83.2963C65.3277 83.2266 65.5741 83.792 65.8206 84.3573L66.0322 84.5342C66.4903 85.2763 66.7368 85.8417 67.16 86.1953C67.3716 86.3722 67.7599 86.3373 67.7599 86.3373C67.9366 86.1257 67.9366 86.1257 68.29 85.7024C68.29 85.7024 68.29 85.7024 68.4667 85.4907L68.6433 85.279C69.3152 84.0439 70.2685 83.7626 71.4683 84.0466C71.6799 84.2234 72.0682 84.1886 72.0682 84.1886C72.2798 84.3655 72.4564 84.1538 72.668 84.3307C72.4215 83.7653 72.21 83.5885 71.9635 83.0231C71.9286 82.6346 72.0704 82.0345 72.2471 81.8228C72.4238 81.6112 73.2003 81.5415 73.4119 81.7183C74.435 82.214 75.1047 83.133 75.5977 84.2637C75.8442 84.8291 75.7023 85.4292 75.5256 85.6409C75.0304 86.6643 74.1121 87.3342 72.9123 87.0501C72.524 87.085 71.9242 86.943 71.3243 86.8009Z" fill="#C2D6BF"/>
<path d="M70.1754 71.8263C69.9638 71.6494 69.7522 71.4726 69.7173 71.0841L69.6824 70.6956C69.8591 70.484 69.6475 70.3071 69.6475 70.3071L69.436 70.1303C69.2593 70.3419 68.871 70.3768 68.871 70.3768C67.7759 71.2582 66.611 71.3627 65.1997 70.9018C64.5998 70.7598 64.1766 70.4061 63.5767 70.2641L63.1884 70.2989L62.9397 71.8878C62.9397 71.8878 62.763 72.0994 62.5863 72.3111L62.1981 72.3459C61.5982 72.2039 61.5633 71.8154 61.1401 71.4617C60.8936 70.8964 60.8587 70.5079 60.8238 70.1194C60.754 69.3424 61.0725 68.5306 61.8142 68.0724C62.5558 67.6143 63.1208 67.3678 63.9323 67.6867C64.7438 68.0055 65.3437 68.1475 65.7669 68.5012C66.8248 69.3854 67.3898 69.1389 68.0966 68.2923C68.2733 68.0806 68.45 67.8689 68.8383 67.8341C69.4032 67.5876 70.1798 67.5179 70.7797 67.66C71.3796 67.802 72.0144 68.3325 72.2609 68.8978C72.9655 70.2054 72.5052 71.6174 71.1985 72.322C70.9869 72.1451 70.5986 72.18 70.1754 71.8263Z" fill="#C2D6BF"/>
<path d="M57.6107 71.3874C57.6456 71.7759 57.4689 71.9876 57.2922 72.1992C57.1156 72.4109 57.1156 72.4109 56.904 72.2341L56.5157 72.2689C56.3041 72.0921 55.9158 72.1269 55.7042 71.95L55.9158 72.1269C56.6204 73.4344 56.6553 73.8229 55.9834 75.058C55.8067 75.2697 55.8067 75.2697 55.63 75.4814C55.8416 75.6582 56.2299 75.6234 56.6182 75.5885L57.0064 75.5537C57.3947 75.5189 57.5714 75.3073 57.9597 75.2724C58.348 75.2376 58.7712 75.5913 58.9828 75.7681C59.0177 76.1566 59.0526 76.5451 58.6992 76.9684C57.9924 77.8151 57.0391 78.0964 56.051 77.9892C55.0628 77.882 54.0397 77.3863 53.4049 76.8558C53.1934 76.679 53.1934 76.679 52.9818 76.5021C52.5237 75.76 52.6306 74.7713 53.1607 74.1363C53.3374 73.9246 53.5141 73.713 53.6908 73.5013C53.4792 73.3245 53.2676 73.1477 52.8444 72.794C52.1747 71.875 52.2816 70.8863 53.2 70.2165C54.2951 69.335 55.8482 69.1957 56.9062 70.0799C57.5759 70.9989 57.6107 71.3874 57.6107 71.3874Z" fill="#C2D6BF"/>
<path d="M73.1322 78.6099C72.9206 78.4331 72.9206 78.4331 73.1322 78.6099C72.8857 78.0446 73.0623 77.8329 73.0623 77.8329C73.0623 77.8329 73.0623 77.8329 73.239 77.6212C73.4157 77.4096 73.4157 77.4096 73.804 77.3748C74.1923 77.3399 74.4039 77.5168 74.7922 77.482C75.6037 77.8008 76.3802 77.7312 77.1219 77.273C76.522 77.131 76.3104 76.9542 75.7105 76.8121C74.0876 76.1744 73.8062 75.2206 73.948 74.6205C74.0898 74.0203 73.6666 73.6666 73.2434 73.3129C73.0318 73.1361 72.9621 72.3591 73.1388 72.1475C73.3155 71.9358 73.6688 71.5125 73.8804 71.6893C75.2569 71.7617 75.8917 72.2922 76.208 73.6345C76.2428 74.023 76.2777 74.4115 76.2777 74.4115L76.4893 74.5884C77.0892 74.7304 77.3008 74.9072 77.724 75.2609C78.9587 75.9334 79.24 76.8872 78.5682 78.1224C78.073 79.1459 77.1546 79.8157 76.1664 79.7085C75.0016 79.8129 73.8367 79.9174 73.1322 78.6099Z" fill="#C2D6BF"/>
<path d="M57.2818 80.8157C57.4585 80.604 57.6701 80.7809 57.6701 80.7809C57.8817 80.9577 57.8817 80.9577 58.0933 81.1345L58.198 82.3L58.6212 82.6537C59.0444 83.0074 59.256 83.1842 59.5024 83.7495C59.714 83.9264 59.714 83.9264 60.1023 83.8915L60.279 83.6799C60.4557 83.4682 60.6324 83.2566 60.844 83.4334C61.2323 83.3986 61.7973 83.1521 62.2205 83.5058C62.6436 83.8594 62.8901 84.4248 62.7134 84.6364C62.7483 85.0249 62.6065 85.6251 62.2531 86.0484C61.7231 86.6834 60.9814 87.1415 60.2048 87.2112C59.4282 87.2808 58.6168 86.962 57.982 86.4315C57.3472 85.901 56.8891 85.1588 56.2195 84.2398C56.2195 84.2398 56.2195 84.2398 56.0079 84.063C55.5498 83.3208 55.4451 82.1553 56.1519 81.3087C56.3286 81.097 56.5053 80.8853 56.8936 80.8505C57.2818 80.8157 57.2818 80.8157 57.2818 80.8157Z" fill="#C2D6BF"/>
<path d="M111.885 80.8112L112.096 80.988L112.624 82.5072C114.073 81.2024 115.272 81.4864 116.507 82.159L116.472 81.7705C116.402 80.9935 116.721 80.1817 117.428 79.335C117.781 78.9117 118.558 78.842 118.981 79.1957C119.581 79.3377 119.616 79.7262 119.65 80.1147C119.72 80.8917 120.002 81.8456 120.248 82.4109C120.283 82.7994 120.495 82.9762 120.53 83.3647C120.811 84.3186 120.704 85.3072 120.174 85.9422C119.644 86.5772 118.691 86.8585 117.702 86.7513C117.103 86.6093 116.503 86.4673 116.079 86.1136C115.656 85.7599 115.268 85.7948 114.845 85.4411L114.633 85.2642L114.457 85.4759C114.28 85.6876 113.715 85.9341 113.538 86.1457C112.796 86.6039 112.02 86.6735 111.42 86.5315C110.82 86.3895 110.185 85.8589 109.939 85.2936C109.692 84.7283 109.446 84.1629 109.376 83.3859C109.06 82.0436 109.978 81.3738 111.285 80.6692C111.673 80.6343 111.673 80.6343 111.885 80.8112Z" fill="#C2D6BF"/>
<path d="M105.328 73.1752C105.751 73.5289 105.786 73.9174 105.644 74.5175C105.679 74.906 105.502 75.1177 105.149 75.541C104.972 75.7527 104.796 75.9643 104.619 76.176C106.63 76.7789 106.842 76.9557 107.793 78.8285C107.793 78.8285 107.969 78.6169 108.358 78.582C108.534 78.3704 108.534 78.3704 108.923 78.3356C110.053 77.8426 110.476 78.1963 111.111 78.7268C111.569 79.4689 111.638 80.2459 111.108 80.8809C110.578 81.5159 109.66 82.1857 108.707 82.467C106.977 82.8179 105.777 82.5339 104.649 80.8728C104.438 80.6959 104.403 80.3074 104.191 80.1306L103.803 80.1654C103.415 80.2002 103.203 80.0234 102.815 80.0582C102.003 79.7394 101.192 79.4205 100.734 78.6784C100.522 78.5015 100.699 78.2899 100.487 78.113C100.206 77.1592 100.313 76.1706 101.02 75.3239C101.55 74.689 102.115 74.4425 102.468 74.0191L102.821 73.5958C102.998 73.3842 103.386 73.3493 103.775 73.3145C104.516 72.8564 104.905 72.8216 105.328 73.1752Z" fill="#C2D6BF"/>
<path d="M103.786 62.5435C102.833 62.8248 102.303 63.4598 101.984 64.2716C101.843 64.8718 101.912 65.6487 102.371 66.3909C102.582 66.5678 102.582 66.5678 102.794 66.7446C102.617 66.9563 102.44 67.1679 102.264 67.3796C101.557 68.2262 101.273 69.4265 101.943 70.3455C102.155 70.5224 102.189 70.9109 102.401 71.0877C103.671 72.1487 105.294 72.7864 106.847 72.6471C107.058 72.824 107.235 72.6123 107.8 72.3658C107.8 72.3658 107.8 72.3658 107.977 72.1542L108.011 72.5426C108.293 73.4965 108.574 74.4503 109.032 75.1925C109.702 76.1115 110.372 77.0305 111.606 77.703C112.418 78.0219 113.229 78.3407 114.006 78.271C114.606 78.4131 115.171 78.1666 115.736 77.9201C116.301 77.6736 116.442 77.0735 116.584 76.4733C117.361 76.4037 118.314 76.1224 118.879 75.8759C118.702 76.0875 118.737 76.476 118.772 76.8645C118.984 77.0413 118.807 77.253 119.019 77.4299C119.723 78.7374 120.57 79.4447 121.981 79.9056C123.392 80.3664 124.734 80.0503 126.041 79.3457C126.782 78.8875 127.312 78.2525 127.242 77.4755C127.384 76.8754 126.926 76.1332 126.291 75.6027C126.08 75.4259 125.657 75.0722 125.445 74.8954C125.798 74.472 125.975 74.2604 126.329 73.8371C126.682 73.4137 126.824 72.8136 126.966 72.2134C127.107 71.6133 126.861 71.0479 126.438 70.6943C125.168 69.6333 123.968 69.3492 122.627 69.6654C121.674 69.9467 121.143 70.5816 121.425 71.5355C121.636 71.7123 121.46 71.924 121.848 71.8892L123.471 72.5268L123.294 72.7385C123.118 72.9502 123.118 72.9502 122.941 73.1618C121.881 74.4318 121.739 75.0319 122.443 76.3394L122.232 76.1626C122.02 75.9858 122.02 75.9858 121.809 75.8089C121.597 75.6321 120.997 75.4901 120.786 75.3133C120.574 75.1364 120.397 75.3481 120.009 75.3829C120.186 75.1712 120.539 74.7479 120.716 74.5362C121.423 73.6896 121.529 72.7009 121.248 71.7471C120.755 70.6165 120.297 69.8743 119.274 69.3786C119.486 69.5555 119.662 69.3438 119.874 69.5206C121.992 69.1348 124.535 66.9486 124.714 64.5828C124.821 63.5941 124.54 62.6403 123.905 62.1098C123.059 61.4024 122.247 61.0836 121.294 61.3649C120.517 61.4346 119.952 61.6811 119.211 62.1392C118.823 62.174 118.469 62.5973 118.292 62.809L118.116 63.0207L117.904 62.8438C117.481 62.4901 117.093 62.525 116.881 62.3481C115.858 61.8525 114.447 61.3916 112.963 62.3079C111.692 63.401 111.62 64.7781 111.724 65.9436C111.759 66.3321 111.759 66.3322 111.971 66.509C112.182 66.6858 112.182 66.6858 112.394 66.8627C112.606 67.0395 113.205 67.1815 113.559 66.7582C113.736 66.5465 114.689 66.2652 114.972 65.0649C115.149 64.8532 114.937 64.6764 115.114 64.4647C115.291 64.2531 115.502 64.4299 115.714 64.6067C115.926 64.7836 116.526 64.9256 116.56 65.3141C117.407 66.0215 118.395 66.1286 119.525 65.6357C119.702 65.424 120.09 65.3892 120.267 65.1775C120.443 64.9659 120.832 64.931 121.008 64.7194C120.866 65.3195 120.125 65.7777 118.146 67.7174C117.97 67.9291 117.97 67.9291 118.004 68.3176C118.216 68.4944 118.251 68.8829 118.463 69.0598C118.039 68.7061 117.439 68.5641 117.016 68.2104L116.205 67.8916L115.851 68.3149L116.205 67.8916C114.159 66.9002 112.394 66.8626 110.769 68.3791C109.85 69.0489 109.32 69.6839 109.002 70.4957C108.79 70.3189 108.79 70.3189 108.79 70.3189C108.579 70.142 108.367 69.9652 107.979 70L107.767 69.8232C107.556 69.6463 107.167 69.6812 106.956 69.5043L107.132 69.2927C108.051 68.6229 108.158 67.6342 107.488 66.7152C107.276 66.5384 107.065 66.3616 106.853 66.1847C106.642 66.0079 106.642 66.0079 106.43 65.831L106.218 65.6542C106.607 65.6194 106.607 65.6194 106.995 65.5845C107.207 65.7614 107.595 65.7266 107.807 65.9034C108.018 66.0802 108.406 66.0454 108.618 66.2223C109.006 66.1874 109.395 66.1526 109.571 65.9409C109.925 65.5176 110.101 65.306 110.066 64.9175C109.997 64.1405 109.75 63.5751 109.15 63.4331C106.716 62.4766 105.305 62.0157 103.786 62.5435ZM115.635 72.4463C115.847 72.6232 116.235 72.5883 116.447 72.7652L116.658 72.942C116.658 72.942 116.693 73.3305 116.305 73.3653C116.128 73.577 115.74 73.6118 115.563 73.8235C115.917 73.4002 115.882 73.0117 115.635 72.4463ZM114.715 75.2703L114.961 75.8356C113.973 75.7284 113.162 75.4096 112.527 74.8791C111.681 74.1717 111.011 73.2527 111.083 71.8756C111.013 71.0986 111.366 70.6752 111.72 70.2519L113.413 71.6666C113.413 71.6666 113.236 71.8783 113.024 71.7015C112.636 71.7363 112.459 71.9479 112.106 72.3713C111.753 72.7946 111.822 73.5716 112.069 74.1369C112.28 74.3137 112.492 74.4906 112.704 74.6674C113.338 75.1979 114.115 75.1283 114.715 75.2703C114.715 75.2703 114.503 75.0934 114.715 75.2703Z" fill="#C2D6BF"/>
<path d="M65.6166 75.5638C66.0048 75.529 66.0047 75.529 66.0047 75.529L66.2163 75.7058C66.4278 75.8826 66.6045 75.671 66.816 75.8478C67.0275 76.0245 67.2391 76.2013 67.4506 76.3781C67.6621 76.5549 67.697 76.9433 67.5204 77.1549C67.3786 77.7549 66.8487 78.3897 66.0723 78.4594C65.5075 78.7058 64.9078 78.5638 64.4847 78.2102C64.2732 78.0334 64.2732 78.0334 64.0616 77.8566C63.8501 77.6798 63.8152 77.2915 63.7803 76.9031C63.7106 76.1263 64.0638 75.7031 64.8402 75.6335C65.4399 75.7754 65.6166 75.5638 65.6166 75.5638Z" fill="#C2D6BF"/>
</g>
</svg>
