<svg width="236" height="228" viewBox="0 0 236 228" fill="none" xmlns="http://www.w3.org/2000/svg">
<g opacity="0.2" clip-path="url(#clip0_171_1056)">
<path d="M108.025 153.351C108.09 153.409 108.213 153.403 108.336 153.396C108.394 153.331 108.459 153.389 108.518 153.325C108.641 153.318 108.829 153.37 108.894 153.428C108.959 153.486 109.024 153.545 108.966 153.61C108.908 153.675 108.973 153.733 108.915 153.798C108.98 153.856 109.045 153.914 109.045 153.914C109.117 154.096 109.247 154.213 109.32 154.394C109.392 154.576 109.471 154.88 109.484 155.127C109.605 156.171 110.096 157.195 111.014 158.135C111.607 158.783 112.388 159.483 113.474 160.105C113.604 160.222 113.727 160.216 113.857 160.332L113.987 160.449C114.501 160.792 115.066 160.948 115.754 161.097C116.943 161.342 118.175 161.277 119.582 161.017C120.01 160.932 120.372 160.789 120.917 160.575C121.04 160.568 121.156 160.439 121.279 160.432C121.403 160.426 121.526 160.419 121.656 160.536C121.649 160.412 121.649 160.412 121.765 160.283L121.823 160.218L121.882 160.153C122.128 160.14 122.375 160.127 122.563 160.178C122.686 160.172 122.751 160.23 122.874 160.224L122.998 160.217L123.265 160.574C123.525 160.807 123.663 161.047 123.923 161.28C124.053 161.397 124.183 161.514 124.255 161.695C124.32 161.753 124.393 161.935 124.276 162.065L124.225 162.253C124.006 162.759 123.911 163.258 123.627 163.706C123.35 164.277 123.002 164.666 122.653 165.055C121.839 165.964 120.829 166.697 119.748 167.249C118.725 167.736 117.571 168.106 116.469 168.288C114.874 168.497 113.309 168.147 111.898 167.234C111.384 166.89 110.87 166.547 110.415 166.138C109.503 165.322 108.643 164.317 107.893 163.059C107.618 162.579 107.344 162.1 107.077 161.743C106.456 160.602 106.082 159.448 106.07 158.151C106.001 156.919 106.192 155.92 106.694 154.966C106.92 154.584 107.145 154.201 107.371 153.818L107.539 153.5C107.473 153.442 107.583 153.189 108.025 153.351ZM123.058 162.377C122.941 162.506 122.941 162.506 122.948 162.63C122.497 163.395 121.916 164.044 121.269 164.635C120.151 165.621 118.895 166.367 117.262 167.01C116.355 167.367 115.435 167.478 114.5 167.342C113.565 167.207 112.747 166.941 111.928 166.676C112.182 166.786 112.312 166.903 112.565 167.013C113.774 167.628 115.021 167.809 116.304 167.556C118.509 167.191 120.367 166.166 121.827 164.667C122.409 164.018 122.925 163.311 123.058 162.377ZM122.605 160.918C122.8 161.093 122.995 161.268 123.132 161.508L123.197 161.566C123.06 161.326 122.93 161.209 122.735 161.034C122.735 161.034 122.67 160.976 122.605 160.918L122.54 160.859L122.605 160.918ZM121.205 161.301C121.082 161.308 121.023 161.373 120.842 161.444C120.602 161.58 120.24 161.723 119.935 161.801C118.354 162.256 116.998 162.328 115.564 162.095C114.564 161.901 113.745 161.636 113.043 161.241L112.66 161.014C112.081 160.612 111.444 160.275 110.858 159.75C110.728 159.634 110.597 159.517 110.532 159.459C110.077 159.05 109.679 158.577 109.282 158.104C108.545 157.092 108.243 156.12 108.245 155.069C108.238 154.946 108.231 154.823 108.231 154.823C108.224 154.7 108.224 154.7 108.217 154.576C108.21 154.453 108.203 154.33 108.255 154.142C108.196 154.207 108.131 154.148 108.073 154.213C108.145 154.395 108.087 154.46 108.094 154.583C108.094 154.583 108.094 154.583 108.036 154.648C107.838 155.523 107.633 156.276 107.436 157.151C107.282 157.716 107.31 158.209 107.396 158.637C107.461 158.695 107.468 158.818 107.41 158.883L107.475 158.941C107.561 159.369 107.705 159.732 108.023 159.901C108.349 160.193 108.551 160.491 108.637 160.919C108.788 161.405 108.997 161.826 109.272 162.306C109.676 162.903 110.197 163.369 110.827 163.583C111.392 163.738 111.841 164.023 112.166 164.315C112.745 164.717 113.44 164.989 114.245 165.008C115.049 165.027 115.607 165.059 116.172 165.214C116.295 165.208 116.484 165.26 116.607 165.253C116.919 165.298 117.223 165.22 117.521 165.019C117.819 164.818 118.058 164.682 118.356 164.48C118.712 164.214 119.132 164.007 119.43 163.805C119.728 163.604 119.967 163.468 120.077 163.215C120.128 163.027 120.244 162.897 120.426 162.826C120.607 162.754 120.788 162.683 120.97 162.611L121.151 162.54C121.209 162.475 121.274 162.533 121.339 162.592L121.47 162.708L121.418 162.896C121.418 162.896 121.425 163.02 121.302 163.026C121.244 163.091 121.121 163.098 121.063 163.162C120.7 163.305 120.525 163.5 120.358 163.818C120.242 163.948 120.067 164.142 119.828 164.279C119.29 164.616 118.695 165.019 118.042 165.486C117.388 165.953 116.714 166.051 116.026 165.902C115.337 165.753 114.714 165.663 113.968 165.579C113.221 165.495 112.533 165.346 111.947 164.821C111.499 164.536 111.05 164.251 110.42 164.037C109.978 163.875 109.66 163.707 109.399 163.473C109.334 163.415 109.334 163.415 109.269 163.357C108.683 162.832 108.279 162.235 107.984 161.386C107.977 161.263 107.911 161.204 107.905 161.081C107.826 160.776 107.688 160.537 107.493 160.362C107.493 160.362 107.493 160.362 107.428 160.303C106.972 159.895 106.879 159.344 106.8 159.039L106.793 158.916C106.78 158.669 106.708 158.488 106.694 158.241C106.68 157.995 106.666 157.748 106.71 157.437C106.908 156.562 107.106 155.686 107.303 154.81L107.355 154.622C106.678 155.77 106.24 156.782 106.468 158.624C106.596 159.791 106.963 160.822 107.635 161.775C108.176 162.612 108.776 163.383 109.427 163.966C110.541 165.081 112.003 165.807 113.879 166.201C115.002 166.389 116.053 166.395 117.077 165.908C118.281 165.349 119.181 164.869 119.951 164.272C120.604 163.805 121.186 163.156 121.637 162.39L121.921 161.943L121.784 161.703C121.647 161.463 121.451 161.288 121.314 161.048C121.314 161.048 121.249 160.99 121.242 160.867C121.184 160.931 121.249 160.99 121.126 160.996C121.444 161.165 121.328 161.295 121.205 161.301Z" fill="#85B472"/>
<path d="M93.6493 158.256L93.2865 158.399C92.8656 158.606 92.5029 158.749 92.082 158.957C91.1169 159.379 90.0659 159.373 88.8196 159.192C87.5082 158.953 86.3643 158.396 85.3949 157.644C85.0694 157.352 84.6207 157.067 84.165 156.659C83.0653 155.79 82.2052 154.786 81.4683 153.774C81.1289 153.236 80.8546 152.757 80.5153 152.218C79.8157 150.773 79.6602 149.112 80.0697 147.608C80.3769 146.479 80.8142 145.467 81.5631 144.5C82.3051 143.411 83.1841 142.56 84.1353 141.892C84.4911 141.626 85.0283 141.288 85.5724 141.074C86.1166 140.86 86.6677 140.769 87.0955 140.684L87.2769 140.613C87.4001 140.606 87.5234 140.6 87.6536 140.716C87.7838 140.833 87.914 140.95 88.0441 141.066C88.3045 141.3 88.4417 141.54 88.7021 141.773L88.9694 142.129L88.9112 142.194C88.9182 142.317 88.9251 142.441 88.867 142.506C88.8809 142.752 88.8297 142.94 88.7785 143.128L88.7204 143.193L88.6622 143.258C88.539 143.265 88.4809 143.329 88.4158 143.271C88.5459 143.388 88.5529 143.511 88.4366 143.641C88.3785 143.706 88.3273 143.894 88.2691 143.959C87.9854 144.406 87.7598 144.789 87.6574 145.165C87.1758 146.488 87.057 147.669 87.1265 148.901C87.1682 149.64 87.2611 150.191 87.5424 150.794L87.6144 150.976C87.6865 151.158 87.7515 151.216 87.8236 151.397C88.3791 152.48 88.8626 153.381 89.4554 154.03C90.3155 155.034 91.213 155.605 92.2197 155.922C92.4081 155.974 92.6615 156.084 92.9149 156.194C93.1032 156.246 93.2334 156.362 93.3636 156.479C93.4287 156.537 93.4938 156.596 93.4357 156.66C93.4938 156.596 93.5589 156.654 93.6171 156.589C93.6821 156.647 93.7403 156.582 93.8054 156.641C93.8705 156.699 93.8774 156.822 93.8262 157.01C93.7681 157.075 93.8332 157.134 93.775 157.199C93.782 157.322 93.7239 157.387 93.7308 157.51C94.0702 158.048 93.7725 158.249 93.6493 158.256ZM87.014 141.43C86.1001 141.664 85.3165 142.015 84.5979 142.424C82.877 143.689 81.6118 145.363 80.9905 147.497C80.5671 148.755 80.5785 150.052 81.0177 151.265C81.0897 151.446 81.2269 151.686 81.2408 151.933C81.0107 151.142 80.9621 150.279 80.8483 149.358C80.7927 148.373 81.0487 147.432 81.4999 146.667C82.3442 145.2 83.3257 143.974 84.3862 143.053C84.9746 142.527 85.7513 142.053 86.5931 141.638C86.6512 141.573 86.7163 141.631 86.7745 141.566L86.8326 141.501L87.014 141.43ZM88.4183 142.22C88.3462 142.039 88.2811 141.981 88.2161 141.922C88.0208 141.747 87.9487 141.566 87.7534 141.391L87.8185 141.449C88.0138 141.624 88.151 141.864 88.3462 142.039C88.3532 142.162 88.4183 142.22 88.4183 142.22ZM88.046 143.291C88.1042 143.226 88.1693 143.284 88.2274 143.219C88.1623 143.161 88.1623 143.161 88.0972 143.103C87.902 142.928 87.7067 142.753 87.5114 142.578L87.3161 142.403L86.837 142.675C86.0534 143.026 85.3418 143.558 84.7534 144.084C84.0487 144.739 83.4161 145.576 82.7392 146.724C82.1717 147.62 81.9227 148.683 82.0504 149.851C82.1546 151.699 82.738 153.274 83.7353 154.519C84.2699 155.232 84.9278 155.939 85.6439 156.58C86.4901 157.339 87.5108 157.902 88.6989 158.148C90.5171 158.608 91.5542 158.367 92.7588 157.809L92.5123 157.822C91.5915 157.933 90.7289 157.978 89.743 158.031C89.4965 158.044 89.1849 157.999 88.9966 157.947C88.8082 157.895 88.5618 157.908 88.3083 157.798L88.1851 157.805C87.8084 157.701 87.3667 157.539 86.9692 157.066C86.832 156.826 86.6367 156.651 86.3252 156.606C86.2601 156.548 86.1368 156.554 86.0066 156.437C85.2394 155.984 84.7186 155.517 84.2491 154.862C84.184 154.804 84.184 154.804 84.1189 154.746C83.9166 154.448 83.7725 154.084 83.6866 153.656C83.5286 153.047 83.3775 152.561 83.1033 152.081C82.7569 151.42 82.592 150.687 82.6735 149.941C82.755 149.195 82.7203 148.579 82.6786 147.84C82.5718 147.042 82.7835 146.413 83.3718 145.887C83.9533 145.238 84.4184 144.719 84.8254 144.265C84.9999 144.071 85.1743 143.876 85.3557 143.805C85.6603 143.727 85.8929 143.467 86.0603 143.149C86.1185 143.084 86.1766 143.019 86.2929 142.89C86.351 142.825 86.4161 142.883 86.4743 142.818L86.5975 142.812L86.6696 142.993C86.7347 143.051 86.6765 143.116 86.6835 143.24L86.6323 143.428C86.5811 143.616 86.4067 143.81 86.3555 143.999C86.2392 144.128 86.1229 144.258 85.9415 144.329C85.6369 144.407 85.4625 144.602 85.2299 144.862C84.9392 145.186 84.6485 145.511 84.4229 145.893C84.1903 146.153 83.9577 146.412 83.7833 146.607C83.5507 146.867 83.4414 147.119 83.3971 147.431C83.4041 147.554 83.3529 147.742 83.3598 147.865C83.3946 148.481 83.4294 149.097 83.3478 149.843C83.2663 150.589 83.3731 151.387 83.7776 151.983C83.9868 152.405 84.196 152.826 84.2958 153.501C84.3957 154.175 84.7351 154.713 85.3791 155.173C85.8347 155.581 86.2183 155.808 86.6601 155.97C87.1019 156.132 87.3622 156.365 87.5714 156.787C87.7737 157.085 88.0341 157.318 88.4758 157.48L88.5409 157.539C88.606 157.597 88.7292 157.59 88.7943 157.649C89.2361 157.811 89.736 157.908 90.229 157.881C91.0916 157.836 91.9473 157.666 92.81 157.621C92.8681 157.556 92.9914 157.549 93.1216 157.666C93.1797 157.601 93.1728 157.478 93.1728 157.478C93.0495 157.484 92.9263 157.491 92.738 157.439C92.6147 157.446 92.5496 157.387 92.4264 157.394C92.3031 157.4 92.2381 157.342 92.1148 157.349C91.0569 157.219 90.1013 156.714 89.19 155.897C88.7343 155.489 88.3368 155.016 87.9974 154.478C87.8672 154.361 87.7952 154.18 87.7301 154.121C87.3256 153.525 86.9793 152.864 86.7562 152.196L86.6121 151.833C86.2588 151.048 86.0938 150.315 86.0964 149.265C86.078 147.844 86.3713 146.469 86.9691 145.016C87.0785 144.763 87.2459 144.446 87.4204 144.251C87.4785 144.186 87.5948 144.056 87.5879 143.933C87.8647 143.362 87.9228 143.297 88.046 143.291Z" fill="#85B472"/>
<path d="M62.9482 69.7935C63.1226 69.5989 63.3621 69.4626 63.4784 69.3328C63.8924 69.0018 63.9296 68.5673 63.9018 68.0744C63.8228 67.7697 63.6857 67.5298 63.6718 67.2834C63.6509 66.9137 63.5068 66.5506 63.6092 66.1744C63.5884 65.8048 63.8279 65.6684 64.2046 65.772C64.5812 65.8756 65.023 66.0375 65.4578 66.0761C65.6461 66.1279 65.8996 66.238 66.0879 66.2898C66.711 66.3803 67.0738 66.2374 67.2925 65.7315C67.4018 65.4785 67.5111 65.2255 67.6274 65.0957C67.853 64.713 68.0926 64.5767 68.5855 64.5504C69.0203 64.5891 69.39 64.5695 69.8248 64.6082C70.5061 64.6337 71.1874 64.6593 71.8617 64.5617C73.2755 64.4247 74.2197 63.633 74.7664 62.3681C75.0944 61.6092 75.0015 61.058 74.2924 60.5395C73.9018 60.1895 73.5112 59.8395 73.0625 59.5544C72.2302 59.0425 71.5072 58.2777 70.9074 57.5062C70.6401 57.1497 70.2495 56.7997 69.9241 56.508C69.3382 55.983 68.7081 55.7693 67.9756 55.9319C67.671 56.0099 67.4245 56.023 67.1199 56.1009C65.5968 56.4909 64.1552 56.135 62.8091 55.2796C62.2953 54.9362 61.8466 54.6511 61.2746 54.3725C60.1889 53.7505 59.3983 53.9779 58.7656 54.8148C58.7075 54.8797 58.7075 54.8797 58.6493 54.9446C58.2423 55.3988 57.8284 55.7298 57.2773 55.8208C57.0959 55.8923 56.8494 55.9054 56.6681 55.9768C55.8193 56.2691 55.4843 56.9048 55.7795 57.7542C55.8515 57.9358 55.9887 58.1757 56.1258 58.4156C56.2699 58.7786 56.4721 59.0769 56.6744 59.3751C56.8115 59.615 56.8905 59.9197 56.9044 60.1662C56.881 60.8471 57.0972 61.3918 57.3784 61.9947C57.5946 62.5394 57.8107 63.084 58.0269 63.6287C58.6753 65.2626 58.8307 66.9228 58.6165 68.6026C58.6235 68.7258 58.6304 68.849 58.3839 68.8621C58.2398 68.499 58.0376 68.2008 57.9586 67.896C57.3102 66.2621 56.6618 64.6281 55.9482 62.9359C55.1557 60.9388 54.5515 58.9936 54.3682 56.8406C54.3057 55.7316 53.9385 54.7007 53.5713 53.6697C53.4993 53.4882 53.4272 53.3066 53.4133 53.0602C53.6389 52.6774 54.0017 52.5346 54.4295 52.45C54.7923 52.3072 55.1551 52.1643 55.4597 52.0863C55.7574 51.8851 56.055 51.6839 55.9691 51.2559C55.8111 50.6464 56.0948 50.1988 56.3786 49.7511C56.6042 49.3684 56.7717 49.0505 56.9973 48.6678C57.3253 47.9088 57.1673 47.2993 56.6396 46.7094C56.5094 46.5927 56.3141 46.4177 56.1839 46.3011C55.8654 46.1326 55.5399 45.841 55.2214 45.6725C54.5844 45.3356 54.3101 44.8559 54.2102 44.1814C54.1243 43.7535 54.0965 43.2606 54.0756 42.891C54.02 41.9052 54.0295 40.9778 53.9739 39.9921C53.9044 38.7599 53.7767 37.5927 53.5839 36.367C53.4702 35.4462 53.2401 34.6551 52.8868 33.8706C52.6707 33.3259 52.3964 32.8462 51.9407 32.4379C51.1596 31.7379 50.2318 31.7254 49.5992 32.5623C49.1922 33.0165 48.9154 33.5874 48.7037 34.2165C48.2291 35.663 48.0079 37.2196 48.0913 38.6982C48.1608 39.9303 48.2303 41.1625 48.358 42.3298C48.365 42.453 48.5021 42.6929 48.2044 42.8941C47.8581 42.2328 47.3885 41.578 47.0422 40.9167C46.3565 39.7173 45.794 38.5113 45.1664 37.247C44.8922 36.7673 44.6109 36.1643 44.2785 35.7494C44.0763 35.4512 43.874 35.153 43.4904 34.9262C42.7813 34.4078 41.9256 34.5768 41.5394 35.4007C41.372 35.7185 41.3277 36.0299 41.3486 36.3995C41.4276 36.7043 41.4484 37.0739 41.5856 37.3138C41.9458 38.2215 42.313 39.2525 42.7383 40.2186C42.8894 40.7049 43.1637 41.1847 43.3798 41.7293C43.5239 42.0924 43.6029 42.3972 43.3842 42.9031C43.261 42.9097 43.0796 42.9811 42.8913 42.9293C42.3983 42.9555 41.8984 42.8585 41.4055 42.8847C40.8474 42.8526 40.2963 42.9437 39.8754 43.1514C39.0267 43.4437 38.6917 44.0795 38.8055 45.0003C38.8263 45.37 38.9704 45.7331 39.1145 46.0962C39.7118 47.9182 40.6717 49.5974 41.9294 51.0753C43.1871 52.5533 44.2703 54.2259 45.3535 55.8985C47.7361 59.7884 50.0537 63.62 52.2549 67.5813C53.0777 69.0206 54.0238 70.4533 54.8467 71.8926C55.3232 72.6706 55.7928 73.3253 56.2693 74.1033C56.3413 74.2849 56.4134 74.4664 56.4854 74.648C55.9482 74.9855 55.4041 75.1998 54.9251 75.4724C54.446 75.745 53.967 76.0177 53.4298 76.3552C53.2996 76.2385 53.2275 76.057 53.0973 75.9403C52.5115 75.4153 52.0489 74.8838 51.463 74.3588C49.7844 73.0886 48.0547 72.0065 46.2086 71.0541C44.8694 70.322 43.414 69.7196 42.0166 69.0524C38.5919 67.5043 35.2834 65.8263 31.968 64.0252C31.2008 63.5716 30.4986 63.1764 29.7175 62.4764C29.8989 62.405 30.0802 62.3336 30.2035 62.327C30.7615 62.3591 31.2545 62.3329 31.8125 62.3651C32.059 62.352 32.2473 62.4037 32.4938 62.3906C32.9868 62.3644 33.2124 61.9817 33.0613 61.4954C32.9893 61.3138 32.8521 61.0739 32.722 60.9573C32.715 60.8341 32.5848 60.7174 32.5128 60.5358C32.9545 60.6977 33.273 60.8662 33.5846 60.9114C34.2078 61.0019 34.6217 60.6709 34.587 60.0548C34.6312 59.7435 34.5522 59.4388 34.35 59.1405C34.1338 58.5959 33.8526 57.9929 33.6364 57.4483C33.6295 57.3251 33.5574 57.1435 33.5505 57.0203C33.9272 57.1239 34.2387 57.1691 34.5503 57.2143C35.1734 57.3048 35.7106 56.9673 35.7991 56.3446C35.8434 56.0333 35.8225 55.6637 35.8016 55.294C35.7018 54.6196 35.5438 54.0101 35.4439 53.3356C35.2 52.2981 35.0793 51.2541 34.8935 50.1517C34.7146 49.1725 34.7822 48.1802 34.9731 47.1814C34.9661 47.0582 35.0243 46.9933 35.1336 46.7403C35.545 47.46 35.8914 48.1213 36.1726 48.7243C37.5137 51.6808 38.2386 54.6701 37.6799 57.9131C37.5845 58.4125 37.6123 58.9053 37.6401 59.3982C37.7096 60.6304 38.4977 61.4536 39.6928 61.8226C40.0044 61.8678 40.316 61.913 40.6275 61.9583C41.0623 61.997 41.439 62.1005 41.8808 62.2624C42.1993 62.4309 42.5109 62.4761 42.8224 62.5213C43.0108 62.5731 43.3223 62.6183 43.5688 62.6052C44.0687 62.7022 44.264 62.8772 44.2337 63.435C44.1894 63.7463 44.1452 64.0576 44.1009 64.3689C44.0125 64.9916 44.2286 65.5362 44.8075 65.938C45.133 66.2297 45.5817 66.5148 45.9653 66.7415C47.6881 67.7004 49.2365 68.854 50.6755 70.2605C51.2684 70.9087 51.7961 71.4986 52.447 72.0819C52.7725 72.3736 53.0329 72.6069 53.3583 72.8986C53.4885 73.0153 53.6769 73.067 53.742 73.1254C53.9303 73.1772 54.1698 73.0408 54.0978 72.8593C54.0908 72.7361 54.0188 72.5545 54.0118 72.4313C53.8096 72.1331 53.6073 71.8349 53.347 71.6016C52.624 70.8367 51.894 69.9486 51.1129 69.2486C49.8622 67.8938 48.437 66.7337 46.7793 65.8332C46.4608 65.6647 46.2004 65.4314 45.8819 65.263C45.4983 65.0362 45.4193 64.7314 45.4566 64.2969C45.5008 63.9856 45.545 63.6743 45.5893 63.3629C45.5337 62.3772 44.9339 61.6058 43.941 61.535C43.7527 61.4832 43.5062 61.4963 43.3179 61.4445C43.0645 61.3344 42.7529 61.2892 42.5576 61.1142C42.167 60.7642 41.6671 60.6672 41.1672 60.5702C40.8557 60.5249 40.6092 60.538 40.3558 60.4279C39.7257 60.2142 39.5234 59.916 39.6119 59.2934C39.6492 58.8589 39.7446 58.3594 39.9052 57.9183C40.1611 56.9779 40.1636 55.9272 40.108 54.9415C39.7832 51.3748 38.2537 48.3665 36.4778 45.3712C36.4058 45.1897 36.2756 45.073 36.1454 44.9563C36.0152 44.8397 35.885 44.723 35.7549 44.6063C35.0527 44.2111 34.4435 44.3671 34.1085 45.0028C33.8829 45.3856 33.7224 45.8266 33.6269 46.3261C33.1289 48.4535 33.3122 50.6065 33.742 52.7464C33.9069 53.4792 34.0068 54.1536 34.2299 54.8214C34.3019 55.003 34.2507 55.1911 34.2646 55.4375C34.0112 55.3274 33.7578 55.2173 33.4462 55.172C33.1346 55.1268 32.8161 54.9584 32.5696 54.9715C31.8233 54.8876 31.4232 55.465 31.5231 56.1394C31.537 56.3858 31.6741 56.6257 31.8113 56.8656C32.1576 57.5269 32.5039 58.1882 32.8502 58.8495C32.9223 59.0311 33.1176 59.2061 33.0082 59.459C32.7548 59.3489 32.5665 59.2971 32.3131 59.187C31.9945 59.0186 31.6109 58.7918 31.2342 58.6882C30.9808 58.5781 30.6762 58.6561 30.4367 58.7924C30.2623 58.9871 30.2761 59.2335 30.4202 59.5966C30.5574 59.8365 30.6294 60.018 30.8247 60.193C31.027 60.4912 31.2873 60.7246 31.5547 61.0811C31.6849 61.1978 31.7569 61.3793 31.8289 61.5609C31.2709 61.5288 30.7129 61.4966 30.2199 61.5228C29.8502 61.5425 29.4223 61.627 29.0596 61.7699C28.6387 61.9776 28.4781 62.4187 28.7455 62.7753C28.8826 63.0152 29.143 63.2485 29.4034 63.4818C30.6983 64.5253 32.1096 65.4389 33.6371 66.2228C36.634 67.8555 39.6821 69.3001 42.8534 70.7381C45.4528 71.8976 47.8777 73.2517 50.2515 74.794C50.9536 75.1892 51.6046 75.7725 52.2555 76.3558C52.4508 76.5308 52.7693 76.6993 52.7902 77.0689C52.4622 77.8279 52.004 78.4702 51.7992 79.2226C51.4851 80.2279 51.2292 81.1684 50.9802 82.2322C50.5776 83.8602 50.668 85.462 51.1281 87.0441C51.9042 89.8453 53.1011 92.4388 55.0167 94.6233C56.5348 96.3346 57.9877 97.9876 59.5639 99.634C61.4725 101.695 63.6137 103.497 65.6967 105.364C72.004 110.899 78.4345 116.427 84.7999 121.897C88.3732 124.982 91.9395 127.944 95.5128 131.029C100.063 134.989 104.728 138.82 109.678 142.202C111.285 143.291 112.884 144.257 114.658 145.027C115.354 145.299 116.049 145.571 116.802 145.778C117.367 145.934 117.925 145.966 118.418 145.94C119.346 145.952 119.927 145.303 119.937 144.376C119.916 144.006 119.895 143.637 119.874 143.267C119.781 142.716 119.623 142.106 119.407 141.562C119.026 140.284 118.464 139.078 117.72 137.944C116.564 136.09 115.402 134.112 114.189 132.323C110.888 127.493 107.71 122.657 104.591 117.756C101.876 113.451 98.9792 109.218 96.2061 104.978C94.7834 102.767 93.2376 100.563 91.5755 98.4885C89.1764 95.4028 86.7123 92.2588 84.3714 89.1082C82.2327 86.2558 79.9778 83.5332 77.4833 80.9469C76.4279 79.7672 75.2562 78.7172 73.9612 77.6737C73.2521 77.1553 72.5942 76.4488 71.8851 75.9303C70.7204 75.0035 69.5487 73.9536 68.1513 73.2863C67.9283 72.6185 67.8632 72.5601 67.2912 72.2816C65.8357 71.6792 64.4011 71.4465 62.8711 71.7132C62.5664 71.7912 62.1967 71.8109 61.7689 71.8954C62.1272 70.5787 62.2435 70.4489 62.9482 69.7935ZM117.081 144.157C115.828 143.853 114.684 143.296 113.533 142.615C110.595 140.918 107.94 138.773 105.227 136.692C102.188 134.32 99.2656 131.819 96.3363 129.194C92.4957 125.752 88.5457 122.563 84.647 119.187C77.5004 113.016 70.2957 106.911 63.2004 100.553C60.4664 98.103 58.0231 95.3286 55.638 92.4893C53.9177 90.4798 52.9811 88.1197 52.4654 85.5518C52.1355 84.0863 52.3636 82.653 52.715 81.213C52.9128 80.3374 53.1757 79.5201 53.5619 78.6963C53.948 77.8725 54.5294 77.2236 55.3131 76.873C57.1781 75.9706 58.978 75.0098 60.771 73.9258C61.9686 73.2442 63.2452 72.8674 64.6078 72.9185C65.4123 72.9376 66.1587 73.0215 66.9632 73.0405C67.0353 73.2221 67.0491 73.4685 67.1212 73.65C67.1932 73.8316 67.3816 73.8834 67.5118 74C67.7071 74.175 67.9023 74.35 68.1627 74.5834C68.5533 74.9334 68.8788 75.225 69.2693 75.575C69.8552 76.1 70.376 76.5667 70.9618 77.0917C71.3524 77.4417 71.7429 77.7917 72.1335 78.1417C73.4285 79.1851 74.6071 80.3583 75.7277 81.5964C79.0962 85.4339 82.1019 89.4142 85.1728 93.4529C85.303 93.5695 85.4401 93.8094 85.5772 94.0493C85.2145 94.1922 84.9099 94.2701 84.5471 94.413C84.2425 94.491 84.003 94.6273 83.7053 94.8285C83.103 95.1077 82.5077 95.5101 82.0425 96.0292C81.8681 96.2238 81.7588 96.4768 81.6494 96.7298C81.5401 96.9828 81.8005 97.2161 82.0469 97.203C82.2934 97.1899 82.533 97.0536 82.7725 96.9173C83.5492 96.4434 84.3259 95.9696 85.1677 95.5541C85.5886 95.3463 85.8863 95.1451 86.3002 94.8142C86.4955 94.9892 86.6327 95.2291 86.828 95.4041C89.7547 99.0796 92.507 102.95 95.078 106.892C97.5187 110.717 100.076 114.412 102.516 118.237C104.344 121.044 106.236 123.909 108.237 126.522C108.374 126.762 108.505 126.878 108.707 127.177C108.402 127.255 108.156 127.268 107.851 127.346C107.605 127.359 107.365 127.495 107.126 127.631C106.886 127.768 106.647 127.904 106.342 127.982C106.102 128.118 105.921 128.19 105.682 128.326C105.442 128.462 105.202 128.599 104.963 128.735C104.186 129.209 103.54 129.799 103.023 130.507C102.733 130.831 102.63 131.207 102.463 131.525C102.353 131.778 102.491 132.018 102.621 132.135C102.751 132.251 102.997 132.238 103.114 132.108C103.23 131.979 103.411 131.907 103.528 131.777C104.174 131.187 104.821 130.596 105.532 130.064C106.244 129.532 106.956 129 107.732 128.526C108.088 128.26 108.509 128.052 108.93 127.844C108.995 127.903 109.053 127.838 109.118 127.896C111.134 130.755 113.272 133.608 115.171 136.596C115.72 137.556 116.269 138.515 116.817 139.475C117.366 140.434 117.798 141.524 117.984 142.626C118.135 143.112 118.221 143.54 118.067 144.105C117.9 144.422 117.458 144.261 117.081 144.157ZM51.1034 34.0272C51.3846 34.6302 51.6077 35.298 51.7657 35.9076C51.9515 37.01 52.1373 38.1124 52.1999 39.2213C52.2555 40.207 52.3111 41.1928 52.3667 42.1785C52.4666 42.8529 52.4432 43.5339 52.543 44.2083C52.7289 45.3107 53.2054 46.0886 54.1679 46.7172C54.5515 46.944 54.8119 47.1773 55.1955 47.4041C55.2606 47.4624 55.3908 47.5791 55.3977 47.7023C55.4186 48.0719 55.186 48.3315 55.0186 48.6494C54.5604 49.2916 54.2254 49.9274 54.209 50.7316C53.9695 50.8679 53.723 50.881 53.5485 51.0756C53.2509 51.2768 52.83 51.4846 52.5323 51.6858C51.8858 52.2763 51.6159 52.9703 51.9111 53.8198C51.9831 54.0013 52.0552 54.1829 52.1342 54.4876C52.4293 55.337 52.6593 56.1281 52.708 56.9906C52.8913 59.1436 53.5024 61.2121 54.2949 63.2091C55.2246 65.4461 56.031 67.6895 56.9607 69.9264C57.2489 70.6526 57.472 71.3205 57.6951 71.9884C57.8392 72.3514 57.9902 72.8378 58.4971 73.058C58.2063 73.3824 57.7785 73.467 57.4227 73.733C57.3506 73.5515 57.2855 73.4932 57.2204 73.4348C56.8533 72.4039 56.2396 71.386 55.7492 70.3616C54.7171 68.5009 53.7502 66.6985 52.7181 64.8378C52.0255 63.5151 51.3328 62.1925 50.582 60.9348C49.2175 58.6592 47.8531 56.3836 46.5467 54.0431C45.5216 52.3056 44.4454 50.7562 43.0063 49.3497C41.6975 48.0598 40.8026 46.439 40.1472 44.6818C40.0821 44.6235 40.0751 44.5003 40.0682 44.3771C40.0031 44.3187 40.0612 44.2538 40.1194 44.189C40.417 43.9878 40.7868 43.9681 41.1565 43.9484C41.7145 43.9806 42.2075 43.9544 42.7655 43.9865C44.0049 44.0442 44.7095 43.3888 44.6981 42.0918C44.7354 41.6572 44.5844 41.1709 44.4984 40.743C44.3474 40.2566 44.0731 39.7769 43.9221 39.2906C43.6339 38.5644 43.2806 37.7798 42.9924 37.0536C43.2389 37.0405 43.3109 37.2221 43.3179 37.3453C43.9385 38.4864 44.501 39.6923 45.1216 40.8334C46.0095 42.331 46.8324 43.7703 47.7203 45.2679C47.8575 45.5078 47.9946 45.7477 48.1248 45.8644C48.6456 46.331 49.378 46.1685 49.6479 45.4744C49.7503 45.0982 49.7945 44.7869 49.8388 44.4756C49.797 43.7363 49.7553 42.997 49.7136 42.2577C49.6511 41.1488 49.4652 40.0464 49.4027 38.9374C49.2681 37.6469 49.445 36.4017 49.7452 35.1499C49.8988 34.5856 50.1105 33.9564 50.4524 33.4439C50.8291 33.5474 51.0313 33.8456 51.1034 34.0272ZM71.662 63.2128C71.1691 63.2391 70.6761 63.2653 70.1832 63.2915C69.6902 63.3177 69.1322 63.2855 68.6974 63.2469C67.5813 63.1826 66.9278 63.6499 66.4254 64.6035C66.3672 64.6684 66.3742 64.7916 66.316 64.8565C66.2579 64.9214 66.2579 64.9214 66.1416 65.0511C65.837 65.1291 65.6417 64.9541 65.3301 64.9089C64.9535 64.8053 64.5117 64.6434 64.0769 64.6047C63.3887 64.4559 62.7864 64.7351 62.4514 65.3709C62.1746 65.9417 62.1443 66.4995 62.3023 67.109C62.3882 67.537 62.5393 68.0233 62.6252 68.4513C62.0438 69.1001 61.2601 69.4507 60.874 70.2746C60.4809 70.9752 60.0227 71.6175 59.6947 72.3764C59.6877 72.2532 59.6808 72.13 59.6738 72.0068C59.8577 70.8847 60.0998 69.6978 60.2255 68.6406C60.4701 66.4031 60.1636 64.2566 59.2409 62.1429C59.0317 61.7215 58.8876 61.3584 58.6784 60.937C58.5343 60.5739 58.4553 60.2691 58.3694 59.8411C58.2834 59.4131 58.1324 58.9268 57.9232 58.5054C57.714 58.084 57.5048 57.6625 57.2956 57.2411C57.8398 57.0268 58.449 56.8708 58.863 56.5399C59.342 56.2672 59.6909 55.8779 60.1048 55.5469C60.6047 55.644 60.9953 55.994 61.3789 56.2207C62.0811 56.616 62.7181 56.9529 63.4784 57.2832C64.427 57.6653 65.2966 57.7427 66.3407 57.6254C66.8336 57.5992 67.3196 57.4498 67.8126 57.4236C68.2986 57.2741 68.6171 57.4426 69.0077 57.7926C69.203 57.9676 69.3982 58.1426 69.6005 58.4408C70.3955 59.3872 71.3069 60.2039 72.3345 60.8908C72.7181 61.1175 72.9785 61.3509 73.3039 61.6425C73.048 62.583 72.5178 63.0438 71.662 63.2128Z" fill="#85B472"/>
<path d="M83.1399 116.548C82.8795 116.314 82.561 116.146 82.3657 115.971C81.7147 115.388 81.0056 114.869 80.3547 114.286C79.899 113.878 79.5015 113.404 79.0458 112.996C77.3255 110.986 75.6053 108.977 73.8268 107.032C69.547 102.378 65.0858 97.7955 60.6246 93.2128C59.4459 92.0396 58.3254 90.8015 57.1398 89.5051C56.612 88.9152 56.1425 88.2605 55.7311 87.5408C55.1174 86.523 54.8665 85.3622 54.9202 84.1235C55.0017 83.3777 55.1553 82.8134 55.6786 82.2294C55.7949 82.0996 55.9112 81.9699 56.0344 81.9633C56.2739 81.827 56.5924 81.9955 56.6063 82.2419C56.5552 82.43 56.6272 82.6115 56.5109 82.7413C55.9712 84.1294 56.2291 85.4134 56.9217 86.736C57.268 87.3973 57.7307 87.9289 58.1351 88.5253C60.0716 91.0794 62.1824 93.4389 64.2933 95.7985C67.5828 99.3312 70.8141 102.929 74.1618 106.397C75.9333 108.218 77.6978 109.916 79.76 111.413C81.1131 112.392 82.1685 113.571 83.1658 114.816C83.3029 115.056 83.4982 115.231 83.5703 115.413C83.6423 115.594 83.7143 115.776 83.7864 115.957C83.8584 116.139 83.8142 116.45 83.6328 116.522C83.4514 116.593 83.2631 116.541 83.1399 116.548Z" fill="#85B472"/>
<path d="M72.4318 96.5398C72.7737 96.0273 73.0575 95.5796 73.4064 95.1903C74.5041 93.8343 75.8623 92.7117 77.4878 91.9455C78.1482 91.6015 78.8737 91.3157 79.6574 90.9651C80.0202 90.8222 80.3248 90.7443 80.6294 90.6663C80.8108 90.5948 80.9991 90.6466 81.1874 90.6984C81.3758 90.7502 81.506 90.8668 81.578 91.0484C81.6501 91.2299 81.5989 91.418 81.4175 91.4895C81.3012 91.6192 81.178 91.6258 80.9966 91.6972C79.2618 92.7163 77.599 93.917 76.0013 95.176C75.1153 95.9028 74.1711 96.6945 73.4803 97.5963C73.3059 97.791 73.1315 97.9856 72.9501 98.0571C72.7106 98.1934 72.2688 98.0315 72.313 97.7202C72.2271 97.2922 72.3876 96.8511 72.4318 96.5398Z" fill="#85B472"/>
<path d="M84.129 111.119C84.4779 110.73 84.8198 110.217 85.2337 109.887C86.3454 108.777 87.6524 107.842 89.0964 107.148C89.9964 106.667 90.9033 106.31 91.8102 105.953C92.1148 105.875 92.4194 105.797 92.7241 105.719C92.9054 105.648 93.1007 105.823 93.1728 106.004C93.2448 106.186 93.1936 106.374 93.0773 106.504C92.8378 106.64 92.6634 106.834 92.4239 106.971C89.9123 108.464 87.531 110.073 85.2938 112.046C85.1775 112.176 84.9961 112.247 84.8798 112.377C84.6984 112.448 84.452 112.462 84.3218 112.345C84.1265 112.17 84.0544 111.988 84.1056 111.8C84.0987 111.677 84.1568 111.612 84.1499 111.489C84.0778 111.307 84.136 111.243 84.129 111.119Z" fill="#85B472"/>
<path d="M88.7052 119.898C89.14 119.936 89.4004 120.17 89.7189 120.338C91.637 121.472 93.3807 122.801 95.0662 124.194C96.1659 125.063 97.2725 126.054 98.3721 126.923C98.6325 127.156 98.8278 127.331 99.03 127.629C99.1602 127.746 99.116 128.057 98.9346 128.129C98.8765 128.193 98.63 128.207 98.5068 128.213C98.2533 128.103 98.065 128.051 97.8697 127.876C97.0374 127.364 96.2632 126.788 95.5472 126.146C94.3685 124.973 93.1317 123.864 91.8949 122.756C91.1788 122.114 90.3465 121.602 89.6305 120.961C89.3701 120.727 89.0446 120.436 88.8424 120.138C88.661 120.209 88.654 120.086 88.7052 119.898Z" fill="#85B472"/>
<path d="M70.6662 79.5172C71.0429 79.6208 71.1288 80.0487 70.9544 80.2434C70.78 80.438 70.5404 80.5744 70.3009 80.7107C69.466 81.2494 68.5661 81.7298 67.7312 82.2685C66.8382 82.8721 65.9452 83.4757 65.1894 84.3192C65.1312 84.3841 65.1312 84.3841 65.0731 84.449C64.9568 84.5787 64.7754 84.6502 64.6452 84.5335C64.515 84.4168 64.3848 84.3002 64.3779 84.177C64.3709 84.0537 64.4221 83.8657 64.4152 83.7424C64.5245 83.4895 64.6339 83.2365 64.7501 83.1067C65.9711 81.7441 67.2642 80.5631 68.9548 79.8553C69.3175 79.7125 69.8035 79.5631 70.2314 79.4785C70.4197 79.5303 70.6081 79.5821 70.6662 79.5172Z" fill="#85B472"/>
<path d="M95.9252 119.699C96.2602 119.063 96.6602 118.486 97.1905 118.025C97.9021 117.493 98.6137 116.961 99.3904 116.487C99.6881 116.286 100.058 116.266 100.362 116.188C100.609 116.175 100.869 116.409 100.825 116.72C100.832 116.843 100.716 116.973 100.599 117.103C99.2855 117.914 98.2971 119.017 97.0552 120.01C96.8157 120.146 96.6412 120.341 96.4017 120.477C96.2785 120.484 96.0971 120.555 95.9669 120.439C95.7786 120.387 95.7647 120.14 95.8159 119.952C95.874 119.887 95.9322 119.822 95.9252 119.699Z" fill="#85B472"/>
<path d="M69.6698 83.7722C69.5396 83.6555 69.4025 83.4157 69.4537 83.2276C69.5049 83.0395 69.6142 82.7865 69.7956 82.715C70.6886 82.1114 71.6467 81.5662 72.7489 81.384C72.9303 81.3126 73.1186 81.3643 73.3069 81.4161C73.5534 81.403 73.6836 81.5197 73.8208 81.7596C73.8928 81.9411 73.7184 82.1358 73.4788 82.2721C73.2975 82.3435 73.1812 82.4733 72.9998 82.5447C72.5789 82.7525 72.0929 82.9019 71.7301 83.0448C71.186 83.2591 70.6349 83.3502 70.2279 83.8043C70.1116 83.9341 69.9233 83.8823 69.6698 83.7722Z" fill="#85B472"/>
<path d="M83.7447 98.843C83.8029 98.7781 83.854 98.59 83.9703 98.4602C84.4355 97.9411 84.9657 97.4804 85.6261 97.1363C85.8075 97.0649 86.054 97.0518 86.3005 97.0387C86.612 97.0839 86.7561 97.447 86.5166 97.5833C85.8701 98.1738 85.2236 98.7643 84.577 99.3548C84.5189 99.4197 84.3957 99.4263 84.3375 99.4912C84.1561 99.5626 83.9678 99.5108 83.8376 99.3942C83.6493 99.3424 83.6354 99.0959 83.7447 98.843Z" fill="#85B472"/>
<path d="M90.9206 111.006C90.8043 111.135 90.8182 111.382 90.5787 111.518C89.8159 112.238 89.1763 112.952 88.4135 113.672C88.2972 113.802 88.0577 113.938 87.8763 114.01C87.6949 114.081 87.4345 113.848 87.4857 113.66C87.5369 113.472 87.6462 113.219 87.7625 113.089C88.5184 112.245 89.4044 111.519 90.2974 110.915C90.4788 110.844 90.6602 110.772 90.9206 111.006Z" fill="#85B472"/>
<path d="M112.406 134.704C112.348 134.769 112.297 134.957 112.239 135.022C111.767 135.418 111.171 135.82 110.699 136.216C110.583 136.346 110.401 136.417 110.22 136.489C109.857 136.632 109.467 136.282 109.569 135.905C109.62 135.717 109.671 135.529 109.853 135.458C110.383 134.997 110.92 134.66 111.588 134.439C111.827 134.302 112.139 134.348 112.406 134.704Z" fill="#85B472"/>
<path d="M100.668 121.61C100.552 121.74 100.494 121.804 100.378 121.934C99.7894 122.46 99.201 122.986 98.6126 123.511C98.4963 123.641 98.2499 123.654 98.1197 123.537C97.9895 123.421 97.9174 123.239 98.0268 122.986C98.0849 122.921 98.1361 122.733 98.1942 122.668C98.6594 122.149 99.1896 121.688 99.9151 121.403C100.155 121.266 100.401 121.253 100.668 121.61Z" fill="#85B472"/>
<path d="M105.414 67.7216C103.205 70.1872 101.567 72.9313 100.125 75.8504C99.7899 76.4862 99.5201 77.1802 99.2502 77.8743C97.3169 83.0441 98.5158 87.862 101.535 92.0887C104.093 95.784 107.573 98.3179 111.809 100.008C115.155 101.252 118.482 101.075 121.682 99.7306C122.589 99.3734 123.359 98.7764 124.194 98.2377C125.261 97.4394 125.51 96.3757 125.194 95.1566C125.043 94.6703 124.827 94.1257 124.611 93.581C123.393 90.6179 122.182 87.778 120.964 84.8149C118.889 79.7964 116.995 74.7065 115.282 69.5452C114.829 68.0862 114.252 66.6338 113.436 65.3178C113.169 64.9612 113.025 64.5981 112.7 64.3064C112.439 64.0731 112.186 63.963 111.809 63.8594C111.432 63.7559 110.998 63.7172 110.563 63.6785C110.251 63.6333 109.888 63.7762 109.649 63.9125C108.444 64.4708 107.384 65.3923 106.512 66.3656C106.105 66.8198 105.756 67.2091 105.414 67.7216ZM122.523 93.8156C122.283 93.9519 121.985 94.1531 121.688 94.3543C120.788 94.8347 119.874 95.0687 118.888 95.1211C117.17 95.336 115.482 94.9932 113.852 94.5855C111.91 94.1326 110.311 93.1671 108.937 91.8189C107.563 90.4707 106.603 88.7915 106.129 86.9629C105.806 85.6207 105.853 84.2587 105.718 82.9682C105.49 81.1266 105.893 79.4985 106.665 77.8509C107.926 75.0032 109.824 72.4924 112.047 70.2732C112.64 70.9214 113.505 73.1 114.311 75.3435C114.318 75.4667 114.325 75.5899 114.209 75.7197C113.767 75.5578 113.383 75.331 113.065 75.1626C111.674 74.6185 110.268 74.8787 109.214 75.9234C108.451 76.6437 108.565 77.5645 109.404 78.1996C109.788 78.4264 110.107 78.5948 110.548 78.7567C110.737 78.8085 110.932 78.9835 111.316 79.2103C110.83 79.3597 110.525 79.4377 110.22 79.5157C109.611 79.6717 109.074 80.0092 108.544 80.4699C108.137 80.9241 108.164 81.417 108.62 81.8253C109.206 82.3503 109.959 82.5574 110.692 82.3949C110.75 82.33 110.808 82.2651 110.924 82.1354C110.476 81.8502 109.962 81.5068 109.39 81.2282C109.564 81.0336 109.681 80.9038 109.797 80.7741C110.16 80.6312 110.587 80.5466 110.95 80.4038C111.32 80.3841 111.69 80.3645 112.052 80.2216C112.422 80.202 112.785 80.0591 112.88 79.5597C112.983 79.1835 112.715 78.8269 112.397 78.6585C111.948 78.3734 111.499 78.0882 111.116 77.8615C110.732 77.6347 110.29 77.4728 109.958 77.0579C110.074 76.9282 110.125 76.7401 110.184 76.6752C110.953 76.0781 111.686 75.9156 112.634 76.2977C113.395 76.6281 114.155 76.9584 114.973 77.2239C116.177 79.9405 117.381 82.6572 118.527 85.4388C118.88 86.2233 118.864 87.0275 118.738 88.0847C118.471 87.7281 118.341 87.6114 118.145 87.4364C117.553 86.7882 116.871 86.7627 116.16 87.2948C115.688 87.6907 115.404 88.1383 115.374 88.6961C115.336 89.1306 115.299 89.5651 115.197 89.9413C115.145 90.1294 115.036 90.3824 114.817 90.8884C114.608 90.4669 114.413 90.292 114.464 90.1039C114.481 89.2997 114.497 88.4955 114.579 87.7496C114.616 87.3151 114.711 86.8157 114.683 86.3228C114.656 85.83 114.446 85.4085 114.2 85.4216C113.765 85.383 113.598 85.7008 113.423 85.8955C113.133 86.2199 112.914 86.7259 112.195 87.1348C113.005 85.0526 114.479 83.8002 115.556 82.0745C115.128 82.1591 114.882 82.1722 114.766 82.3019C113.77 83.2817 112.717 84.3264 112.112 85.6562C111.893 86.1622 111.733 86.6033 111.637 87.1027C111.593 87.414 111.73 87.6539 111.925 87.8289C112.244 87.9973 112.483 87.861 112.658 87.6664C112.832 87.4717 112.949 87.3419 113.123 87.1473C113.239 87.0175 113.284 86.7062 113.66 86.8098C113.616 87.1211 113.572 87.4324 113.528 87.7437C113.439 88.3663 113.227 88.9955 113.204 89.6765C113.174 90.2342 113.267 90.7854 113.359 91.3366C113.373 91.5831 113.634 91.8164 113.829 91.9914C114.603 92.5682 115.763 92.3211 116.208 91.4324C116.492 90.9848 116.58 90.3621 116.741 89.921C116.785 89.6097 116.829 89.2984 116.924 88.799C117.127 89.0972 117.257 89.2139 117.329 89.3954C117.459 89.5121 117.531 89.6936 117.661 89.8103C118.384 90.5752 118.935 90.4841 119.633 89.7055C119.749 89.5757 119.866 89.446 120.04 89.2513C120.74 90.6971 121.432 92.0198 122.06 93.2841C122.444 93.5108 122.451 93.6341 122.523 93.8156ZM123.815 95.9097C123.415 96.4871 122.689 96.7728 122.087 97.052C118.843 98.7074 115.588 99.0659 112.17 97.6409C109.259 96.4362 106.871 94.6476 104.702 92.353C103.054 90.525 101.827 88.4893 101.26 86.1095C100.707 83.9761 100.712 81.8749 101.398 79.7993C101.88 78.476 102.361 77.1528 102.973 75.9462C104.481 73.0854 106.313 70.5162 108.4 68.0572C109.039 67.3435 109.744 66.6881 110.383 65.9744C110.441 65.9095 110.565 65.903 110.688 65.8964C110.976 66.6226 111.148 67.4786 111.32 68.3345C111.146 68.5292 110.971 68.7238 110.79 68.7953C110.013 69.2691 109.432 69.9179 108.915 70.6251C107.127 72.8829 105.78 75.3026 104.759 78.014C104.175 79.7135 103.902 81.4582 104.188 83.235C104.353 83.9677 104.395 84.707 104.436 85.4463C104.956 89.188 106.907 91.9886 109.815 94.2439C111.168 95.2225 112.798 95.6302 114.363 95.9795C117.304 96.6265 120.139 96.4758 122.701 94.7948C122.701 94.7948 122.825 94.7882 122.948 94.7817C123.39 94.9436 123.657 95.3001 123.815 95.9097Z" fill="#85B472"/>
<path d="M109.685 84.3023C109.453 84.5619 109.48 85.0547 109.741 85.288C110.196 85.6964 110.936 85.6571 111.408 85.2612C111.706 85.06 111.801 84.5606 111.476 84.2689C111.143 83.8541 110.15 83.7832 109.685 84.3023Z" fill="#85B472"/>
<path d="M111.258 72.7252C111.025 72.9847 110.988 73.4192 111.183 73.5942C111.444 73.8276 111.814 73.8079 112.046 73.5484C112.221 73.3537 112.265 73.0424 112.128 72.8025C111.867 72.5692 111.432 72.5305 111.258 72.7252Z" fill="#85B472"/>
<path d="M222.066 162.428C222.997 161.39 223.739 160.3 224.162 159.042C224.271 158.789 224.309 158.354 224.295 158.108C224.274 157.738 224.123 157.252 223.979 156.889C223.9 156.584 223.698 156.286 223.437 156.053C223.112 155.761 222.793 155.593 222.351 155.431C220.954 154.763 219.513 154.407 217.948 154.058C212.63 152.92 207.364 151.593 202.149 150.078C199.07 149.191 196.115 148.298 193.037 147.411C192.472 147.256 191.907 147.1 191.407 147.003C190.095 146.764 189.065 147.128 188.453 148.334C188.009 149.223 187.5 150.053 187.244 150.994C186.322 154.38 186.445 157.648 188.046 160.838C190.066 164.871 193.088 168.047 197.041 170.185C201.63 172.66 206.485 173.267 211.478 170.839C212.138 170.495 212.799 170.151 213.394 169.748C216.138 167.996 218.687 166.068 220.897 163.603C221.245 163.214 221.718 162.818 222.066 162.428ZM193.59 149.544C194.98 150.088 196.37 150.632 197.819 151.112C197.644 151.306 197.528 151.436 197.412 151.566C196.714 152.344 196.742 152.837 197.523 153.537C197.653 153.654 197.842 153.706 197.972 153.822C198.102 153.939 198.29 153.991 198.609 154.159C198.123 154.309 197.818 154.387 197.514 154.465C196.969 154.679 196.483 154.828 196.069 155.159C195.235 155.698 195.116 156.878 195.774 157.585C195.969 157.76 196.229 157.993 196.476 157.98C197.034 158.012 197.592 158.044 198.143 157.953C198.817 157.856 199.42 157.576 200.029 157.421C200.334 157.343 200.638 157.265 200.943 157.187C201.087 157.55 200.782 157.628 200.666 157.757C200.492 157.952 200.375 158.082 200.201 158.276C200.026 158.471 199.917 158.724 200.119 159.022C200.256 159.262 200.633 159.366 200.873 159.229C201.359 159.08 201.78 158.872 202.259 158.6C203.514 157.853 204.438 156.692 205.303 155.595C205.419 155.466 205.34 155.161 205.443 154.785C203.852 156.167 202.703 157.711 200.78 158.678C201.173 157.978 201.594 157.77 201.877 157.322C202.11 157.063 202.408 156.862 202.264 156.498C202.185 156.194 201.866 156.025 201.315 156.116C200.822 156.143 200.401 156.35 199.908 156.376C199.111 156.481 198.378 156.643 197.581 156.747C197.399 156.819 197.204 156.644 196.762 156.482C197.183 156.274 197.423 156.138 197.662 156.002C198.025 155.859 198.518 155.832 198.881 155.69C199.425 155.475 199.904 155.203 200.188 154.755C200.639 153.99 200.539 153.315 199.83 152.797C199.7 152.68 199.446 152.57 199.121 152.278C200.158 152.038 200.955 151.934 201.774 152.199C204.664 153.034 207.561 153.992 210.328 154.834C210.746 155.677 211.093 156.338 211.504 157.058C211.987 157.959 211.971 158.763 211.397 159.535C211.338 159.6 211.157 159.671 211.041 159.801C210.657 159.574 210.448 159.153 210.115 158.738C209.783 158.323 209.574 157.902 209.183 157.552C208.923 157.319 208.597 157.027 208.235 157.17C207.872 157.313 207.704 157.63 207.667 158.065C207.688 158.435 207.709 158.804 207.606 159.18C207.569 159.615 207.467 159.991 207.364 160.367C207.313 160.556 207.132 160.627 206.957 160.822C206.56 160.348 206.221 159.81 205.888 159.395C205.772 159.525 205.649 159.532 205.656 159.655C205.574 160.401 205.862 161.127 206.448 161.652C206.904 162.06 207.397 162.034 207.804 161.58C208.269 161.061 208.481 160.432 208.569 159.809C208.613 159.498 208.657 159.186 208.753 158.687C209.02 159.044 209.15 159.16 209.288 159.4C209.555 159.757 209.699 160.12 209.966 160.476C210.631 161.306 211.617 161.254 212.25 160.417C213.173 159.255 213.278 157.829 212.585 156.506C212.441 156.143 212.174 155.786 211.907 155.43C212.088 155.358 212.146 155.293 212.269 155.287C214.587 155.843 216.789 156.53 217.557 156.983C215.594 159.436 213.363 161.532 210.612 163.161C209.059 164.108 207.419 164.628 205.629 164.662C204.331 164.669 202.983 164.864 201.613 164.69C199.621 164.425 197.97 163.647 196.48 162.429C194.989 161.211 193.855 159.726 193.193 157.846C192.609 156.27 192.084 154.63 192.11 152.898C192.178 151.906 192.245 150.913 192.566 150.031C192.676 149.778 192.843 149.46 193.011 149.143C193.278 149.499 193.401 149.493 193.59 149.544ZM192.199 149C192.206 149.124 192.206 149.124 192.213 149.247C190.822 151.978 190.982 154.812 191.946 157.665C192.465 159.182 193.048 160.758 194.168 161.996C196.67 164.705 199.667 166.338 203.501 166.381C204.24 166.342 205.045 166.361 205.726 166.387C207.524 166.476 209.228 166.015 210.854 165.249C213.379 164.002 215.695 162.334 217.744 160.31C218.391 159.719 218.972 159.071 219.358 158.247C219.41 158.059 219.649 157.922 219.758 157.669C220.628 157.747 221.433 157.766 222.251 158.031C222.2 158.219 222.207 158.343 222.207 158.343C221.632 159.115 221.058 159.887 220.353 160.542C218.137 162.884 215.783 164.987 213.104 166.798C211.972 167.538 210.716 168.284 209.446 168.784C207.458 169.693 205.37 169.928 203.189 169.611C200.696 169.249 198.604 168.31 196.607 166.871C194.089 164.966 192.05 162.788 190.535 160.026C188.745 156.785 188.745 153.509 190.036 150.104C190.248 149.475 190.518 148.781 190.983 148.262C191.367 148.488 191.816 148.774 192.199 149Z" fill="#85B472"/>
<path d="M203.95 161.167C203.717 161.426 203.224 161.453 202.964 161.219C202.508 160.811 202.466 160.072 202.808 159.559C202.976 159.241 203.462 159.092 203.787 159.383C204.178 159.733 204.357 160.713 203.95 161.167Z" fill="#85B472"/>
<path d="M215.226 158.405C214.993 158.664 214.565 158.749 214.37 158.574C214.11 158.341 214.089 157.971 214.321 157.711C214.496 157.517 214.8 157.439 215.054 157.549C215.372 157.717 215.393 158.087 215.226 158.405Z" fill="#85B472"/>
<path d="M185.287 102.096C183.581 100.333 181.707 98.888 179.658 97.6375C178.312 96.7821 176.959 95.8036 175.555 95.0131C173.89 93.9893 172.051 93.1602 170.161 92.5192C165.439 90.9782 160.73 89.6837 155.868 88.9534C149.195 87.8869 142.605 88.299 136.078 89.82C133.025 90.4766 130.253 91.7363 127.697 93.5405C126.093 94.6763 124.625 96.052 123.411 97.5377C123.062 97.927 122.786 98.4979 122.437 98.8872C122.153 99.3348 121.869 99.7824 121.52 100.172C119.746 102.676 118.29 105.349 117.659 108.41C117.556 108.786 117.519 109.221 117.417 109.597C116.574 113.288 116.653 116.867 117.478 120.531C118.34 123.76 119.564 126.847 121.326 129.595C122.684 131.748 124.441 133.323 126.555 134.632C128.61 136.005 130.884 136.873 133.144 137.495C137.411 138.627 141.752 138.891 146.181 138.532C150.611 138.173 154.889 137.327 159.075 135.931C162.535 134.82 165.988 133.586 169.239 132.054C172.49 130.522 175.467 128.51 178.169 126.018C179.462 124.837 180.69 123.597 181.853 122.3C182.965 121.19 184.012 120.022 184.993 118.796C185.858 117.7 186.658 116.545 187.458 115.39C188.259 114.235 188.805 112.97 189.229 111.712C190.01 109.137 189.683 106.621 188.493 104.15C188.075 103.308 187.424 102.724 186.656 102.271C186.331 101.979 186.208 101.986 185.287 102.096ZM136.326 131.455C136.442 131.325 136.384 131.39 136.326 131.455C136.442 131.325 136.384 131.39 136.326 131.455C135.84 131.605 135.296 131.819 134.752 132.033C134.694 132.098 134.563 131.981 134.498 131.923C135.34 131.508 135.58 131.371 136.138 131.403C136.196 131.339 136.203 131.462 136.326 131.455ZM119.926 105.88C120.201 106.359 120.105 106.859 120.01 107.358C119.907 107.734 119.849 107.799 119.442 108.253C119.596 107.689 119.691 107.19 119.729 106.755C119.773 106.444 119.817 106.133 119.926 105.88C119.926 105.88 119.985 105.815 119.926 105.88C120.05 105.873 120.05 105.873 120.043 105.75C119.985 105.815 119.985 105.815 119.926 105.88ZM142.439 133.54C142.497 133.475 142.555 133.41 142.555 133.41C142.555 133.41 142.497 133.475 142.439 133.54C141.713 133.826 141.06 134.293 140.269 134.521C140.262 134.397 140.197 134.339 140.197 134.339C140.713 133.632 141.511 133.528 142.308 133.424C142.432 133.417 142.439 133.54 142.439 133.54ZM185.942 103.853C186.079 104.093 186.21 104.21 186.282 104.392C186.728 105.727 187.109 107.005 187.185 108.36C187.292 109.158 187.153 109.968 186.89 110.786C186.108 113.361 184.877 115.651 183.01 117.604C182.08 118.642 180.954 119.505 179.828 120.368C177.694 121.965 175.415 123.198 172.868 124.075C171.048 124.666 169.22 125.134 167.32 125.42C163.832 126.038 160.402 126.591 156.914 127.209C156.117 127.314 155.261 127.483 154.463 127.587C149.801 128.205 145.104 128.208 140.366 127.471C136.873 126.915 133.644 125.542 130.582 123.851C128.794 122.834 127.348 121.304 126.323 119.567C124.958 117.291 124.073 114.743 123.311 112.188C122.246 108.661 122.422 105.191 123.278 101.747C123.585 100.618 124.081 99.5413 124.829 98.5746C126.625 96.44 128.695 94.7852 131.162 93.6035C133.208 92.6297 135.399 92.0189 137.661 91.5896C143.898 90.393 150.262 90.3637 156.507 91.5147C160.195 92.2456 163.831 93.1646 167.475 94.2068C170.053 94.9966 172.581 95.9745 174.882 97.3352C177.249 98.7542 179.674 100.108 181.983 101.592C183.199 102.331 184.473 103.005 185.217 104.139C185.34 104.133 185.463 104.126 185.521 104.061C185.703 103.99 185.761 103.925 185.942 103.853ZM148.391 136.066C148.688 135.865 148.928 135.729 149.167 135.592C151.272 134.554 153.304 133.333 155.214 132.12C156.172 131.574 157.195 131.087 158.225 130.724C158.348 130.717 158.472 130.711 158.718 130.697C158.318 131.275 157.709 131.431 157.288 131.639C155.786 132.398 154.283 133.158 152.846 133.976C152.07 134.449 151.104 134.872 150.53 135.644C150.414 135.773 150.297 135.903 150.174 135.91C149.623 136.001 149.014 136.157 148.391 136.066ZM122.813 123.09C122.427 123.914 122.078 124.303 121.483 124.705C121.072 123.986 120.79 123.383 120.56 122.592C120.879 122.76 121.262 122.987 121.574 123.032C122.074 123.129 122.444 123.11 122.813 123.09ZM147.167 129.705C146.208 130.25 145.243 130.672 144.083 130.919C144.548 130.4 144.839 130.076 145.246 129.622C145.869 129.712 146.485 129.679 147.167 129.705ZM145.752 136.392C144.947 136.373 144.208 136.412 143.468 136.452C143.345 136.458 143.04 136.536 143.026 136.29C143.875 135.997 144.731 135.828 145.58 135.536C145.638 135.471 145.703 135.529 145.826 135.523C145.891 135.581 145.891 135.581 146.014 135.575C145.963 135.763 145.919 136.074 145.752 136.392ZM138.744 132.686C139.986 131.693 140.77 131.343 141.574 131.362C140.89 132.387 139.846 132.504 138.744 132.686ZM157.679 128.714C155.958 129.979 155.116 130.395 153.949 130.518C154.247 130.317 154.486 130.181 154.726 130.045C155.205 129.772 155.749 129.558 156.098 129.168C156.512 128.837 156.998 128.688 157.679 128.714ZM135.816 135.561C135.925 135.308 136.042 135.178 136.042 135.178C136.528 135.028 136.955 134.944 137.376 134.736C137.435 134.671 137.565 134.788 137.63 134.846C137.339 135.171 137.048 135.495 136.823 135.878C136.569 135.768 136.193 135.664 135.816 135.561ZM119.654 119.674C119.582 119.492 119.517 119.434 119.51 119.311C119.431 119.006 119.352 118.701 119.331 118.332C119.578 118.319 119.701 118.312 119.947 118.299C120.068 119.343 120.068 119.343 119.654 119.674ZM175.342 126.292C175.561 125.786 175.561 125.786 176.816 125.039C176.351 125.558 175.879 125.954 175.342 126.292ZM123.717 127.058C123.615 127.435 123.759 127.798 123.331 127.882C123.194 127.642 123.122 127.461 122.985 127.221C123.289 127.143 123.536 127.13 123.717 127.058ZM132.93 127.125C132.386 127.339 132.386 127.339 131.893 127.365C132.067 127.171 132.183 127.041 132.234 126.853C132.481 126.84 132.786 126.762 132.93 127.125ZM126.706 123.068C126.35 123.334 126.045 123.412 125.487 123.38C125.713 122.998 125.946 122.738 126.308 122.595C126.504 122.77 126.576 122.952 126.706 123.068ZM141.294 136.258C140.931 136.401 140.497 136.362 139.99 136.142C140.352 135.999 140.592 135.863 140.773 135.791C141.078 135.713 141.273 135.888 141.294 136.258ZM128.908 132.529C129.111 132.827 129.306 133.002 129.501 133.177C128.878 133.087 128.878 133.087 128.908 132.529ZM167.229 127.094C167.171 127.159 167.178 127.282 167.113 127.223C166.99 127.23 166.808 127.301 166.685 127.308C166.743 127.243 166.678 127.185 166.736 127.12C166.917 127.048 167.041 127.042 167.222 126.97C167.164 127.035 167.164 127.035 167.229 127.094ZM127.137 130.708C127.13 130.585 127.123 130.461 127.181 130.397C127.297 130.267 127.544 130.254 127.551 130.377C127.558 130.5 127.5 130.565 127.441 130.63C127.448 130.753 127.383 130.695 127.137 130.708ZM120.938 104.096C120.887 104.284 120.836 104.472 120.778 104.537L120.654 104.543C120.648 104.42 120.641 104.297 120.757 104.167C120.75 104.044 120.873 104.037 120.938 104.096ZM127.287 125.695C127.41 125.688 127.41 125.688 127.533 125.682C127.54 125.805 127.547 125.928 127.547 125.928C127.489 125.993 127.424 125.935 127.301 125.941C127.235 125.883 127.294 125.818 127.287 125.695ZM118.82 113.663L118.755 113.604C118.748 113.481 118.865 113.351 118.858 113.228L118.923 113.286C118.93 113.41 118.937 113.533 118.82 113.663C118.82 113.663 118.886 113.721 118.82 113.663ZM137.666 128.912C137.608 128.977 137.543 128.919 137.484 128.984C137.419 128.925 137.419 128.925 137.412 128.802C137.471 128.737 137.536 128.796 137.594 128.731C137.659 128.789 137.659 128.789 137.666 128.912Z" fill="#85B472"/>
<path d="M133.707 113.551C135.687 115.794 137.75 117.291 140.212 118.211C143.304 119.344 146.413 119.673 149.575 118.763C151.766 118.153 153.884 117.36 155.794 116.146C156.81 115.536 157.689 114.686 158.315 113.726C158.882 112.831 159.268 112.007 159.148 110.963C159.134 110.717 159.178 110.405 159.222 110.094C159.427 109.342 159.574 108.654 159.843 107.96C160.041 107.084 159.993 106.222 159.762 105.431C159.388 104.277 158.833 103.194 158.096 102.183C156.369 100.05 154.293 98.3064 151.81 97.0171C150.659 96.3368 149.405 96.0326 148.159 95.8517C145.855 95.5416 143.513 95.6661 141.323 96.2769C137.791 97.2062 134.865 99.0301 132.879 102.164C130.951 105.232 130.885 108.449 132.428 111.704C132.84 112.423 133.433 113.071 133.707 113.551ZM157.331 112.728C156.931 113.305 156.408 113.889 155.871 114.227C153.134 116.103 150.101 117.129 146.774 117.306C146.281 117.332 145.723 117.3 145.223 117.203C141.491 116.783 138.603 114.898 136.167 112.246C135.112 111.067 134.477 109.679 134.14 108.09C133.948 106.865 134.001 105.626 134.432 104.491C135.146 102.908 136.12 101.559 137.609 100.553C140.223 98.6835 143.276 98.0269 146.501 98.2262C148.175 98.3226 149.682 98.7368 151.028 99.5922C152.946 100.726 154.631 102.12 156.084 103.772C156.677 104.421 157.089 105.14 157.5 105.86C157.918 106.703 158.162 107.74 157.964 108.616C157.76 109.368 157.678 110.114 157.415 110.931C157.204 111.561 156.985 112.067 157.331 112.728Z" fill="#85B472"/>
<path d="M134.036 95.2425C133.971 95.1842 133.841 95.0675 133.783 95.1324C133.116 95.3533 132.506 95.5092 131.969 95.8468C130.409 96.6712 128.855 97.6189 127.497 98.7416C126.139 99.8642 125.541 101.317 125.638 103.042C125.652 103.289 125.673 103.658 125.752 103.963C126.024 105.494 125.984 106.979 125.763 108.535C125.579 109.657 125.583 110.831 125.893 111.927C126.044 112.413 126.202 113.023 126.534 113.438C127.278 114.572 128.022 115.707 128.7 116.783C129.242 117.619 129.791 118.579 130.332 119.415C131.083 120.673 132.125 121.606 133.58 122.208C134.782 122.701 135.998 123.439 137.142 123.996C137.714 124.275 138.163 124.56 138.735 124.839C139.878 125.396 141.067 125.642 142.299 125.576C144.452 125.4 146.612 125.347 148.772 125.294C150.621 125.196 152.463 124.974 154.29 124.506C155.632 124.188 156.981 123.992 158.343 124.044C158.713 124.024 159.025 124.069 159.394 124.049C161.568 124.243 163.656 124.008 165.803 123.709C166.905 123.527 167.884 123.351 168.914 122.987C171.518 122.046 174.058 121.045 176.597 120.045C177.323 119.76 178.041 119.351 178.825 119C180.204 118.247 181.316 117.137 182.102 115.736C182.604 114.783 183.165 113.764 183.667 112.811C183.777 112.558 183.886 112.305 183.937 112.117C183.93 111.993 183.858 111.812 183.721 111.572C183.546 111.767 183.423 111.773 183.307 111.903C182.274 113.317 181.183 114.796 180.151 116.211C179.351 117.366 178.218 118.105 177.014 118.664C175.504 119.3 173.93 119.878 172.421 120.515C171.274 121.008 170.121 121.378 168.968 121.749C167.879 122.177 166.784 122.483 165.617 122.606L165.494 122.613C163.289 122.977 161.071 123.095 158.846 123.09C157.113 123.058 155.518 123.267 153.879 123.787C152.174 124.248 150.398 124.528 148.608 124.561C146.512 124.672 144.359 124.849 142.329 125.018C140.792 125.162 139.481 124.923 138.2 124.126C137.114 123.504 136.028 122.882 134.884 122.324C134.501 122.098 134.059 121.936 133.617 121.774C132.234 121.353 131.251 120.355 130.565 119.156C129.944 118.014 129.265 116.938 128.58 115.739C127.692 114.241 126.862 112.679 126.641 110.96C126.542 110.286 126.5 109.547 126.523 108.866C126.737 107.186 126.763 105.454 126.296 103.749C126.224 103.567 126.275 103.379 126.203 103.198C125.86 101.486 126.458 100.033 127.758 98.9749C129.465 97.4629 131.432 96.1843 133.608 95.3271C133.797 95.3789 133.978 95.3074 134.036 95.2425C134.036 95.2425 134.094 95.1776 134.036 95.2425Z" fill="#85B472"/>
<path d="M135.492 117.72C135.331 118.161 135.475 118.524 135.742 118.88C136.537 119.827 137.333 120.773 138.36 121.46C141.436 123.398 144.768 124.395 148.437 123.705C150.091 123.432 151.665 122.854 153.102 122.036C153.581 121.763 153.995 121.432 154.272 120.861C154.388 120.732 154.374 120.485 154.367 120.362C154.23 120.122 154.042 120.07 153.795 120.083C153.367 120.168 152.998 120.188 152.635 120.331C151.598 120.571 150.568 120.935 149.531 121.175C146.912 121.871 144.434 121.755 141.848 120.842C139.893 120.143 138.112 119.249 136.433 117.979C136.101 117.564 136.043 117.629 135.492 117.72Z" fill="#85B472"/>
<path d="M143.375 93.2016C143.505 93.3183 143.635 93.4349 143.693 93.3701C144.251 93.4022 144.802 93.3111 145.36 93.3432C146.839 93.2646 148.383 93.2443 149.941 93.4705C150.999 93.5996 152.173 93.599 153.224 93.6049C154.152 93.6174 155.138 93.565 156.124 93.5126C157.421 93.5054 158.668 93.6863 159.863 94.0554C161.811 94.6315 163.701 95.2726 165.65 95.8487C166.28 96.0624 166.975 96.3344 167.612 96.6713C169.9 97.7855 172.137 99.0879 174.315 100.455C174.764 100.74 175.271 100.96 175.712 101.122C176.791 101.621 177.928 102.055 179.007 102.554C179.897 103.001 180.723 103.39 181.497 103.966C182.076 104.368 182.539 104.9 182.885 105.561C183.701 106.877 184.154 108.336 184.484 109.801C184.73 109.788 184.658 109.607 184.709 109.419C184.702 109.295 184.754 109.107 184.623 108.991C184.105 107.473 183.827 105.82 182.822 104.452C182.49 104.037 182.092 103.564 181.586 103.344C180.5 102.722 179.472 102.035 178.451 101.471C176.982 100.622 175.636 99.767 174.167 98.9182C171.677 97.5057 169.193 96.2165 166.434 95.4981C165.18 95.1939 164.043 94.76 162.79 94.4559C161.718 94.0803 160.653 93.828 159.581 93.4524C158.386 93.0834 157.205 92.9608 155.973 93.0263C154.617 93.0983 153.32 93.1055 151.964 93.1776C151.348 93.2103 150.667 93.1848 150.043 93.0943C147.797 92.7193 145.579 92.8373 143.375 93.2016Z" fill="#85B472"/>
<path d="M162.458 107.141C162.328 107.024 162.198 106.908 162.133 106.849C161.944 106.798 161.814 106.681 161.633 106.752C161.328 106.83 161.342 107.077 161.414 107.258C161.7 109.035 161.297 110.663 160.713 112.363C160.122 113.939 159.531 115.515 158.564 116.988C158.448 117.117 158.396 117.306 158.345 117.494C158.287 117.559 158.294 117.682 158.359 117.74C158.424 117.798 158.489 117.857 158.619 117.973C158.685 118.032 158.743 117.967 158.801 117.902C158.982 117.831 159.222 117.694 159.338 117.565C160.85 115.878 162.296 114.132 162.976 111.933C163.341 110.74 163.395 109.501 163.021 108.347C162.746 107.867 162.537 107.446 162.458 107.141Z" fill="#85B472"/>
<path d="M130.995 109.246C130.691 109.324 130.516 109.519 130.465 109.707C130.244 111.263 130.451 112.735 131.571 113.973L131.636 114.032C131.825 114.083 132.013 114.135 132.136 114.129C132.318 114.057 132.304 113.811 132.232 113.629C132.095 113.389 132.016 113.085 131.878 112.845C131.453 111.879 131.151 110.906 131.153 109.855C131.205 109.667 131.133 109.486 131.061 109.304L130.995 109.246Z" fill="#85B472"/>
<path d="M135.734 94.658C135.118 94.6907 134.567 94.7818 134.16 95.236C134.646 95.0866 135.197 94.9955 135.734 94.658Z" fill="#85B472"/>
<path d="M138.917 94.118C138.787 94.0014 138.715 93.82 138.534 93.8914C138.229 93.9693 137.983 93.9824 137.737 93.9955C137.809 94.1769 137.997 94.2287 138.12 94.2222C138.301 94.1508 138.613 94.196 138.917 94.118Z" fill="#85B472"/>
<path d="M143.376 93.2015C143.195 93.2729 143.007 93.2211 142.579 93.3056C143.086 93.5257 143.267 93.4544 143.376 93.2015Z" fill="#85B472"/>
<path d="M140.201 93.8646C140.057 93.5017 139.701 93.7676 139.441 93.5344C139.585 93.8973 139.948 93.7546 140.201 93.8646Z" fill="#85B472"/>
<path d="M142.026 93.3964L141.968 93.4617L142.092 93.4551C142.092 93.4551 142.092 93.4551 142.026 93.3964Z" fill="#85B472"/>
<path d="M141.173 93.5656C141.238 93.6242 141.238 93.6242 141.297 93.559L141.231 93.5003L141.173 93.5656Z" fill="#85B472"/>
<path d="M140.199 93.8651C140.257 93.8 140.257 93.8 140.381 93.7934L140.439 93.7283L140.316 93.7348C140.192 93.7414 140.257 93.8 140.199 93.8651Z" fill="#85B472"/>
<path d="M137.614 94.0019C137.433 94.0733 137.309 94.0799 137.128 94.1513C137.388 94.3845 137.446 94.3196 137.614 94.0019C137.614 94.0019 137.672 93.9371 137.614 94.0019Z" fill="#85B472"/>
<path d="M136.697 94.2365C136.957 94.4697 137.015 94.4048 137.183 94.0871C137.001 94.1585 136.82 94.2299 136.697 94.2365C136.639 94.3013 136.697 94.2365 136.697 94.2365Z" fill="#85B472"/>
<path d="M136.212 94.3854C136.473 94.6187 136.473 94.6187 136.698 94.2361C136.517 94.3075 136.336 94.3789 136.212 94.3854Z" fill="#85B472"/>
<path d="M135.668 94.6C135.986 94.7683 136.103 94.6386 136.147 94.3275C136.031 94.4572 135.849 94.5286 135.668 94.6Z" fill="#85B472"/>
<path d="M150.399 102.653C150.046 101.869 149.337 101.35 148.693 100.89C147.6 100.145 146.34 99.7175 144.963 99.4199C144.152 99.2776 143.354 99.3818 142.564 99.6092C141.534 99.9729 140.706 100.635 140.073 101.472C139.375 102.25 139.185 103.249 139.552 104.28C140.128 105.733 141.053 106.796 142.451 107.463C142.834 107.69 143.334 107.787 143.769 107.825C145.885 108.084 148.831 106.629 149.699 104.482C149.866 104.164 149.969 103.788 150.071 103.412C150.187 103.282 150.297 103.029 150.399 102.653ZM149.074 102.167C149.018 104.457 147.79 105.696 145.918 106.475C143.741 107.333 141.388 106.16 140.705 103.91C140.547 103.3 140.577 102.743 140.926 102.353C142.089 101.056 143.468 100.303 145.279 100.639C146.279 100.833 147.163 101.157 147.988 101.545C148.365 101.649 148.69 101.941 149.074 102.167Z" fill="#85B472"/>
<path d="M175.515 173.121C176.408 172.518 176.852 171.629 176.978 170.572C177.059 169.826 177.076 169.022 176.846 168.231C176.386 166.648 175.686 165.203 174.384 164.036C174.189 163.861 173.928 163.628 173.733 163.453C172.489 162.221 171.42 160.795 170.655 159.291C170.165 158.266 169.551 157.248 168.879 156.295C167.347 154.338 165.408 152.834 163.302 151.649C161.131 150.405 158.675 149.608 156.176 149.123C152.923 148.431 149.568 148.115 146.226 148.045C145.175 148.039 144.124 148.033 143.066 147.904C141.704 147.853 140.385 147.491 139.235 146.81C138.916 146.642 138.663 146.532 138.344 146.363C138.156 146.312 137.967 146.26 137.779 146.208C137.468 146.163 137.242 146.546 137.321 146.85C137.393 147.032 137.523 147.149 137.718 147.324C138.239 147.79 138.76 148.257 139.223 148.788C139.815 149.437 140.408 150.085 140.878 150.74C141.152 151.219 141.536 151.446 142.043 151.666C142.861 151.932 143.265 152.528 143.619 153.313C144.065 154.648 144.511 155.984 144.957 157.32C145.482 158.96 145.949 160.666 146.54 162.365C146.849 163.46 147.281 164.55 147.713 165.639C149.106 168.407 151.086 170.65 153.83 172.173C155.234 172.963 156.813 173.559 158.378 173.909C161.203 174.685 164.065 175.027 166.978 175.182C168.899 175.265 170.799 174.978 172.568 174.575C173.657 174.147 174.687 173.783 175.515 173.121ZM144.961 149.719C146.882 149.802 148.795 149.763 150.658 149.911C153.267 150.143 155.824 150.563 158.331 151.171C160.584 151.669 162.728 152.421 164.711 153.613C166.44 154.695 168.061 156.03 169.209 157.761C169.484 158.241 169.816 158.656 170.032 159.2C170.732 160.646 171.606 161.897 172.545 163.207C172.884 163.745 173.405 164.212 173.926 164.678C175.17 165.91 175.804 167.297 176.083 168.951C176.155 169.132 176.104 169.32 176.111 169.444C176.194 170.922 175.568 171.882 174.241 172.447C173.275 172.869 172.238 173.11 171.194 173.227C169.599 173.436 167.99 173.398 166.374 173.236C163.693 172.823 161.012 172.409 158.434 171.619C157.05 171.198 155.602 170.719 154.328 170.045C151.845 168.756 149.885 166.883 148.448 164.426C147.893 163.343 147.395 162.196 147.021 161.041C146.287 158.979 145.611 156.853 144.753 154.797C144.465 154.071 144.119 153.41 143.83 152.684C143.484 152.022 142.963 151.556 142.333 151.342C141.826 151.122 141.436 150.772 141.096 150.234C140.887 149.812 140.562 149.521 140.353 149.099C141.989 149.63 143.475 149.675 144.961 149.719Z" fill="#85B472"/>
<path d="M163.08 156.48C162.912 156.798 162.607 156.876 162.303 156.954C161.635 157.175 160.968 157.396 160.236 157.558C160.054 157.63 159.931 157.636 159.815 157.766C159.705 158.019 159.894 158.071 160.082 158.123C161.486 158.913 162.723 160.021 163.779 161.201C165.101 162.738 166.475 164.086 168.031 165.362C168.812 166.062 169.528 166.704 170.251 167.469C170.446 167.644 170.641 167.819 170.539 168.195C170.409 168.079 170.22 168.027 170.09 167.91C168.925 166.983 167.761 166.057 166.596 165.13C165.561 164.32 164.65 163.503 163.674 162.628C162.892 161.928 162.176 161.286 161.221 160.781C160.967 160.671 160.714 160.561 160.395 160.392C160.409 160.639 160.416 160.762 160.423 160.885C160.753 162.351 161.141 163.751 161.536 165.275C161.615 165.58 161.687 165.761 161.766 166.066C161.592 166.261 161.462 166.144 161.397 166.086C161.259 165.846 161.064 165.671 161.05 165.425C160.402 163.791 159.877 162.15 159.598 160.497C159.591 160.373 159.526 160.315 159.512 160.069C158.122 159.525 156.68 159.169 155.064 159.007C155.106 159.747 155.206 160.421 155.305 161.095C155.498 162.321 155.626 163.488 155.819 164.714C155.832 164.96 155.846 165.207 155.795 165.395C155.802 165.518 155.563 165.654 155.432 165.538C155.302 165.421 155.172 165.304 155.1 165.123C154.963 164.883 154.884 164.578 154.87 164.332C154.526 162.62 154.124 160.973 154.085 159.183C154.085 159.183 154.078 159.06 154.013 159.001C153.825 158.95 153.571 158.84 153.325 158.853C149.812 157.927 147.105 155.97 145.018 152.93C144.881 152.69 144.685 152.515 144.672 152.268C144.455 151.724 144.862 151.269 145.486 151.36C145.797 151.405 146.116 151.574 146.311 151.749C146.695 151.975 147.027 152.39 147.411 152.617C148.185 153.194 148.966 153.894 149.74 154.471C151.028 155.391 152.36 156 153.867 156.414C154.555 156.563 155.178 156.653 155.808 156.867C156.562 157.074 157.315 157.281 158.068 157.488C158.445 157.592 158.692 157.579 158.996 157.501C159.722 157.215 160.571 156.923 161.361 156.695C161.789 156.611 162.159 156.591 162.587 156.507C162.754 156.189 162.819 156.247 163.08 156.48Z" fill="#85B472"/>
<path d="M166.362 169.714C166.239 169.721 166.116 169.728 166.051 169.669C165.92 169.553 165.79 169.436 165.783 169.313C165.574 168.891 165.3 168.411 165.091 167.99C165.019 167.809 165.063 167.497 165.049 167.251C165.107 167.186 165.165 167.121 165.288 167.114C165.347 167.05 165.477 167.166 165.477 167.166C165.542 167.225 165.607 167.283 165.614 167.406C165.902 168.132 166.067 168.865 166.355 169.591C166.413 169.526 166.42 169.65 166.362 169.714Z" fill="#85B472"/>
<path d="M157.863 168.066C157.842 167.696 157.698 167.333 157.684 167.086C157.677 166.963 157.728 166.775 157.779 166.587C157.837 166.522 158.084 166.509 158.149 166.567C158.214 166.626 158.279 166.684 158.286 166.807C158.444 167.417 158.479 168.033 158.637 168.642C158.637 168.642 158.702 168.701 158.644 168.766C158.586 168.83 158.535 169.019 158.469 168.96C158.346 168.967 158.281 168.908 158.216 168.85C158.144 168.669 158.137 168.545 158.007 168.429C157.935 168.247 157.928 168.124 157.863 168.066Z" fill="#85B472"/>
<path d="M155.091 154.001C155.142 153.812 155.193 153.624 155.251 153.559C155.658 153.105 156.072 152.774 156.616 152.56C156.674 152.495 156.739 152.553 156.739 152.553C156.805 152.612 156.928 152.605 156.993 152.664C157.058 152.722 157 152.787 157.007 152.91C156.949 152.975 156.89 153.04 156.832 153.105C156.353 153.377 155.881 153.773 155.402 154.046C155.272 153.929 155.272 153.929 155.091 154.001Z" fill="#85B472"/>
</g>
<defs>
<clipPath id="clip0_171_1056">
<rect width="219.567" height="109.078" fill="white" transform="matrix(-0.744732 -0.667364 -0.667364 0.744732 236.314 146.531)"/>
</clipPath>
</defs>
</svg>
