<svg width="120" height="113" viewBox="0 0 120 113" fill="none" xmlns="http://www.w3.org/2000/svg">
<g opacity="0.15" clip-path="url(#clip0_2062_3)">
<path d="M73.9529 0.866256C73.8448 2.81556 73.3043 4.76487 73.8448 6.71418C73.9529 7.03907 74.1691 7.25566 74.4935 7.25566C76.2232 7.14736 77.9529 7.36395 79.6827 7.25566C80.1151 7.25566 80.4394 6.82248 80.3313 6.3893C80.007 4.76487 79.6827 3.03215 80.007 1.29944C80.1151 0.866256 79.8989 0.649666 79.5746 0.433076C78.8178 0.108191 77.9529 -0.000103518 77.0881 -0.108398C76.3313 -0.108398 75.4664 -0.108398 74.7097 0.216486C74.3854 0.433076 74.1691 0.757961 74.2773 1.08285C74.3854 1.40773 74.8178 1.73262 75.1421 1.51603C76.4394 1.08285 77.9529 1.29944 79.2502 1.73262C79.1421 1.40773 78.9259 1.19114 78.8178 0.866256C78.3854 2.81556 78.7097 4.76487 79.1421 6.60589C79.2502 6.49759 79.4664 6.17271 79.6827 5.84782C77.9529 5.95612 76.2232 5.73953 74.4935 5.84782C74.7097 6.06441 74.9259 6.17271 75.1421 6.3893C74.9259 5.52294 74.9259 4.65658 75.034 3.68192C75.1421 2.70727 75.2502 1.84091 75.3583 0.866256C75.3583 0.541371 75.034 0.216486 74.7097 0.216486C74.2773 0.216486 73.9529 0.541371 73.9529 0.866256Z" fill="#85B472"/>
<path d="M73.9535 5.84766C70.9265 8.55503 70.8184 13.5366 70.3859 17.2186C70.0616 19.6011 69.5211 21.8753 69.3049 24.2578C69.0887 27.29 69.1968 30.214 69.413 33.2463C69.8454 38.2278 71.0346 42.7762 73.6292 47.108C76.2238 51.2232 79.6832 54.6887 83.7914 57.1794C88.1157 59.8868 93.0887 61.2947 98.1697 61.7278C103.143 62.0527 108.656 61.1864 112.656 57.8292C114.278 56.4214 115.683 54.4721 115.899 52.3062C116.116 50.032 115.035 48.191 113.305 46.7831C109.305 43.426 104.116 42.343 99.6832 39.8523C94.2778 36.7117 91.1427 31.4053 88.2238 26.0988C86.4941 22.85 84.8724 19.7094 83.2508 16.3523C82.4941 14.7278 81.6292 13.1034 80.7643 11.479C79.8995 9.96286 79.0346 8.01355 79.3589 6.28084C79.467 5.41448 78.1697 5.08959 78.0616 5.95595C77.7373 8.33844 78.8184 10.6126 79.8995 12.6702C81.3049 15.2693 82.4941 17.8684 83.7914 20.5758C86.0616 25.2324 88.44 30.214 91.5751 34.3292C94.4941 38.2278 98.1697 40.8269 102.602 42.7762C104.872 43.7509 107.251 44.6172 109.413 45.8085C111.467 46.8914 113.954 48.5159 114.386 50.8983C114.818 53.4974 112.872 55.8799 110.926 57.2877C108.872 58.8039 106.494 59.6702 104.008 59.9951C99.0346 60.8615 93.5211 59.9951 88.8724 58.1541C80.1157 54.6887 72.8724 46.5665 71.1427 37.2532C70.0616 31.297 70.1697 25.1242 71.2508 19.1679C71.6832 17.002 71.7914 14.8361 72.2238 12.6702C72.6562 10.6126 73.0887 8.12185 74.8184 6.71401C75.5751 6.28084 74.6022 5.30618 73.9535 5.84766Z" fill="#85B472"/>
<path d="M116.007 52.8482C117.845 49.7077 118.71 45.8091 119.034 42.2353C119.467 38.0118 117.953 34.0049 115.683 30.4312C110.494 22.4174 101.845 16.6777 93.845 12.021C91.5747 10.8298 89.3045 9.53026 86.9261 8.33901C84.6558 7.14777 82.2774 6.06482 79.6828 5.84823C78.818 5.73993 78.818 7.14777 79.6828 7.14777C82.0612 7.25606 84.2234 8.33901 86.2774 9.42196C88.2234 10.3966 90.1693 11.4796 92.0072 12.5625C95.899 14.7284 99.6828 17.2192 103.25 19.9266C109.629 24.7998 117.737 31.9473 117.737 40.6109C117.737 44.4012 116.764 48.8413 114.818 52.1985C114.494 52.9565 115.575 53.6063 116.007 52.8482Z" fill="#85B472"/>
<path d="M115.143 52.74C115.143 59.9958 105.737 64.0027 99.7913 65.194C96.2237 65.952 92.3318 65.7354 88.7642 65.4106C84.4399 64.9774 80.1156 64.111 76.1156 62.3783C72.1156 60.7539 68.548 58.2631 65.8453 54.9059C63.0345 51.6571 61.7372 47.5419 60.9804 43.3184C60.2237 38.8783 60.3318 34.3299 60.7642 29.7815C61.0886 26.8575 61.521 24.1502 62.6021 21.4428C63.8994 18.194 65.4129 15.0534 67.2507 12.1294C68.2237 10.6133 70.9264 6.28151 73.3048 7.36446C74.0615 7.68935 74.8183 6.4981 73.9534 6.17322C71.575 5.09027 69.4129 7.03958 67.8994 8.7723C65.6291 11.4797 64.0075 14.6202 62.494 17.8691C61.4129 20.3599 60.3318 22.8506 59.8994 25.4497C59.0345 30.1064 58.7102 34.7631 59.0345 39.5281C59.3588 44.1847 60.2237 48.8414 62.494 52.9566C64.7642 56.8553 68.3318 60.1041 72.2237 62.27C76.2237 64.5442 80.7642 65.8437 85.3048 66.4935C89.4129 67.1433 93.8453 67.4682 98.0615 66.9267C102.278 66.3852 106.602 64.7608 110.062 62.3783C113.305 60.2124 116.224 56.9635 116.224 52.8483C116.44 51.8737 115.143 51.8737 115.143 52.74Z" fill="#85B472"/>
<path d="M114.062 53.7142C108.441 54.364 102.711 53.8225 97.3055 52.4147C91.5757 50.8986 86.0622 48.2995 81.846 44.1843C79.5757 42.0184 77.846 39.311 76.7649 36.2788C76.4406 35.4124 75.1433 35.8456 75.4676 36.6037C79.4676 48.2995 92.6568 53.7142 103.9 55.0138C107.251 55.447 110.603 55.447 113.954 55.0138C114.819 54.9055 114.927 53.606 114.062 53.7142Z" fill="#85B472"/>
<path d="M76.6563 6.28093C75.6833 11.1542 76.8725 15.9192 77.7373 20.7925C78.4941 25.4491 79.5752 29.9975 81.7373 34.221C85.5211 41.6934 91.7914 48.8408 100.116 51.115C102.386 51.7648 104.764 52.0897 107.143 52.6312C109.737 53.1726 112.008 54.3639 114.71 54.3639C115.575 54.3639 115.575 53.0643 114.71 53.0643C112.44 53.0643 110.386 52.0897 108.224 51.5482C106.278 51.0067 104.332 50.7902 102.386 50.357C98.4941 49.4906 95.0346 47.8662 92.0076 45.2671C85.413 39.4192 81.0887 31.5137 79.4671 22.8501C78.4941 17.6519 76.9806 12.0206 78.0617 6.82241C78.0617 5.73946 76.7644 5.41458 76.6563 6.28093Z" fill="#85B472"/>
<path d="M115.791 52.3068C115.683 48.1916 116.332 43.9681 114.926 40.0695C113.629 36.3875 111.142 33.2469 108.548 30.4313C105.521 27.1824 102.278 24.2585 98.9262 21.3345C95.7911 18.7354 92.764 16.2446 89.3046 14.187C87.3586 12.9958 85.4127 11.9128 83.7911 10.3967C82.1695 8.88057 80.8722 7.14785 79.0343 5.9566C78.2776 5.52342 77.6289 6.71467 78.3857 7.14785C80.1154 8.2308 81.1965 9.74693 82.6019 11.0465C83.7911 12.2377 85.1965 13.2124 86.71 14.0787C89.9532 16.1363 93.1965 18.1939 96.2235 20.5764C99.5749 23.3921 102.926 26.2078 105.953 29.3483C108.656 32.0557 111.251 34.9797 112.98 38.3368C115.251 42.7769 114.494 47.5419 114.602 52.3068C114.494 53.1732 115.791 53.1732 115.791 52.3068Z" fill="#85B472"/>
<path d="M115.035 47.3249C113.738 44.8341 112.549 42.3433 111.035 40.0691C109.414 37.6866 107.468 35.8456 105.306 33.8963C100.441 29.4562 95.6841 24.9078 90.8192 20.576C90.1706 20.0345 89.1976 20.9009 89.8462 21.5507C94.603 25.7742 99.2516 30.2143 104.008 34.5461C106.171 36.4954 108.225 38.3364 109.846 40.8272C111.36 43.1014 112.657 45.5921 113.846 48.0829C114.279 48.841 115.468 48.1912 115.035 47.3249Z" fill="#85B472"/>
<path d="M114.494 55.4464C113.521 57.9372 110.818 59.345 108.44 60.3197C106.17 61.186 103.683 61.8358 101.305 62.269C93.9535 63.6768 86.9265 61.6192 80.3319 58.2621C77.5211 56.8542 74.8184 55.1215 72.6562 52.739C70.3859 50.2482 68.9805 47.3243 68.0075 44.1837C67.1427 41.1515 66.6021 38.1192 65.9535 35.087C65.3048 32.163 65.1967 29.3473 65.5211 26.4234C66.1697 19.6008 68.6562 12.6699 72.7643 7.14686C73.3048 6.3888 72.1156 5.73903 71.5751 6.49709C67.6832 11.9118 65.1967 18.5178 64.3319 25.1238C63.467 31.6215 64.8724 38.0109 66.7102 44.292C67.6832 47.5409 68.9805 50.5731 71.2508 53.2805C73.4129 55.7713 76.1156 57.7206 79.0346 59.2367C85.5211 62.7022 92.6562 64.9764 100.116 64.0017C103.359 63.5685 106.602 62.7022 109.629 61.5109C112.224 60.428 114.818 58.8036 115.899 55.9879C116.116 55.0132 114.818 54.58 114.494 55.4464Z" fill="#85B472"/>
</g>
<g opacity="0.15" clip-path="url(#clip1_2062_3)">
<path d="M14.8104 46.5806C14.7022 48.5299 14.1617 50.4792 14.7022 52.4285C14.8104 52.7534 15.0266 52.97 15.3509 52.97C17.0806 52.8617 18.8104 53.0783 20.5401 52.97C20.9725 52.97 21.2968 52.5368 21.1887 52.1037C20.8644 50.4792 20.5401 48.7465 20.8644 47.0138C20.9725 46.5806 20.7563 46.364 20.432 46.1474C19.6752 45.8225 18.8104 45.7143 17.9455 45.606C17.1887 45.606 16.3239 45.606 15.5671 45.9308C15.2428 46.1474 15.0266 46.4723 15.1347 46.7972C15.2428 47.1221 15.6752 47.447 15.9995 47.2304C17.2968 46.7972 18.8104 47.0138 20.1076 47.447C19.9995 47.1221 19.7833 46.9055 19.6752 46.5806C19.2428 48.5299 19.5671 50.4792 19.9995 52.3202C20.1076 52.2119 20.3239 51.8871 20.5401 51.5622C18.8104 51.6705 17.0806 51.4539 15.3509 51.5622C15.5671 51.7788 15.7833 51.8871 15.9995 52.1037C15.7833 51.2373 15.7833 50.3709 15.8914 49.3963C15.9995 48.4216 16.1076 47.5553 16.2158 46.5806C16.2158 46.2557 15.8914 45.9308 15.5671 45.9308C15.1347 45.9308 14.8104 46.2557 14.8104 46.5806Z" fill="#85B472"/>
<path d="M14.8095 51.5625C11.7824 54.2699 11.6743 59.2514 11.2419 62.9335C10.9176 65.316 10.377 67.5901 10.1608 69.9726C9.94461 73.0049 10.0527 75.9289 10.2689 78.9611C10.7014 83.9427 11.8906 88.4911 14.4851 92.8229C17.0797 96.9381 20.5392 100.404 24.6473 102.894C28.9716 105.602 33.9446 107.009 39.0257 107.443C43.9987 107.768 49.5122 106.901 53.5122 103.544C55.1338 102.136 56.5392 100.187 56.7554 98.021C56.9716 95.7468 55.8906 93.9058 54.1608 92.498C50.1608 89.1408 44.9716 88.0579 40.5392 85.5671C35.1338 82.4265 31.9987 77.1201 29.0797 71.8136C27.35 68.5648 25.7284 65.4242 24.1068 62.0671C23.35 60.4427 22.4852 58.8183 21.6203 57.1938C20.7554 55.6777 19.8906 53.7284 20.2149 51.9957C20.323 51.1293 19.0257 50.8044 18.9176 51.6708C18.5933 54.0533 19.6743 56.3275 20.7554 58.3851C22.1608 60.9842 23.35 63.5832 24.6473 66.2906C26.9176 70.9473 29.296 75.9289 32.4311 80.0441C35.35 83.9427 39.0257 86.5418 43.4581 88.4911C45.7284 89.4657 48.1068 90.3321 50.2689 91.5233C52.323 92.6063 54.8095 94.2307 55.2419 96.6132C55.6743 99.2123 53.7284 101.595 51.7825 103.003C49.7284 104.519 47.35 105.385 44.8635 105.71C39.8906 106.576 34.377 105.71 29.7284 103.869C20.9716 100.404 13.7284 92.2814 11.9987 82.968C10.9176 77.0118 11.0257 70.839 12.1068 64.8828C12.5392 62.7169 12.6473 60.551 13.0797 58.3851C13.5122 56.3275 13.9446 53.8367 15.6743 52.4289C16.4311 51.9957 15.4581 51.021 14.8095 51.5625Z" fill="#85B472"/>
<path d="M56.8646 98.5626C58.7024 95.422 59.5673 91.5234 59.8916 87.9497C60.324 83.7262 58.8105 79.7193 56.5402 76.1455C51.3511 68.1317 42.7024 62.3921 34.7024 57.7354C32.4321 56.5442 30.1619 55.2446 27.7835 54.0534C25.5132 52.8621 23.1348 51.7792 20.5403 51.5626C19.6754 51.4543 19.6754 52.8621 20.5403 52.8621C22.9186 52.9704 25.0808 54.0534 27.1348 55.1363C29.0808 56.111 31.0267 57.1939 32.8646 58.2769C36.7565 60.4428 40.5402 62.9336 44.1078 65.6409C50.4862 70.5142 58.5943 77.6617 58.5943 86.3253C58.5943 90.1156 57.6213 94.5557 55.6754 97.9128C55.3511 98.6709 56.4321 99.3207 56.8646 98.5626Z" fill="#85B472"/>
<path d="M55.9991 98.4544C55.9991 105.71 46.5937 109.717 40.6477 110.908C37.0801 111.666 33.1882 111.45 29.6207 111.125C25.2964 110.692 20.972 109.825 16.972 108.093C12.972 106.468 9.40446 103.977 6.70176 100.62C3.89094 97.3714 2.59365 93.2562 1.83689 89.0327C1.08013 84.5926 1.18824 80.0443 1.62067 75.4959C1.945 72.5719 2.37743 69.8645 3.45851 67.1572C4.75581 63.9083 6.26932 60.7678 8.10716 57.8438C9.08013 56.3277 11.7828 51.9959 14.1612 53.0788C14.918 53.4037 15.6747 52.2125 14.8099 51.8876C12.4315 50.8046 10.2693 52.7539 8.75581 54.4867C6.48554 57.194 4.86392 60.3346 3.3504 63.5834C2.26932 66.0742 1.18824 68.565 0.755809 71.1641C-0.109056 75.8208 -0.43338 80.4774 -0.109056 85.2424C0.215268 89.8991 1.08013 94.5558 3.3504 98.671C5.62067 102.57 9.18824 105.818 13.0801 107.984C17.0801 110.259 21.6207 111.558 26.1612 112.208C30.2693 112.858 34.7018 113.183 38.918 112.641C43.1342 112.1 47.4585 110.475 50.918 108.093C54.1612 105.927 57.0801 102.678 57.0801 98.5627C57.2964 97.588 55.9991 97.588 55.9991 98.4544Z" fill="#85B472"/>
<path d="M54.9182 99.4286C49.2966 100.078 43.5668 99.5369 38.1614 98.1291C32.4317 96.6129 26.9182 94.0139 22.702 89.8987C20.4317 87.7328 18.702 85.0254 17.6209 81.9931C17.2966 81.1268 15.9993 81.5599 16.3236 82.318C20.3236 94.0139 33.5128 99.4286 44.756 100.728C48.1074 101.161 51.4587 101.161 54.8101 100.728C55.675 100.62 55.7831 99.3203 54.9182 99.4286Z" fill="#85B472"/>
<path d="M17.5132 51.9958C16.5402 56.8691 17.7294 61.634 18.5943 66.5073C19.351 71.164 20.4321 75.7124 22.5943 79.9359C26.3781 87.4082 32.6483 94.5557 40.9727 96.8299C43.2429 97.4797 45.6213 97.8045 47.9997 98.346C50.5943 98.8875 52.8645 100.079 55.5673 100.079C56.4321 100.079 56.4321 98.7792 55.5673 98.7792C53.297 98.7792 51.2429 97.8045 49.0808 97.2631C47.1348 96.7216 45.1889 96.505 43.2429 96.0718C39.351 95.2055 35.8916 93.581 32.8645 90.982C26.27 85.134 21.9456 77.2285 20.324 68.5649C19.351 63.3667 17.8375 57.7354 18.9186 52.5373C18.9186 51.4543 17.6213 51.1294 17.5132 51.9958Z" fill="#85B472"/>
<path d="M56.648 98.0207C56.5399 93.9055 57.1885 89.682 55.7831 85.7834C54.4858 82.1014 51.9994 78.9608 49.4048 76.1451C46.3777 72.8963 43.1345 69.9723 39.7831 67.0484C36.648 64.4493 33.621 61.9585 30.1615 59.9009C28.2156 58.7096 26.2696 57.6267 24.648 56.1106C23.0264 54.5944 21.7291 52.8617 19.8913 51.6705C19.1345 51.2373 18.4858 52.4285 19.2426 52.8617C20.9723 53.9447 22.0534 55.4608 23.4588 56.7603C24.648 57.9516 26.0534 58.9262 27.5669 59.7926C30.8102 61.8502 34.0534 63.9078 37.0804 66.2903C40.4318 69.106 43.7831 71.9216 46.8102 75.0622C49.5129 77.7696 52.1075 80.6935 53.8372 84.0507C56.1075 88.4908 55.3507 93.2557 55.4588 98.0207C55.3507 98.8871 56.648 98.8871 56.648 98.0207Z" fill="#85B472"/>
<path d="M55.8919 93.0392C54.5946 90.5484 53.4054 88.0576 51.8919 85.7835C50.2703 83.401 48.3243 81.56 46.1621 79.6106C41.2973 75.1706 36.5405 70.6222 31.6757 66.2904C31.027 65.7489 30.054 66.6153 30.7027 67.265C35.4594 71.4885 40.1081 75.9286 44.8648 80.2604C47.027 82.2097 49.0811 84.0507 50.7027 86.5415C52.2162 88.8157 53.5135 91.3065 54.7027 93.7973C55.1351 94.5553 56.3243 93.9056 55.8919 93.0392Z" fill="#85B472"/>
<path d="M55.351 101.162C54.378 103.653 51.6753 105.06 49.2969 106.035C47.0266 106.901 44.5402 107.551 42.1618 107.984C34.8104 109.392 27.7834 107.335 21.1888 103.977C18.378 102.57 15.6753 100.837 13.5131 98.4544C11.2429 95.9636 9.83745 93.0396 8.86447 89.8991C7.99961 86.8668 7.45907 83.8345 6.81042 80.8023C6.16177 77.8783 6.05366 75.0627 6.37799 72.1387C7.02664 65.3161 9.51312 58.3852 13.6212 52.8622C14.1618 52.1041 12.9726 51.4544 12.432 52.2124C8.54015 57.6272 6.05366 64.2332 5.1888 70.8392C4.32393 77.3368 5.72934 83.7263 7.56718 90.0074C8.54015 93.2562 9.83745 96.2885 12.1077 98.9958C14.2699 101.487 16.9726 103.436 19.8915 104.952C26.378 108.417 33.5131 110.692 40.9726 109.717C44.2158 109.284 47.4591 108.417 50.4861 107.226C53.0807 106.143 55.6753 104.519 56.7564 101.703C56.9726 100.729 55.6753 100.295 55.351 101.162Z" fill="#85B472"/>
</g>
<defs>
<clipPath id="clip0_2062_3">
<rect width="60" height="67.1429" fill="white" transform="translate(59.1431 0.000488281)"/>
</clipPath>
<clipPath id="clip1_2062_3">
<rect width="60" height="67.1429" fill="white" transform="translate(0.000488281 45.7144)"/>
</clipPath>
</defs>
</svg>
