<svg width="311" height="249" viewBox="0 0 311 249" fill="none" xmlns="http://www.w3.org/2000/svg">
<g opacity="0.2" clip-path="url(#clip0_153_1726)">
<path d="M154.584 176.092C154.485 176.142 154.337 176.093 154.188 176.043C154.139 175.945 154.04 175.994 153.99 175.896C153.842 175.846 153.594 175.847 153.495 175.896C153.396 175.946 153.297 175.996 153.347 176.094C153.396 176.193 153.297 176.243 153.346 176.341C153.247 176.391 153.148 176.44 153.148 176.44C153 176.638 152.801 176.737 152.653 176.935C152.504 177.133 152.306 177.479 152.206 177.776C151.71 179.012 150.768 180.101 149.332 180.943C148.391 181.537 147.202 182.132 145.667 182.53C145.469 182.629 145.32 182.58 145.122 182.679L144.924 182.778C144.181 183.026 143.439 183.028 142.547 182.98C141.013 182.883 139.528 182.392 137.895 181.604C137.4 181.358 137.005 181.062 136.411 180.618C136.262 180.569 136.164 180.371 136.015 180.322C135.867 180.273 135.718 180.224 135.52 180.323C135.57 180.175 135.57 180.175 135.471 179.977L135.422 179.878L135.372 179.78C135.075 179.681 134.778 179.583 134.531 179.583C134.382 179.534 134.283 179.584 134.135 179.535L133.986 179.486L133.54 179.832C133.144 180.03 132.896 180.278 132.5 180.476C132.302 180.575 132.104 180.674 131.955 180.872C131.856 180.922 131.707 181.12 131.806 181.317L131.806 181.564C131.904 182.256 131.854 182.898 132.052 183.54C132.199 184.331 132.496 184.923 132.792 185.515C133.484 186.898 134.473 188.131 135.61 189.167C136.699 190.104 137.985 190.942 139.272 191.533C141.152 192.32 143.182 192.416 145.212 191.77C145.955 191.522 146.698 191.274 147.391 190.927C148.778 190.233 150.165 189.292 151.503 188.005C151.999 187.51 152.494 187.015 152.94 186.669C154.08 185.481 154.923 184.195 155.37 182.613C155.866 181.13 155.967 179.845 155.671 178.512C155.523 177.968 155.375 177.425 155.227 176.882L155.129 176.437C155.228 176.388 155.178 176.042 154.584 176.092ZM133.192 182.106C133.29 182.303 133.29 182.303 133.241 182.451C133.537 183.538 134.031 184.525 134.624 185.463C135.662 187.043 136.948 188.374 138.729 189.706C139.718 190.445 140.807 190.888 141.995 191.034C143.183 191.181 144.272 191.13 145.361 191.078C145.015 191.128 144.817 191.228 144.47 191.277C142.786 191.626 141.202 191.431 139.718 190.692C137.145 189.511 135.216 187.636 133.931 185.316C133.437 184.329 133.042 183.292 133.192 182.106ZM134.233 180.473C133.936 180.622 133.638 180.771 133.391 181.018L133.292 181.068C133.539 180.82 133.738 180.721 134.035 180.572C134.035 180.572 134.134 180.523 134.233 180.473L134.332 180.424L134.233 180.473ZM135.816 181.41C135.965 181.459 136.014 181.557 136.212 181.705C136.459 181.952 136.855 182.248 137.201 182.445C138.982 183.529 140.616 184.07 142.447 184.265C143.734 184.361 144.823 184.31 145.814 184.061L146.359 183.912C147.2 183.615 148.092 183.415 148.983 182.969C149.181 182.87 149.38 182.771 149.479 182.721C150.172 182.374 150.816 181.929 151.46 181.483C152.699 180.493 153.393 179.405 153.741 178.119C153.79 177.971 153.84 177.823 153.84 177.823C153.89 177.674 153.89 177.674 153.939 177.526C153.989 177.378 154.039 177.23 154.039 176.983C154.088 177.081 154.187 177.032 154.237 177.13C154.088 177.328 154.137 177.427 154.088 177.575C154.088 177.575 154.088 177.575 154.137 177.674C154.087 178.811 154.086 179.799 154.035 180.935C154.034 181.676 153.836 182.27 153.588 182.764C153.489 182.814 153.439 182.962 153.488 183.061L153.389 183.11C153.141 183.605 152.844 184.001 152.398 184.1C151.903 184.348 151.556 184.645 151.308 185.14C150.961 185.684 150.564 186.129 150.069 186.624C149.375 187.218 148.583 187.614 147.741 187.665C146.998 187.666 146.355 187.865 145.859 188.113C145.017 188.411 144.077 188.511 143.087 188.266C142.097 188.02 141.404 187.873 140.661 187.874C140.513 187.825 140.265 187.826 140.117 187.776C139.721 187.728 139.375 187.531 139.078 187.185C138.781 186.84 138.534 186.593 138.237 186.248C137.891 185.804 137.446 185.409 137.149 185.064C136.852 184.718 136.605 184.472 136.556 184.126C136.556 183.879 136.457 183.681 136.26 183.533C136.062 183.386 135.864 183.238 135.666 183.09L135.468 182.942C135.419 182.843 135.32 182.893 135.221 182.942L135.022 183.041L135.022 183.288C135.022 183.288 134.973 183.437 135.121 183.486C135.17 183.585 135.319 183.634 135.368 183.733C135.764 184.028 135.912 184.325 136.011 184.769C136.11 184.967 136.258 185.263 136.505 185.509C137.049 186.101 137.643 186.792 138.285 187.582C138.928 188.371 139.72 188.716 140.611 188.764C141.502 188.812 142.294 188.909 143.235 189.056C144.175 189.203 145.066 189.251 145.958 188.805C146.601 188.606 147.245 188.407 148.087 188.356C148.681 188.306 149.127 188.207 149.523 188.008C149.622 187.959 149.622 187.959 149.721 187.909C150.613 187.463 151.306 186.869 151.951 185.929C152 185.781 152.099 185.731 152.149 185.583C152.348 185.237 152.595 184.989 152.892 184.841C152.892 184.841 152.892 184.841 152.992 184.791C153.685 184.444 153.983 183.801 154.181 183.455L154.231 183.307C154.33 183.01 154.479 182.812 154.578 182.516C154.677 182.219 154.777 181.922 154.826 181.527C154.877 180.39 154.928 179.254 154.978 178.117L154.979 177.87C155.423 179.5 155.619 180.883 154.726 183.059C154.18 184.443 153.387 185.581 152.247 186.522C151.306 187.363 150.315 188.106 149.324 188.601C147.591 189.592 145.56 189.991 143.135 189.847C141.699 189.701 140.412 189.357 139.324 188.42C138.038 187.335 137.098 186.447 136.357 185.46C135.714 184.671 135.22 183.683 134.924 182.597L134.726 181.955L134.974 181.707C135.222 181.46 135.519 181.311 135.767 181.064C135.767 181.064 135.866 181.014 135.916 180.866C135.965 180.965 135.866 181.014 136.014 181.063C135.569 181.163 135.668 181.36 135.816 181.41Z" fill="#85B472"/>
<path d="M170.515 186.887L170.911 187.183C171.356 187.578 171.752 187.874 172.197 188.268C173.236 189.106 174.523 189.45 176.107 189.645C177.79 189.791 179.374 189.492 180.811 188.896C181.306 188.649 181.95 188.45 182.643 188.103C184.278 187.409 185.665 186.467 186.903 185.477C187.498 184.933 187.993 184.438 188.588 183.893C189.926 182.36 190.671 180.382 190.673 178.406C190.674 176.923 190.477 175.54 189.885 174.108C189.342 172.528 188.551 171.195 187.612 170.06C187.265 169.616 186.721 169.024 186.128 168.58C185.534 168.137 184.891 167.841 184.396 167.595L184.198 167.447C184.05 167.398 183.901 167.349 183.703 167.448C183.505 167.547 183.307 167.646 183.109 167.745C182.712 167.944 182.465 168.191 182.068 168.389L181.623 168.736L181.672 168.835C181.622 168.983 181.573 169.131 181.622 169.23C181.523 169.527 181.523 169.774 181.522 170.021L181.572 170.119L181.621 170.218C181.77 170.267 181.819 170.366 181.918 170.317C181.72 170.416 181.67 170.564 181.769 170.761C181.818 170.86 181.818 171.107 181.868 171.206C182.065 171.848 182.213 172.391 182.213 172.885C182.359 174.664 182.11 176.147 181.614 177.63C181.316 178.52 181.018 179.162 180.473 179.806L180.324 180.003C180.176 180.201 180.077 180.251 179.928 180.449C178.887 181.587 177.995 182.527 177.054 183.122C175.667 184.063 174.379 184.46 173.042 184.512C172.795 184.512 172.448 184.562 172.102 184.612C171.854 184.612 171.656 184.711 171.458 184.811C171.359 184.86 171.26 184.91 171.309 185.008C171.26 184.91 171.161 184.959 171.111 184.861C171.012 184.91 170.963 184.811 170.864 184.861C170.765 184.911 170.715 185.059 170.715 185.306C170.764 185.405 170.665 185.454 170.715 185.553C170.665 185.701 170.714 185.8 170.665 185.948C170.07 186.493 170.367 186.838 170.515 186.887ZM184.247 168.534C185.286 169.125 186.127 169.816 186.868 170.556C188.55 172.677 189.537 175.146 189.584 177.963C189.681 179.642 189.234 181.224 188.292 182.56C188.144 182.758 187.896 183.005 187.797 183.302C188.342 182.412 188.69 181.373 189.136 180.286C189.533 179.099 189.535 177.864 189.239 176.777C188.696 174.703 187.906 172.876 186.917 171.395C186.373 170.556 185.582 169.718 184.692 168.929C184.642 168.83 184.543 168.879 184.494 168.781L184.444 168.682L184.247 168.534ZM182.266 169.031C182.415 168.833 182.514 168.784 182.613 168.734C182.91 168.586 183.059 168.388 183.356 168.239L183.257 168.289C182.96 168.437 182.712 168.685 182.415 168.833C182.365 168.982 182.266 169.031 182.266 169.031ZM182.363 170.464C182.314 170.365 182.215 170.415 182.166 170.316C182.265 170.267 182.265 170.267 182.364 170.217C182.661 170.068 182.958 169.92 183.255 169.771L183.552 169.622L184.047 170.115C184.888 170.806 185.58 171.694 186.124 172.533C186.766 173.57 187.26 174.804 187.704 176.434C188.099 177.718 188.048 179.102 187.502 180.486C186.757 182.711 185.518 184.442 183.883 185.63C182.991 186.324 181.951 186.968 180.861 187.513C179.574 188.157 178.138 188.505 176.603 188.409C174.227 188.364 173.039 187.723 171.753 186.638L172.05 186.737C173.139 187.18 174.178 187.524 175.366 187.917C175.663 188.015 176.059 188.064 176.306 188.064C176.554 188.063 176.851 188.162 177.197 188.112L177.346 188.161C177.841 188.16 178.435 188.11 179.079 187.664C179.327 187.417 179.624 187.268 180.02 187.317C180.119 187.267 180.268 187.316 180.466 187.217C181.555 186.919 182.348 186.522 183.14 185.879C183.239 185.829 183.239 185.829 183.339 185.78C183.685 185.483 183.983 185.087 184.231 184.592C184.628 183.9 184.975 183.356 185.47 182.861C186.114 182.168 186.561 181.327 186.71 180.388C186.86 179.449 187.108 178.708 187.406 177.818C187.803 176.879 187.754 176.039 187.21 175.2C186.716 174.212 186.321 173.422 185.975 172.731C185.827 172.435 185.679 172.139 185.481 171.991C185.134 171.794 184.937 171.399 184.838 170.954C184.789 170.855 184.739 170.757 184.641 170.559C184.591 170.46 184.492 170.51 184.443 170.411L184.294 170.362L184.146 170.56C184.047 170.61 184.096 170.708 184.046 170.857L184.046 171.104C184.046 171.351 184.194 171.647 184.194 171.894C184.293 172.091 184.391 172.289 184.589 172.437C184.936 172.634 185.084 172.93 185.282 173.325C185.529 173.819 185.776 174.312 185.924 174.856C186.121 175.251 186.319 175.646 186.467 175.942C186.665 176.337 186.714 176.683 186.664 177.078C186.614 177.226 186.614 177.473 186.564 177.622C186.316 178.363 186.068 179.105 185.918 180.044C185.769 180.983 185.372 181.922 184.678 182.516C184.282 182.962 183.885 183.407 183.538 184.198C183.191 184.989 182.596 185.534 181.655 185.881C180.962 186.228 180.417 186.377 179.823 186.428C179.229 186.478 178.833 186.676 178.436 187.122C178.089 187.419 177.693 187.617 177.099 187.667L177 187.717C176.901 187.766 176.752 187.717 176.653 187.767C176.059 187.817 175.416 187.769 174.822 187.572C173.782 187.228 172.793 186.735 171.753 186.391C171.704 186.292 171.556 186.243 171.357 186.342C171.308 186.244 171.358 186.095 171.358 186.095C171.506 186.145 171.655 186.194 171.902 186.193C172.051 186.243 172.15 186.193 172.298 186.242C172.447 186.291 172.546 186.242 172.694 186.291C174.031 186.486 175.368 186.188 176.754 185.494C177.448 185.147 178.092 184.701 178.687 184.157C178.885 184.057 179.033 183.86 179.132 183.81C179.826 183.216 180.47 182.523 180.966 181.781L181.264 181.385C181.957 180.544 182.404 179.704 182.752 178.418C183.248 176.688 183.349 174.909 183.104 172.933C183.054 172.588 182.956 172.143 182.808 171.847C182.758 171.748 182.659 171.551 182.709 171.402C182.561 170.612 182.512 170.513 182.363 170.464Z" fill="#85B472"/>
<path d="M237.594 88.9964C237.446 88.7002 237.199 88.4536 237.1 88.2561C236.705 87.7132 236.804 87.1696 237.003 86.5763C237.201 86.2301 237.449 85.9827 237.548 85.686C237.697 85.2411 237.995 84.8454 237.995 84.3513C238.144 83.9063 237.897 83.6597 237.402 83.6605C236.907 83.6613 236.312 83.7117 235.768 83.6137C235.52 83.6141 235.174 83.6641 234.926 83.6645C234.134 83.567 233.739 83.2711 233.64 82.5796C233.591 82.2338 233.542 81.888 233.443 81.6905C233.295 81.1472 233.048 80.9006 232.454 80.7039C231.909 80.606 231.464 80.4585 230.92 80.3605C230.078 80.1643 229.237 79.968 228.445 79.6234C226.762 78.9838 225.872 77.7006 225.627 75.9716C225.479 74.9343 225.777 74.2914 226.817 73.8945C227.411 73.5971 228.006 73.2996 228.649 73.1009C229.838 72.7532 230.977 72.0596 231.968 71.3168C232.414 70.9702 233.008 70.6728 233.504 70.4249C234.395 69.9788 235.237 69.928 236.078 70.3714C236.424 70.5684 236.721 70.6668 237.068 70.8639C238.799 71.8493 240.681 71.8956 242.612 71.2996C243.355 71.0513 243.999 70.8526 244.791 70.7031C246.326 70.3054 247.217 70.8474 247.71 72.0819C247.76 72.1806 247.76 72.1806 247.809 72.2793C248.155 72.9705 248.551 73.5134 249.194 73.8088C249.392 73.9567 249.689 74.0551 249.887 74.203C250.827 74.8438 251.024 75.7328 250.379 76.6727C250.23 76.8705 249.983 77.118 249.735 77.3654C249.437 77.7612 249.091 78.0582 248.744 78.3552C248.496 78.6027 248.298 78.9489 248.198 79.2455C248 80.0858 247.553 80.6794 247.008 81.3227C246.562 81.9163 246.116 82.5099 245.67 83.1036C244.331 84.8845 243.587 86.8621 243.288 88.9872C243.238 89.1355 243.188 89.2838 243.485 89.3822C243.783 88.9864 244.13 88.6894 244.328 88.3432C245.666 86.5623 247.005 84.7813 248.442 82.9508C250.078 80.7742 251.466 78.5979 252.41 76.027C252.856 74.6922 253.65 73.5545 254.443 72.4168C254.592 72.2189 254.74 72.0211 254.84 71.7244C254.692 71.1812 254.296 70.8854 253.801 70.6391C253.405 70.3433 253.01 70.0475 252.663 69.8504C252.366 69.505 252.07 69.1596 252.318 68.6651C252.715 67.9727 252.517 67.3307 252.32 66.6887C252.172 66.1454 252.073 65.7009 251.925 65.1576C251.778 64.1203 252.174 63.4279 253.017 62.883C253.215 62.7839 253.512 62.6352 253.71 62.536C254.156 62.4365 254.651 62.1886 255.097 62.0891C255.988 61.89 256.484 61.3951 256.831 60.604C257.079 60.1095 257.277 59.5162 257.426 59.0713C257.824 57.8848 258.122 56.7479 258.519 55.5614C259.016 54.0783 259.561 52.694 260.206 51.26C260.653 50.1723 261.199 49.282 261.892 48.441C262.339 47.8473 262.834 47.3524 263.528 47.0054C264.716 46.4106 265.855 46.7052 266.349 47.9396C266.694 48.6308 266.842 49.4211 266.891 50.261C266.988 52.1878 266.738 54.1646 266.143 55.9444C265.646 57.4275 265.15 58.9106 264.604 60.2949C264.554 60.4432 264.306 60.6907 264.603 61.0361C265.247 60.3433 266.04 59.6997 266.684 59.0069C267.923 57.7697 269.013 56.4832 270.203 55.1472C270.698 54.6523 271.244 54.0091 271.789 53.613C272.135 53.3159 272.482 53.0189 273.027 52.8698C274.067 52.4728 275.057 52.9653 275.254 54.1014C275.352 54.546 275.302 54.9413 275.153 55.3863C274.955 55.7325 274.806 56.1774 274.558 56.4248C273.815 57.4142 273.021 58.5519 272.179 59.5909C271.832 60.135 271.336 60.6299 270.89 61.2235C270.593 61.6193 270.394 61.9655 270.493 62.6571C270.641 62.7062 270.839 62.8541 271.086 62.8537C271.68 63.0504 272.324 63.0988 272.918 63.2955C273.611 63.4426 274.254 63.738 274.699 64.1325C275.639 64.7734 275.836 65.6624 275.39 66.7501C275.241 67.1951 274.943 67.5908 274.646 67.9866C273.307 70.0146 271.573 71.7467 269.542 73.1335C267.511 74.5203 265.628 76.2033 263.745 77.8863C259.533 81.8459 255.42 85.7559 251.406 89.8634C249.919 91.3481 248.284 92.7837 246.797 94.2684C245.955 95.0603 245.162 95.7039 244.32 96.4958C244.171 96.6937 244.022 96.8916 243.874 97.0895C244.418 97.6815 245.011 98.1253 245.506 98.6185C246.001 99.1118 246.495 99.6052 247.039 100.197C247.237 100.098 247.386 99.9002 247.584 99.801C248.476 99.3549 249.219 98.8596 250.11 98.4135C252.587 97.4212 255.063 96.6761 257.638 96.1284C259.519 95.6807 261.5 95.4304 263.431 95.0814C268.135 94.3326 272.74 93.3864 277.394 92.2918C278.484 91.9936 279.474 91.7449 280.663 91.1501C280.465 91.0022 280.267 90.8543 280.119 90.8051C279.426 90.658 278.832 90.4613 278.139 90.3142C277.842 90.2159 277.594 90.2163 277.297 90.1179C276.704 89.9213 276.556 89.378 276.903 88.8339C277.051 88.636 277.299 88.3886 277.497 88.2895C277.547 88.1411 277.745 88.042 277.894 87.8441C277.3 87.8945 276.854 87.994 276.458 87.9453C275.666 87.8477 275.27 87.3049 275.519 86.5633C275.569 86.168 275.767 85.8218 276.114 85.5247C276.56 84.9311 277.105 84.2879 277.551 83.6942C277.601 83.5459 277.75 83.3481 277.799 83.1997C277.304 83.2005 276.908 83.1518 276.512 83.103C275.72 83.0055 275.176 82.4134 275.276 81.6227C275.326 81.2274 275.475 80.7824 275.624 80.3375C275.971 79.5464 276.368 78.854 276.715 78.0629C277.36 76.876 277.856 75.6399 278.452 74.3543C278.997 73.217 279.246 71.9814 279.346 70.6965C279.396 70.5482 279.347 70.4495 279.297 70.1037C278.554 70.846 277.91 71.5388 277.365 72.182C274.738 75.3485 272.853 78.7609 272.453 82.912C272.403 83.5544 272.204 84.1476 272.006 84.7408C271.509 86.2239 270.271 86.9671 268.686 87.0191C268.29 86.9703 267.894 86.9215 267.498 86.8728C266.954 86.7748 266.459 86.7756 265.865 86.826C265.419 86.9256 265.023 86.8768 264.627 86.828C264.38 86.8284 263.984 86.7796 263.687 86.6813C263.043 86.6329 262.746 86.7816 262.597 87.4736C262.547 87.869 262.497 88.2643 262.447 88.6597C262.347 89.4504 261.901 90.0441 261.059 90.3419C260.564 90.5898 259.92 90.7884 259.375 90.9375C256.949 91.5344 254.671 92.4275 252.442 93.6663C251.501 94.2608 250.658 94.8056 249.668 95.3013C249.172 95.5492 248.776 95.7475 248.281 95.9953C248.083 96.0945 247.835 96.0949 247.736 96.1444C247.489 96.1448 247.241 95.8982 247.39 95.7003C247.44 95.552 247.588 95.3541 247.638 95.2058C247.985 94.9088 248.332 94.6118 248.728 94.4135C249.867 93.7199 251.056 92.878 252.245 92.2832C254.227 91.0447 256.356 90.1025 258.684 89.5552C259.129 89.4556 259.526 89.2574 259.971 89.1578C260.516 89.0087 260.714 88.6625 260.814 88.1189C260.864 87.7235 260.914 87.3281 260.963 86.9328C261.361 85.7463 262.352 85.0035 263.589 85.2486C263.837 85.2482 264.133 85.3465 264.381 85.3461C264.728 85.2961 265.124 85.3449 265.421 85.1962C266.015 84.8988 266.659 84.9472 267.302 84.9955C267.698 85.0443 267.995 85.1426 268.342 85.0926C269.183 85.0419 269.53 84.7449 269.63 83.9541C269.73 83.4105 269.78 82.7681 269.731 82.1752C269.732 80.94 270.08 79.6547 270.477 78.4683C272.065 74.2164 274.94 71.0495 278.111 67.981C278.26 67.7831 278.458 67.684 278.656 67.5848C278.854 67.4857 279.053 67.3866 279.251 67.2874C280.241 67.0388 280.934 67.4329 281.131 68.322C281.279 68.8652 281.328 69.4581 281.278 70.1005C281.176 72.8676 280.233 75.4385 278.993 77.911C278.546 78.7516 278.199 79.5428 277.703 80.2847C277.554 80.4826 277.554 80.7297 277.455 81.0263C277.802 80.9763 278.148 80.9263 278.544 80.9751C278.94 81.0239 279.386 80.9243 279.683 81.0227C280.623 81.1694 280.919 82.0089 280.572 82.8C280.473 83.0966 280.225 83.344 279.977 83.5915C279.333 84.2843 278.689 84.9771 278.044 85.6698C277.896 85.8677 277.599 86.0164 277.648 86.3622C277.994 86.3123 278.242 86.3119 278.588 86.2619C279.034 86.1623 279.579 86.0132 280.074 86.0124C280.42 85.9625 280.767 86.1595 281.014 86.4062C281.162 86.7024 281.063 86.999 280.766 87.3948C280.518 87.6422 280.369 87.8401 280.072 87.9888C279.725 88.2858 279.329 88.4841 278.883 88.8307C278.685 88.9299 278.536 89.1277 278.387 89.3256C279.08 89.4727 279.773 89.6198 280.367 89.8165C280.813 89.964 281.307 90.2103 281.703 90.5061C282.148 90.9006 282.197 91.4935 281.751 91.8401C281.504 92.0875 281.107 92.2858 280.711 92.4841C278.78 93.3272 276.749 93.9728 274.62 94.4209C270.411 95.416 266.202 96.1639 261.845 96.8627C258.28 97.412 254.863 98.2575 251.446 99.3501C250.456 99.5987 249.465 100.094 248.474 100.59C248.177 100.739 247.732 100.838 247.583 101.283C247.73 102.321 248.076 103.259 248.075 104.247C248.123 105.581 248.122 106.816 248.071 108.2C248.019 110.325 247.374 112.253 246.283 114.033C244.399 117.198 242.069 119.969 238.998 122C236.57 123.585 234.242 125.121 231.765 126.607C228.743 128.489 225.524 129.977 222.354 131.563C212.795 136.223 203.087 140.834 193.478 145.395C188.079 147.973 182.73 150.403 177.332 152.981C170.447 156.303 163.463 159.427 156.283 161.909C153.955 162.703 151.677 163.349 149.251 163.699C148.31 163.799 147.369 163.9 146.379 163.901C145.637 163.903 144.944 163.756 144.35 163.559C143.212 163.264 142.717 162.277 143.016 161.14C143.165 160.695 143.314 160.25 143.462 159.805C143.76 159.162 144.157 158.47 144.603 157.876C145.496 156.442 146.586 155.156 147.874 154.017C149.906 152.136 151.987 150.107 154.068 148.325C159.717 143.523 165.217 138.672 170.667 133.722C175.424 129.366 180.379 125.158 185.185 120.901C187.663 118.674 190.289 116.496 193.013 114.515C196.977 111.544 201.039 108.523 204.953 105.453C208.521 102.681 212.187 100.105 216.1 97.7768C217.784 96.6871 219.567 95.7948 221.499 94.9517C222.539 94.5547 223.579 93.9107 224.619 93.5138C226.353 92.7698 228.136 91.8775 230.067 91.5285C230.563 90.7866 230.662 90.737 231.454 90.5875C233.435 90.3373 235.266 90.5319 237.047 91.369C237.394 91.5661 237.839 91.7136 238.334 91.9598C238.336 90.2305 238.237 90.033 237.594 88.9964ZM146.579 161.826C148.213 161.873 149.798 161.574 151.432 161.126C155.591 160.033 159.554 158.297 163.565 156.66C168.072 154.775 172.48 152.692 176.938 150.462C182.783 147.537 188.676 144.958 194.571 142.132C205.368 136.976 216.215 131.919 227.013 126.516C231.173 124.434 235.087 121.858 238.951 119.184C241.725 117.302 243.658 114.729 245.146 111.762C246.039 110.081 246.239 108.252 246.29 106.375C246.341 105.238 246.293 104.151 246.096 103.015C245.899 101.879 245.405 100.892 244.564 100.201C242.585 98.4751 240.706 96.6993 238.876 94.7753C237.639 93.5421 236.205 92.655 234.522 92.2625C233.532 92.017 232.591 91.8703 231.602 91.6249C231.453 91.8228 231.354 92.1194 231.205 92.3173C231.056 92.5151 230.809 92.5155 230.61 92.6147C230.313 92.7634 230.016 92.9121 229.62 93.1104C229.025 93.4078 228.53 93.6557 227.936 93.9531C227.044 94.3992 226.252 94.7958 225.36 95.2419C224.766 95.5393 224.171 95.8368 223.577 96.1342C221.645 96.9773 219.813 98.0179 218.029 99.1572C212.63 102.723 207.626 106.586 202.523 110.497C202.325 110.596 202.077 110.844 201.829 111.091C202.225 111.387 202.571 111.584 202.967 111.88C203.313 112.077 203.561 112.324 203.857 112.669C204.5 113.212 205.094 113.902 205.489 114.692C205.637 114.988 205.686 115.334 205.736 115.68C205.785 116.026 205.388 116.224 205.091 116.126C204.795 116.027 204.547 115.781 204.3 115.534C203.509 114.695 202.717 113.857 201.827 113.068C201.382 112.673 201.085 112.328 200.69 111.785C200.392 111.934 200.145 112.181 199.848 112.33C195.042 115.846 190.385 119.658 185.925 123.618C181.664 127.479 177.304 131.142 173.042 135.003C169.871 137.824 166.601 140.695 163.281 143.221C163.034 143.468 162.835 143.567 162.489 143.864C162.835 144.061 163.132 144.16 163.478 144.357C163.775 144.455 164.023 144.702 164.27 144.948C164.517 145.195 164.764 145.442 165.111 145.639C165.358 145.885 165.556 146.033 165.803 146.28C166.05 146.527 166.298 146.773 166.545 147.02C167.336 147.859 167.93 148.796 168.325 149.833C168.572 150.327 168.571 150.821 168.67 151.266C168.719 151.612 168.471 151.859 168.273 151.958C168.075 152.057 167.778 151.959 167.679 151.761C167.58 151.564 167.382 151.416 167.284 151.219C166.69 150.281 166.097 149.343 165.405 148.455C164.713 147.566 164.021 146.678 163.229 145.84C162.883 145.395 162.438 145.001 161.993 144.606C161.894 144.656 161.844 144.557 161.745 144.607C158.327 147.429 154.759 150.201 151.44 153.221C150.448 154.21 149.457 155.2 148.466 156.19C147.475 157.18 146.583 158.367 145.987 159.653C145.64 160.197 145.392 160.691 145.392 161.433C145.49 161.877 146.084 161.827 146.579 161.826ZM264.02 49.2281C263.475 49.8713 262.979 50.6132 262.583 51.3056C261.987 52.5912 261.392 53.8768 260.945 55.2116C260.548 56.3981 260.151 57.5846 259.754 58.7711C259.406 59.5622 259.207 60.4025 258.86 61.1936C258.265 62.4792 257.422 63.2712 256.036 63.7181C255.491 63.8672 255.095 64.0655 254.55 64.2146C254.451 64.2642 254.253 64.3633 254.203 64.5116C254.054 64.9566 254.252 65.3515 254.35 65.796C254.696 66.7343 254.893 67.6233 254.645 68.6119C254.892 68.8586 255.189 68.9569 255.337 69.2531C255.634 69.5985 256.079 69.9931 256.376 70.3385C256.969 71.2763 257.067 72.2149 256.422 73.1548C256.274 73.3526 256.125 73.5505 255.927 73.8967C255.282 74.8366 254.737 75.7268 254.389 76.765C253.446 79.3358 252.008 81.6604 250.372 83.8371C248.489 86.2612 246.753 88.7346 244.87 91.1587C244.275 91.9502 243.779 92.6922 243.283 93.4341C242.986 93.8299 242.639 94.3739 241.946 94.4739C242.193 94.9676 242.687 95.2138 243.034 95.658C243.182 95.4601 243.281 95.4105 243.38 95.3609C244.174 94.2232 245.264 93.1839 246.205 92.0953C248.089 90.1653 249.873 88.2848 251.756 86.3548C253.044 84.9692 254.333 83.5836 255.671 82.2968C258.099 79.9706 260.527 77.6444 262.906 75.2195C264.739 73.4377 266.572 71.9031 268.801 70.6642C270.832 69.5245 272.468 67.8419 273.856 65.9127C273.955 65.8631 274.005 65.7148 274.054 65.5665C274.153 65.5169 274.104 65.4182 274.054 65.3194C273.758 64.974 273.312 64.8265 272.867 64.679C272.174 64.5319 271.58 64.3352 270.887 64.1881C269.353 63.8447 268.71 62.8082 269.157 61.2263C269.257 60.6827 269.604 60.1386 269.852 59.6441C270.199 59.1 270.695 58.6051 271.042 58.0611C271.637 57.2695 272.33 56.4284 272.925 55.6369C272.628 55.5386 272.48 55.7365 272.43 55.8848C271.29 57.0725 270.2 58.3589 269.06 59.5466C267.474 61.0808 265.988 62.5655 264.402 64.0998C264.154 64.3473 263.906 64.5947 263.708 64.6939C262.916 65.0904 262.075 64.6471 261.976 63.7085C261.977 63.2144 262.027 62.819 262.077 62.4236C262.375 61.5338 262.673 60.6439 262.97 59.7541C263.417 58.4193 264.013 57.1337 264.46 55.7989C265.055 54.2662 265.255 52.6848 265.306 51.0541C265.307 50.313 265.258 49.4731 265.011 48.7324C264.516 48.7332 264.169 49.0302 264.02 49.2281ZM229.14 78.0411C229.733 78.2378 230.327 78.4345 230.921 78.6312C231.515 78.8278 232.208 78.975 232.753 79.0729C234.138 79.3671 234.781 80.1566 235.077 81.4902C235.126 81.589 235.077 81.7373 235.126 81.836C235.176 81.9347 235.176 81.9347 235.274 82.1322C235.621 82.3293 235.918 82.1806 236.314 82.2294C236.809 82.2286 237.403 82.1782 237.948 82.2761C238.839 82.3241 239.482 82.8666 239.679 83.7556C239.827 84.5459 239.677 85.2379 239.281 85.9303C239.033 86.4248 238.686 86.9689 238.438 87.4634C238.932 88.4508 239.773 89.1411 239.969 90.2772C240.216 91.265 240.562 92.2033 240.709 93.2406C240.759 93.0923 240.808 92.944 240.858 92.7957C241.008 91.3626 241.109 89.8307 241.308 88.4963C241.756 85.6792 242.848 83.1576 244.682 80.8817C245.078 80.4364 245.376 80.0406 245.772 79.5953C246.07 79.1996 246.268 78.8534 246.516 78.3589C246.764 77.8644 247.111 77.3203 247.508 76.875C247.904 76.4296 248.301 75.9843 248.697 75.539C248.103 75.0952 247.411 74.7011 247.015 74.1582C246.521 73.6649 246.224 73.0725 245.829 72.5296C245.185 72.4812 244.591 72.7787 244.046 72.9278C243.056 73.1764 242.164 73.3755 241.125 73.5254C239.837 73.6757 238.748 73.4799 237.511 72.9878C236.917 72.7911 236.373 72.4461 235.779 72.2494C235.235 71.9044 234.789 72.004 234.195 72.3014C233.898 72.4501 233.601 72.5988 233.254 72.8958C231.966 73.7873 230.579 74.4813 229.093 74.9778C228.548 75.1269 228.152 75.3252 227.657 75.5731C227.656 76.8083 228.15 77.5487 229.14 78.0411Z" fill="#85B472"/>
<path d="M197.296 139.411C197.692 139.212 198.138 139.113 198.435 138.964C199.426 138.468 200.466 138.071 201.456 137.576C202.15 137.229 202.794 136.783 203.487 136.436C206.261 134.554 209.036 132.672 211.859 130.888C218.646 126.628 225.63 122.516 232.615 118.404C234.447 117.363 236.231 116.224 238.113 115.035C238.955 114.49 239.748 113.846 240.491 113.104C241.582 112.065 242.276 110.729 242.624 109.197C242.773 108.258 242.774 107.517 242.329 106.628C242.231 106.431 242.132 106.233 241.983 106.184C241.736 105.937 241.29 106.037 241.191 106.334C241.191 106.581 241.042 106.779 241.141 106.976C241.337 108.853 240.593 110.337 239.305 111.722C238.66 112.415 237.917 112.91 237.224 113.504C234.003 115.98 230.635 118.16 227.266 120.339C222.065 123.559 216.913 126.878 211.662 129.999C208.888 131.634 206.164 133.121 203.143 134.262C201.162 135.007 199.477 136.097 197.843 137.285C197.595 137.532 197.298 137.681 197.149 137.879C197 138.077 196.851 138.275 196.703 138.473C196.554 138.671 196.504 139.066 196.702 139.214C196.9 139.362 197.147 139.361 197.296 139.411Z" fill="#85B472"/>
<path d="M217.068 118.527C216.822 117.787 216.624 117.145 216.328 116.552C215.439 114.528 214.153 112.702 212.422 111.222C211.73 110.581 210.938 109.989 210.097 109.299C209.701 109.003 209.355 108.806 209.009 108.609C208.811 108.461 208.563 108.461 208.316 108.462C208.068 108.462 207.87 108.561 207.721 108.759C207.573 108.957 207.572 109.204 207.77 109.352C207.869 109.55 208.018 109.599 208.215 109.747C209.996 111.572 211.628 113.595 213.16 115.668C214.001 116.852 214.891 118.136 215.434 119.469C215.582 119.765 215.73 120.061 215.928 120.209C216.175 120.456 216.77 120.405 216.819 120.01C217.067 119.516 217.019 118.923 217.068 118.527Z" fill="#85B472"/>
<path d="M197.896 132.443C197.6 131.85 197.353 131.109 196.957 130.567C195.969 128.839 194.683 127.26 193.15 125.928C192.21 125.04 191.221 124.301 190.231 123.561C189.885 123.364 189.539 123.167 189.192 122.97C188.994 122.822 188.697 122.971 188.548 123.169C188.4 123.367 188.399 123.614 188.498 123.811C188.746 124.058 188.894 124.354 189.141 124.601C191.713 127.265 194.086 130.028 196.163 133.187C196.261 133.384 196.459 133.532 196.558 133.729C196.756 133.877 197.053 133.976 197.251 133.877C197.548 133.728 197.697 133.53 197.697 133.283C197.747 133.135 197.697 133.036 197.747 132.888C197.896 132.69 197.846 132.591 197.896 132.443Z" fill="#85B472"/>
<path d="M189.373 141.646C188.829 141.549 188.432 141.747 187.987 141.846C185.263 142.592 182.688 143.634 180.162 144.774C178.528 145.469 176.843 146.311 175.209 147.006C174.813 147.204 174.516 147.353 174.169 147.65C173.971 147.749 173.921 148.144 174.119 148.292C174.168 148.391 174.465 148.489 174.614 148.538C174.96 148.488 175.208 148.488 175.505 148.339C176.693 147.992 177.832 147.545 178.922 147C180.755 145.959 182.637 145.017 184.519 144.075C185.609 143.53 186.797 143.182 187.887 142.637C188.283 142.439 188.779 142.191 189.125 141.894C189.323 142.042 189.373 141.894 189.373 141.646Z" fill="#85B472"/>
<path d="M224.91 98.3064C224.415 98.3072 224.167 98.8017 224.316 99.0979C224.464 99.3942 224.711 99.6408 224.958 99.8875C225.799 100.825 226.739 101.713 227.579 102.65C228.47 103.686 229.36 104.723 230.002 106.006C230.051 106.105 230.051 106.105 230.101 106.204C230.2 106.401 230.398 106.549 230.596 106.45C230.794 106.351 230.992 106.252 231.042 106.103C231.091 105.955 231.091 105.708 231.141 105.56C231.092 105.214 231.043 104.868 230.944 104.671C229.906 102.597 228.72 100.721 226.89 99.2914C226.494 98.9956 225.95 98.6506 225.455 98.4044C225.207 98.4048 224.96 98.4052 224.91 98.3064Z" fill="#85B472"/>
<path d="M180.613 138.993C180.416 138.104 180.119 137.265 179.625 136.524C178.933 135.636 178.241 134.748 177.449 133.909C177.153 133.564 176.707 133.416 176.361 133.219C176.064 133.121 175.668 133.319 175.618 133.714C175.568 133.863 175.667 134.06 175.766 134.258C177.101 135.688 177.941 137.367 179.127 138.996C179.375 139.242 179.523 139.538 179.77 139.785C179.919 139.834 180.117 139.982 180.315 139.883C180.562 139.883 180.662 139.586 180.662 139.339C180.612 139.24 180.563 139.141 180.613 138.993Z" fill="#85B472"/>
<path d="M224.706 103.841C224.904 103.742 225.152 103.494 225.152 103.247C225.153 103 225.104 102.654 224.906 102.506C224.016 101.47 223.026 100.484 221.74 99.8927C221.542 99.7448 221.294 99.7452 221.047 99.7456C220.75 99.6472 220.552 99.7464 220.304 99.9938C220.155 100.192 220.304 100.488 220.551 100.735C220.749 100.882 220.848 101.08 221.045 101.228C221.491 101.622 222.035 101.967 222.431 102.263C223.024 102.707 223.667 103.002 224.013 103.694C224.112 103.891 224.36 103.891 224.706 103.841Z" fill="#85B472"/>
<path d="M202.465 117.563C202.416 117.464 202.416 117.217 202.317 117.02C201.922 116.23 201.428 115.489 200.735 114.848C200.537 114.7 200.241 114.602 199.944 114.504C199.548 114.455 199.25 114.851 199.497 115.097C200.091 116.035 200.684 116.973 201.277 117.911C201.326 118.009 201.475 118.059 201.524 118.157C201.722 118.305 201.97 118.305 202.168 118.206C202.415 118.205 202.515 117.909 202.465 117.563Z" fill="#85B472"/>
<path d="M189.632 130.035C189.731 130.232 189.631 130.529 189.878 130.776C190.57 131.911 191.114 132.997 191.806 134.132C191.905 134.33 192.152 134.577 192.35 134.724C192.548 134.872 192.944 134.674 192.944 134.427C192.945 134.18 192.895 133.834 192.797 133.637C192.154 132.353 191.314 131.169 190.424 130.132C190.226 129.985 190.028 129.837 189.632 130.035Z" fill="#85B472"/>
<path d="M155.451 151.831C155.5 151.93 155.5 152.177 155.549 152.276C155.994 152.917 156.588 153.608 157.033 154.25C157.131 154.447 157.329 154.595 157.527 154.743C157.923 155.039 158.517 154.741 158.518 154.247C158.518 154 158.518 153.753 158.32 153.605C157.826 152.865 157.282 152.273 156.54 151.78C156.293 151.533 155.897 151.485 155.451 151.831Z" fill="#85B472"/>
<path d="M174.176 139.744C174.275 139.942 174.324 140.041 174.423 140.238C174.967 141.077 175.51 141.916 176.054 142.755C176.153 142.953 176.45 143.051 176.648 142.952C176.846 142.853 176.995 142.655 176.946 142.309C176.896 142.21 176.897 141.963 176.847 141.865C176.452 141.075 175.958 140.334 175.166 139.743C174.919 139.496 174.622 139.398 174.176 139.744Z" fill="#85B472"/>
<path d="M186.371 72.2803C188.248 76.0324 189.334 79.934 190.122 83.9844C190.319 84.8734 190.417 85.8121 190.515 86.7507C191.152 93.7164 188.077 99.2059 182.974 103.365C178.614 107.028 173.513 108.963 167.769 109.615C163.264 110.017 159.255 108.69 155.792 105.978C154.803 105.238 154.061 104.251 153.22 103.314C152.182 101.982 152.233 100.598 153.026 99.2133C153.374 98.6692 153.82 98.0756 154.266 97.482C156.744 94.2663 159.173 91.199 161.652 87.9833C165.865 82.5414 169.881 76.9516 173.698 71.2138C174.739 69.5816 175.929 67.9986 177.366 66.6622C177.812 66.3156 178.11 65.9198 178.605 65.672C179.001 65.4737 179.348 65.4237 179.843 65.4229C180.338 65.4221 180.882 65.52 181.427 65.618C181.823 65.6667 182.218 65.9626 182.466 66.2092C183.752 67.2941 184.741 68.7748 185.482 70.2559C185.828 70.9471 186.124 71.5396 186.371 72.2803ZM156.74 98.4661C156.987 98.7128 157.284 99.0582 157.581 99.4036C158.521 100.291 159.56 100.883 160.747 101.276C162.776 102.113 164.955 102.257 167.083 102.303C169.608 102.398 171.886 101.752 174.016 100.563C176.146 99.3735 177.88 97.6413 179.07 95.5642C179.914 94.0311 180.311 92.3505 180.907 90.8179C181.8 88.6424 181.852 86.5177 181.458 84.2455C180.868 80.343 179.386 76.6397 177.409 73.1842C176.468 73.7786 174.683 76.1532 172.948 78.6265C172.899 78.7748 172.849 78.9231 172.948 79.1206C173.542 79.0702 174.087 78.9211 174.532 78.8216C176.414 78.6209 178.047 79.4088 178.986 81.0378C179.678 82.1731 179.231 83.2609 177.993 83.757C177.448 83.9061 177.003 84.0056 176.408 84.056C176.161 84.0564 175.864 84.2051 175.319 84.3542C175.863 84.6992 176.21 84.8963 176.556 85.0934C177.249 85.4875 177.793 86.0796 178.287 86.8199C178.633 87.5111 178.434 88.1043 177.741 88.4513C176.849 88.8975 175.859 88.8991 175.018 88.4557C174.969 88.357 174.919 88.2583 174.82 88.0608C175.464 87.8621 176.207 87.6138 176.999 87.4643C176.851 87.1681 176.752 86.9706 176.653 86.7731C176.258 86.4773 175.763 86.2311 175.367 85.9353C174.922 85.7878 174.476 85.6402 174.08 85.3444C173.635 85.1969 173.239 84.9011 173.289 84.2587C173.29 83.7646 173.736 83.418 174.181 83.3185C174.825 83.1198 175.469 82.9211 176.014 82.772C176.558 82.6229 177.153 82.5725 177.697 82.1763C177.599 81.9789 177.599 81.7318 177.549 81.6331C176.808 80.6461 175.967 80.2027 174.679 80.3531C173.64 80.503 172.6 80.6529 171.511 80.7041C169.131 83.6231 166.752 86.5421 164.422 89.5599C163.729 90.401 163.48 91.3896 163.281 92.724C163.727 92.3774 163.925 92.2783 164.222 92.1296C165.163 91.5351 166.005 91.7314 166.697 92.6196C167.142 93.2613 167.339 93.9033 167.19 94.5952C167.09 95.1389 166.991 95.6826 166.99 96.1767C166.99 96.4237 167.039 96.7695 167.138 97.4611C167.534 97.0158 167.831 96.8671 167.831 96.62C168.08 95.6314 168.328 94.6428 168.478 93.7038C168.577 93.1601 168.628 92.5177 168.826 91.9245C169.025 91.3312 169.421 90.8859 169.718 90.9842C170.263 91.0822 170.361 91.5267 170.51 91.8229C170.757 92.3166 170.855 93.0082 171.597 93.7481C171.303 90.9322 169.918 88.9087 169.178 86.4394C169.673 86.6856 169.97 86.784 170.069 86.9815C170.958 88.5117 171.897 90.1407 172.193 91.9684C172.291 92.66 172.34 93.2528 172.29 93.8952C172.24 94.2906 171.992 94.538 171.695 94.6868C171.249 94.7863 171.002 94.5397 170.854 94.2434C170.705 93.9472 170.607 93.7497 170.458 93.4535C170.36 93.256 170.41 92.8607 169.914 92.8615C169.865 93.2568 169.815 93.6522 169.765 94.0476C169.665 94.8383 169.714 95.6782 169.515 96.5185C169.366 97.2104 169.068 97.8533 168.77 98.4961C168.671 98.7927 168.275 98.991 167.978 99.1397C166.838 99.5862 165.502 98.8966 165.256 97.6618C165.059 97.0198 165.159 96.2291 165.11 95.6362C165.159 95.2409 165.209 94.8455 165.26 94.2031C164.913 94.5001 164.715 94.5993 164.566 94.7971C164.368 94.8963 164.219 95.0942 164.021 95.1933C162.882 95.8869 162.238 95.5915 161.645 94.4066C161.547 94.2091 161.448 94.0116 161.299 93.7154C159.961 95.2493 158.673 96.6349 157.483 97.9708C156.939 98.12 156.889 98.2683 156.74 98.4661ZM154.461 100.594C154.757 101.434 155.549 102.026 156.192 102.568C159.605 105.675 163.465 107.201 168.119 106.6C172.08 106.1 175.596 104.711 179.014 102.63C181.64 100.946 183.82 98.867 185.308 96.147C186.696 93.7237 187.392 91.1532 187.246 88.3865C187.099 86.608 186.953 84.8295 186.608 83.1501C185.72 79.1493 184.338 75.3964 182.609 71.6935C182.065 70.6073 181.423 69.5708 180.879 68.4846C180.83 68.3859 180.681 68.3367 180.533 68.2876C179.938 69.0791 179.442 70.0681 178.946 71.0571C179.094 71.3533 179.243 71.6495 179.44 71.7974C180.232 72.6361 180.726 73.6235 181.121 74.6605C182.553 78.018 183.391 81.426 183.734 85.0817C183.881 87.3544 183.631 89.5782 182.688 91.6549C182.242 92.4956 181.944 93.3855 181.646 94.2754C179.761 98.6759 176.441 101.448 172.132 103.234C170.151 103.978 168.022 103.932 165.993 103.837C162.181 103.645 158.766 102.514 156.195 99.6035C156.195 99.6035 156.046 99.5543 155.898 99.5051C155.303 99.5555 154.858 99.9021 154.461 100.594Z" fill="#85B472"/>
<path d="M175.61 91.1224C175.807 91.5174 175.609 92.1106 175.212 92.3089C174.519 92.6559 173.628 92.3609 173.183 91.7193C172.887 91.3739 172.937 90.7315 173.432 90.4836C173.977 90.0875 175.214 90.3325 175.61 91.1224Z" fill="#85B472"/>
<path d="M177.553 76.4449C177.75 76.8396 177.651 77.3829 177.354 77.5315C176.958 77.7297 176.513 77.5823 176.315 77.1876C176.167 76.8915 176.217 76.4964 176.465 76.2491C176.861 76.051 177.405 76.1489 177.553 76.4449Z" fill="#85B472"/>
<path d="M12.1325 149.098C11.342 147.518 10.7989 145.938 10.7016 144.258C10.6524 143.913 10.752 143.369 10.8513 143.072C11.0002 142.627 11.3473 142.083 11.6447 141.688C11.8431 141.341 12.1899 141.044 12.5862 140.846C13.0815 140.598 13.5271 140.499 14.1213 140.448C16.0524 140.099 17.9336 140.146 19.9632 140.241C26.8443 140.625 33.7255 140.762 40.607 140.652C44.6666 140.596 48.5777 140.491 52.6373 140.435C53.3799 140.434 54.1225 140.433 54.766 140.481C56.4491 140.627 57.587 141.415 57.9319 143.095C58.1782 144.33 58.5236 145.515 58.5224 146.75C58.518 151.197 57.2764 155.152 54.2532 158.517C50.4371 162.772 45.6816 165.646 40.1356 166.939C33.6983 168.432 27.5604 167.553 22.2677 162.917C21.5753 162.275 20.8828 161.634 20.2894 160.943C17.5201 157.884 15.0479 154.677 13.1703 150.925C12.8739 150.332 12.429 149.691 12.1325 149.098ZM51.2487 142.859C49.3673 143.059 47.4859 143.26 45.555 143.362C45.7032 143.658 45.802 143.856 45.9009 144.053C46.4938 145.238 46.2952 145.831 45.1064 146.426C44.9083 146.525 44.6608 146.526 44.4627 146.625C44.2645 146.724 44.017 146.724 43.5713 146.824C44.1156 147.169 44.4619 147.366 44.8083 147.563C45.4019 148.007 45.9461 148.352 46.3417 148.895C47.1824 149.832 46.9334 151.315 45.8931 151.959C45.5959 152.107 45.1997 152.306 44.9027 152.207C44.2098 152.06 43.5168 151.913 42.8735 151.618C42.0818 151.273 41.4387 150.731 40.746 150.337C40.3997 150.139 40.0533 149.942 39.707 149.745C39.4095 150.141 39.7559 150.338 39.8547 150.536C40.0029 150.832 40.1018 151.029 40.25 151.326C40.3982 151.622 40.4474 151.968 40.1005 152.265C39.8528 152.512 39.3577 152.513 39.1104 152.266C38.5662 151.921 38.121 151.527 37.6264 151.033C36.3406 149.701 35.5997 147.973 34.9082 146.344C34.8094 146.146 35.0077 145.8 35.0082 145.306C36.4912 147.527 37.3801 149.798 39.4081 151.623C39.1615 150.636 38.7163 150.241 38.519 149.599C38.3213 149.204 38.0246 148.859 38.322 148.463C38.5204 148.117 38.9661 148.017 39.6094 148.313C40.2032 148.509 40.6484 148.904 41.2423 149.101C42.1825 149.494 43.0237 149.938 43.9639 150.331C44.1618 150.479 44.459 150.331 45.0531 150.28C44.608 149.886 44.3607 149.639 44.1134 149.392C43.7176 149.096 43.1237 148.9 42.728 148.604C42.1343 148.16 41.6398 147.667 41.4424 147.025C41.1464 145.938 41.4937 145.147 42.5337 144.75C42.7319 144.651 43.0785 144.601 43.5738 144.353C42.3862 143.713 41.446 143.319 40.3568 143.37C36.5448 143.426 32.6831 143.63 29.0195 143.735C28.2265 144.625 27.5822 145.318 26.8389 146.06C25.9469 147.001 25.6984 147.989 26.1428 149.125C26.1922 149.224 26.3901 149.372 26.4889 149.569C27.0336 149.42 27.4301 148.975 27.9751 148.578C28.52 148.182 28.9165 147.737 29.5109 147.44C29.9071 147.241 30.4025 146.993 30.7982 147.289C31.194 147.585 31.2926 148.03 31.193 148.573C31.044 149.018 30.8951 149.463 30.8946 149.957C30.7951 150.501 30.7946 150.995 30.7941 151.489C30.7938 151.736 30.9917 151.884 31.14 152.18C31.784 151.735 32.3786 151.19 32.9235 150.794C33.0224 150.991 33.1708 151.041 33.1212 151.189C32.9717 152.128 32.3769 152.919 31.4853 153.366C30.7919 153.713 30.198 153.516 29.8521 152.825C29.4569 152.035 29.4082 151.195 29.508 150.404C29.5579 150.009 29.6078 149.613 29.6579 148.971C29.212 149.318 29.0139 149.417 28.7661 149.664C28.3202 150.011 28.0228 150.407 27.5769 150.753C26.487 151.545 25.2992 151.152 24.8054 149.918C24.0645 148.19 24.4128 146.41 25.7013 145.025C25.9987 144.629 26.4446 144.282 26.8905 143.936C26.6926 143.788 26.6432 143.689 26.4947 143.64C23.4749 143.546 20.554 143.65 19.4645 143.948C21.0451 147.602 23.0717 150.909 25.8907 153.819C27.4732 155.497 29.3038 156.68 31.4814 157.318C33.0652 157.76 34.6487 158.45 36.3812 158.694C38.9057 159.036 41.1834 158.637 43.4122 157.645C45.6409 156.653 47.5236 155.217 48.9613 153.14C50.2007 151.408 51.3907 149.578 51.9373 147.453C52.1861 146.217 52.4348 144.981 52.337 143.796C52.2878 143.45 52.1892 143.005 52.0906 142.561C51.6447 142.907 51.4963 142.858 51.2487 142.859ZM53.1302 142.658C53.0805 142.806 53.0805 142.806 53.0309 142.955C53.8192 146.758 52.6772 150.169 50.5453 153.335C49.405 155.016 48.1657 156.748 46.3823 157.887C42.4194 160.364 38.2103 161.359 33.5084 160.131C32.6176 159.836 31.6277 159.591 30.7863 159.395C28.559 158.904 26.6294 157.771 24.8981 156.291C22.2271 153.924 19.9525 151.111 18.1239 147.952C17.5308 147.014 17.0367 146.027 16.8398 144.891C16.84 144.644 16.5927 144.397 16.5435 144.051C15.4546 143.855 14.4647 143.61 13.3755 143.661C13.3753 143.908 13.3256 144.057 13.3256 144.057C13.7701 145.192 14.2145 146.328 14.8571 147.364C16.7843 150.968 18.9593 154.325 21.6295 157.433C22.7669 158.716 24.0528 160.048 25.438 161.083C27.565 162.859 30.0393 163.843 32.8114 164.184C35.9794 164.574 38.8512 164.125 41.7732 163.033C45.4876 161.545 48.7075 159.563 51.4827 156.693C54.7534 153.328 55.8465 149.324 55.4054 144.729C55.3568 143.89 55.2587 142.951 54.8634 142.161C54.3187 142.31 53.6749 142.509 53.1302 142.658Z" fill="#85B472"/>
<path d="M34.7034 153.607C34.9011 154.002 35.495 154.198 35.8912 154C36.5846 153.653 36.8826 152.763 36.6358 152.023C36.5372 151.578 35.9929 151.233 35.4976 151.481C34.9033 151.778 34.3576 152.916 34.7034 153.607Z" fill="#85B472"/>
<path d="M21.8381 146.463C22.0356 146.858 22.5301 147.104 22.8271 146.956C23.2231 146.757 23.372 146.313 23.1744 145.918C23.0263 145.622 22.6802 145.425 22.3338 145.475C21.8884 145.574 21.7396 146.019 21.8381 146.463Z" fill="#85B472"/>
<path d="M77.2449 87.6257C79.9198 86.0403 82.6933 84.8993 85.615 84.0546C87.5464 83.4586 89.5273 82.7142 91.5081 82.2169C93.8851 81.5213 96.4103 81.122 98.9353 80.9696C105.223 80.663 111.411 80.653 117.599 81.3841C126.113 82.3091 134.031 85.0138 141.503 89.0533C145.016 90.8758 147.984 93.3415 150.506 96.4008C152.088 98.3252 153.423 100.497 154.411 102.719C154.707 103.311 154.855 104.102 155.151 104.694C155.349 105.336 155.546 105.978 155.843 106.571C157.176 110.225 158.063 113.978 157.812 117.932C157.811 118.426 157.712 118.969 157.711 119.464C157.508 124.257 156.217 128.607 153.985 132.81C151.853 136.47 149.324 139.834 146.252 142.606C143.874 144.784 141.199 146.122 138.178 147.017C135.207 148.01 132.137 148.311 129.167 148.316C123.573 148.275 118.178 147.148 112.882 145.229C107.587 143.311 102.639 140.848 97.9883 137.743C94.1293 135.23 90.3199 132.568 86.8574 129.609C83.3948 126.65 80.4278 123.196 77.9564 119.247C76.7701 117.371 75.6829 115.446 74.6947 113.471C73.7062 111.743 72.8169 109.966 72.0266 108.139C71.3351 106.51 70.7426 104.831 70.1502 103.152C69.5578 101.473 69.312 99.744 69.2146 98.0642C69.1189 94.6551 70.3595 91.6885 72.6394 89.0661C73.4324 88.1754 74.423 87.6797 75.5124 87.3815C76.0077 87.1336 76.1562 87.1828 77.2449 87.6257ZM127.294 139.87C127.195 139.672 127.245 139.771 127.294 139.87C127.195 139.672 127.245 139.771 127.294 139.87C127.838 140.215 128.432 140.658 129.026 141.102C129.075 141.201 129.273 141.102 129.372 141.052C128.482 140.263 128.235 140.016 127.542 139.869C127.492 139.771 127.443 139.919 127.294 139.87ZM155.885 114.081C155.389 114.576 155.339 115.218 155.289 115.861C155.288 116.355 155.338 116.453 155.684 117.145C155.684 116.403 155.734 115.761 155.834 115.217C155.884 114.822 155.934 114.427 155.885 114.081C155.885 114.081 155.835 113.982 155.885 114.081C155.736 114.032 155.736 114.032 155.786 113.883C155.835 113.982 155.835 113.982 155.885 114.081ZM119.125 140.377C119.076 140.278 119.026 140.18 119.026 140.18C119.026 140.18 119.076 140.278 119.125 140.377C119.917 140.969 120.559 141.758 121.45 142.3C121.5 142.152 121.599 142.102 121.599 142.102C121.204 141.065 120.263 140.672 119.323 140.278C119.175 140.229 119.125 140.377 119.125 140.377ZM75.8568 89.5549C75.6091 89.8024 75.4109 89.9015 75.2622 90.0994C74.2706 91.5833 73.3781 93.0177 72.8319 94.6491C72.435 95.5885 72.3349 96.6263 72.3834 97.7132C72.479 101.122 73.2185 104.333 74.8492 107.344C75.6398 108.924 76.7275 110.355 77.8152 111.786C79.8919 114.451 82.266 116.72 85.0859 118.642C87.1144 119.973 89.1925 121.156 91.4193 122.14C95.477 124.061 99.4852 125.882 103.543 127.803C104.483 128.197 105.473 128.689 106.413 129.083C111.906 131.396 117.647 132.968 123.686 133.65C128.141 134.137 132.548 133.537 136.856 132.492C139.382 131.846 141.66 130.459 143.494 128.677C145.922 126.351 147.855 123.531 149.64 120.662C152.12 116.706 153.064 112.405 153.168 107.909C153.169 106.427 152.923 104.945 152.331 103.513C150.849 100.304 148.871 97.5893 146.249 95.3207C144.073 93.4466 141.599 91.9683 138.976 90.6879C131.752 87.1421 123.982 84.9807 115.962 84.3019C111.21 83.9638 106.457 83.8726 101.655 83.9298C98.2392 84.0342 94.8229 84.3856 91.5546 85.2803C88.1872 86.2245 84.7704 87.07 81.4525 88.113C79.7193 88.6099 77.9366 89.0081 76.6484 90.1466C76.4999 90.0974 76.3514 90.0482 76.302 89.9495C76.1041 89.8016 76.0547 89.7029 75.8568 89.5549ZM111.005 141.477C110.708 141.132 110.461 140.885 110.214 140.639C107.988 138.666 105.911 136.495 103.982 134.374C102.993 133.387 101.905 132.45 100.767 131.661C100.618 131.612 100.47 131.563 100.173 131.465C100.469 132.304 101.162 132.698 101.607 133.093C103.19 134.523 104.772 135.953 106.256 137.433C107.047 138.272 108.086 139.11 108.531 140.246C108.63 140.443 108.728 140.641 108.877 140.69C109.52 140.986 110.213 141.38 111.005 141.477ZM146.607 134.156C146.804 135.292 147.101 135.885 147.694 136.576C148.437 135.833 148.982 135.19 149.528 134.3C149.082 134.399 148.538 134.548 148.142 134.5C147.498 134.451 147.053 134.304 146.607 134.156ZM114.626 134.109C115.615 135.096 116.654 135.934 117.99 136.624C117.595 135.834 117.348 135.34 117.002 134.649C116.21 134.551 115.467 134.306 114.626 134.109ZM114.123 142.757C115.112 143.002 116.003 143.297 116.894 143.592C117.043 143.641 117.389 143.839 117.488 143.542C116.548 142.901 115.559 142.409 114.619 141.768C114.569 141.669 114.47 141.719 114.322 141.669C114.223 141.719 114.223 141.719 114.074 141.67C114.074 141.917 114.024 142.312 114.123 142.757ZM123.927 140.567C122.74 138.938 121.899 138.248 120.91 138.002C121.403 139.484 122.64 139.976 123.927 140.567ZM102.106 129.386C103.787 131.508 104.677 132.297 106.063 132.838C105.766 132.493 105.519 132.246 105.271 132C104.777 131.507 104.183 131.063 103.887 130.47C103.491 129.927 102.947 129.582 102.106 129.386ZM126.546 145.059C126.497 144.713 126.398 144.516 126.398 144.516C125.854 144.171 125.359 143.924 124.914 143.53C124.865 143.431 124.667 143.53 124.568 143.58C124.815 144.074 125.062 144.567 125.21 145.111C125.556 145.061 126.051 145.06 126.546 145.059ZM151.61 131.035C151.759 130.837 151.858 130.788 151.908 130.64C152.106 130.293 152.305 129.947 152.454 129.502C152.157 129.404 152.008 129.355 151.711 129.256C151.215 130.492 151.215 130.492 151.61 131.035ZM81.3216 120.526C81.2233 119.835 81.2233 119.835 79.9374 118.503C80.3327 119.292 80.7776 119.934 81.3216 120.526ZM144.177 138.706C144.176 139.2 143.879 139.596 144.374 139.842C144.622 139.595 144.77 139.397 145.018 139.149C144.672 138.952 144.375 138.854 144.177 138.706ZM132.892 135.71C133.486 136.154 133.486 136.154 134.08 136.351C133.932 136.054 133.833 135.857 133.833 135.61C133.536 135.512 133.19 135.314 132.892 135.71ZM141.856 132.83C142.202 133.274 142.548 133.471 143.241 133.618C143.093 133.075 142.896 132.68 142.5 132.384C142.203 132.533 142.054 132.731 141.856 132.83ZM119.616 144.082C120.012 144.378 120.557 144.476 121.25 144.376C120.854 144.08 120.607 143.833 120.409 143.685C120.063 143.488 119.765 143.637 119.616 144.082ZM136.003 143.66C135.657 143.957 135.359 144.106 135.062 144.255C135.854 144.352 135.854 144.352 136.003 143.66ZM90.9717 124.216C91.0211 124.315 90.9715 124.463 91.0705 124.414C91.219 124.463 91.4169 124.611 91.5654 124.66C91.516 124.561 91.615 124.512 91.5656 124.413C91.3677 124.265 91.2193 124.216 91.0214 124.068C91.0708 124.167 91.0708 124.167 90.9717 124.216ZM138.777 142.025C138.827 141.877 138.877 141.729 138.827 141.63C138.729 141.432 138.432 141.334 138.382 141.482C138.332 141.631 138.382 141.729 138.431 141.828C138.381 141.976 138.481 141.927 138.777 142.025ZM155.244 111.562C155.243 111.809 155.243 112.056 155.292 112.155L155.441 112.204C155.491 112.056 155.54 111.907 155.441 111.71C155.491 111.562 155.343 111.512 155.244 111.562ZM140.269 135.846C140.12 135.797 140.12 135.797 139.972 135.748C139.922 135.896 139.872 136.045 139.872 136.045C139.922 136.144 140.021 136.094 140.169 136.143C140.268 136.094 140.219 135.995 140.269 135.846ZM154.637 123.965L154.736 123.915C154.786 123.767 154.687 123.569 154.737 123.421L154.638 123.471C154.588 123.619 154.538 123.767 154.637 123.965C154.637 123.965 154.538 124.014 154.637 123.965ZM126.505 136.313C126.555 136.412 126.654 136.363 126.703 136.461C126.802 136.412 126.802 136.412 126.852 136.263C126.803 136.165 126.704 136.214 126.654 136.116C126.555 136.165 126.555 136.165 126.505 136.313Z" fill="#85B472"/>
<path d="M136.473 118.856C133.303 120.936 130.282 122.077 126.965 122.379C122.806 122.732 118.895 122.096 115.333 119.928C112.859 118.449 110.534 116.773 108.605 114.652C107.567 113.566 106.776 112.233 106.332 110.851C105.937 109.567 105.74 108.431 106.236 107.195C106.336 106.898 106.386 106.503 106.436 106.107C106.436 105.119 106.487 104.23 106.389 103.291C106.439 102.154 106.787 101.116 107.332 100.226C108.175 98.9399 109.216 97.8018 110.455 96.8116C113.279 94.7812 116.399 93.3433 119.865 92.5965C121.499 92.1492 123.133 92.1959 124.717 92.391C127.637 92.7816 130.458 93.7158 132.932 95.1941C136.94 97.5098 139.907 100.717 141.289 105.211C142.621 109.606 141.627 113.56 138.653 117.024C137.91 117.766 136.969 118.361 136.473 118.856ZM107.867 109.959C108.164 110.798 108.608 111.687 109.152 112.279C111.872 115.486 115.236 117.754 119.245 119.081C119.839 119.278 120.532 119.425 121.175 119.473C125.878 120.207 130.038 118.866 133.901 116.439C135.586 115.349 136.825 113.865 137.767 112.035C138.412 110.601 138.76 109.069 138.613 107.537C138.269 105.364 137.528 103.389 136.045 101.662C133.474 98.5037 129.96 96.6812 125.951 95.8477C123.872 95.4064 121.892 95.4096 119.961 96.0057C117.237 96.7512 114.711 97.8917 112.383 99.4272C111.442 100.022 110.698 100.764 109.955 101.506C109.162 102.397 108.517 103.584 108.467 104.72C108.466 105.709 108.316 106.648 108.365 107.735C108.413 108.574 108.512 109.266 107.867 109.959Z" fill="#85B472"/>
<path d="M142.188 96.3648C142.287 96.3153 142.485 96.2161 142.535 96.3149C143.277 96.8078 143.969 97.2019 144.513 97.794C146.146 99.323 147.728 101 149.013 102.826C150.299 104.653 150.544 106.629 149.849 108.705C149.75 109.002 149.601 109.446 149.403 109.793C148.559 111.573 148.112 113.402 147.862 115.378C147.713 116.812 147.315 118.245 146.571 119.482C146.224 120.026 145.827 120.718 145.282 121.114C143.994 122.253 142.706 123.391 141.517 124.48C140.575 125.322 139.584 126.311 138.643 127.153C137.305 128.44 135.72 129.233 133.739 129.483C132.105 129.683 130.372 130.18 128.788 130.479C127.995 130.629 127.352 130.828 126.559 130.977C124.975 131.276 123.44 131.18 121.956 130.688C119.382 129.753 116.759 128.967 114.136 128.181C111.909 127.443 109.731 126.557 107.653 125.375C106.12 124.538 104.536 123.848 102.853 123.456C102.408 123.308 102.012 123.26 101.566 123.112C98.844 122.622 96.3696 121.638 93.8458 120.555C92.5593 119.964 91.4211 119.423 90.2833 118.634C87.4139 116.613 84.6436 114.542 81.8732 112.471C81.0817 111.88 80.3398 111.14 79.4989 110.449C78.0646 109.068 77.0761 107.341 76.583 105.365C76.2873 104.031 75.9422 102.599 75.6464 101.265C75.5973 100.92 75.5481 100.574 75.5484 100.327C75.598 100.178 75.7467 99.9806 75.9945 99.7331C76.1427 100.029 76.2912 100.079 76.39 100.276C77.1801 102.35 78.0195 104.523 78.8096 106.597C79.402 108.276 80.5394 109.558 81.8255 110.643C83.458 111.925 85.1895 113.158 86.8219 114.44C88.0586 115.426 89.345 116.264 90.6313 117.102C91.8186 117.989 93.0555 118.728 94.4412 119.27L94.5896 119.319C97.1628 120.5 99.8353 121.385 102.557 122.122C104.686 122.662 106.566 123.45 108.397 124.633C110.326 125.766 112.405 126.701 114.582 127.34C117.106 128.176 119.68 129.111 122.105 129.996C123.936 130.685 125.619 130.83 127.451 130.284C128.986 129.886 130.521 129.488 132.106 129.189C132.651 129.04 133.245 128.99 133.839 128.939C135.671 128.887 137.206 127.995 138.445 126.758C139.585 125.57 140.774 124.481 142.013 123.244C143.599 121.71 145.135 120.077 145.979 118.05C146.326 117.259 146.624 116.369 146.823 115.528C147.122 113.403 147.668 111.278 148.809 109.349C148.958 109.151 148.958 108.904 149.107 108.706C150.099 106.728 149.853 104.752 148.617 103.025C147.035 100.606 145.057 98.386 142.683 96.6111C142.435 96.6115 142.237 96.4636 142.188 96.3648C142.188 96.3648 142.139 96.2661 142.188 96.3648Z" fill="#85B472"/>
<path d="M132.904 123.358C132.953 123.95 132.656 124.346 132.21 124.693C130.922 125.584 129.634 126.476 128.148 126.972C123.741 128.313 119.334 128.419 115.079 126.351C113.149 125.465 111.417 124.232 109.934 122.753C109.439 122.259 109.044 121.716 108.896 120.926C108.797 120.729 108.896 120.432 108.946 120.284C109.194 120.036 109.441 120.036 109.738 120.134C110.233 120.38 110.679 120.528 111.074 120.824C112.262 121.464 113.4 122.253 114.587 122.893C117.556 124.618 120.625 125.305 124.09 125.052C126.714 124.85 129.19 124.352 131.666 123.36C132.211 122.963 132.261 123.062 132.904 123.358Z" fill="#85B472"/>
<path d="M131.451 90.7499C131.253 90.8491 131.055 90.9482 131.006 90.8495C130.313 90.7024 129.67 90.4069 128.977 90.2598C127.195 89.6698 125.314 89.1293 123.334 88.8855C121.998 88.69 120.562 88.2971 119.276 87.9533C118.137 87.6587 116.95 87.2653 115.762 86.872C114.178 86.4298 112.594 86.2348 111.01 86.2867C108.435 86.3403 105.91 86.4927 103.336 86.5462C102.494 86.597 101.554 86.6974 100.662 86.8964C97.4932 87.4945 94.324 88.3396 91.2042 89.2834C90.5604 89.4821 89.8672 89.5821 89.2731 89.6324C87.7876 89.8819 86.2528 90.0326 84.7673 90.2821C83.5294 90.5311 82.3906 90.7306 81.2515 91.1771C80.4096 91.475 79.6665 91.9703 79.0223 92.663C77.5853 93.9994 76.544 95.6317 75.6512 97.313C75.3543 97.2147 75.503 97.0168 75.5033 96.7698C75.5529 96.6215 75.5531 96.3744 75.7513 96.2753C76.8916 94.5935 77.7846 92.6651 79.4691 91.3283C80.0141 90.9321 80.6581 90.4864 81.3513 90.3864C82.8864 89.9886 84.3721 89.4921 85.8081 89.1439C87.8879 88.5971 89.8192 88.001 91.8991 87.4541C95.4149 86.5591 98.8811 85.8123 102.495 85.8559C104.129 85.9026 105.664 85.7519 107.297 85.7987C108.733 85.6975 110.119 85.7447 111.555 85.6435C113.139 85.5916 114.624 85.8362 116.109 86.3279C117.742 86.8688 119.326 87.3109 120.959 87.8517C121.701 88.0976 122.543 88.2939 123.335 88.3914C126.206 88.6832 128.878 89.5683 131.451 90.7499Z" fill="#85B472"/>
<path d="M103.47 101.418C103.668 101.318 103.866 101.219 103.965 101.17C104.213 101.169 104.411 101.07 104.609 101.218C104.955 101.415 104.856 101.712 104.707 101.91C103.765 103.986 103.713 106.111 103.859 108.384C104.055 110.508 104.251 112.632 104.942 114.756C105.041 114.953 105.041 115.2 105.04 115.447C105.09 115.546 105.04 115.694 104.941 115.744C104.842 115.794 104.743 115.843 104.545 115.942C104.446 115.992 104.396 115.893 104.347 115.794C104.149 115.647 103.902 115.4 103.803 115.202C102.518 112.635 101.333 110.018 101.237 107.103C101.189 105.522 101.537 103.99 102.38 102.704C102.875 102.209 103.272 101.764 103.47 101.418Z" fill="#85B472"/>
<path d="M141.23 114.5C141.576 114.697 141.725 114.993 141.724 115.24C141.475 117.217 140.731 118.947 138.947 120.087L138.848 120.136C138.601 120.137 138.353 120.137 138.205 120.088C138.007 119.94 138.106 119.643 138.255 119.446C138.503 119.198 138.701 118.852 138.949 118.605C139.791 117.566 140.486 116.477 140.833 115.192C140.834 114.945 140.982 114.747 141.131 114.549L141.23 114.5Z" fill="#85B472"/>
<path d="M140.309 95.0831C141.051 95.329 141.694 95.6244 142.04 96.3156C141.496 95.9706 140.853 95.6752 140.309 95.0831Z" fill="#85B472"/>
<path d="M136.597 93.3599C136.795 93.2608 136.944 93.063 137.142 93.2109C137.488 93.4078 137.785 93.5061 138.081 93.6044C137.933 93.8021 137.685 93.8025 137.537 93.7534C137.339 93.6056 136.943 93.5568 136.597 93.3599Z" fill="#85B472"/>
<path d="M131.451 90.7497C131.649 90.8971 131.895 90.8967 132.389 91.1422C131.698 91.2418 131.5 91.0944 131.451 90.7497Z" fill="#85B472"/>
<path d="M135.113 92.6212C135.41 92.2257 135.756 92.6695 136.152 92.4714C135.855 92.8669 135.46 92.5712 135.113 92.6212Z" fill="#85B472"/>
<path d="M133.033 91.4399L133.082 91.537L132.936 91.4886C132.936 91.4886 132.936 91.4886 133.033 91.4399Z" fill="#85B472"/>
<path d="M134.024 91.9303C133.927 91.979 133.927 91.979 133.878 91.882L133.975 91.8332L134.024 91.9303Z" fill="#85B472"/>
<path d="M135.112 92.6209C135.063 92.5224 135.063 92.5224 134.915 92.4734L134.865 92.3749L135.013 92.4239C135.161 92.473 135.063 92.5224 135.112 92.6209Z" fill="#85B472"/>
<path d="M138.23 93.6537C138.427 93.8012 138.575 93.8502 138.773 93.9977C138.378 94.1953 138.328 94.0969 138.23 93.6537C138.23 93.6537 138.181 93.5553 138.23 93.6537Z" fill="#85B472"/>
<path d="M139.268 94.2439C138.873 94.4416 138.824 94.3432 138.726 93.9C138.923 94.0475 139.12 94.1949 139.268 94.2439C139.318 94.3424 139.268 94.2439 139.268 94.2439Z" fill="#85B472"/>
<path d="M139.812 94.5889C139.417 94.7866 139.417 94.7866 139.27 94.245C139.467 94.3924 139.664 94.5399 139.812 94.5889Z" fill="#85B472"/>
<path d="M140.405 95.0328C139.961 95.132 139.862 94.9352 139.912 94.541C140.01 94.7379 140.208 94.8854 140.405 95.0328Z" fill="#85B472"/>
<path d="M119.709 99.9594C120.403 99.1183 121.443 98.7214 122.384 98.374C123.969 97.8279 125.652 97.7264 127.435 97.8223C128.474 97.9194 129.414 98.3132 130.305 98.8553C131.443 99.644 132.234 100.73 132.728 101.964C133.321 103.149 133.22 104.434 132.427 105.572C131.237 107.155 129.751 108.145 127.82 108.494C127.275 108.643 126.632 108.595 126.087 108.497C123.414 108.106 120.298 105.344 119.955 102.43C119.856 101.985 119.856 101.491 119.857 100.997C119.758 100.799 119.709 100.454 119.709 99.9594ZM121.492 99.8083C120.796 102.626 121.883 104.551 123.911 106.129C126.286 107.904 129.554 107.256 131.141 104.734C131.537 104.041 131.687 103.349 131.39 102.757C130.402 100.782 128.968 99.4009 126.641 99.2071C125.354 99.1103 124.166 99.2111 123.027 99.4106C122.532 99.4114 122.037 99.6592 121.492 99.8083Z" fill="#85B472"/>
<path d="M65.4719 177.719C64.5818 176.683 64.3355 175.448 64.5348 174.114C64.6843 173.175 64.9328 172.186 65.4782 171.296C66.5691 169.515 67.9073 167.981 69.8885 166.99C70.1857 166.841 70.582 166.643 70.8792 166.494C72.811 165.404 74.5946 164.018 76.0318 162.434C76.9735 161.346 78.0637 160.306 79.2032 159.366C81.7299 157.484 84.6025 156.294 87.5736 155.548C90.6438 154.752 93.9114 154.599 97.129 154.84C101.337 155.081 105.544 155.815 109.652 156.846C110.939 157.19 112.226 157.533 113.562 157.729C115.245 158.121 116.978 158.119 118.612 157.671C119.058 157.572 119.404 157.522 119.85 157.422C120.097 157.422 120.345 157.421 120.593 157.421C120.989 157.47 121.137 158.013 120.938 158.359C120.789 158.557 120.591 158.656 120.294 158.805C119.502 159.202 118.709 159.598 117.966 160.093C117.025 160.688 116.084 161.282 115.291 161.926C114.795 162.421 114.251 162.57 113.557 162.67C112.468 162.721 111.775 163.315 111.081 164.156C110.089 165.64 109.098 167.124 108.106 168.608C106.916 170.438 105.775 172.367 104.486 174.247C103.743 175.483 102.85 176.67 101.958 177.858C99.3313 180.777 96.1608 182.857 92.2984 183.802C90.3177 184.3 88.1887 184.501 86.159 184.405C82.446 184.411 78.8326 183.874 75.2194 183.089C72.8436 182.549 70.6168 181.565 68.5881 180.481C67.4008 179.593 66.2629 178.805 65.4719 177.719ZM110.64 159.315C108.264 158.775 105.938 158.087 103.612 157.646C100.345 157.059 97.0777 156.718 93.8103 156.624C90.8896 156.481 88.018 156.683 85.1954 157.478C82.7193 158.224 80.2924 159.315 78.3105 161.047C77.8149 161.542 77.27 161.938 76.8238 162.532C75.4856 164.066 73.9992 165.303 72.4138 166.591C71.8191 167.135 71.0266 167.532 70.2342 167.928C68.3023 169.018 67.0632 170.503 66.1702 172.431C66.0215 172.629 66.0212 172.876 65.9716 173.024C65.3758 174.804 65.82 176.187 67.2545 177.321C68.2933 178.159 69.4809 178.8 70.718 179.292C72.5985 180.079 74.5783 180.57 76.6077 180.913C80.0233 181.302 83.4388 181.692 86.8549 181.588C88.6867 181.535 90.6175 181.433 92.4002 181.035C95.8663 180.289 98.8878 178.653 101.465 176.129C102.505 174.991 103.497 173.754 104.34 172.468C105.926 170.193 107.463 167.818 109.198 165.592C109.793 164.801 110.437 164.108 111.032 163.316C111.676 162.624 112.469 162.227 113.31 162.176C114.004 162.076 114.598 161.779 115.193 161.234C115.589 160.789 116.084 160.541 116.481 160.096C114.302 160.198 112.471 159.756 110.64 159.315Z" fill="#85B472"/>
<path d="M86.2297 161.529C86.3283 161.973 86.6746 162.17 87.021 162.367C87.7631 162.86 88.5052 163.353 89.3464 163.797C89.5442 163.944 89.6927 163.994 89.7915 164.191C89.8407 164.537 89.5932 164.537 89.3456 164.538C87.3649 165.035 85.4827 165.977 83.7984 167.067C81.6682 168.503 79.5383 169.692 77.2105 170.734C76.0217 171.328 74.932 171.874 73.7927 172.567C73.4955 172.716 73.1983 172.865 73.1978 173.359C73.396 173.26 73.6435 173.259 73.8416 173.16C75.5751 172.416 77.3085 171.672 79.042 170.928C80.5773 170.283 81.9642 169.589 83.4501 168.846C84.6389 168.251 85.7285 167.706 87.0655 167.407C87.4121 167.357 87.7587 167.307 88.2044 167.208C88.105 167.504 88.0554 167.653 88.0057 167.801C87.113 169.482 86.1708 171.065 85.179 172.796C84.9806 173.142 84.8319 173.34 84.6335 173.686C84.7817 173.982 84.9799 173.883 85.0789 173.834C85.3267 173.586 85.6239 173.438 85.7232 173.141C87.0616 171.36 88.2516 169.53 89.1446 167.601C89.1942 167.453 89.2933 167.404 89.3926 167.107C91.2741 166.906 93.1553 166.953 95.1847 167.295C94.8868 168.185 94.5394 168.976 94.1921 169.767C93.5471 171.201 93.0012 172.586 92.3562 174.02C92.2569 174.316 92.1576 174.613 92.1573 174.86C92.1077 175.008 92.355 175.255 92.5531 175.156C92.7512 175.057 92.9494 174.957 93.0981 174.759C93.3458 174.512 93.5442 174.166 93.6435 173.869C94.6356 171.891 95.6771 170.012 96.3228 167.837C96.3228 167.837 96.3724 167.689 96.4715 167.639C96.719 167.639 97.0656 167.589 97.3626 167.687C101.967 167.729 105.929 166.24 109.496 163.22C109.744 162.973 110.041 162.824 110.14 162.528C110.586 161.934 110.241 161.243 109.449 161.145C109.053 161.096 108.607 161.196 108.31 161.345C107.765 161.494 107.22 161.89 106.675 162.039C105.536 162.486 104.348 163.081 103.208 163.527C101.327 164.222 99.4945 164.521 97.5142 164.524C96.6231 164.477 95.8311 164.379 94.9895 164.43C93.9993 164.431 93.0092 164.433 92.0191 164.435C91.524 164.435 91.2271 164.337 90.8807 164.14C90.0892 163.548 89.1492 162.908 88.2586 162.365C87.7638 162.119 87.3184 161.972 86.8236 161.725C86.725 161.281 86.6259 161.33 86.2297 161.529Z" fill="#85B472"/>
<path d="M77.7988 176.612C77.9472 176.661 78.0957 176.71 78.1948 176.661C78.3929 176.562 78.591 176.463 78.6407 176.314C79.0371 175.869 79.5327 175.374 79.9292 174.929C80.0779 174.731 80.1278 174.335 80.2271 174.039C80.1777 173.94 80.1283 173.841 79.9798 173.792C79.9304 173.693 79.7323 173.793 79.7323 173.793C79.6332 173.842 79.5342 173.892 79.4845 174.04C78.8896 174.832 78.4433 175.672 77.8484 176.464C77.799 176.365 77.7493 176.513 77.7988 176.612Z" fill="#85B472"/>
<path d="M88.7395 177.434C88.8885 176.989 89.1859 176.594 89.2852 176.297C89.3349 176.149 89.3351 175.902 89.3354 175.655C89.2859 175.556 88.989 175.457 88.8899 175.507C88.7909 175.557 88.6918 175.606 88.6422 175.755C88.2454 176.447 87.9972 177.188 87.6004 177.881C87.6004 177.881 87.5014 177.93 87.5508 178.029C87.6002 178.128 87.6 178.375 87.699 178.325C87.8475 178.375 87.9466 178.325 88.0456 178.275C88.1943 178.078 88.244 177.929 88.4421 177.83C88.5908 177.632 88.6405 177.484 88.7395 177.434Z" fill="#85B472"/>
<path d="M96.8252 161.166C96.8254 160.919 96.8257 160.672 96.7763 160.573C96.4304 159.882 96.0349 159.339 95.4412 158.895C95.3918 158.796 95.2928 158.846 95.2928 158.846C95.1937 158.896 95.0452 158.846 94.9462 158.896C94.8471 158.946 94.8965 159.044 94.8469 159.193C94.8963 159.291 94.9457 159.39 94.9951 159.489C95.4897 159.982 95.9346 160.624 96.4292 161.117C96.6273 161.018 96.6273 161.018 96.8252 161.166Z" fill="#85B472"/>
</g>
<defs>
<clipPath id="clip0_153_1726">
<rect width="278.259" height="138.236" fill="white" transform="translate(0.0263672 124.907) rotate(-26.5834)"/>
</clipPath>
</defs>
</svg>
