<svg width="442" height="601" viewBox="0 0 442 601" fill="none" xmlns="http://www.w3.org/2000/svg">
<g opacity="0.15" clip-path="url(#clip0_153_1652)">
<path d="M285.904 479.527C287.993 487.077 288.891 494.888 288.2 502.826C287.369 513.146 282.972 521.6 275.01 528.19C274.148 528.783 273.286 529.375 272.555 530.233C266.585 534.844 260.027 537.27 252.551 537.84C245.074 538.41 237.602 537.657 230.266 535.845C227.622 535.174 224.914 534.04 222.404 532.973C217.583 530.905 213.425 528.178 209.137 525.186C206.828 523.524 204.652 521.465 203.339 518.814C202.747 517.952 202.618 517.025 203.15 516.1C203.217 515.902 203.482 515.771 203.351 515.506C202.632 513.055 204.292 511.406 205.686 509.889C209.207 505.997 212.528 502.038 216.247 498.213C221.89 492.608 227.664 487.268 233.24 481.861C240.675 474.873 248.042 468.082 255.476 461.094C258.132 458.456 261.315 456.217 264.233 454.11C266.886 452.134 268.673 452.074 271.641 454.4C273.093 455.331 274.146 456.79 275.266 458.052C279.805 464.882 283.616 471.909 285.904 479.527ZM267.058 459.479C265.931 460.203 265.267 460.863 264.667 461.985C265.126 463.244 265.849 464.372 266.11 465.564C267.545 471.127 268.583 476.556 269.092 482.248C269.28 484.962 268.347 487.076 265.565 488.125C265.565 488.125 265.431 488.522 265.166 488.653C266.09 489.186 267.081 489.52 268.005 490.053C269.853 491.118 271.503 492.116 272.688 493.84C273.939 495.366 274.395 497.287 273.726 499.27C273.325 500.459 272.991 501.451 272.391 502.574C270.923 506.274 268.267 508.912 264.623 510.554C262.304 511.538 259.723 511.993 257.146 511.124C256.75 510.99 256.155 510.789 255.362 510.522C255.622 511.714 255.95 512.707 256.078 513.634C256.141 514.759 256.401 515.951 256.463 517.076C256.121 520.053 254.66 521.768 251.816 521.692C248.045 521.746 244.21 521.336 240.441 520.727C237.731 520.255 236.083 518.595 235.1 516.276C234.837 515.745 234.574 515.215 234.445 514.288C233.846 515.411 233.313 516.336 232.848 517.062C231.783 518.911 230.39 519.767 228.208 519.693C225.43 519.419 222.522 518.879 219.747 517.944C216.972 517.008 214.596 515.544 212.753 513.156C212.16 512.293 211.303 511.563 210.513 510.633C209.319 511.556 208.323 512.545 207.327 513.534C206.928 514.062 206.398 514.325 205.999 514.853C211.608 518.511 217.75 521.245 223.367 522.919C226.209 523.656 228.984 524.592 231.627 525.263C233.807 525.998 235.856 526.468 238.304 526.41C240.487 526.484 242.867 526.625 244.919 526.433C248.095 526.179 251.402 526.19 254.383 525.208C259.682 523.241 264.389 520.412 268.833 517.052C271.818 514.747 274.144 511.777 275.216 507.943C276.559 502.654 277.373 496.966 276.599 491.405C275.699 484.256 274.071 477.303 271.979 470.414C271.784 469.685 271.521 469.155 271.258 468.625C270.668 467.101 269.814 465.709 269.157 464.383C268.369 462.792 267.779 461.268 267.058 459.479ZM252.952 518.322C253.819 516.406 253.561 514.552 253.105 512.632C252.456 509.321 251.011 506.405 249.567 503.488C247.859 500.042 245.689 496.66 244.048 493.015C242.998 490.894 242.014 488.574 241.228 486.322C241.164 485.859 241.166 485.197 241.498 484.867C242.095 484.406 242.623 484.805 243.151 485.204C244.865 486.665 245.785 488.521 246.704 490.377C249.266 495.216 251.63 499.988 254.722 504.564C255.183 505.162 255.644 505.759 256.105 506.356C257.488 508.147 259.073 508.682 261.258 508.094C262.517 507.635 263.775 507.176 264.836 506.65C267.885 504.808 269.285 501.967 270.553 498.862C270.954 497.672 270.825 496.745 269.968 496.015C268.518 494.422 266.737 493.158 264.822 492.291C258.152 489.159 251.681 486.093 244.677 483.952C243.686 483.617 242.695 483.283 241.704 482.949C240.378 483.606 239.581 484.662 239.707 486.251C239.836 487.177 239.502 488.169 239.432 489.029C238.881 495.247 238.13 501.398 237.579 507.616C237.507 509.138 237.368 510.857 237.297 512.379C237.414 516.614 238.863 518.207 242.896 518.684C245.012 518.956 247.195 519.03 249.311 519.302C250.435 519.239 251.627 518.979 252.952 518.322ZM219.921 524.627C219.854 524.826 219.787 525.024 219.522 525.155C223.417 527.352 227.312 529.549 231.608 530.556C238.547 532.234 245.754 533.119 252.902 532.217C255.88 531.896 258.726 531.311 261.575 530.063C266.743 527.831 271.053 524.868 275.037 520.911C280.281 515.834 283.744 509.494 284.697 502.086C285.932 489.915 283.525 478.724 277.345 468.249C277.083 467.718 276.753 467.386 276.161 466.524C276.092 467.384 276.223 467.649 276.156 467.848C277.725 473.014 278.367 478.31 279.473 483.541C280.645 488.574 280.692 493.669 279.615 498.827C278.875 502.331 278.333 505.902 276.866 508.941C274.731 513.963 271.343 518.12 266.437 520.882C264.78 521.869 263.321 522.923 261.465 523.843C257.953 525.75 254.507 527.458 250.535 528.106C246.829 528.623 243.257 528.743 239.684 528.863C235.913 528.917 232.542 528.442 228.974 527.239C226.199 526.303 223.159 525.499 219.921 524.627ZM229.082 515.792C229.614 514.867 230.08 514.141 230.613 513.217C231.546 511.102 232.413 509.186 232.951 506.938C234.56 500.856 235.905 494.906 236.655 488.755C236.789 488.358 236.791 487.696 236.662 486.769C233.479 489.008 231.088 491.515 228.368 493.689C225.582 496.062 222.993 498.501 220.206 500.874C217.617 503.313 214.897 505.487 212.705 508.06C216.59 512.904 220.287 515.034 229.082 515.792ZM244.027 480.641C245.018 480.975 245.878 481.044 246.802 481.577C251.16 483.709 255.788 484.387 260.55 484.667C261.608 484.803 262.732 484.741 263.79 484.877C265.113 484.882 265.512 484.354 265.517 483.03C265.589 481.509 265.395 480.118 265.269 478.53C264.82 474.624 264.173 470.652 262.996 466.942C262.8 466.214 262.339 465.617 262.076 465.087C259.426 466.401 245.888 478.398 244.027 480.641Z" fill="#85B472"/>
<path d="M211.471 556.227C211.072 556.755 210.406 558.077 209.675 558.934C207.616 561.111 205.367 561.235 203.191 559.177C202.334 558.446 201.412 557.252 200.887 556.191C199.44 553.937 198.654 551.684 198.466 548.971C198.148 545.33 198.227 541.824 198.175 538.052C198.244 537.192 198.313 536.332 198.779 535.605C199.445 534.284 201.167 533.761 202.619 534.692C203.147 535.091 203.608 535.688 203.937 536.02C205.977 539.137 208.083 542.056 210.32 545.239C211.306 546.897 212.028 548.686 212.484 550.607C212.345 552.326 212.008 553.98 211.471 556.227ZM201.869 540.843C201.922 544.615 201.845 547.46 202.43 550.307C202.755 551.963 203.543 553.554 204.132 555.078C204.46 556.071 205.052 556.933 206.241 557.334C206.506 557.203 206.704 557.27 206.771 557.072C207.103 556.742 207.435 556.412 207.502 556.214C208.966 553.837 209.174 551.257 207.662 548.539C206.282 546.086 204.505 543.499 201.869 540.843Z" fill="#85B472"/>
<path d="M170.083 550.66C170.886 548.281 172.283 546.102 174.009 544.255C177.861 540.034 182.305 536.674 187.803 534.774C188.266 534.709 188.598 534.38 189.061 534.315C191.511 533.596 192.302 534.525 191.764 536.773C191.497 537.566 191.495 538.227 191.029 538.954C189.097 542.719 187.628 546.419 185.3 550.051C183.571 552.559 181.71 554.803 179.322 556.647C177.598 557.832 175.742 558.752 173.758 558.746C171.243 559.002 169.727 557.607 169.472 555.092C169.278 553.701 169.481 552.445 170.083 550.66ZM186.661 539.468C185.668 539.796 185.469 539.729 185.204 539.86C182.222 541.504 179.502 543.679 176.98 545.92C175.585 547.437 174.322 549.219 173.059 551.001C172.261 552.057 171.86 553.247 172.053 554.637C172.115 555.762 172.774 556.426 173.899 556.364C175.685 556.304 177.011 555.647 178.272 554.526C179.599 553.207 180.994 551.69 181.925 550.238C183.855 547.134 185.059 543.565 186.661 539.468Z" fill="#85B472"/>
<path d="M178.048 525.08C176.527 525.008 175.798 525.205 174.939 525.135C172.89 524.665 170.64 524.79 168.522 525.18C167.86 525.177 166.934 525.307 166.272 525.304C165.876 525.171 165.348 524.772 165.284 524.308C165.219 523.845 165.42 523.25 165.752 522.92C166.084 522.591 166.879 522.196 167.342 522.132C169.527 521.544 171.71 521.617 173.957 522.154C175.676 522.293 176.997 522.959 178.048 525.08Z" fill="#85B472"/>
<path d="M257.057 498.948C256.925 498.683 256.861 498.22 256.928 498.021C257.062 497.625 257.592 497.362 257.79 497.429C259.376 497.963 260.099 499.091 260.689 500.615C260.82 500.88 260.62 501.475 260.288 501.804C259.889 502.332 259.294 502.132 258.898 501.998C257.775 501.399 257.515 500.207 257.057 498.948Z" fill="#85B472"/>
<path d="M250.808 489.332C251.006 489.399 251.469 489.335 251.667 489.401C252.592 489.934 253.449 490.665 254.108 491.329C254.306 491.396 254.304 492.057 254.237 492.256C254.17 492.454 253.838 492.784 253.442 492.65C252.119 492.645 251.063 491.848 250.273 490.919C249.745 490.52 250.079 489.528 250.808 489.332Z" fill="#85B472"/>
<path d="M242.405 508.36C243.923 509.093 244.117 510.484 243.847 511.938C243.78 512.137 243.448 512.466 243.183 512.598C242.918 512.729 242.522 512.596 242.323 512.529C241.335 511.533 241.208 509.944 242.405 508.36Z" fill="#85B472"/>
<path d="M245.723 505.063C246.974 506.589 247.961 508.247 248.35 510.366C247.887 510.43 247.423 510.495 247.292 510.23C246.041 508.703 245.582 507.445 245.723 505.063Z" fill="#85B472"/>
<path d="M264.48 495.268C264.215 495.399 264.081 495.796 263.618 495.86C262.89 496.056 262.164 495.591 262.166 494.929C262.233 494.731 262.632 494.203 262.897 494.071C263.625 493.875 264.351 494.341 264.48 495.268Z" fill="#85B472"/>
<path d="M228.798 502.888C229.189 504.345 228.055 507.054 226.531 507.644C226.001 507.907 225.208 507.64 224.879 507.308C224.284 507.107 224.088 506.379 224.289 505.784C224.824 504.198 225.887 503.01 227.279 502.155C227.611 501.825 228.535 502.358 228.798 502.888Z" fill="#85B472"/>
<path d="M234.054 494.503C234.181 496.091 233.911 497.546 232.717 498.468C232.452 498.6 231.989 498.664 231.592 498.531C231.196 498.397 230.866 498.065 230.802 497.601C230.542 496.41 231.475 494.295 232.667 494.035C233.13 493.97 233.658 494.369 234.054 494.503Z" fill="#85B472"/>
<path d="M219.25 508.943C218.92 508.611 218.524 508.477 218.393 508.212C217.999 507.417 218.266 506.624 218.732 505.897C219.064 505.568 219.396 505.238 219.792 505.372C219.99 505.439 220.253 505.969 220.384 506.234C220.382 506.896 220.181 507.49 219.981 508.085C220.045 508.549 219.582 508.613 219.25 508.943Z" fill="#85B472"/>
<path d="M254.613 480.016C253.354 480.475 252.031 480.47 250.909 479.871C250.513 479.737 250.25 479.207 249.987 478.676C249.923 478.213 250.654 477.355 251.248 477.556C252.504 477.759 253.827 477.763 255.017 478.164C255.413 478.298 255.742 478.63 255.807 479.093C255.938 479.358 255.341 479.82 255.274 480.018C254.945 479.686 254.68 479.817 254.613 480.016Z" fill="#85B472"/>
<path d="M259.53 473.945C259.067 474.009 258.338 474.205 257.942 474.071C257.545 473.938 257.216 473.606 257.085 473.341C256.953 473.076 257.154 472.481 257.419 472.349C258.415 471.36 259.671 471.563 260.994 471.567C261.192 471.634 261.522 471.966 261.653 472.231C261.784 472.496 261.452 472.826 261.385 473.024C260.788 473.486 260.06 473.682 259.53 473.945Z" fill="#85B472"/>
<path d="M401.351 292.993C399.608 299.472 397.599 306.082 394.005 312.157C388.481 321.336 382.695 329.984 375.39 337.9C371.272 342.253 367.024 346.341 362.117 349.765C352.7 356.085 342.107 358.695 330.929 358.459C326.762 358.378 322.597 357.636 318.432 356.894C312.152 355.88 305.938 354.668 299.658 353.654C294.633 352.843 289.609 352.032 284.319 351.352C281.411 350.813 278.762 351.465 276.506 353.575C275.178 354.894 273.456 355.417 271.603 355.676C268.427 355.929 265.447 356.912 262.533 357.696C259.885 358.349 257.633 359.135 255.116 360.053C254.388 360.249 253.659 360.445 252.998 360.442C251.873 360.505 251.018 359.112 251.618 357.99C252.016 357.462 252.415 356.934 253.012 356.472C253.941 355.682 255.001 355.156 255.93 354.365C260.174 351.6 263.56 348.105 265.958 343.614C267.756 340.245 269.753 336.943 271.551 333.575C277.412 322.743 284.13 312.642 291.772 303.074C297.486 295.947 304.125 289.353 311.817 284.218C319.244 279.214 327.328 275.537 336.264 273.913C340.5 273.133 344.734 273.015 348.901 273.096C355.251 273.25 361.606 272.08 367.566 270.116C368.56 269.788 369.751 269.528 370.812 269.002C376.641 266.772 382.527 266.991 388.278 268.267C391.119 269.005 393.629 270.072 395.938 271.734C399.172 273.929 401.211 277.046 401.66 280.951C402.307 284.924 402.094 288.827 401.351 292.993ZM265.853 354.399C267.441 354.272 269.096 353.947 270.684 353.82C272.735 353.628 274.457 353.105 276.248 351.721C278.173 349.941 280.623 349.222 283.269 349.231C286.113 349.307 288.957 349.383 291.734 349.657C299.801 350.611 307.801 351.763 315.801 352.915C320.23 353.526 324.66 354.136 329.159 353.887C339.413 353.591 348.884 350.381 357.109 344.322C361.486 341.161 365.336 337.601 369.121 333.577C375.762 326.321 381.943 318.468 387.727 310.482C391.118 305.663 393.915 300.643 395.854 294.893C397.058 291.324 398.063 287.688 398.276 283.785C398.493 278.559 396.191 274.911 391.635 272.712C391.04 272.512 390.513 272.113 389.918 271.912C384.103 270.172 378.284 269.755 372.323 271.72C370.071 272.506 367.621 273.226 365.305 273.549C359.547 274.257 353.988 275.032 348.101 274.813C346.117 274.807 344.065 274.998 342.014 275.19C334.47 275.958 327.514 278.912 321.15 282.728C313.923 287.137 308.082 292.675 302.568 299.207C296.39 306.398 290.74 313.988 285.617 321.977C281.892 327.787 278.694 333.996 275.298 340.138C272.368 345.554 269.903 350.244 265.853 354.399Z" fill="#85B472"/>
<path d="M337.88 211.521C336.201 218.463 334.126 225.271 330.73 231.413C327.733 237.027 323.616 241.38 318.443 244.936C316.189 246.384 314.001 247.634 311.616 248.817C308.435 250.394 305.056 251.904 301.808 253.68C300.218 254.468 298.825 255.324 297.235 256.112C292.198 258.609 288.151 262.103 285.025 266.79C282.964 269.628 280.969 272.268 278.909 275.106C278.111 276.162 277.246 277.417 277.175 278.938C277.239 279.402 276.907 279.731 276.773 280.128C276.241 281.053 274.784 281.445 273.927 280.714C273.399 280.315 272.938 279.718 272.477 279.121C271.952 278.06 271.427 277 271.167 275.808C268.812 268.389 268.244 260.91 269.264 253.304C269.606 250.327 270.542 247.551 271.874 244.909C273.274 242.069 274.475 239.161 275.676 236.254C278.213 230.043 279.56 223.43 280.245 216.816C280.931 210.201 281.22 203.453 282.302 196.972C283.924 187.582 286.735 178.592 291.33 170.204C292.328 168.554 293.393 166.705 294.59 165.121C296.65 162.282 299.502 160.373 302.945 159.326C308.574 157.691 314.329 157.645 320.013 159.12C323.845 160.192 327.079 162.386 329.514 165.637C333.595 171.209 336.616 177.307 338.046 184.193C339.216 189.888 339.459 195.712 338.91 201.268C338.898 204.576 338.356 208.148 337.88 211.521ZM277.586 275.102C280.779 270.216 283.771 265.925 286.632 261.37C288.029 259.191 289.756 257.344 291.745 256.027C295.126 253.855 298.773 251.552 302.154 249.38C305.801 247.076 309.646 244.84 313.161 242.271C318.467 238.319 322.654 233.106 325.321 227.16C330.188 216.656 332.543 205.746 332.849 194.366C332.869 189.072 332.425 183.843 331.054 178.744C330.011 174.638 328.37 170.993 326.002 167.544C324.225 164.957 321.983 163.097 319.141 162.359C314.119 160.886 309.29 160.804 304.259 161.977C301.412 162.563 299.091 164.21 297.231 166.453C296.034 168.037 294.838 169.621 293.773 171.47C288.313 181.112 285.232 191.556 284.2 202.471C283.651 208.027 283.696 213.784 283.345 219.407C283.056 226.155 282.37 232.77 280.428 239.182C279.626 241.561 278.89 243.742 278.088 246.121C277.018 249.294 276.411 252.402 276.201 255.643C275.783 261.465 276.225 267.355 276.931 273.115C277.063 273.38 277.325 273.91 277.586 275.102Z" fill="#85B472"/>
<path d="M327.065 293.335C327.789 294.462 327.455 295.454 327.318 296.512C326.912 299.025 326.439 301.736 326.033 304.249C325.833 304.844 325.897 305.308 325.962 305.771C326.621 306.435 327.02 305.907 327.55 305.644C332.589 302.485 337.955 300.32 343.715 298.95C350.666 297.32 357.62 295.027 364.378 292.007C367.757 290.496 371.399 289.516 374.91 288.271C375.705 287.877 376.631 287.748 377.687 288.545C377.09 289.006 376.56 289.269 376.03 289.532C371.06 291.831 366.157 293.932 360.99 296.164C356.617 298.002 352.311 299.641 348.006 301.281C344.495 302.526 341.116 304.036 338 306.077C337.138 306.669 336.474 307.329 335.347 308.053C336.073 308.519 336.469 308.652 336.865 308.786C342.152 310.127 347.506 311.271 352.86 312.414C353.851 312.748 354.711 312.817 355.769 312.953C355.898 313.88 355.633 314.011 354.904 314.207C353.978 314.336 353.051 314.466 352.192 314.396C345.975 313.846 339.695 312.832 333.749 310.827C333.353 310.693 332.956 310.559 332.295 310.557C328.049 313.983 324.593 318.339 321.4 323.224C323.977 324.093 326.09 325.027 328.468 325.829C332.631 327.233 336.793 328.636 341.087 330.305C341.88 330.573 342.605 331.038 343.133 331.437C343.661 331.836 343.592 332.696 342.863 332.892C342.135 333.088 341.407 333.284 340.745 333.282C339.687 333.146 338.629 333.01 337.836 332.742C331.824 330.935 325.479 329.458 319.867 326.461C319.669 326.394 319.47 326.328 319.007 326.392C318.41 326.853 317.944 327.58 317.281 328.239C308.447 338.068 297.314 343.588 284.409 345.198C283.482 345.328 282.556 345.457 281.696 345.388C279.58 345.116 278.728 343.062 279.991 341.279C280.722 340.422 281.584 339.829 282.644 339.303C284.235 338.515 285.758 337.924 287.282 337.334C290.661 335.824 293.973 334.512 297.154 332.934C302.191 330.437 306.437 327.011 310.289 322.789C311.817 320.876 313.345 318.962 315.005 317.313C316.799 315.268 318.857 313.092 320.849 311.113C321.845 310.124 322.31 309.398 322.315 308.075C322.657 305.098 323.197 302.189 323.803 299.081C324.073 297.626 324.739 296.305 325.274 294.719C325.74 293.992 326.005 293.861 327.065 293.335Z" fill="#85B472"/>
<path d="M375.643 305.08C375.311 305.41 375.177 305.807 374.912 305.938C374.382 306.201 373.654 306.397 373.257 306.263C371.471 306.323 369.685 306.383 367.834 305.98C366.975 305.911 366.249 305.445 365.325 304.913C365.126 304.846 365.129 304.184 365.064 303.721C365.131 303.523 365.463 303.193 365.661 303.26C365.926 303.128 366.191 302.997 366.588 303.131C369.298 303.603 372.075 303.877 374.984 304.416C375.115 304.682 375.314 304.748 375.643 305.08Z" fill="#85B472"/>
<path d="M355.839 329.76C354.451 329.292 353.394 329.156 352.204 328.755C351.61 328.554 351.347 328.024 350.819 327.625C350.49 327.293 350.955 326.567 351.419 326.502C351.684 326.371 352.08 326.505 352.278 326.572C354.459 327.307 356.706 327.844 358.886 328.579L359.084 328.646C359.216 328.911 359.478 329.441 359.411 329.64C359.344 329.838 358.814 330.101 358.549 330.232C357.888 330.23 357.293 330.029 356.83 330.094C356.5 329.762 356.104 329.628 355.839 329.76Z" fill="#85B472"/>
<path d="M305.62 315.031C305.159 314.434 304.632 314.035 304.302 313.703C303.45 311.649 303.259 309.597 303.266 307.612C303.333 307.414 303.4 307.216 303.466 307.017C303.731 306.886 303.865 306.49 304.063 306.556C304.262 306.623 304.658 306.757 304.789 307.022C304.921 307.287 305.052 307.552 305.183 307.817C305.374 309.869 305.763 311.988 305.954 314.04C305.888 314.238 305.754 314.635 305.62 315.031Z" fill="#85B472"/>
<path d="M283.821 252.03C283.824 251.368 283.561 250.838 283.628 250.64C283.831 249.383 284.232 248.194 284.7 246.806C287.573 238.941 291.767 231.743 296.159 224.612C297.489 222.632 298.95 220.916 300.61 219.268C303.929 215.97 305.465 212.072 306.077 207.64C301.728 202.861 299.765 196.899 298.531 190.742C297.946 187.894 297.757 185.181 297.371 182.4C297.175 181.672 297.442 180.879 298.698 181.081C299.157 182.34 299.152 183.664 299.544 185.121C299.804 186.313 299.997 187.703 300.456 188.962C300.847 190.419 301.108 191.611 301.499 193.068C301.891 194.525 302.349 195.783 302.808 197.042C303.266 198.301 303.725 199.56 304.25 200.62C304.907 201.946 305.365 203.205 306.75 204.334C307.018 203.541 307.218 202.946 307.221 202.285C307.493 200.168 307.963 198.119 308.236 196.002C308.439 194.746 308.84 193.556 309.174 192.564C309.308 192.168 309.509 191.573 309.841 191.243C310.571 190.386 311.894 190.39 312.353 191.649C312.747 192.444 312.876 193.371 313.005 194.298C313.134 195.225 313.329 195.953 313.523 197.343C314.32 196.287 315.051 195.43 315.715 194.77C318.041 191.801 320.498 189.096 322.824 186.126C323.223 185.598 324.085 185.006 324.616 184.743C324.881 184.612 325.475 184.812 325.673 184.879C325.805 185.144 325.869 185.607 326.001 185.873C325.934 186.071 325.8 186.467 325.733 186.666C323.405 190.297 321.473 194.062 318.485 197.03C317.024 198.745 315.431 200.195 313.506 201.975C313.437 202.835 313.432 204.159 313.229 205.415C312.89 207.73 312.749 210.111 312.409 212.426C312.137 214.543 311.468 216.526 310.403 218.375C310.27 218.771 310.136 219.168 309.603 220.092C310.597 219.765 311.06 219.7 311.59 219.437C313.114 218.847 314.835 218.324 316.359 217.733C317.087 217.537 317.816 217.341 318.742 217.212C319.404 217.214 320.263 217.283 320.459 218.012C320.722 218.542 320.189 219.467 319.394 219.861C315.75 221.503 312.304 223.211 308.528 224.588C307.535 224.916 306.542 225.243 305.682 225.174C304.624 225.038 303.762 225.631 303.098 226.29C301.902 227.874 300.638 229.656 299.244 231.173C297.051 233.746 294.99 236.585 292.6 239.091C289.811 242.125 287.549 245.558 286.013 249.457C285.481 250.382 285.345 251.44 283.821 252.03Z" fill="#85B472"/>
<path d="M310.873 180.329C310.346 179.93 309.751 179.73 309.687 179.266C308.834 177.212 307.982 175.158 307.129 173.104C307.065 172.64 307 172.177 307.201 171.582C307.402 170.987 308.328 170.858 308.658 171.19C308.856 171.257 309.054 171.324 309.185 171.589C310.169 173.908 311.284 176.493 311.54 179.008C311.406 179.404 311.074 179.734 310.873 180.329Z" fill="#85B472"/>
<path d="M289.617 204.739C291.4 205.341 292.852 206.272 293.905 207.731C294.037 207.997 293.903 208.393 293.836 208.591C293.769 208.79 293.239 209.052 293.041 208.986C291.522 208.253 290.135 207.785 288.683 206.853C288.286 206.72 288.091 205.991 288.489 205.463C288.821 205.133 289.351 204.871 289.617 204.739Z" fill="#85B472"/>
<path d="M325.606 203.406C325.339 204.199 325.403 204.663 325.336 204.861C324.472 206.115 323.344 206.839 322.086 207.298C321.556 207.561 320.961 207.361 320.5 206.763C320.039 206.166 320.24 205.572 320.639 205.044C321.964 204.386 323.555 203.598 325.606 203.406Z" fill="#85B472"/>
<path d="M316.229 180.81C315.966 180.28 315.637 179.948 315.704 179.75C316.04 178.097 316.509 176.709 317.638 175.323C317.638 175.323 317.705 175.125 317.903 175.192C318.168 175.06 318.632 174.996 318.763 175.261C318.961 175.328 319.291 175.66 319.224 175.858C319.288 176.321 319.155 176.718 319.021 177.115C318.421 178.237 318.085 179.89 316.229 180.81Z" fill="#85B472"/>
<path d="M310.329 238.887C309.202 239.611 308.209 239.938 307.413 240.333C307.148 240.464 306.752 240.33 306.621 240.065C306.489 239.8 306.358 239.535 306.425 239.337C306.492 239.138 306.625 238.742 306.891 238.61C307.621 237.753 308.283 237.755 310.329 238.887Z" fill="#85B472"/>
<path d="M83.2687 340.078C85.5399 333.998 89.3275 329.313 95.2905 326.687C100.723 324.323 106.481 323.615 112.499 324.099C118.318 324.516 123.271 326.848 127.357 331.097C128.675 332.425 130.127 333.356 131.445 334.684C132.83 335.814 134.413 337.01 135.731 338.338C136.589 339.069 136.916 340.063 137.706 340.992C138.167 341.589 138.628 342.186 139.022 342.981C142.642 347.956 144.01 353.718 143.062 359.802C142.993 360.662 142.658 361.653 142.391 362.447C141.989 363.636 141.39 364.759 141.583 366.149C141.712 367.076 141.18 368.001 140.714 368.727C139.05 371.699 137.055 374.339 134.665 376.845C133.337 378.164 131.811 379.416 130.419 380.271C124.122 383.889 117.435 385.388 110.159 385.363C105.992 385.283 102.161 383.55 99.0618 380.958C95.9622 378.367 92.8626 375.776 89.8299 372.987C87.984 371.26 86.537 369.005 85.5532 366.686C82.3391 359.198 81.4415 351.387 82.8602 343.253C82.8651 341.929 83.0012 340.871 83.2687 340.078ZM135.823 367.519C139.141 364.884 140.54 362.043 140.817 358.603C141.433 352.849 139.865 347.682 136.044 343.302C131.036 337.859 124.699 334.397 117.227 333.643C110.218 332.825 103.992 334.921 99.2756 340.397C96.4194 343.63 94.5543 347.197 93.4151 351.229C90.6016 360.88 93.1518 369.028 100.139 375.801C104.093 379.784 108.917 381.19 114.675 380.482C119.307 379.836 123.546 378.395 127.589 376.225C130.837 374.45 133.624 372.077 136.081 369.373C136.48 368.845 136.019 368.248 135.823 367.519ZM123.584 331.812C123.254 331.48 123.123 331.215 122.991 330.95C120.682 329.288 118.041 327.955 115.133 327.416C110.175 326.407 105.411 326.787 100.511 328.226C96.6038 329.338 93.0909 331.245 90.2347 334.477C88.0425 337.051 86.643 339.891 85.9695 343.197C85.3604 346.967 84.5531 350.67 85.0019 354.575C85.3839 358.679 86.296 362.52 87.6045 366.494C88.0629 367.753 88.5214 369.012 89.51 370.008C89.8395 370.34 90.0378 370.407 90.8306 370.674C90.3721 369.415 90.1763 368.687 89.7823 367.891C88.2087 364.048 87.5617 360.076 88.1063 355.843C89.1262 348.237 91.9945 341.696 97.5707 336.289C100.491 333.52 103.806 331.546 107.646 330.633C112.214 329.524 116.845 329.539 121.47 330.879C121.998 331.277 122.593 331.478 123.584 331.812Z" fill="#85B472"/>
<path d="M92.9154 433.873C92.1154 435.591 91.2485 437.506 90.4484 439.224C90.3147 439.621 89.9828 439.95 89.849 440.347C89.1779 442.991 87.5826 445.103 85.856 446.95C84.4614 448.467 82.9354 449.719 81.5407 451.237C78.8851 453.874 75.7043 455.451 71.9311 456.166C66.5031 457.207 61.1468 456.725 55.8622 454.722C53.4837 453.92 51.3059 452.523 49.46 450.796C47.8123 449.136 46.1646 447.476 44.517 445.817C41.2885 442.299 39.3853 438.123 38.9389 433.556C38.6238 429.254 37.3822 425.081 36.8689 420.712C36.678 418.66 36.487 416.609 36.2291 414.755C36.0978 414.49 36.2315 414.093 36.3653 413.697C37.3039 410.259 37.6479 406.621 39.0498 403.119C39.9836 401.005 40.9842 398.692 42.3144 396.712C44.1103 394.005 46.6321 391.764 49.7461 390.385C52.662 388.939 55.6423 387.957 58.9521 387.306C70.2045 385.36 79.3195 389.096 86.2325 398.053C89.7882 402.564 91.2901 407.929 92.5269 413.425C92.8516 415.081 93.1094 416.934 93.6324 418.656C94.7378 423.888 94.6541 428.718 92.9154 433.873ZM89.0086 434.984C89.2761 434.191 89.6104 433.2 89.8779 432.407C92.6889 423.417 88.5604 412.75 83.7487 408.036C80.7828 405.048 77.4158 403.25 73.3155 402.971C66.7031 402.287 60.5468 403.523 54.7796 406.878C49.0792 410.035 45.8194 415.119 44.6061 421.334C43.9995 424.442 43.9874 427.751 44.2404 430.928C45.0043 439.135 49.2835 444.774 56.0152 449.032C59.9745 451.692 64.6024 452.37 69.431 452.452C73.3999 452.466 76.9103 451.221 79.9623 448.717C81.4883 447.465 83.0812 446.014 84.6072 444.762C85.5361 443.972 86.3982 443.379 86.2717 441.79C86.1404 441.525 86.4723 441.196 86.8043 440.866C87.8025 439.215 88.5381 437.034 89.0086 434.984ZM80.9334 400.02C80.6039 399.688 80.5394 399.224 80.2099 398.892C77.9031 396.568 75.1976 394.773 72.1601 393.306C68.5279 391.64 64.5614 390.965 60.5901 391.613C57.5454 392.132 54.632 392.916 51.783 394.163C48.6021 395.74 46.2785 398.048 44.6139 401.02C42.5506 404.52 41.6764 408.421 41.0005 412.389C40.8667 412.786 41.1294 413.316 41.127 413.978C41.3276 413.383 41.6596 413.053 41.7264 412.855C43.6585 409.09 46.3164 405.79 49.963 403.487C57.5882 398.55 65.9296 396.726 74.8536 398.411C76.9694 398.683 78.7532 399.284 80.9334 400.02Z" fill="#85B472"/>
<path d="M73.6867 428.05C74.15 427.986 74.415 427.854 74.6132 427.921C77.9158 429.256 80.4877 431.448 82.5938 434.367C82.7251 434.632 82.9878 435.162 82.8541 435.559C82.6534 436.154 82.1902 436.218 81.5287 436.216C80.7359 435.949 79.678 435.813 78.8852 435.545C77.6959 435.144 76.8387 434.413 75.3175 434.342C75.4464 435.269 75.7735 436.262 75.7043 437.122C75.8332 438.049 75.7639 438.909 75.6277 439.967C75.5585 440.827 74.4982 441.353 73.574 440.821C73.1776 440.687 72.6499 440.288 72.3872 439.758C71.5968 438.829 70.8733 437.701 70.1497 436.574C69.9515 436.507 70.0853 436.111 70.3503 435.979C70.4172 435.781 70.8805 435.716 71.0787 435.783C71.4751 435.917 71.8046 436.249 72.1342 436.581C72.6619 436.98 73.1228 437.577 73.7819 438.241C73.9825 437.646 74.0493 437.448 73.918 437.182C73.7891 436.256 73.5933 435.527 73.4644 434.6C73.1421 432.283 74.0042 431.691 76.1844 432.426C76.9772 432.693 77.9682 433.028 78.6942 433.493C79.0906 433.627 79.4201 433.959 80.2129 434.226C79.8189 433.431 79.6876 433.166 79.3581 432.834C78.0399 431.506 76.588 430.575 75.0693 429.842C74.8066 429.311 74.0138 429.044 73.6867 428.05Z" fill="#85B472"/>
<path d="M79.0743 419.93C78.611 419.995 78.2146 419.861 78.0164 419.794C77.3549 419.792 76.8271 419.393 76.4976 419.061C76.0367 418.464 75.7096 417.47 75.5162 416.08C76.8416 415.423 77.2332 416.88 77.9591 417.346C78.4893 417.083 79.0863 416.622 79.6164 416.359C80.6767 415.833 81.6009 416.365 81.8612 417.557C81.9256 418.021 81.9901 418.484 81.8563 418.881C81.7154 421.262 80.6502 423.111 78.9236 424.958C78.6586 425.09 78.5917 425.288 78.3266 425.419C78.0615 425.551 77.6651 425.417 77.4669 425.35C77.2687 425.283 77.2043 424.82 77.2711 424.622C77.5386 423.829 77.873 422.837 78.3387 422.111C78.8044 421.385 78.8068 420.723 79.0743 419.93Z" fill="#85B472"/>
<path d="M63.4043 417.957C63.335 418.817 63.3326 419.479 63.3302 420.141C63.2609 421.001 62.597 421.66 61.6705 421.789C60.6126 421.653 59.7529 421.584 58.7619 421.25C58.3655 421.116 58.0359 420.784 58.1697 420.388C58.3034 419.991 58.6354 419.662 59.0986 419.597C59.9583 419.666 60.6867 419.47 61.7446 419.606C61.6825 418.481 61.5536 417.554 61.4247 416.627C61.3626 415.502 62.2247 414.91 63.2157 415.244C63.4139 415.311 63.6121 415.378 63.6121 415.378C66.3177 417.173 68.3594 419.629 69.539 422.676C69.0733 423.403 68.8751 423.336 68.3473 422.937C67.8865 422.34 67.4256 421.743 66.9647 421.146C65.9761 420.15 64.9875 419.154 63.4043 417.957Z" fill="#85B472"/>
<path d="M59.4305 437.596C58.7046 437.13 58.1768 436.732 57.8473 436.4C57.8497 435.738 58.3799 435.475 58.7763 435.609C59.2395 435.544 59.8342 435.745 60.2306 435.878C61.2216 436.213 61.5487 437.206 61.2144 438.198C60.9469 438.991 60.7463 439.586 60.2806 440.312C62.0668 440.252 63.2609 439.33 64.5218 438.209C64.5862 438.672 64.6507 439.136 64.5838 439.334C64.3832 439.929 63.9844 440.457 63.4542 440.72C61.9283 441.972 60.4716 442.364 58.6184 442.622C57.957 442.62 57.3623 442.419 57.0997 441.889C56.837 441.359 56.9707 440.962 57.1714 440.368C58.1003 439.577 58.6329 438.652 59.4305 437.596Z" fill="#85B472"/>
<path d="M72.2624 419.84C71.8659 419.707 71.866 419.707 71.6677 419.64C70.8105 418.909 70.4189 417.452 70.9514 416.527C71.1521 415.933 71.6822 415.67 72.3437 415.672C73.0052 415.674 73.5329 416.073 73.5305 416.735C73.4612 417.595 73.3919 418.455 73.0576 419.446C72.9907 419.644 72.5274 419.709 72.2624 419.84Z" fill="#85B472"/>
<path d="M67.4065 445.365C67.6716 445.234 68.0704 444.706 68.6674 444.245C69.2644 443.783 69.9904 444.249 70.4512 444.846C70.7139 445.376 70.7115 446.038 70.1145 446.499C69.7825 446.829 69.1855 447.29 68.6554 447.553C68.3903 447.684 67.7288 447.682 67.5975 447.417C67.4662 447.152 67.4017 446.689 67.2704 446.423C66.9408 446.091 67.2059 445.96 67.4065 445.365Z" fill="#85B472"/>
<path d="M58.5348 429.123C58.1384 428.99 57.9402 428.923 57.8089 428.658C57.2812 428.259 57.1523 427.332 57.7493 426.871C58.6114 426.278 59.7361 426.216 60.5934 426.947C60.923 427.279 61.1856 427.809 60.7868 428.337C60.653 428.734 60.1229 428.997 59.8578 429.128C59.1295 429.324 58.733 429.19 58.5348 429.123Z" fill="#85B472"/>
<path d="M54.1462 435.593C53.1551 435.259 53.0262 434.332 53.3582 434.002C54.0221 433.343 54.8173 432.948 55.677 433.018C56.3384 433.02 56.668 433.352 56.6656 434.013C56.73 434.477 56.5963 434.873 56.2644 435.203C55.6673 435.664 54.7408 435.793 54.1462 435.593Z" fill="#85B472"/>
<path d="M84.3971 429.675C83.6043 429.408 83.4085 428.679 83.7404 428.349C84.3375 427.888 84.9345 427.427 85.7942 427.496C86.2574 427.432 86.7852 427.83 86.7828 428.492C86.649 428.889 86.5153 429.285 86.2502 429.417C85.5219 429.613 84.8604 429.61 84.3971 429.675Z" fill="#85B472"/>
<path d="M110.635 345.333C110.962 346.326 111.488 347.387 111.815 348.38C112.273 349.639 111.012 350.76 109.823 350.359C108.964 350.29 108.768 349.561 109.499 348.703C109.565 348.505 109.565 348.505 109.897 348.175C109.439 346.917 108.98 345.658 108.522 344.399C108.326 343.67 108.197 342.744 108.267 341.884C108.336 341.024 109.329 340.696 110.055 341.162C110.452 341.296 110.583 341.561 110.714 341.826C112.558 344.214 114.203 346.536 115.781 349.056C115.98 349.122 115.846 349.519 115.581 349.65C115.514 349.849 115.051 349.913 114.852 349.846C114.126 349.381 113.401 348.915 112.94 348.318C112.149 347.389 111.426 346.262 110.504 345.067C110.9 345.201 110.9 345.201 110.635 345.333Z" fill="#85B472"/>
<path d="M120.366 361.644C118.842 362.234 118.639 363.49 117.908 364.348C117.445 364.413 117.314 364.148 117.249 363.684C117.383 363.288 117.45 363.089 117.584 362.693C118.45 360.777 119.048 360.316 121.099 360.124C120.839 358.932 119.384 358.663 118.859 357.602C119.258 357.074 119.456 357.141 119.852 357.275C120.249 357.408 120.777 357.807 121.106 358.139C123.15 359.933 124.862 362.056 126.044 364.442C126.701 365.768 126.632 366.628 126.168 366.692C125.175 367.02 124.714 366.423 124.253 365.826C123.463 364.896 122.672 363.967 121.684 362.971C121.354 362.639 120.827 362.241 120.366 361.644Z" fill="#85B472"/>
<path d="M111.974 359.034C112.43 360.955 110.443 361.61 110.439 362.933C112.16 362.409 112.762 360.625 114.023 359.504C114.618 359.705 114.551 359.903 114.615 360.367C113.545 363.539 111.157 365.384 108.046 366.101C107.781 366.232 107.186 366.032 106.856 365.7C106.725 365.435 106.727 364.773 106.993 364.642C107.79 363.586 108.719 362.795 109.517 361.739C110.181 361.079 110.911 360.222 111.974 359.034Z" fill="#85B472"/>
<path d="M126.551 352.467C128.144 351.017 129.997 350.759 131.585 350.632C131.85 350.5 132.378 350.899 132.509 351.164C132.772 351.694 132.44 352.024 132.108 352.354C130.981 353.078 129.854 353.802 128.333 353.731C127.805 353.332 127.277 352.933 126.551 352.467Z" fill="#85B472"/>
<path d="M118.477 371.827C118.147 371.495 117.553 371.295 117.488 370.831C117.161 369.838 116.901 368.646 116.772 367.719C116.839 367.521 116.973 367.124 117.238 366.993C117.503 366.861 117.899 366.995 118.097 367.062C119.351 367.926 119.611 369.118 119.738 370.707C119.671 370.905 119.604 371.103 119.604 371.103C119.339 371.235 119.007 371.564 118.477 371.827Z" fill="#85B472"/>
<path d="M105.366 357.027C104.574 356.759 103.979 356.559 103.981 355.897C103.984 355.235 104.581 354.774 105.441 354.843C106.102 354.846 106.962 354.915 107.556 355.115C108.151 355.316 108.347 356.044 108.213 356.441C108.012 357.036 107.482 357.299 107.086 357.165C106.622 357.229 105.763 357.16 105.366 357.027Z" fill="#85B472"/>
<path d="M123.602 344.848C123.335 345.641 122.54 346.035 121.747 345.768C121.152 345.567 120.758 344.772 121.092 343.78C121.293 343.186 122.155 342.593 122.75 342.793C123.344 342.994 123.87 344.055 123.602 344.848Z" fill="#85B472"/>
<path d="M131.886 358.904C130.231 359.229 130.231 359.229 128.118 358.295C128.187 357.435 128.848 357.438 129.312 357.373C130.303 357.707 131.36 357.843 131.886 358.904Z" fill="#85B472"/>
<path d="M123.866 526.681C117.853 524.874 110.799 518.299 110.766 509.234C110.704 508.109 110.642 506.984 110.845 505.727C111.189 502.089 112.457 498.984 115.113 496.346C118.366 493.247 121.945 491.142 126.05 490.097C130.884 488.856 135.18 489.864 139.139 492.524C140.063 493.056 140.789 493.522 141.978 493.923C143.762 494.525 145.345 495.721 146 497.709C146.654 499.696 147.308 501.683 147.697 503.802C148.476 508.039 147.931 512.272 146.527 516.436C143.919 524.169 136.63 527.453 130.543 527.829C128.162 527.688 125.98 527.615 123.866 526.681ZM136.555 493.64C132.591 492.303 129.35 492.093 126.236 493.472C124.448 494.194 122.592 495.114 120.935 496.101C116.426 498.997 114.294 503.357 114.936 508.653L114.869 508.851C115.573 515.272 118.931 519.717 124.941 522.185C132.141 525.055 142.276 521.186 143.305 510.933C143.786 506.237 143.074 501.801 141.436 497.494C140.846 495.971 139.726 494.709 138.208 493.976C137.479 494.172 136.753 493.707 136.555 493.64Z" fill="#85B472"/>
<path d="M131.889 503.549C131.884 504.873 131.946 505.998 132.075 506.925C132.137 508.05 131.605 508.974 130.413 509.235C129.221 509.496 128.23 509.161 127.638 508.299C127.046 507.437 126.454 506.575 125.928 505.514C124.935 505.842 123.942 506.169 122.948 506.497C121.226 507.02 119.772 506.75 118.982 505.821C118.258 504.694 118.198 502.907 119.328 501.522C120.059 500.664 120.723 500.004 121.716 499.677C122.71 499.35 123.373 498.69 123.839 497.964C124.904 496.115 126.495 495.326 128.611 495.598C129.007 495.732 129.802 495.337 130.265 495.273C131.192 495.144 131.92 494.948 132.78 495.017C135.426 495.026 137.272 496.752 137.527 499.268C137.785 501.121 136.921 502.376 135.068 502.634C134.604 502.699 134.208 502.565 133.745 502.629C133.148 503.091 132.617 503.353 131.889 503.549ZM126.662 503.995C127.122 504.592 127.65 504.991 127.913 505.521C128.374 506.118 128.57 506.847 129.03 507.444C129.162 507.709 129.625 507.644 129.823 507.711C130.088 507.58 130.353 507.448 130.222 507.183C130.291 506.323 130.162 505.396 130.165 504.735C130.041 502.484 130.97 501.694 133.219 501.569C133.881 501.571 134.277 501.705 134.939 501.707C135.6 501.709 136.066 500.983 136.068 500.321C135.877 498.27 134.559 496.942 132.508 497.133C131.846 497.131 131.316 497.394 130.588 497.59C129.859 497.786 129.131 497.982 128.271 497.913C126.817 497.643 125.757 498.169 125.157 499.292C124.491 500.613 123.562 501.404 122.304 501.863C121.31 502.19 120.844 502.916 120.312 503.841C120.044 504.634 120.637 505.496 121.365 505.3C122.291 505.171 123.087 504.777 124.08 504.449C125.007 504.32 125.735 504.124 126.662 503.995Z" fill="#85B472"/>
<path d="M128.922 500.562C128.786 501.62 127.659 502.344 126.866 502.077C126.668 502.01 126.14 501.611 126.274 501.215C126.212 500.09 127.537 499.432 128.461 499.965C128.66 500.032 128.724 500.495 128.922 500.562Z" fill="#85B472"/>
<path d="M321.435 113.667C321.789 107.382 326.384 98.9939 335.322 96.7085C336.514 96.4478 337.507 96.1204 338.699 95.8598C342.405 95.3431 345.777 95.8178 348.879 97.7473C352.509 100.076 355.475 103.063 357.71 106.909C360.009 111.218 360.059 115.651 358.521 120.212C358.187 121.203 357.852 122.194 357.915 123.319C357.907 125.304 357.107 127.022 355.185 128.14C353.461 129.326 351.605 130.246 349.75 131.166C345.84 132.939 341.473 133.453 337.174 133.108C329.239 132.419 324.036 126.248 322.271 120.352C321.485 118.1 321.361 115.85 321.435 113.667ZM356.611 118.021C357.089 113.987 356.174 110.807 354.266 107.956C353.082 106.231 351.83 104.705 350.247 103.509C346.159 99.9216 341.665 98.8475 336.564 100.881L336.299 101.013C330.271 103.176 326.749 107.729 325.734 114.012C324.647 121.816 330.7 130.704 341.158 129.151C345.79 128.505 349.965 126.601 353.678 124.099C355.07 123.244 356.002 121.791 356.339 120.138C356.475 119.08 356.544 118.22 356.611 118.021Z" fill="#85B472"/>
<path d="M345.837 115.933C344.578 116.392 343.585 116.72 342.658 116.849C341.467 117.109 340.674 116.842 339.883 115.913C339.358 114.853 339.494 113.794 340.027 112.87C340.758 112.012 341.421 111.353 342.35 110.562C341.758 109.7 341.166 108.837 340.574 107.975C339.521 106.516 339.592 104.994 340.39 103.938C341.188 102.882 343.041 102.624 344.626 103.159C345.617 103.493 346.542 104.025 347.067 105.086C347.659 105.948 348.385 106.414 349.376 106.748C351.358 107.416 352.676 108.744 352.867 110.796C352.932 111.26 353.393 111.857 353.457 112.32C353.851 113.115 354.245 113.911 354.441 114.639C355.093 117.288 353.961 119.336 351.444 120.253C349.655 120.975 348.334 120.309 347.546 118.718C347.284 118.188 347.418 117.791 347.155 117.261C346.56 117.061 346.298 116.53 345.837 115.933ZM344.201 110.965C343.802 111.493 343.403 112.021 343.005 112.549C342.606 113.077 341.811 113.471 341.412 113.999C341.345 114.198 341.211 114.594 341.343 114.859C341.474 115.124 341.87 115.258 342.135 115.127C342.864 114.931 343.857 114.603 344.585 114.407C346.572 113.752 347.826 114.617 348.282 116.537C348.347 117.001 348.542 117.729 348.607 118.193C348.803 118.921 349.397 119.122 350.126 118.926C352.112 118.271 352.912 116.553 352.191 114.764C351.929 114.234 351.666 113.703 351.272 112.908C351.076 112.18 350.417 111.516 350.42 110.854C350.491 109.332 349.634 108.602 348.18 108.332C346.725 108.062 345.868 107.331 344.946 106.137C344.751 105.409 343.958 105.141 342.967 104.807C342.107 104.738 341.443 105.397 341.837 106.193C342.231 106.988 342.823 107.85 343.217 108.646C343.611 109.441 343.807 110.17 344.201 110.965Z" fill="#85B472"/>
<path d="M348.165 112.302C347.238 112.431 346.25 111.435 346.121 110.509C346.188 110.31 346.587 109.782 346.785 109.849C347.778 109.522 348.7 110.716 348.564 111.774C348.497 111.972 348.232 112.104 348.165 112.302Z" fill="#85B472"/>
<path d="M258.092 69.7787C252.079 67.9716 245.223 61.4636 245.059 52.1332C244.997 51.0081 244.935 49.883 245.138 48.6265C245.482 44.9884 246.948 41.9496 249.604 39.3119C252.856 36.213 256.436 34.1079 260.739 33.13C265.573 31.8893 269.869 32.8965 273.828 35.5568C274.752 36.0893 275.478 36.555 276.667 36.956C278.451 37.5576 280.034 38.7541 280.689 40.7414C281.343 42.7287 281.997 44.716 282.188 46.7679C282.966 51.0054 282.355 55.4366 281.018 59.4022C278.41 67.1351 271.121 70.4187 264.903 70.5298C262.321 70.9842 260.206 70.7123 258.092 69.7787ZM270.912 37.0025C266.948 35.6656 263.708 35.4561 260.593 36.835C258.805 37.5567 256.949 38.4768 255.292 39.4637C250.783 42.3597 248.452 46.6527 249.293 52.0153L249.226 52.2136C249.93 58.6344 253.288 63.0792 259.298 65.548C266.498 68.4178 276.764 64.8136 277.794 54.5609C278.274 49.8645 277.563 45.4287 275.924 41.1221C275.335 39.5982 274.215 38.3372 272.696 37.6042C271.903 37.3368 271.11 37.0694 270.912 37.0025Z" fill="#85B472"/>
<path d="M266.312 46.7138C266.308 48.0372 266.37 49.1623 266.432 50.2874C266.494 51.4125 265.961 52.337 264.769 52.5976C263.578 52.8582 262.587 52.524 261.995 51.6618C261.402 50.7996 260.81 49.9373 260.285 48.8768C259.291 49.2043 258.298 49.5317 257.305 49.8592C255.583 50.3827 254.129 50.113 253.338 49.184C252.615 48.0566 252.555 46.2699 253.685 44.8842C254.415 44.0265 255.079 43.367 256.073 43.0396C257.066 42.7121 257.73 42.0527 258.196 41.3264C259.261 39.4773 260.851 38.6887 262.967 38.9606C263.363 39.0943 264.159 38.7 264.622 38.6354C265.548 38.5063 266.277 38.3102 267.136 38.3793C269.782 38.3884 271.628 40.1151 271.884 42.6304C272.142 44.484 271.277 45.7382 269.424 45.9966C268.961 46.0612 268.564 45.9275 268.101 45.9921C267.504 46.4532 267.041 46.5178 266.312 46.7138ZM261.085 47.1592C261.546 47.7563 262.074 48.1551 262.336 48.6853C262.797 49.2824 262.993 50.011 263.454 50.6081C263.585 50.8732 264.048 50.8086 264.247 50.8754C264.512 50.744 264.777 50.6126 264.645 50.3474C264.715 49.4875 264.586 48.5607 264.588 47.899C264.464 45.6488 265.393 44.858 267.643 44.7333C268.304 44.7356 268.7 44.8692 269.362 44.8715C270.023 44.8738 270.489 44.1475 270.491 43.4858C270.3 41.4339 268.784 40.0392 266.931 40.2975C266.27 40.2953 265.739 40.5581 265.011 40.7542C264.283 40.9502 263.554 41.1462 262.695 41.0771C261.24 40.8075 260.18 41.3332 259.581 42.456C258.914 43.7771 257.985 44.568 256.727 45.0269C255.733 45.3543 255.268 46.0806 254.735 47.0052C254.468 47.7983 255.06 48.6605 255.788 48.4645C256.715 48.3353 257.51 47.941 258.503 47.6135C259.43 47.4844 260.158 47.2883 261.085 47.1592Z" fill="#85B472"/>
<path d="M263.346 43.7261C263.21 44.7843 262.083 45.5083 261.29 45.241C261.092 45.1741 260.829 44.6439 260.698 44.3787C260.636 43.2536 261.961 42.5965 262.885 43.129C263.083 43.1958 263.148 43.6592 263.346 43.7261Z" fill="#85B472"/>
<path d="M236.331 341.792C234.521 348.469 226.16 355.586 216.24 354.891C210.42 354.474 206.065 351.68 203.636 346.444C201.205 341.87 200.033 336.838 200.912 331.613C200.981 330.753 201.182 330.158 201.449 329.365C203.85 324.212 207.107 319.79 212.079 316.829C216.189 314.461 220.557 313.947 224.915 316.079C225.311 316.213 225.707 316.347 226.037 316.679C228.014 318.67 230.588 320.201 232.301 322.324C233.683 324.116 234.868 325.84 235.985 327.763C237.038 329.222 237.561 330.944 237.621 332.731C237.676 335.841 237.334 338.818 236.331 341.792ZM229.982 323.309C228.988 323.636 228.193 324.031 227.601 323.168C227.338 322.638 227.009 322.306 226.481 321.907C223.121 318.124 218.956 317.382 214.45 319.617C210.209 321.72 207.353 324.952 205.287 329.114C204.155 331.161 203.618 333.409 203.94 335.726C204.257 339.366 205.303 342.811 207.343 345.928C210.038 350.37 214.332 352.039 219.294 351.725C226.771 351.155 232.945 345.287 233.766 337.614C233.902 336.556 233.972 335.696 234.108 334.638C234.113 333.315 233.919 331.924 233.659 330.732C232.742 328.215 231.627 325.63 229.982 323.309Z" fill="#85B472"/>
<path d="M216.334 293.089C217.843 296.469 216.773 299.641 214.712 302.48C210.657 307.958 205.09 310.718 198.21 310.827C195.565 310.818 193.384 310.082 191.273 308.487C189.162 306.892 187.252 304.702 185.805 302.447C185.411 301.652 184.95 301.055 184.623 300.061C182.725 294.562 183.009 289.138 186.269 284.054C188.597 280.422 191.979 278.25 195.95 277.602C199.458 277.019 202.565 277.625 205.533 279.951C205.863 280.283 206.39 280.682 206.918 281.08C207.186 280.287 207.453 279.494 207.852 278.966C208.384 278.042 209.445 277.516 210.436 277.85C211.427 278.184 211.821 278.98 211.95 279.907C212.014 280.37 211.814 280.965 211.878 281.428C211.943 281.892 211.809 282.288 211.806 282.95C212.666 283.019 213.593 282.89 214.385 283.157C215.84 283.427 216.301 284.024 216.229 285.546C216.162 285.744 216.028 286.14 216.093 286.604C216.886 286.871 217.612 287.337 218.404 287.604C219.527 288.204 219.985 289.462 219.188 290.518C218.192 291.507 217.065 292.231 216.334 293.089ZM207.761 285.781C208.42 286.445 209.21 287.374 209.803 288.237C210.593 289.166 211.317 290.293 212.107 291.222C212.238 291.487 212.171 291.685 212.102 292.545C210.653 290.952 209.466 289.89 208.346 288.629C207.357 287.633 206.171 286.57 206.376 284.652C206.51 284.255 206.18 283.923 205.851 283.591C204.005 281.864 201.958 280.733 199.644 280.394C193.297 279.578 188.251 284.722 187.107 290.078C185.893 296.294 187.727 301.329 192.74 305.448C194.454 306.91 196.238 307.512 198.421 307.585C203.646 307.802 207.887 305.699 211.276 301.542C212.14 300.287 213.071 298.835 213.275 297.578C213.349 295.395 214.216 293.479 214.488 291.362C215.417 290.572 217.466 291.042 217.54 288.858C216.549 288.524 215.756 288.257 214.765 287.923C214.17 287.722 213.643 287.323 213.514 286.396C213.449 285.933 213.385 285.47 213.189 284.741C211.997 285.002 210.806 285.262 209.948 284.532C208.957 284.197 208.294 284.857 207.761 285.781Z" fill="#85B472"/>
<path d="M221.449 323.081C221.449 323.081 221.714 322.95 221.979 322.818C224.365 321.636 226.28 322.502 226.999 324.953C227.259 326.145 226.925 327.136 225.996 327.927C225.399 328.388 224.537 328.981 223.675 329.573C224.398 330.701 224.99 331.563 225.516 332.624C226.172 333.949 226.234 335.074 225.172 336.262C224.374 337.318 223.049 337.975 221.661 337.507C220.868 337.239 220.143 336.774 219.417 336.308C218.757 335.644 218.297 335.047 217.638 334.383C217.177 333.786 216.515 333.784 215.918 334.245C215.321 334.706 214.724 335.167 214.127 335.628C211.739 337.473 208.764 337.132 206.853 334.942C205.206 333.282 205.084 330.37 206.942 328.788C209.132 326.877 210.925 324.832 212.389 322.455C213.254 321.201 214.777 320.61 216.561 321.212C218.147 321.747 219.665 322.48 221.449 323.081ZM218.536 323.865C217.743 323.598 216.752 323.264 215.959 322.996C215.166 322.729 214.371 323.123 213.972 323.651C213.507 324.378 213.041 325.104 212.773 325.897C212.174 327.02 211.376 328.076 210.249 328.8C209.917 329.129 209.454 329.194 209.122 329.524C207.861 330.644 207.591 332.099 208.315 333.227C209.368 334.686 211.152 335.287 212.611 334.234C213.208 333.773 213.805 333.311 214.402 332.85C216.193 331.467 217.979 331.407 219.56 333.265C220.219 333.929 220.613 334.724 221.272 335.388C221.931 336.052 222.791 336.121 223.19 335.593C223.787 335.132 223.789 334.47 223.526 333.94C223.132 333.145 222.54 332.283 221.948 331.42C221.224 330.293 221.428 329.036 222.423 328.047C223.087 327.388 223.949 326.795 224.745 326.401C224.68 325.938 224.747 325.739 224.616 325.474C224.09 324.414 223.297 324.146 222.765 325.071C222.698 325.269 222.631 325.467 222.366 325.599C221.9 326.325 221.499 327.515 220.441 327.379C218.987 327.109 219.455 325.721 219.128 324.728C218.997 324.462 218.798 324.396 218.536 323.865Z" fill="#85B472"/>
<path d="M217.006 326.441C217.799 326.708 218.325 327.769 218.057 328.562C217.723 329.553 216.663 330.079 215.738 329.546C214.747 329.212 214.487 328.02 214.821 327.029C215.022 326.434 216.015 326.106 217.006 326.441Z" fill="#85B472"/>
<path d="M137.486 110.59C139.941 108.547 142.855 107.763 145.961 108.37C148.275 108.708 150.456 109.444 152.502 110.575C156.726 113.104 160.287 116.293 162.586 120.601C162.98 121.397 163.374 122.192 163.768 122.988C166.464 127.43 169.492 131.543 173.382 135.063C175.954 137.255 178.459 139.646 180.565 142.565C184.976 148.469 187.863 154.963 189.424 162.115C191.184 169.333 191.554 176.746 190.997 184.287C190.299 194.21 188.809 203.866 186.392 213.65C185.587 216.691 184.98 219.799 184.242 222.642C183.368 226.543 183.354 230.513 184.397 234.619C184.526 235.546 184.853 236.54 184.982 237.466C185.047 237.93 185.044 238.592 185.042 239.253C184.973 240.113 183.516 240.505 182.857 239.841C182.527 239.509 182.066 238.912 181.804 238.382C180.884 236.526 179.767 234.603 178.582 232.879C177.069 230.822 175.82 228.635 174.306 226.578C173.384 225.384 172.727 224.058 172.534 222.668C172.278 220.153 171.094 218.428 169.114 217.098C165.683 214.837 162.318 212.377 158.689 210.049C154.333 207.255 149.977 204.461 145.622 201.667C142.718 199.804 139.814 197.942 137.242 195.749C130.253 189.638 125.649 182.343 123.366 173.403C122.325 168.635 121.946 163.87 121.831 158.973C121.862 150.371 123.217 141.773 124.901 133.508C126.111 127.954 128.512 122.801 130.976 118.111C133.104 115.075 135.031 112.633 137.486 110.59ZM180.364 215.813C181.774 210.326 183.381 204.906 184.129 199.416C185.347 191.877 186.168 184.204 186.527 176.596C186.816 169.848 186.377 163.296 184.417 156.672C182.652 150.777 180.29 145.343 176.14 140.631C175.02 139.37 173.9 138.109 172.713 137.046C169.153 133.858 166.123 130.407 163.159 126.757C161.908 125.231 160.922 123.573 160.002 121.717C157.572 117.143 153.877 114.352 149.519 112.219C149.123 112.086 148.528 111.885 148.132 111.752C144.168 110.415 140.724 111.462 138.066 114.761C135.941 117.136 134.541 119.976 133.407 122.685C131.473 127.112 130.398 131.608 129.653 136.436C128.697 144.505 128.007 152.443 127.978 160.383C128.028 164.817 128.343 169.119 129.121 173.356C130.812 181.435 134.623 188.462 140.621 194.239C143.324 196.696 146.161 198.757 149.196 200.885C154.541 204.675 159.952 208.267 165.296 212.056C167.078 213.32 168.923 215.046 170.638 216.508C172.154 217.903 173.074 219.759 173.463 221.877C173.788 223.533 174.377 225.057 175.564 226.119C176.355 227.048 177.343 228.044 178.134 228.973C178.151 224.342 179.357 220.111 180.364 215.813Z" fill="#85B472"/>
<path d="M175.28 158.89C174.286 159.218 173.821 159.944 173.355 160.67C172.29 162.52 171.026 164.302 169.763 166.084C169.431 166.414 169.297 166.81 168.965 167.14C168.304 167.138 168.24 166.674 168.175 166.211C166.869 161.575 164.768 157.333 162.136 153.354C158.913 148.512 156.021 143.341 153.659 137.907C152.413 135.058 150.834 132.538 149.521 129.887C149.258 129.356 148.864 128.561 147.74 128.623C147.804 129.087 147.869 129.55 148.131 130.08C149.836 134.189 151.608 138.099 153.511 142.274C155.02 145.654 156.727 149.1 158.502 152.349C159.815 155 161.061 157.849 161.845 160.764C162.04 161.492 162.169 162.419 162.298 163.346C161.704 163.145 161.24 163.21 160.911 162.878C157.016 160.681 153.319 158.551 149.425 156.354C148.699 155.888 147.973 155.423 147.445 155.024C146.848 155.485 146.979 155.75 147.309 156.082C147.77 156.679 148.231 157.276 148.758 157.675C152.782 160.799 156.94 163.526 161.761 165.594C162.157 165.727 162.289 165.992 162.685 166.126C163.198 170.495 162.983 175.06 162.107 179.623C160.192 178.756 158.209 178.087 156.492 177.288C153.19 175.953 149.954 174.42 146.652 173.085C146.057 172.885 145.462 172.684 144.801 172.682C144.404 172.548 143.939 173.275 144.201 173.805C144.464 174.335 144.727 174.865 145.321 175.066C146.047 175.531 146.773 175.997 147.301 176.396C151.857 178.595 156.478 181.258 161.369 182.465C161.567 182.532 161.567 182.532 161.896 182.864C161.894 183.526 161.892 184.188 161.889 184.849C161.784 195.634 165.323 204.778 172.238 213.073C172.699 213.67 173.16 214.267 173.687 214.666C175.072 215.795 176.861 215.073 176.801 213.287C176.871 212.427 176.742 211.5 176.348 210.705C175.889 209.446 175.233 208.12 174.576 206.795C173.263 204.143 172.148 201.559 171.099 198.776C169.461 194.47 168.75 190.034 168.898 185.667C168.905 183.682 169.111 181.764 169.118 179.779C169.192 177.596 169.135 175.147 169.011 172.897C168.949 171.772 169.216 170.979 169.682 170.252C171.012 168.272 172.409 166.093 173.739 164.113C174.339 162.99 174.74 161.8 175.074 160.809C175.738 160.149 175.805 159.951 175.28 158.89Z" fill="#85B472"/>
<path d="M139.961 139.25C139.895 139.448 139.761 139.845 139.892 140.11C140.155 140.64 140.286 140.906 140.616 141.237C141.604 142.233 142.791 143.296 143.847 144.094C144.374 144.493 145.234 144.562 145.829 144.762C146.027 144.829 146.359 144.499 146.426 144.301C146.493 144.103 146.361 143.838 146.428 143.639C146.297 143.374 146.165 143.109 145.967 143.042C144.186 141.779 142.206 140.449 140.358 139.384C140.425 139.186 140.358 139.384 139.961 139.25Z" fill="#85B472"/>
<path d="M138.215 164.719C139.139 165.252 140.063 165.784 141.054 166.118C141.451 166.252 141.914 166.187 142.377 166.123C142.841 166.058 142.843 165.397 142.712 165.131C142.58 164.866 142.382 164.8 142.184 164.733C140.467 163.933 138.75 163.133 137.033 162.333L136.835 162.266C136.57 162.398 136.106 162.462 136.04 162.66C135.973 162.859 136.037 163.322 136.169 163.587C136.498 163.919 136.828 164.251 137.422 164.452C137.62 164.519 138.017 164.652 138.215 164.719Z" fill="#85B472"/>
<path d="M176.181 183.707C176.843 183.709 177.306 183.645 177.769 183.58C179.36 182.792 180.554 181.869 181.683 180.484C181.75 180.285 181.817 180.087 181.817 180.087C181.884 179.889 181.753 179.624 181.621 179.359C181.423 179.292 181.225 179.225 181.027 179.158C180.762 179.289 180.497 179.421 180.43 179.619C179.169 180.74 177.908 181.86 176.647 182.981C176.449 182.914 176.315 183.311 176.181 183.707Z" fill="#85B472"/>
</g>
<defs>
<clipPath id="clip0_153_1652">
<rect width="313.55" height="528.361" fill="white" transform="translate(169.707 -0.000549316) rotate(18.6371)"/>
</clipPath>
</defs>
</svg>
