<svg width="109" height="107" viewBox="0 0 109 107" fill="none" xmlns="http://www.w3.org/2000/svg">
<g opacity="0.5">
<path d="M39.0579 5.71683C36.4598 8.1652 34.4967 10.9594 33.1505 13.8997C31.9681 16.4225 31.276 18.8006 30.9832 21.143C30.6354 23.9937 30.7419 26.3002 31.3387 28.462C31.3746 28.8616 31.6102 29.2433 31.7369 29.534C31.7549 29.7338 31.8637 29.8247 31.8816 30.0245L32.0084 30.3152C31.8087 30.3331 31.609 30.351 31.3185 30.4778C29.8119 30.5122 28.4501 31.0372 27.197 31.653C26.2345 32.1421 25.3809 32.7222 24.5272 33.3023C23.2012 34.2268 22.2017 35.4241 21.5466 37.094C20.2733 39.7257 19.8347 42.6853 20.1218 45.8818C20.3551 48.4791 21.1874 51.0226 22.6368 53.7121C23.8326 55.8202 25.6095 57.6748 27.8227 58.7854C29.0926 59.4771 30.4533 60.06 31.6873 60.3521C31.7961 60.443 31.9958 60.4251 32.1046 60.516L31.9408 60.9335C31.8679 61.2422 31.5953 61.5687 31.5224 61.8773C31.1768 62.5125 30.8313 63.1477 30.5946 63.8738C29.2485 66.8141 29.0274 69.9555 29.7139 73.1163C29.8945 74.0064 30.0751 74.8965 30.4554 75.7687C30.7089 76.3501 30.9445 76.7318 31.198 77.3132C32.5026 79.5123 34.4792 81.349 37.001 82.5326C38.8878 83.3703 41.0293 83.6818 43.6071 83.2492C45.3863 82.8882 47.1475 82.3275 48.764 81.2762C49.5268 80.805 49.9991 80.4605 50.4535 79.9163C50.6352 79.6986 50.9078 79.3721 50.7631 78.8816C50.6543 78.7906 50.5454 78.6997 50.4366 78.6087C50.1281 78.5357 49.9285 78.5536 49.5471 78.7892C49.4562 78.8981 49.2565 78.916 49.1656 79.0248C49.0748 79.1337 48.966 79.0427 48.8751 79.1516C46.8592 80.2387 44.8984 80.8173 42.8107 81.1052C37.1289 81.7155 33.3395 77.6247 32.4544 73.374C32.1291 71.9934 31.8947 70.504 32.1505 68.8699C32.2604 67.853 32.588 67.0181 32.9156 66.1831C33.3161 65.0395 34.0071 63.7691 34.6981 62.4988C34.789 62.3899 34.8799 62.2811 34.9707 62.1723C35.0616 62.0634 35.1525 61.9546 35.2433 61.8457C35.5159 61.5192 35.6068 61.4103 36.2058 61.3566C38.7287 61.4324 41.1798 60.7091 43.5771 59.3864C44.1582 59.1329 44.6305 58.7884 45.1936 58.3351C45.575 58.0995 45.8476 57.773 46.1202 57.4465C46.2111 57.3376 46.3019 57.2288 46.4837 57.0111C46.6833 56.9932 46.7922 57.0841 46.883 56.9753C48.0082 57.1764 49.0604 57.6863 50.0218 58.3049C51.5272 59.3783 52.7421 60.5784 53.6664 61.9053C54.1196 62.4688 54.4819 63.1412 54.6625 64.0313C54.0994 64.4846 53.8448 65.0109 53.681 65.4284C53.5901 65.5373 53.4992 65.6461 53.4992 65.6461C53.3175 65.8638 53.2266 65.9727 52.9181 65.8996C52.8093 65.8087 52.7185 65.9175 52.6096 65.8266C52.41 65.8445 52.1924 65.6626 51.9927 65.6805C51.4845 65.6254 51.0851 65.6612 50.8125 65.9878C50.54 66.3143 50.3582 66.532 50.4121 67.1314C50.43 67.3311 50.4659 67.7307 50.5927 68.0214C50.6106 68.2212 50.7194 68.3122 50.9191 68.2943C51.0279 68.3852 51.2276 68.3673 51.5181 68.2405L51.609 68.1317L51.8457 67.4056C52.0454 67.3877 52.1542 67.4786 52.3539 67.4607C52.4627 67.5516 52.4627 67.5516 52.6624 67.5337C53.8963 67.8258 54.6771 67.5544 55.2952 66.5927C55.3861 66.4838 55.4769 66.375 55.5678 66.2662C55.6587 66.1573 55.7495 66.0485 55.8404 65.9396C55.8404 65.9396 55.8404 65.9396 55.9313 65.8308L56.0401 65.9217C56.058 66.1215 56.076 66.3213 56.0939 66.5211L56.1119 66.7209L56.1298 66.9206C56.1478 67.1204 56.0569 67.2293 56.1657 67.3202C56.1836 67.52 56.3104 67.8107 56.5101 67.7928C56.7098 67.7749 57.0182 67.8479 57.2 67.6302C57.6543 67.086 57.891 66.3599 57.8372 65.7605C57.6745 65.0702 57.421 64.4888 56.8769 64.0341C56.7681 63.9431 56.6593 63.8522 56.6593 63.8522C56.6414 63.6524 56.6234 63.4526 56.6234 63.4526C56.5875 63.0531 56.5516 62.6535 56.5157 62.2539C56.2084 61.0731 55.6105 60.019 54.5953 58.801C53.0181 56.9285 51.0953 55.6912 48.8091 54.8892C48.7003 54.7983 48.6095 54.9072 48.5006 54.8162L48.5915 54.7074C48.7003 54.7983 48.7912 54.6895 48.9 54.7804C50.4784 55.5451 52.2205 55.8924 54.1264 55.8221L54.6346 55.8773C55.0339 55.8414 55.3424 55.9145 55.7418 55.8787C55.9415 55.8607 56.2499 55.9338 56.5405 55.807C56.831 55.6803 57.2304 55.6444 57.4301 55.6265C58.2108 55.3551 59.1004 55.1746 59.8812 54.9032C61.8241 54.1248 63.9118 53.8368 66.1262 53.8396C69.7563 53.9169 73.2764 55.0109 76.5778 57.0309C76.5778 57.0309 76.5778 57.0309 76.6866 57.1218C74.9254 57.6826 73.2551 58.1345 71.4939 58.6952L70.1141 59.0204C69.4242 59.1829 68.8431 59.4365 68.1532 59.599C67.8626 59.7258 67.5721 59.8525 67.2815 59.9793C67.0819 59.9972 66.9181 60.4147 66.936 60.6145C66.954 60.8143 67.0807 61.105 67.3892 61.178C67.6977 61.251 68.0062 61.3241 68.2968 61.1973C70.1847 60.9273 72.1635 60.5484 74.1244 59.9698C75.3046 59.6625 76.3759 59.2644 77.6469 58.8483L78.6273 58.5589C78.6273 58.5589 78.7182 58.4501 78.827 58.541C80.623 59.4876 83.6327 62.7421 84.502 64.5774C84.502 64.5774 84.502 64.5774 84.3024 64.5953L82.3964 64.6656C81.0896 64.6821 79.6918 64.8074 78.4938 64.9149C78.0944 64.9507 77.695 64.9865 77.2957 65.0223L76.8963 65.0582C76.6966 65.0761 76.497 65.094 76.4061 65.2028C76.3152 65.3117 76.1335 65.5294 76.0606 65.838C76.0785 66.0378 76.2053 66.3285 76.5138 66.4016C76.8223 66.4746 77.1308 66.5476 77.3305 66.5297L77.7298 66.4939C78.837 66.4953 79.8354 66.4057 80.9426 66.4071C81.7413 66.3355 82.6488 66.3548 83.4475 66.2832C83.8469 66.2474 84.4459 66.1936 84.8453 66.1578C85.045 66.1399 85.2446 66.122 85.3535 66.2129L85.5531 66.195C85.6619 66.286 85.662 66.286 85.662 66.286C86.7848 68.7027 87.6722 70.7378 88.1601 72.8087C88.3228 73.499 88.4854 74.1893 88.7389 74.7707L88.8836 75.2613C88.9016 75.461 89.0283 75.7518 89.246 75.9337C89.3727 76.2244 89.79 76.3883 90.0806 76.2616C90.4799 76.2258 90.7525 75.8992 90.7166 75.4996C90.6987 75.2999 90.7716 74.9912 90.7537 74.7914C90.7357 74.5917 90.6089 74.3009 90.591 74.1011C90.4284 73.4108 90.3566 72.6117 90.1939 71.9214C89.3986 68.6697 88.0222 65.6715 86.1556 62.818C84.4157 60.2552 82.3124 58.1277 79.5371 56.3627C76.8706 54.6886 74.7662 53.6689 72.5888 52.9579C69.5947 52.1188 67.2356 51.6255 64.9304 51.7315C68.2913 48.8119 69.6565 44.9637 69.3167 40.0599C69.1361 39.1699 69.0463 38.1709 68.9566 37.172C68.9028 36.5726 68.831 35.7735 68.7771 35.1741C68.6324 34.6836 68.5965 34.284 68.4518 33.7935C68.3071 33.303 68.0536 32.7216 67.818 32.3399L67.6913 32.0492C67.1663 30.6865 66.3687 29.6503 65.1897 28.8498C62.3965 26.8849 59.7839 25.8102 56.8437 25.5704C54.811 25.3499 52.6325 25.7467 50.5987 26.634C50.5078 26.7428 50.399 26.6519 50.3081 26.7607C50.399 26.6519 50.399 26.6519 50.4899 26.543C52.0716 23.9844 52.9096 20.989 53.2215 17.7387C53.3146 15.4143 52.8996 13.0348 51.9584 10.4003C51.4155 8.83785 50.6729 7.29329 49.6218 5.67569C48.9151 4.53069 48.1354 3.69434 47.1741 3.07567C46.3215 2.54795 45.414 2.52864 44.5424 2.90891C41.674 3.46826 40.348 4.39275 39.0579 5.71683ZM39.1633 9.13112C38.9278 8.74946 38.801 8.45873 38.8739 8.15009C40.3278 6.40853 42.1989 4.83094 43.5608 4.30601C42.7575 8.80876 41.7546 13.3294 40.8426 17.7412C40.1863 20.519 39.53 23.2967 39.0734 26.0565C38.6539 28.1081 38.2893 29.6512 37.9067 30.9946L33.7146 30.2629C32.0477 27.3915 31.8896 22.27 32.7455 19.4744C33.7787 20.8922 34.9935 22.0924 36.2993 23.1836C36.6257 23.4564 36.8434 23.6383 37.0789 24.02C37.2966 24.2019 37.5142 24.3837 37.7318 24.5656C37.9494 24.7475 38.24 24.6208 38.5305 24.494C38.7122 24.2763 38.7852 23.9677 38.5675 23.7858C38.4408 23.4951 38.1143 23.2222 37.8967 23.0404C37.2259 22.2949 36.5551 21.5495 35.9931 20.895C35.4311 20.2406 34.7602 19.4951 34.1982 18.8406C33.9806 18.6588 33.745 18.2771 33.5274 18.0952L33.3098 17.9133C33.9111 15.6441 36.4206 11.089 37.8924 9.5472C38.3265 11.0187 39.142 12.2547 40.0484 13.3818C40.1572 13.4727 40.284 13.7634 40.5016 13.9453C40.6104 14.0362 40.9189 14.1093 41.1186 14.0914C41.3183 14.0735 41.482 13.656 41.3732 13.565C41.2465 13.2743 41.1197 12.9836 40.9929 12.6929C40.7574 12.3112 40.5039 11.7297 40.2683 11.3481C39.7792 10.385 39.5257 9.80351 39.1633 9.13112ZM49.3983 28.957C50.8331 28.1234 52.7031 27.6536 54.5182 27.6922C57.2407 27.7501 59.7446 28.734 62.6466 30.7897C63.1907 31.2444 63.6259 31.6082 63.8794 32.1896C63.9883 32.2806 64.0062 32.4804 64.115 32.5713L64.2418 32.862C64.6041 33.5344 64.9664 34.2068 65.1291 34.8971C65.2738 35.3876 65.4185 35.8781 65.5632 36.3687L65.69 36.6594C65.7988 36.7503 65.7079 36.8592 65.7258 37.059C65.7438 37.2587 65.7438 37.2587 65.7617 37.4585C66.2676 39.7292 66.2654 41.9448 65.7549 44.1052C65.0258 47.1915 63.4261 49.5504 60.9559 51.1817C58.5766 52.7042 55.9258 53.4454 53.2211 53.5873C51.7146 53.6217 50.3898 53.4384 49.029 52.8556L48.9202 52.7646C48.6117 52.6916 48.5029 52.6007 48.2853 52.4188C48.3762 52.3099 48.3582 52.1101 48.4491 52.0013C48.8866 50.1495 48.9427 48.5333 48.5994 46.9529C48.2921 45.7721 48.2932 44.6643 48.1676 43.2658C48.2405 42.9572 48.1138 42.6664 48.1867 42.3578L48.1687 42.158C48.0622 39.8515 47.1749 37.8164 45.7244 36.2347C45.2892 35.8709 44.9627 35.5981 44.6183 35.1255L44.1831 34.7617C44.0743 34.6708 43.8566 34.4889 43.7478 34.398L43.639 34.307C43.7299 34.1982 43.7299 34.1982 43.8208 34.0893C45.5293 31.8214 47.4913 30.135 49.3983 28.957ZM40.8927 57.5125C40.4025 57.6572 39.8214 57.9107 39.3311 58.0553C37.2794 58.7429 35.5732 58.7952 34.1395 58.521C31.5807 58.0456 29.2766 57.0439 27.3359 55.6067C26.5742 54.9702 25.8125 54.3336 25.3414 53.5703C23.4748 50.7167 22.5157 47.8825 22.4641 45.0676C22.3396 42.5613 22.85 40.4008 23.8686 38.2955C24.4688 37.134 25.1049 36.3721 25.8497 35.7011C28.3928 33.7611 31.1345 32.9111 34.0926 33.3506C35.6171 33.516 36.9599 33.8991 38.4115 34.3731C40.498 35.1929 42.3119 36.3393 44.0709 37.9941C45.0681 39.0124 45.7749 40.1574 45.9914 41.447C46.0272 41.8466 46.154 42.1373 46.1899 42.5369L46.2078 42.7367L45.7356 43.0811C45.6447 43.19 45.6447 43.19 45.6626 43.3898L45.6985 43.7893C45.8253 44.0801 45.8612 44.4796 45.8791 44.6794C46.1685 45.6604 46.2583 46.6594 46.0754 47.9849C46.0025 48.2935 45.9296 48.6021 45.9475 48.8019C45.8746 49.1106 45.8926 49.3103 45.8196 49.619C45.7288 49.7278 45.7467 49.9276 45.7467 49.9276C45.6917 50.436 45.6188 50.7447 45.7635 51.2352C45.7994 51.6347 45.8174 51.8345 45.6356 52.0522C44.7797 54.8478 43.217 56.4985 40.8927 57.5125ZM41.7747 29.2379C42.0652 29.1112 42.3737 29.1842 42.6642 29.0575C43.1545 28.9128 43.6267 28.5683 44.117 28.4237C44.4984 28.1881 44.9886 28.0434 45.37 27.8078C44.5702 28.9872 42.3344 32.108 41.5895 32.779L38.7593 31.5223C38.8502 31.4135 38.7413 31.3226 38.8322 31.2137C38.9051 30.9051 38.978 30.5964 39.051 30.2878C39.2147 29.8703 39.3606 29.2531 39.5244 28.8356C39.9798 27.1836 40.4173 25.3317 40.8728 23.6797L41.602 20.5934C42.5129 17.2894 43.0783 14.6205 43.5349 11.8607C43.7728 10.0268 44.1194 8.28383 44.5569 6.43203L44.6669 5.41519C44.7577 5.30635 44.6489 5.2154 44.7398 5.10655C44.9574 5.28843 45.0842 5.57915 45.193 5.67009C47.3322 8.19708 48.6177 11.3041 49.2493 14.9733C49.2852 15.3729 49.2122 15.6815 48.9217 15.8083C48.6312 15.935 48.4494 16.1527 48.1589 16.2795C47.9772 16.4972 47.7775 16.5151 47.5957 16.7328C45.9972 17.9838 44.5804 19.0172 43.472 20.1236C43.1994 20.4501 42.9268 20.7767 42.7451 20.9944C42.5634 21.2121 42.6901 21.5028 42.7989 21.5937C42.9078 21.6847 43.2162 21.7577 43.4159 21.7398C43.7065 21.613 43.997 21.4863 44.2696 21.1597C46.0678 19.8908 47.6485 18.4399 49.3379 17.08C49.1898 19.9129 48.3338 22.7085 46.7521 25.2671C46.5703 25.4848 46.4795 25.5936 46.1889 25.7204C45.1176 26.1186 44.0643 26.7165 42.9929 27.1147C42.6115 27.3503 42.2301 27.5859 41.8308 27.6217C41.6311 27.6396 41.4494 27.8573 41.2676 28.075C41.1768 28.1839 41.1038 28.4925 41.1218 28.6923C41.3574 29.074 41.575 29.2558 41.7747 29.2379Z" fill="#C2D6BF"/>
<path d="M61.4229 74.2998C61.2052 74.118 61.0964 74.027 60.8608 73.6454C60.752 73.5544 60.7341 73.3546 60.6253 73.2637L60.6073 73.0639C60.6982 72.9551 60.6982 72.9551 60.807 73.046C61.5149 73.0832 61.9501 73.447 62.585 73.7928C62.8026 73.9747 63.1111 74.0477 63.3287 74.2296C63.2199 74.1387 63.3108 74.0298 63.202 73.9389L62.695 72.776C61.9524 71.2314 61.4094 69.669 60.6668 68.1245C60.1778 67.1614 59.7975 66.2892 59.3993 65.2172L58.7655 63.7636C58.7475 63.5638 58.6387 63.4729 58.6208 63.2731C58.494 62.9824 58.5669 62.6738 58.8575 62.547C59.1301 62.2205 59.4386 62.2935 59.8559 62.4575C60.0735 62.6394 60.1823 62.7303 60.309 63.021C60.5446 63.4027 60.7802 63.7843 61.0157 64.166L61.0337 64.3658C61.9389 66.6006 62.953 68.9264 63.8582 71.1612C64.2385 72.0334 64.6367 73.1053 64.9261 74.0863C65.1617 74.468 65.1976 74.8676 65.3423 75.3581C66.4125 76.0677 67.6644 76.5596 69.0251 77.1424C71.7285 78.1083 73.8879 78.6195 76.1202 78.8221L75.0692 77.2045C74.2357 75.7688 73.3114 74.442 72.5867 73.0972C71.7533 71.6615 70.8289 70.3346 69.8867 68.808L68.7088 66.8997C68.6 66.8088 68.6909 66.6999 68.6909 66.6999L68.9455 66.1736C68.8367 66.0827 68.8367 66.0827 68.7279 65.9917C65.6442 64.1537 63.2133 62.8612 60.9092 61.8595C59.9658 61.4407 59.1133 60.9129 58.3695 60.4762C58.1519 60.2943 57.7346 60.1303 57.517 59.9484C57.2994 59.7666 56.9909 59.6935 56.7733 59.5117C56.4468 59.2388 56.3201 58.9481 56.5018 58.7304C56.5747 58.4218 56.9561 58.1862 57.4643 58.2413C57.7728 58.3144 58.0812 58.3874 58.3897 58.4604L58.4985 58.5514C61.1841 59.3175 63.6149 60.6099 65.5197 61.6474C67.6421 62.8668 70.1817 64.2502 72.5217 65.6515C75.8231 67.6714 78.5983 69.4364 80.9742 71.2373C81.7359 71.8739 82.3888 72.4195 83.1504 73.056L83.9121 73.6926C84.1297 73.8745 84.3474 74.0564 84.4741 74.3471C84.6917 74.529 84.6188 74.8376 84.528 74.9464C84.455 75.2551 84.0557 75.2909 83.9469 75.1999C83.6384 75.1269 83.3299 75.0539 83.1123 74.872C82.7858 74.5992 82.4774 74.5262 82.1509 74.2533C81.9333 74.0715 81.7157 73.8896 81.2984 73.7256C77.997 71.7057 74.5869 69.5948 71.3764 67.466C71.5031 67.7568 71.8296 68.0296 71.9563 68.3203C72.4275 69.0836 72.9895 69.7381 73.4606 70.5014C74.5296 72.3188 75.5987 74.1361 76.5589 75.8625C77.03 76.6259 77.5191 77.589 77.9902 78.3523C78.0991 78.4432 78.117 78.643 78.2258 78.7339L78.3346 78.8249C78.4434 78.9158 78.5343 78.807 78.6431 78.8979L79.4418 78.8263C80.2405 78.7546 81.1301 78.5742 81.9288 78.5025C82.3281 78.4667 82.6187 78.34 83.018 78.3041C83.3086 78.1774 83.7079 78.1416 83.9076 78.1237C84.5066 78.0699 84.9968 77.9253 85.3962 77.8895C85.7047 77.9625 86.0131 78.0355 86.1399 78.3262C86.2667 78.617 86.1938 78.9256 86.03 79.3431C85.8482 79.5608 85.7574 79.6696 85.4668 79.7964C84.9946 80.1408 84.5043 80.2855 83.9053 80.3392L83.8145 80.448C83.3242 80.5927 82.7252 80.6464 82.235 80.7911C80.2562 81.1699 78.4412 81.1313 76.8258 81.0748C73.4684 80.6711 70.1659 79.7589 67.0092 78.2295C65.1774 76.8833 63.4723 75.8279 61.4229 74.2998Z" fill="#C2D6BF"/>
<path d="M56.0735 68.537C56.5088 68.9008 56.5626 69.5002 56.4168 70.1174C56.3259 70.2263 56.235 70.3351 56.0354 70.353C55.8357 70.371 55.7269 70.28 55.618 70.1891C55.5092 70.0981 55.5092 70.0981 55.4913 69.8983L55.3825 69.8074C55.1469 69.4257 54.512 69.0799 54.1306 69.3155C53.4406 69.4781 53.0772 69.9134 52.6228 70.4577C52.2773 71.0929 52.2403 71.8011 52.403 72.4914C52.6744 73.2726 53.1276 73.8362 53.8534 74.0732C54.144 73.9464 54.2169 73.6378 54.3986 73.4201C54.5804 73.2024 54.6533 72.8938 54.7262 72.5851C54.8171 72.4763 54.89 72.1676 54.9809 72.0588C55.1446 71.6413 55.3264 71.4236 55.4902 71.0061C55.7628 70.6796 56.0533 70.5528 56.2709 70.7347C56.3797 70.8257 56.3797 70.8256 56.4886 70.9166L56.5065 71.1164C56.5244 71.3162 56.5424 71.516 56.4515 71.6248C56.3595 72.8414 56.0499 73.8762 55.4318 74.8379C55.2501 75.0556 55.268 75.2554 55.1771 75.3643C54.5411 76.1262 53.5427 76.2157 52.781 75.5792C52.4545 75.3063 52.2369 75.1245 52.1101 74.8337C52.0013 74.7428 51.9834 74.543 51.8746 74.4521C51.639 74.0704 51.4034 73.6887 51.1499 73.1073C50.4981 71.4538 51.0265 69.4932 52.661 68.6417C53.2421 68.3882 53.8232 68.1347 54.2225 68.0988C54.9125 67.9363 55.5294 68.0823 56.0735 68.537Z" fill="#C2D6BF"/>
<path d="M48.2817 72.5592C48.1908 72.668 48.0999 72.7769 48.0091 72.8857C47.9182 72.9946 47.9182 72.9946 47.8273 73.1034L47.7365 73.2122C47.9361 73.1943 48.027 73.0855 48.2267 73.0676C48.3175 72.9587 48.5172 72.9408 48.6081 72.832C48.6989 72.7231 48.8986 72.7052 49.0983 72.6873C49.3889 72.5606 49.5885 72.5426 49.8791 72.4159C50.2784 72.3801 50.5869 72.4531 50.7137 72.7438C50.8404 73.0346 50.7675 73.3432 50.4949 73.6697C49.7501 74.3407 48.8784 74.721 48.0797 74.7926C47.4807 74.8464 46.9725 74.7912 46.5552 74.6273C46.2467 74.5542 46.1199 74.2635 45.9023 74.0816C45.7935 73.9907 45.8844 73.8819 45.7756 73.7909C45.6488 73.5002 45.7217 73.1915 45.9943 72.865C46.176 72.6473 46.4486 72.3208 46.6304 72.1031C46.8121 71.8854 47.1027 71.7586 47.2844 71.5409L47.3753 71.4321C47.2664 71.3411 47.1576 71.2502 47.0309 70.9595C46.7953 70.5778 46.8503 70.0694 47.1229 69.7428C47.2137 69.634 47.5043 69.5072 47.6131 69.5982C47.8128 69.5802 47.9216 69.6712 48.0304 69.7621C48.1392 69.8531 48.1392 69.8531 48.1571 70.0529C48.1751 70.2526 48.2839 70.3436 48.5015 70.5255L48.6103 70.6164C49.0456 70.9802 49.1903 71.4707 48.8268 71.9061C48.7539 72.2147 48.5722 72.4324 48.2817 72.5592Z" fill="#C2D6BF"/>
<path d="M54.3033 76.8523C54.2854 76.6525 54.2495 76.2529 54.7397 76.1083C55.1211 75.8727 55.3567 76.2543 55.5743 76.4362C55.6831 76.5271 55.7919 76.6181 55.7011 76.7269C55.8099 76.8179 55.9187 76.9088 55.8278 77.0177C56.0455 77.1995 56.1543 77.2905 56.2631 77.3814C56.354 77.2726 56.336 77.0728 56.4269 76.9639C56.4269 76.9639 56.5177 76.8551 56.4089 76.7641L56.391 76.5644C56.4639 76.2557 56.5189 75.7473 56.5918 75.4387C56.5738 75.2389 56.8464 74.9123 57.1549 74.9854C57.3546 74.9674 57.6631 75.0405 57.7719 75.1314C57.9895 75.3133 58.0075 75.5131 58.0254 75.7129C58.0793 76.3122 58.0243 76.8207 58.0602 77.2202C57.9873 77.5289 58.0052 77.7287 57.8235 77.9464C57.6597 78.3638 57.3871 78.6904 56.8969 78.8351C56.6063 78.9618 56.0982 78.9067 55.6809 78.7427C55.1547 78.4878 54.8283 78.215 54.5748 77.6335C54.5568 77.4338 54.3392 77.2519 54.3213 77.0521C54.3392 77.2519 54.3213 77.0521 54.3033 76.8523Z" fill="#C2D6BF"/>
<path d="M57.3056 69.9368C57.088 69.7549 56.9792 69.664 56.8704 69.573C56.6528 69.3911 56.6348 69.1914 56.7257 69.0825C56.7077 68.8827 56.9983 68.756 57.0891 68.6471C57.5794 68.5025 57.9967 68.6664 58.5228 68.9213C58.7404 69.1032 58.8672 69.3939 58.9031 69.7935C58.921 69.9933 58.7393 70.211 58.7572 70.4108L58.6664 70.5196L58.7752 70.6106L58.884 70.7015C58.9928 70.7925 58.9928 70.7925 59.1925 70.7745C59.6098 70.9385 59.7366 71.2292 59.7545 71.429C59.7725 71.6288 59.7904 71.8286 59.4269 72.264C59.0635 72.6994 58.5003 73.1527 57.7016 73.2243C57.5019 73.2422 57.1934 73.1692 57.0846 73.0783C56.9758 72.9873 56.9758 72.9873 56.867 72.8964C56.867 72.8964 56.7582 72.8054 56.8491 72.6966C56.8132 72.297 57.1037 72.1703 57.2854 71.9526C57.3763 71.8437 57.4851 71.9347 57.576 71.8258C57.6668 71.717 57.7757 71.8079 57.8665 71.699C57.1228 71.2623 57.1048 71.0625 57.3056 69.9368Z" fill="#C2D6BF"/>
<path d="M50.5269 78.5002C50.4181 78.4093 50.2913 78.1186 50.1646 77.8278C50.0558 77.7369 49.929 77.4462 49.8202 77.3552C49.8022 77.1555 49.6755 76.8647 49.8572 76.647C50.039 76.4293 50.3295 76.3026 50.4383 76.3935C50.7468 76.4665 51.0553 76.5396 51.2729 76.7215C51.3817 76.8124 51.4905 76.9033 51.5994 76.9943C51.6723 76.6856 51.854 76.4679 51.9269 76.1593C52.1816 75.633 52.4901 75.706 52.6898 75.6881C52.9983 75.7611 53.125 76.0518 53.2338 76.1428C53.3426 76.2337 53.4694 76.5245 53.4874 76.7243C53.4683 77.6323 53.1228 78.2674 52.3599 78.7387C51.7059 79.3008 50.9801 79.0638 50.5269 78.5002Z" fill="#C2D6BF"/>
<path d="M54.5246 72.6031C54.3609 73.0206 53.8706 73.1652 53.5621 73.0922C53.2536 73.0192 53.036 72.8373 52.8184 72.6554C52.7096 72.5645 52.7096 72.5645 52.6916 72.3647C52.5828 72.2737 52.6737 72.1649 52.6737 72.1649C52.7286 71.6565 52.7836 71.148 53.1471 70.7126C53.3288 70.4949 53.7102 70.2593 54.0187 70.3324C54.3272 70.4054 54.5448 70.5873 54.5807 70.9869C54.6166 71.3864 54.7434 71.6772 54.7793 72.0767C54.6884 72.1856 54.5976 72.2944 54.5246 72.6031Z" fill="#C2D6BF"/>
<path d="M55.0337 55.8409C55.0158 55.6413 55.1066 55.5326 55.1973 55.4238C55.2881 55.3151 55.3968 55.4059 55.5963 55.388C55.7051 55.4789 55.9225 55.6606 55.9404 55.8602C55.9404 55.8602 55.8496 55.969 55.9584 56.0598C55.9584 56.0598 55.8676 56.1686 55.7768 56.2773C55.686 56.3861 55.5773 56.2952 55.3778 56.3131C55.2691 56.2223 55.1603 56.1314 55.1603 56.1314C55.0516 56.0405 55.0337 55.8409 55.0337 55.8409Z" fill="#C2D6BF"/>
<path d="M36.3234 36.8774C35.7614 36.2229 34.9447 36.0948 34.1819 36.566C34.091 36.6748 33.8913 36.6927 33.8005 36.8016C33.5099 36.9283 33.2194 37.0551 32.82 37.0909C32.1121 37.0537 31.6399 37.3982 31.2764 37.8336C30.9129 38.269 30.7671 38.8862 30.8209 39.4856C30.8568 39.8852 30.9836 40.1759 31.1283 40.6664C31.2371 40.7573 31.2551 40.9571 31.2551 40.9571C31.6174 41.6295 32.2523 41.9754 32.8514 41.9217C33.8498 41.8321 34.5397 41.6695 35.2296 41.507C35.3204 41.3981 35.5201 41.3802 35.5201 41.3802C35.9924 41.0358 36.956 39.4388 36.9022 38.8395C37.1389 38.1134 36.9763 37.423 36.3234 36.8774ZM34.4892 37.7468C34.5801 37.638 34.5801 37.638 34.7798 37.62C35.1612 37.3844 35.4697 37.4575 35.7053 37.8391C35.9408 38.2208 35.9588 38.4206 35.9038 38.929L35.7221 39.1467C35.5403 39.3644 35.3586 39.5821 35.2677 39.691C35.1769 39.7998 35.086 39.9087 34.8863 39.9266C34.6866 39.9445 34.487 39.9624 34.2873 39.9803C33.9967 40.1071 33.6882 40.034 33.3977 40.1608C32.7987 40.2145 32.6898 40.1236 32.5451 39.633C32.4184 39.3423 32.3825 38.9427 32.3645 38.743C32.3466 38.5432 32.4375 38.4343 32.6371 38.4164C32.728 38.3076 32.9277 38.2896 33.0365 38.3806C33.4359 38.3448 34.0169 38.0913 34.4892 37.7468Z" fill="#C2D6BF"/>
<path d="M36.6782 44.1966C36.5694 44.1056 36.5694 44.1056 36.3697 44.1235C36.2789 44.2324 36.2968 44.4322 36.2059 44.541C35.8604 45.1762 35.2793 45.4297 34.5535 45.1927C33.9366 45.0466 33.3925 44.5919 33.0481 44.1193C32.9213 43.8286 32.8125 43.7377 32.7766 43.3381C32.6499 43.0474 32.7228 42.7387 32.9045 42.521C32.9954 42.4122 33.0863 42.3033 33.1951 42.3943C33.5944 42.3585 33.7212 42.6492 33.8479 42.9399L33.9568 43.0308C34.1923 43.4125 34.3191 43.7032 34.5367 43.8851C34.6455 43.9761 34.8452 43.9581 34.8452 43.9581C34.9361 43.8493 34.9361 43.8493 35.1178 43.6316C35.1178 43.6316 35.1178 43.6316 35.2087 43.5228L35.2995 43.4139C35.6451 42.7787 36.1353 42.6341 36.7523 42.7801C36.8611 42.8711 37.0608 42.8532 37.0608 42.8532C37.1696 42.9441 37.2604 42.8353 37.3693 42.9262C37.2425 42.6355 37.1337 42.5445 37.0069 42.2538C36.989 42.054 37.0619 41.7454 37.1528 41.6365C37.2436 41.5277 37.643 41.4919 37.7518 41.5828C38.2779 41.8377 38.6223 42.3103 38.8758 42.8918C39.0026 43.1825 38.9297 43.4911 38.8388 43.6C38.5841 44.1263 38.1119 44.4708 37.4949 44.3247C37.2952 44.3426 36.9867 44.2696 36.6782 44.1966Z" fill="#C2D6BF"/>
<path d="M36.0878 36.4957C35.979 36.4048 35.8702 36.3138 35.8522 36.1141L35.8343 35.9143C35.9251 35.8054 35.8163 35.7145 35.8163 35.7145L35.7075 35.6235C35.6167 35.7324 35.417 35.7503 35.417 35.7503C34.8538 36.2036 34.2548 36.2573 33.529 36.0203C33.2205 35.9473 33.0029 35.7654 32.6944 35.6924L32.4947 35.7103L32.3668 36.5273C32.3668 36.5273 32.2759 36.6362 32.1851 36.745L31.9854 36.763C31.6769 36.6899 31.659 36.4901 31.4413 36.3083C31.3146 36.0175 31.2966 35.8177 31.2787 35.6179C31.2428 35.2184 31.4066 34.8009 31.788 34.5653C32.1694 34.3297 32.4599 34.2029 32.8772 34.3669C33.2945 34.5309 33.603 34.6039 33.8207 34.7858C34.3647 35.2405 34.6553 35.1137 35.0187 34.6783C35.1096 34.5695 35.2005 34.4606 35.4001 34.4427C35.6907 34.316 36.0901 34.2801 36.3985 34.3532C36.707 34.4262 37.0335 34.699 37.1602 34.9898C37.5226 35.6622 37.2859 36.3883 36.6139 36.7506C36.5051 36.6597 36.3054 36.6776 36.0878 36.4957Z" fill="#C2D6BF"/>
<path d="M29.6256 36.27C29.6436 36.4698 29.5527 36.5787 29.4619 36.6875C29.371 36.7964 29.371 36.7964 29.2622 36.7054L29.0625 36.7233C28.9537 36.6324 28.754 36.6503 28.6452 36.5594L28.754 36.6503C29.1163 37.3227 29.1343 37.5225 28.7888 38.1577C28.6979 38.2665 28.6979 38.2665 28.607 38.3754C28.7158 38.4663 28.9155 38.4484 29.1152 38.4305L29.3149 38.4126C29.5146 38.3947 29.6054 38.2858 29.8051 38.2679C30.0048 38.25 30.2224 38.4319 30.3312 38.5228C30.3492 38.7226 30.3671 38.9224 30.1854 39.1401C29.8219 39.5755 29.3317 39.7201 28.8235 39.665C28.3154 39.6099 27.7892 39.355 27.4628 39.0822C27.354 38.9912 27.354 38.9912 27.2452 38.9003C27.0096 38.5186 27.0646 38.0102 27.3372 37.6837C27.428 37.5748 27.5189 37.466 27.6098 37.3571C27.501 37.2662 27.3921 37.1752 27.1745 36.9934C26.8301 36.5208 26.8851 36.0123 27.3574 35.6679C27.9205 35.2146 28.7193 35.1429 29.2633 35.5976C29.6077 36.0702 29.6256 36.27 29.6256 36.27Z" fill="#C2D6BF"/>
<path d="M37.6084 39.9843C37.4996 39.8933 37.4996 39.8933 37.6084 39.9843C37.4817 39.6935 37.5725 39.5847 37.5725 39.5847C37.5725 39.5847 37.5725 39.5847 37.6634 39.4758C37.7542 39.367 37.7543 39.367 37.9539 39.3491C38.1536 39.3312 38.2624 39.4221 38.4621 39.4042C38.8794 39.5682 39.2788 39.5324 39.6602 39.2968C39.3517 39.2237 39.2429 39.1328 38.9344 39.0598C38.0998 38.7318 37.9551 38.2413 38.028 37.9327C38.1009 37.624 37.8833 37.4422 37.6657 37.2603C37.5568 37.1693 37.521 36.7698 37.6118 36.6609C37.7027 36.5521 37.8844 36.3344 37.9932 36.4253C38.7011 36.4625 39.0275 36.7354 39.1902 37.4257C39.2081 37.6254 39.2261 37.8252 39.2261 37.8252L39.3349 37.9162C39.6434 37.9892 39.7522 38.0801 39.9698 38.262C40.6047 38.6079 40.7494 39.0984 40.4039 39.7336C40.1493 40.2599 39.677 40.6043 39.1688 40.5492C38.5698 40.6029 37.9708 40.6567 37.6084 39.9843Z" fill="#C2D6BF"/>
<path d="M29.4567 41.1186C29.5476 41.0097 29.6564 41.1006 29.6564 41.1006C29.7652 41.1916 29.7652 41.1916 29.874 41.2825L29.9278 41.8819L30.1455 42.0638C30.3631 42.2456 30.4719 42.3366 30.5987 42.6273C30.7075 42.7182 30.7075 42.7182 30.9072 42.7003L30.998 42.5915C31.0889 42.4826 31.1798 42.3738 31.2886 42.4647C31.4882 42.4468 31.7788 42.3201 31.9964 42.5019C32.214 42.6838 32.3408 42.9746 32.2499 43.0834C32.2679 43.2832 32.195 43.5918 32.0132 43.8095C31.7406 44.1361 31.3592 44.3717 30.9599 44.4075C30.5605 44.4433 30.1432 44.2793 29.8168 44.0065C29.4903 43.7337 29.2548 43.352 28.9104 42.8794C28.9104 42.8794 28.9104 42.8794 28.8016 42.7885C28.566 42.4068 28.5121 41.8075 28.8756 41.3721C28.9665 41.2632 29.0573 41.1544 29.257 41.1365C29.4567 41.1186 29.4567 41.1186 29.4567 41.1186Z" fill="#C2D6BF"/>
<path d="M57.5364 41.1162L57.6453 41.2071L57.9167 41.9884C58.6616 41.3174 59.2786 41.4634 59.9135 41.8093L59.8956 41.6095C59.8597 41.2099 60.0235 40.7925 60.3869 40.3571C60.5687 40.1394 60.968 40.1035 61.1856 40.2854C61.4941 40.3585 61.5121 40.5582 61.53 40.758C61.5659 41.1576 61.7106 41.6481 61.8374 41.9389C61.8553 42.1386 61.9641 42.2296 61.9821 42.4294C62.1268 42.9199 62.0718 43.4283 61.7992 43.7548C61.5266 44.0814 61.0364 44.226 60.5282 44.1709C60.2197 44.0979 59.9113 44.0249 59.6936 43.843C59.476 43.6611 59.2763 43.679 59.0587 43.4971L58.9499 43.4062L58.859 43.515C58.7681 43.6239 58.4776 43.7507 58.3867 43.8595C58.0053 44.0951 57.606 44.1309 57.2975 44.0579C56.989 43.9849 56.6625 43.712 56.5358 43.4213C56.409 43.1306 56.2823 42.8399 56.2464 42.4403C56.0837 41.75 56.556 41.4055 57.2279 41.0432C57.4276 41.0253 57.4276 41.0253 57.5364 41.1162Z" fill="#C2D6BF"/>
<path d="M54.164 37.1895C54.3816 37.3713 54.3996 37.5711 54.3267 37.8797C54.3446 38.0795 54.2538 38.1884 54.072 38.4061C53.9812 38.5149 53.8903 38.6238 53.7994 38.7326C54.8337 39.0426 54.9425 39.1336 55.4316 40.0967C55.4316 40.0967 55.5225 39.9878 55.7221 39.9699C55.813 39.8611 55.813 39.8611 56.0127 39.8432C56.5938 39.5897 56.8114 39.7716 57.1378 40.0444C57.3734 40.426 57.4093 40.8256 57.1367 41.1521C56.8641 41.4787 56.3918 41.8231 55.9016 41.9678C55.012 42.1483 54.3951 42.0022 53.8151 41.1479C53.7063 41.057 53.6884 40.8572 53.5795 40.7663L53.3799 40.7842C53.1802 40.8021 53.0714 40.7112 52.8717 40.7291C52.4544 40.5651 52.0371 40.4011 51.8015 40.0195C51.6927 39.9285 51.7836 39.8197 51.6748 39.7288C51.5301 39.2382 51.585 38.7298 51.9485 38.2944C52.2211 37.9679 52.5116 37.8411 52.6934 37.6234L52.8751 37.4058C52.966 37.2969 53.1656 37.279 53.3653 37.2611C53.7467 37.0255 53.9464 37.0076 54.164 37.1895Z" fill="#C2D6BF"/>
<path d="M53.3715 31.722C52.8812 31.8667 52.6087 32.1932 52.4449 32.6107C52.372 32.9193 52.4078 33.3189 52.6434 33.7006C52.7522 33.7915 52.7522 33.7915 52.861 33.8825C52.7702 33.9913 52.6793 34.1002 52.5884 34.209C52.225 34.6444 52.0791 35.2617 52.4235 35.7343C52.5323 35.8252 52.5503 36.025 52.6591 36.1159C53.312 36.6616 54.1466 36.9895 54.9453 36.9179C55.0541 37.0088 55.145 36.9 55.4355 36.7732C55.4355 36.7732 55.4355 36.7732 55.5264 36.6644L55.5443 36.8641C55.689 37.3546 55.8337 37.8452 56.0693 38.2268C56.4137 38.6994 56.7581 39.172 57.393 39.5179C57.8103 39.6819 58.2276 39.8458 58.6269 39.81C58.9354 39.883 59.226 39.7563 59.5165 39.6295C59.8071 39.5028 59.88 39.1941 59.9529 38.8855C60.3523 38.8497 60.8425 38.705 61.133 38.5783C61.0422 38.6871 61.0601 38.8869 61.0781 39.0867C61.1869 39.1776 61.096 39.2865 61.2048 39.3774C61.5672 40.0498 62.0024 40.4135 62.7282 40.6505C63.454 40.8875 64.1439 40.725 64.8158 40.3626C65.1972 40.127 65.4698 39.8005 65.4339 39.4009C65.5069 39.0923 65.2713 38.7106 64.9448 38.4378C64.836 38.3468 64.6184 38.165 64.5096 38.074C64.6913 37.8563 64.7822 37.7475 64.9639 37.5298C65.1457 37.3121 65.2186 37.0035 65.2915 36.6948C65.3644 36.3862 65.2377 36.0955 65.02 35.9136C64.3672 35.368 63.7502 35.2219 63.0603 35.3845C62.5701 35.5291 62.2975 35.8557 62.4422 36.3462C62.551 36.4371 62.4601 36.546 62.6598 36.5281L63.4944 36.856L63.4035 36.9649C63.3127 37.0737 63.3127 37.0737 63.2218 37.1825C62.6766 37.8356 62.6037 38.1443 62.966 38.8167L62.8572 38.7257C62.7484 38.6348 62.7484 38.6348 62.6396 38.5438C62.5308 38.4529 62.2223 38.3799 62.1135 38.2889C62.0047 38.198 61.9138 38.3068 61.7141 38.3247C61.805 38.2159 61.9867 37.9982 62.0776 37.8894C62.441 37.454 62.496 36.9455 62.3513 36.455C62.0978 35.8736 61.8622 35.4919 61.3361 35.237C61.4449 35.328 61.5358 35.2191 61.6446 35.31C62.7338 35.1117 64.0419 33.9874 64.1339 32.7707C64.1888 32.2623 64.0441 31.7718 63.7177 31.499C63.2824 31.1352 62.8651 30.9713 62.3749 31.1159C61.9756 31.1517 61.685 31.2785 61.3036 31.5141C61.1039 31.532 60.9222 31.7497 60.8313 31.8586L60.7405 31.9674L60.6317 31.8765C60.414 31.6946 60.2144 31.7125 60.1055 31.6216C59.5794 31.3666 58.8536 31.1296 58.0908 31.6008C57.4368 32.163 57.3998 32.8712 57.4536 33.4706C57.4716 33.6703 57.4716 33.6704 57.5804 33.7613C57.6892 33.8522 57.6892 33.8522 57.798 33.9432C57.9068 34.0341 58.2153 34.1071 58.3971 33.8894C58.4879 33.7806 58.9781 33.6359 59.124 33.0187C59.2148 32.9098 59.106 32.8189 59.1969 32.71C59.2878 32.6012 59.3966 32.6921 59.5054 32.7831C59.6142 32.874 59.9227 32.947 59.9406 33.1468C60.3759 33.5106 60.884 33.5657 61.4651 33.3122C61.556 33.2033 61.7557 33.1854 61.8465 33.0766C61.9374 32.9677 62.1371 32.9498 62.2279 32.841C62.155 33.1496 61.7736 33.3852 60.7562 34.3827C60.6653 34.4916 60.6653 34.4916 60.6832 34.6914C60.792 34.7823 60.81 34.9821 60.9188 35.073C60.7012 34.8912 60.3927 34.8181 60.1751 34.6363L59.7578 34.4723L59.576 34.69L59.7578 34.4723C58.7055 33.9625 57.798 33.9432 56.9623 34.723C56.49 35.0675 56.2174 35.394 56.0536 35.8115C55.9448 35.7205 55.9448 35.7205 55.9448 35.7205C55.836 35.6296 55.7272 35.5387 55.5275 35.5566L55.4187 35.4656C55.3099 35.3747 55.1102 35.3926 55.0014 35.3017L55.0923 35.1928C55.5645 34.8484 55.6195 34.3399 55.2751 33.8673C55.1663 33.7764 55.0575 33.6855 54.9487 33.5945C54.8399 33.5036 54.8399 33.5036 54.7311 33.4126L54.6223 33.3217C54.8219 33.3038 54.8219 33.3038 55.0216 33.2859C55.1304 33.3768 55.3301 33.3589 55.4389 33.4499C55.5477 33.5408 55.7474 33.5229 55.8562 33.6138C56.0559 33.5959 56.2556 33.578 56.3464 33.4692C56.5282 33.2515 56.619 33.1426 56.6011 32.9428C56.5652 32.5433 56.4384 32.2525 56.1299 32.1795C54.878 31.6876 54.1522 31.4506 53.3715 31.722ZM59.465 36.8146C59.5738 36.9055 59.7734 36.8876 59.8823 36.9786L59.9911 37.0695C59.9911 37.0695 60.009 37.2693 59.8093 37.2872C59.7185 37.396 59.5188 37.414 59.4279 37.5228C59.6097 37.3051 59.5917 37.1053 59.465 36.8146ZM58.9915 38.2668L59.1183 38.5576C58.6101 38.5024 58.1928 38.3385 57.8664 38.0656C57.4311 37.7019 57.0868 37.2293 57.1238 36.5211C57.0879 36.1215 57.2696 35.9038 57.4514 35.6861L58.3219 36.4136C58.3219 36.4136 58.231 36.5225 58.1222 36.4315C57.9225 36.4495 57.8316 36.5583 57.6499 36.776C57.4682 36.9937 57.5041 37.3933 57.6308 37.684C57.7396 37.7749 57.8484 37.8659 57.9573 37.9568C58.2837 38.2296 58.6831 38.1938 58.9915 38.2668C58.9915 38.2668 58.8827 38.1759 58.9915 38.2668Z" fill="#C2D6BF"/>
<path d="M33.743 38.4178C33.9426 38.3999 33.9426 38.3998 33.9426 38.3998L34.0514 38.4908C34.1602 38.5817 34.251 38.4729 34.3598 38.5638C34.4686 38.6547 34.5774 38.7456 34.6862 38.8365C34.7949 38.9274 34.8129 39.1272 34.722 39.236C34.6492 39.5445 34.3766 39.871 33.9774 39.9068C33.6869 40.0335 33.3785 39.9605 33.1609 39.7787C33.0522 39.6878 33.0522 39.6878 32.9434 39.5968C32.8346 39.5059 32.8167 39.3062 32.7987 39.1065C32.7628 38.707 32.9445 38.4894 33.3438 38.4536C33.6522 38.5266 33.743 38.4178 33.743 38.4178Z" fill="#C2D6BF"/>
</g>
</svg>
