<svg width="362" height="339" viewBox="0 0 362 339" fill="none" xmlns="http://www.w3.org/2000/svg">
<path d="M327.147 22.4324C322.324 20.3412 316.38 21.1133 312.251 24.3687C308.122 27.6234 305.981 33.2219 306.888 38.4016C307.652 42.7624 310.433 46.6427 314.085 49.1449C317.736 51.6471 322.195 52.833 326.62 52.9365C338.21 53.2092 349.72 45.4131 353.164 34.3432C354.443 30.231 354.627 25.6293 352.822 21.7196C350.737 17.2003 345.962 14.0557 340.986 13.924C336.011 13.7935 331.076 16.6822 328.756 21.0855" fill="#BED1B7" fill-opacity="0.5"/>
<path d="M327.163 22.3976C325.422 20.7428 322.418 20.6537 320.582 22.2039C322.171 22.6932 323.76 23.1805 325.348 23.6685C324.007 24.7969 323.356 26.689 323.718 28.4045C323.805 28.8157 324.065 29.301 324.484 29.2628C324.762 29.2377 324.957 28.986 325.114 28.7564C325.912 27.5992 326.71 26.4399 327.507 25.2827C328.905 26.9569 330.721 28.2808 332.742 29.0992C332.453 27.0191 331.744 24.9978 330.67 23.1917C332.221 22.9456 333.77 22.7002 335.321 22.4553C334.37 21.6029 333.158 21.0447 331.89 20.8784C332.826 19.9821 333.596 18.914 334.15 17.7439C334.317 17.3912 334.431 16.894 334.109 16.6733C333.862 16.5035 333.525 16.6296 333.259 16.7678C330.738 18.0702 328.628 20.1534 327.293 22.6569" fill="#97AE8E" fill-opacity="0.5"/>
<path d="M327.799 23.9006C326.009 19.8961 323.256 16.3255 319.84 13.5723C320.577 12.8234 321.554 12.0073 322.555 12.3312C323.134 12.5182 323.526 13.0453 323.863 13.5514C326.133 16.9616 327.701 20.8359 328.442 24.8637" fill="#97AE8E" fill-opacity="0.5"/>
<path d="M318.726 48.3589C318.719 48.3854 318.384 48.332 317.795 48.1584C317.206 47.9867 316.373 47.6615 315.41 47.1226C313.497 46.0712 311.074 43.9562 309.707 40.8274C308.348 37.6939 308.454 34.4787 308.988 32.3624C309.25 31.2916 309.581 30.4599 309.855 29.9115C310.129 29.3619 310.319 29.0804 310.343 29.0938C310.431 29.1323 309.743 30.3192 309.314 32.4342C308.874 34.5201 308.832 37.6229 310.14 40.6392C311.456 43.6509 313.754 45.736 315.58 46.8358C317.421 47.9635 318.758 48.2686 318.726 48.3589Z" fill="white" fill-opacity="0.5"/>
<path d="M324.125 48.7531C324.153 48.8759 323.502 49.1237 322.661 49.0828C321.819 49.0459 321.193 48.7402 321.233 48.6208C321.272 48.4918 321.908 48.5785 322.683 48.6113C323.456 48.6501 324.098 48.6224 324.125 48.7531Z" fill="white" fill-opacity="0.5"/>
<path d="M24.7998 230.613C7.21194 230.069 -10.5048 234.619 -25.6558 243.568C-20.4584 250.95 -13.6547 257.192 -5.84867 261.734" fill="#CEDFC7"/>
<path d="M57.6689 276.362C55.9451 285.677 51.7758 294.525 45.6936 301.784C44.4594 303.259 43.0391 304.734 41.1778 305.223C38.9757 305.802 36.599 304.828 34.9239 303.285C33.2487 301.741 32.1433 299.694 31.0695 297.686" fill="#CEDFC7"/>
<path d="M-8.80464 292.849L-0.122438 298.871C7.37717 310.786 6.20883 327.501 -2.87718 338.256C-12.6504 330.267 -17.2063 316.416 -14.0851 304.183C-27.1858 308.461 -42.8407 302.883 -50.2831 291.286C-37.317 285.026 -21.2668 285.63 -8.80464 292.849Z" fill="#CEDFC7"/>
<path d="M59.4411 229.428C59.4411 229.428 18.4352 220.012 -4.30987 244.636C-27.0578 269.26 -7.35098 298.307 -7.35098 298.307C-7.35098 298.307 22.4556 309.575 46.1543 291.254C69.8529 272.933 59.4411 229.428 59.4411 229.428Z" fill="#CEDFC7"/>
<path d="M29.341 235.25C29.2694 235.261 29.2866 235.866 29.4584 236.945C29.6302 238.022 30.0025 239.568 30.6868 241.407C32.0241 245.066 34.8962 249.92 39.6469 253.68C44.4003 257.437 49.7866 259.115 53.6553 259.573C55.6025 259.816 57.1918 259.822 58.28 259.739C59.3681 259.659 59.9609 259.536 59.958 259.464C59.9523 259.261 57.544 259.438 53.7813 258.763C50.0472 258.113 44.9215 256.374 40.3656 252.772C35.8126 249.17 32.9405 244.585 31.4457 241.097C29.9223 237.592 29.5414 235.21 29.341 235.25Z" fill="#BAD0B1"/>
<path d="M38.1054 237.142C39.228 235.447 41.9655 235.157 43.4145 236.586C44.8634 238.012 44.6143 240.759 42.9305 241.898C41.2467 243.038 38.6037 242.25 37.822 240.372C37.0402 238.496 38.3488 236.062 40.3447 235.679" fill="white"/>
<path d="M58.038 275.35C57.9922 275.327 57.7259 275.763 57.2048 276.582C56.6836 277.401 55.8933 278.6 54.8109 280.115C52.6174 283.105 49.5133 287.643 44.1384 291.741C33.6951 300.492 13.0919 303.444 -7.81763 297.588L-7.31367 298.041C-10.412 290.899 -13.4245 283.053 -14.3981 274.617C-15.1283 267.856 -14.5069 260.806 -11.2883 255.283C-8.12978 249.659 -3.59108 245.12 1.07649 241.426C5.78988 237.752 10.7954 234.908 15.7693 232.984C18.1919 231.853 20.7175 231.269 23.0656 230.476C25.4595 229.849 27.8048 229.41 30.024 228.932C48.1646 226.301 59.424 230.086 59.4383 229.428C59.4498 229.37 58.7625 229.199 57.4396 228.921C55.9334 228.626 54.0062 228.251 51.6237 227.787C46.5323 227.277 39.0213 226.324 29.8379 227.747C27.5728 228.193 25.1761 228.603 22.7277 229.21C20.3224 229.983 17.7394 230.553 15.2482 231.678C10.1453 233.588 4.99099 236.452 0.12011 240.192C-4.7021 243.96 -9.39263 248.579 -12.7372 254.475C-16.2164 260.463 -16.8235 267.773 -16.079 274.806C-15.0681 283.543 -11.9698 291.515 -8.81421 298.708L-8.65665 299.063L-8.30736 299.161C2.47101 302.141 12.9917 302.76 22.2667 301.572C26.9056 300.965 31.178 299.779 35.0266 298.327C38.8523 296.781 42.1053 294.728 44.7942 292.572C50.2234 288.245 53.2359 283.523 55.2862 280.436C56.3027 278.861 57.0214 277.604 57.4653 276.73C57.9034 275.851 58.081 275.37 58.038 275.35Z" fill="#BAD0B1"/>
<path d="M17.4279 261.488C17.342 261.411 16.629 261.995 15.3433 263.077C14.0661 264.166 12.2335 265.763 10.06 267.854C8.97477 268.899 7.80357 270.07 6.6152 271.41C6.01958 272.078 5.41536 272.788 4.84838 273.587C4.28713 274.391 3.67722 275.193 3.4195 276.505C3.27346 278.956 4.56777 281.012 6.20858 282.635C7.90093 284.251 10.02 285.301 12.0903 286.272C14.1263 287.203 16.503 288.374 19.0945 287.607C20.3459 287.217 21.331 286.286 21.9495 285.324C22.5823 284.354 22.966 283.343 23.2982 282.383C24.4149 278.715 25.4458 275.328 26.3736 272.281C28.066 266.519 29.0024 262.926 28.7762 262.857C28.55 262.788 27.2127 266.256 25.2311 271.914C24.2031 274.913 23.0605 278.251 21.8264 281.862C21.1849 283.646 20.2772 285.531 18.5934 286.026C16.9125 286.559 14.825 285.702 12.8177 284.74C10.7588 283.781 8.81441 282.802 7.35686 281.433C5.93082 280.121 4.88851 278.229 4.97728 276.676C5.27795 275.259 6.66386 273.618 7.68614 272.33C8.79147 270.992 9.89686 269.79 10.9163 268.702C15.0312 264.375 17.6456 261.694 17.4279 261.488Z" fill="#BAD0B1"/>
<path d="M0.255445 313.584C0.69643 313.586 0.828133 309.683 -1.17921 305.425C-3.15505 301.153 -6.23338 298.75 -6.514 299.088C-6.86908 299.438 -4.53524 302.19 -2.71689 306.144C-0.852729 310.076 -0.239947 313.632 0.255445 313.584Z" fill="#BAD0B1"/>
<path d="M-8.34716 284.73C-8.07513 284.638 -8.72795 282.494 -9.09162 278.966C-9.46675 275.449 -9.33793 270.504 -7.85176 265.321C-6.33981 260.144 -3.80839 255.891 -1.61206 253.119C0.575686 250.33 2.2737 248.864 2.09329 248.644C1.99021 248.498 -0.00849724 249.643 -2.52841 252.343C-5.04833 255.018 -7.89759 259.408 -9.484 264.851C-11.0475 270.298 -10.9845 275.532 -10.2829 279.138C-9.58992 282.76 -8.51325 284.799 -8.34716 284.73Z" fill="white"/>
<path d="M11.6973 241.998C12.0523 242.302 12.7023 242.13 13.1462 241.609C13.59 241.088 13.6616 240.42 13.3065 240.117C12.9514 239.81 12.3015 239.985 11.8576 240.506C11.4138 241.025 11.3422 241.692 11.6973 241.998Z" fill="white"/>
</svg>
