<svg width="72" height="112" viewBox="0 0 72 112" fill="none" xmlns="http://www.w3.org/2000/svg">
<path d="M35.0859 4.32861C17.4981 3.78454 -0.218658 8.33472 -15.3697 17.2833C-10.1723 24.6655 -3.36858 30.908 4.43744 35.4496" fill="#CEDFC7"/>
<path d="M67.9551 50.077C66.2312 59.3921 62.0619 68.2404 55.9797 75.4995C54.7455 76.9742 53.3252 78.449 51.4639 78.9387C49.2619 79.5171 46.8852 78.5435 45.21 77C43.5348 75.4566 42.4295 73.4091 41.3556 71.4018" fill="#CEDFC7"/>
<path d="M1.4766 66.5648L10.1588 72.5868C17.6584 84.502 16.4901 101.217 7.40407 111.972C-2.3692 103.983 -6.9251 90.1317 -3.80384 77.8987C-16.9045 82.1768 -32.5595 76.5986 -40.0018 65.0013C-27.0357 58.7416 -10.9855 59.3458 1.4766 66.5648Z" fill="#CEDFC7"/>
<path d="M69.7224 3.14351C69.7224 3.14351 28.7165 -6.27185 5.97134 18.3517C-16.7766 42.9753 2.93023 72.0231 2.93023 72.0231C2.93023 72.0231 32.7368 83.2911 56.4355 64.9702C80.1342 46.6493 69.7224 3.14351 69.7224 3.14351Z" fill="#CEDFC7"/>
<path d="M39.6242 8.96555C39.5526 8.977 39.5698 9.58124 39.7416 10.6608C39.9134 11.7375 40.2856 13.2838 40.97 15.1222C42.3073 18.7818 45.1794 23.6355 49.93 27.3953C54.6835 31.1523 60.0698 32.8303 63.9385 33.2885C65.8857 33.5319 67.475 33.5376 68.5632 33.4546C69.6513 33.3744 70.2441 33.2513 70.2412 33.1797C70.2355 32.9764 67.8272 33.1539 64.0645 32.4781C60.3304 31.8281 55.2047 30.0899 50.6488 26.4876C46.0958 22.8852 43.2237 18.3007 41.7289 14.8129C40.2055 11.3079 39.8246 8.92546 39.6242 8.96555Z" fill="#BAD0B1"/>
<path d="M48.3926 10.8574C49.5151 9.16221 52.2526 8.87303 53.7016 10.3019C55.1505 11.728 54.9014 14.4741 53.2176 15.6138C51.5339 16.7535 48.8908 15.966 48.1091 14.0875C47.3273 12.2119 48.6359 9.77791 50.6318 9.39419" fill="white"/>
<path d="M68.3212 49.0658C68.2754 49.0428 68.0091 49.4781 67.488 50.2971C66.9668 51.1161 66.1765 52.3159 65.0941 53.8307C62.9006 56.8202 59.7965 61.3589 54.4216 65.4567C43.9782 74.2076 23.3751 77.16 2.46554 71.304L2.96951 71.7565C-0.128845 64.6148 -3.14129 56.7687 -4.11489 48.3327C-4.84509 41.5719 -4.22371 34.5218 -1.00509 28.9981C2.1534 23.3741 6.69209 18.8353 11.3597 15.1414C16.0731 11.4674 21.0786 8.62394 26.0525 6.69964C28.4751 5.56854 31.0007 4.98441 33.3488 4.1912C35.7427 3.56409 38.088 3.12596 40.3072 2.64775C58.4478 0.0161557 69.7072 3.80177 69.7215 3.14316C69.733 3.08589 69.0457 2.91407 67.7228 2.6363C66.2166 2.34136 64.2894 1.9662 61.9069 1.50231C56.8155 0.992597 49.3045 0.0390598 40.1211 1.46224C37.856 1.90895 35.4592 2.31844 33.0109 2.92552C30.6055 3.69867 28.0226 4.26852 25.5313 5.39389C20.4285 7.30387 15.2742 10.1674 10.4033 13.9072C5.58108 17.6756 0.890541 22.2945 -2.45408 28.1905C-5.93328 34.1782 -6.54033 41.4889 -5.79581 48.5217C-4.78498 57.2584 -1.68666 65.2304 1.46896 72.4237L1.62652 72.7788L1.97581 72.8761C12.7542 75.8571 23.2748 76.4756 32.5499 75.2872C37.1888 74.6801 41.4612 73.4946 45.3098 72.0428C49.1355 70.4965 52.3885 68.4434 55.0773 66.2871C60.5066 61.9603 63.5191 57.2383 65.5694 54.1514C66.5859 52.5765 67.3046 51.3194 67.7485 50.446C68.1866 49.5669 68.3642 49.0858 68.3212 49.0658Z" fill="#BAD0B1"/>
<path d="M27.7141 35.2039C27.6281 35.1266 26.9151 35.7107 25.6294 36.7931C24.3523 37.8813 22.5196 39.4791 20.3462 41.5695C19.2609 42.6147 18.0897 43.7859 16.9013 45.1261C16.3057 45.7933 15.7015 46.5034 15.1345 47.3023C14.5732 48.107 13.9633 48.9088 13.7056 50.2203C13.5596 52.6715 14.8539 54.7275 16.4947 56.3511C18.1871 57.9662 20.3061 59.0171 22.3765 59.9879C24.4124 60.9185 26.7891 62.0897 29.3806 61.3222C30.632 60.9328 31.6171 60.0021 32.2356 59.04C32.8685 58.0693 33.2521 57.0584 33.5843 56.0992C34.7011 52.431 35.732 49.0434 36.6597 45.9966C38.3521 40.2351 39.2885 36.6414 39.0623 36.5727C38.8361 36.5039 37.4988 39.9717 35.5172 45.63C34.4892 48.6282 33.3467 51.967 32.1125 55.578C31.4711 57.362 30.5633 59.2462 28.8796 59.7416C27.1987 60.2742 25.1111 59.418 23.1038 58.4558C21.0449 57.4966 19.1005 56.5172 17.643 55.1485C16.2169 53.837 15.1746 51.9442 15.2634 50.3921C15.5641 48.9747 16.95 47.3339 17.9723 46.0453C19.0776 44.708 20.183 43.5053 21.2024 42.4172C25.3173 38.0903 27.9317 35.4101 27.7141 35.2039Z" fill="#BAD0B1"/>
<path d="M1.79324 93.4934C2.20845 93.648 4.00392 89.4816 4.45063 83.9635C4.92598 78.4455 3.84927 74.0385 3.41115 74.1215C2.92435 74.1902 3.2193 78.5314 2.75827 83.8203C2.33447 89.1122 1.32076 93.3445 1.79324 93.4934Z" fill="#BAD0B1"/>
<path d="M10.5367 87.2991C10.9777 87.3019 11.1094 83.3989 9.10204 79.1409C7.1262 74.8685 4.04787 72.4659 3.76724 72.8038C3.41216 73.1532 5.74601 75.905 7.56435 79.8596C9.42852 83.7912 10.0413 87.3478 10.5367 87.2991Z" fill="#BAD0B1"/>
<path d="M-18.0629 68.8217C-18.0228 69.3171 -13.192 69.2111 -7.37042 70.1275C-1.54025 71.0037 3.03562 72.5557 3.22175 72.0947C3.41074 71.6967 -1.04487 69.3658 -7.11272 68.4494C-13.172 67.4987 -18.1259 68.3835 -18.0629 68.8217Z" fill="#BAD0B1"/>
<path d="M1.93799 58.4456C2.21002 58.3539 1.5572 56.2091 1.19353 52.6812C0.818402 49.1648 0.947214 44.2195 2.43339 39.0365C3.94534 33.8592 6.47676 29.6068 8.6731 26.8349C10.8608 24.0458 12.5589 22.5797 12.3784 22.3592C12.2754 22.2132 10.2767 23.3586 7.75674 26.0589C5.23682 28.7335 2.38756 33.1233 0.801153 38.5669C-0.762341 44.0133 -0.699319 49.2479 0.00224876 52.8531C0.695226 56.4754 1.7719 58.5143 1.93799 58.4456Z" fill="white"/>
<path d="M21.9824 15.7135C22.3375 16.0171 22.9875 15.8453 23.4313 15.3241C23.8752 14.8029 23.9468 14.1357 23.5917 13.8322C23.2366 13.5258 22.5866 13.7004 22.1428 14.2216C21.6989 14.7399 21.6273 15.4072 21.9824 15.7135Z" fill="white"/>
</svg>
