<svg width="214" height="302" viewBox="0 0 214 302" fill="none" xmlns="http://www.w3.org/2000/svg">
<g opacity="0.15" clip-path="url(#clip0_153_1214)">
<path d="M142.794 240.452C143.838 244.227 144.287 248.133 143.942 252.101C143.526 257.261 141.328 261.488 137.348 264.782C136.917 265.079 136.486 265.375 136.12 265.804C133.135 268.109 129.857 269.322 126.119 269.607C122.38 269.892 118.645 269.515 114.977 268.61C113.655 268.274 112.301 267.707 111.047 267.174C108.636 266.14 106.558 264.777 104.413 263.28C103.259 262.45 102.171 261.42 101.515 260.095C101.218 259.664 101.154 259.2 101.42 258.738C101.454 258.639 101.586 258.573 101.521 258.441C101.161 257.215 101.991 256.391 102.688 255.633C104.448 253.687 106.109 251.708 107.968 249.795C110.789 246.993 113.676 244.323 116.464 241.62C120.181 238.126 123.864 234.731 127.581 231.237C128.909 229.918 130.5 228.799 131.959 227.745C133.286 226.757 134.179 226.727 135.663 227.89C136.389 228.356 136.915 229.085 137.475 229.716C139.745 233.131 141.65 236.644 142.794 240.452ZM133.372 230.43C132.808 230.792 132.476 231.121 132.177 231.683C132.406 232.312 132.768 232.876 132.898 233.471C133.615 236.253 134.134 238.967 134.389 241.813C134.483 243.17 134.016 244.227 132.625 244.752C132.625 244.752 132.558 244.95 132.426 245.016C132.888 245.282 133.383 245.449 133.845 245.715C134.769 246.248 135.594 246.747 136.187 247.609C136.812 248.372 137.04 249.332 136.706 250.323C136.505 250.918 136.338 251.414 136.038 251.975C135.304 253.825 133.976 255.144 132.154 255.965C130.995 256.457 129.704 256.684 128.416 256.25C128.218 256.183 127.921 256.083 127.524 255.949C127.654 256.545 127.818 257.042 127.882 257.505C127.913 258.068 128.044 258.663 128.075 259.226C127.904 260.714 127.173 261.572 125.751 261.534C123.866 261.56 121.949 261.355 120.065 261.051C118.709 260.815 117.886 259.985 117.394 258.826C117.262 258.561 117.131 258.295 117.067 257.832C116.767 258.393 116.501 258.856 116.268 259.219C115.735 260.143 115.039 260.571 113.948 260.534C112.56 260.397 111.105 260.127 109.718 259.66C108.331 259.192 107.143 258.46 106.221 257.266C105.925 256.835 105.496 256.469 105.101 256.005C104.504 256.466 104.006 256.96 103.508 257.455C103.309 257.719 103.044 257.85 102.845 258.114C105.649 259.943 108.72 261.31 111.528 262.147C112.949 262.516 114.336 262.984 115.658 263.319C116.748 263.686 117.772 263.922 118.996 263.893C120.087 263.929 121.277 264 122.303 263.904C123.891 263.777 125.545 263.783 127.035 263.292C129.684 262.308 132.037 260.894 134.259 259.214C135.752 258.061 136.915 256.577 137.451 254.66C138.122 252.015 138.529 249.172 138.142 246.391C137.692 242.817 136.878 239.341 135.832 235.896C135.734 235.532 135.603 235.267 135.472 235.002C135.177 234.24 134.749 233.544 134.421 232.881C134.027 232.086 133.732 231.324 133.372 230.43ZM126.32 259.849C126.753 258.891 126.624 257.964 126.396 257.004C126.071 255.349 125.349 253.89 124.627 252.432C123.773 250.709 122.688 249.018 121.868 247.196C121.342 246.136 120.851 244.976 120.458 243.85C120.426 243.618 120.427 243.287 120.593 243.123C120.891 242.892 121.155 243.091 121.419 243.291C122.276 244.021 122.736 244.949 123.195 245.877C124.476 248.297 125.658 250.683 127.204 252.971C127.435 253.269 127.665 253.568 127.896 253.866C128.587 254.762 129.38 255.029 130.472 254.735C131.101 254.506 131.731 254.276 132.261 254.013C133.785 253.092 134.485 251.672 135.119 250.119C135.32 249.525 135.255 249.061 134.827 248.696C134.102 247.899 133.211 247.268 132.254 246.834C128.919 245.268 125.684 243.735 122.182 242.665C121.686 242.498 121.191 242.331 120.696 242.163C120.033 242.492 119.634 243.02 119.697 243.814C119.762 244.278 119.595 244.773 119.56 245.203C119.284 248.312 118.909 251.387 118.633 254.496C118.597 255.257 118.528 256.117 118.492 256.878C118.551 258.995 119.275 259.791 121.292 260.03C122.35 260.166 123.441 260.203 124.499 260.339C125.061 260.307 125.657 260.177 126.32 259.849ZM109.805 263.001C109.772 263.1 109.738 263.199 109.606 263.265C111.553 264.363 113.5 265.462 115.648 265.965C119.118 266.804 122.721 267.247 126.294 266.796C127.783 266.635 129.206 266.343 130.631 265.719C133.214 264.603 135.369 263.122 137.361 261.143C139.983 258.605 141.714 255.435 142.191 251.731C142.808 245.646 141.605 240.051 138.515 234.814C138.384 234.549 138.219 234.383 137.923 233.952C137.888 234.382 137.954 234.514 137.921 234.613C138.705 237.196 139.026 239.844 139.579 242.46C140.165 244.976 140.189 247.523 139.65 250.102C139.28 251.854 139.009 253.639 138.276 255.159C137.208 257.669 135.514 259.748 133.062 261.129C132.233 261.622 131.503 262.149 130.576 262.609C128.819 263.562 127.097 264.417 125.111 264.741C123.258 264.999 121.472 265.059 119.686 265.119C117.801 265.146 116.115 264.908 114.331 264.307C112.944 263.839 111.424 263.437 109.805 263.001ZM114.385 258.584C114.651 258.122 114.884 257.758 115.15 257.296C115.617 256.239 116.051 255.281 116.319 254.157C117.124 251.117 117.796 248.141 118.171 245.066C118.238 244.868 118.24 244.537 118.175 244.074C116.584 245.193 115.388 246.446 114.028 247.533C112.635 248.719 111.341 249.939 109.948 251.125C108.653 252.345 107.293 253.432 106.197 254.718C108.14 257.14 109.988 258.205 114.385 258.584ZM121.857 241.01C122.353 241.177 122.783 241.211 123.245 241.477C125.423 242.544 127.737 242.882 130.118 243.023C130.647 243.091 131.209 243.06 131.738 243.127C132.4 243.13 132.599 242.866 132.601 242.204C132.637 241.443 132.54 240.748 132.477 239.954C132.253 238.002 131.929 236.015 131.341 234.161C131.243 233.797 131.013 233.498 130.881 233.233C129.556 233.89 122.787 239.888 121.857 241.01Z" fill="#85B472"/>
<path d="M105.58 278.8C105.381 279.064 105.048 279.724 104.682 280.153C103.653 281.241 102.528 281.303 101.441 280.274C101.012 279.909 100.551 279.312 100.289 278.782C99.5652 277.654 99.1725 276.528 99.0782 275.171C98.9195 273.351 98.9589 271.598 98.9327 269.712C98.9674 269.282 99.002 268.853 99.2348 268.489C99.568 267.829 100.429 267.567 101.155 268.033C101.419 268.232 101.649 268.531 101.814 268.697C102.833 270.255 103.886 271.714 105.005 273.306C105.498 274.135 105.859 275.029 106.087 275.989C106.017 276.849 105.849 277.676 105.58 278.8ZM100.78 271.108C100.806 272.994 100.768 274.416 101.06 275.84C101.222 276.667 101.616 277.463 101.911 278.225C102.075 278.721 102.371 279.153 102.965 279.353C103.098 279.287 103.197 279.321 103.231 279.222C103.397 279.057 103.562 278.892 103.596 278.793C104.328 277.604 104.432 276.315 103.676 274.956C102.986 273.729 102.098 272.436 100.78 271.108Z" fill="#85B472"/>
<path d="M84.8865 276.017C85.2877 274.827 85.9862 273.738 86.8495 272.814C88.7753 270.704 90.9973 269.024 93.7457 268.074C93.9773 268.042 94.1433 267.877 94.3749 267.845C95.5999 267.485 95.9951 267.949 95.7264 269.073C95.5927 269.47 95.5915 269.801 95.3586 270.164C94.3927 272.046 93.6584 273.896 92.4942 275.712C91.6298 276.966 90.6997 278.088 89.5057 279.01C88.6437 279.602 87.716 280.062 86.7239 280.059C85.4667 280.187 84.7085 279.49 84.5808 278.232C84.4841 277.537 84.5857 276.909 84.8865 276.017ZM93.1749 270.421C92.6783 270.585 92.5792 270.551 92.4466 270.617C90.9554 271.439 89.5955 272.526 88.3347 273.647C87.6374 274.405 87.0058 275.296 86.3742 276.187C85.9754 276.715 85.7748 277.31 85.8715 278.005C85.9025 278.567 86.232 278.899 86.7943 278.868C87.6874 278.838 88.35 278.51 88.9804 277.949C89.6443 277.29 90.3416 276.532 90.8072 275.805C91.772 274.254 92.3738 272.469 93.1749 270.421Z" fill="#85B472"/>
<path d="M88.8701 263.227C88.1096 263.191 87.7454 263.289 87.3156 263.255C86.2913 263.02 85.1666 263.082 84.1076 263.277C83.7768 263.276 83.3136 263.341 82.9829 263.339C82.7847 263.273 82.5208 263.073 82.4886 262.841C82.4564 262.61 82.5567 262.312 82.7226 262.148C82.8886 261.983 83.2862 261.786 83.5178 261.753C84.6103 261.459 85.7015 261.496 86.825 261.765C87.6846 261.834 88.3448 262.167 88.8701 263.227Z" fill="#85B472"/>
<path d="M128.37 250.162C128.305 250.03 128.272 249.798 128.306 249.699C128.373 249.501 128.638 249.369 128.737 249.403C129.53 249.67 129.891 250.234 130.186 250.995C130.252 251.128 130.151 251.425 129.986 251.59C129.786 251.854 129.489 251.754 129.291 251.687C128.73 251.387 128.599 250.791 128.37 250.162Z" fill="#85B472"/>
<path d="M125.247 245.355C125.346 245.388 125.578 245.356 125.677 245.389C126.139 245.655 126.568 246.021 126.897 246.353C126.996 246.386 126.995 246.717 126.962 246.816C126.928 246.915 126.762 247.08 126.564 247.013C125.903 247.011 125.375 246.612 124.98 246.148C124.716 245.948 124.883 245.453 125.247 245.355Z" fill="#85B472"/>
<path d="M121.046 254.868C121.806 255.235 121.902 255.93 121.767 256.657C121.734 256.756 121.568 256.921 121.435 256.987C121.303 257.052 121.105 256.985 121.006 256.952C120.511 256.454 120.448 255.66 121.046 254.868Z" fill="#85B472"/>
<path d="M122.705 253.22C123.331 253.983 123.824 254.812 124.018 255.871C123.787 255.903 123.555 255.936 123.489 255.803C122.864 255.04 122.635 254.411 122.705 253.22Z" fill="#85B472"/>
<path d="M132.084 248.323C131.951 248.389 131.884 248.587 131.653 248.619C131.288 248.717 130.925 248.484 130.926 248.153C130.96 248.054 131.159 247.79 131.292 247.724C131.656 247.626 132.019 247.859 132.084 248.323Z" fill="#85B472"/>
<path d="M114.243 252.132C114.439 252.861 113.872 254.215 113.11 254.51C112.845 254.642 112.449 254.508 112.284 254.342C111.987 254.242 111.889 253.877 111.989 253.58C112.256 252.787 112.788 252.193 113.484 251.766C113.65 251.601 114.112 251.867 114.243 252.132Z" fill="#85B472"/>
<path d="M116.871 247.94C116.934 248.734 116.799 249.462 116.202 249.923C116.07 249.989 115.838 250.021 115.64 249.954C115.442 249.887 115.277 249.721 115.245 249.489C115.115 248.894 115.581 247.837 116.177 247.706C116.409 247.674 116.673 247.873 116.871 247.94Z" fill="#85B472"/>
<path d="M109.471 255.16C109.306 254.994 109.108 254.927 109.042 254.794C108.845 254.397 108.979 254 109.212 253.637C109.378 253.472 109.544 253.307 109.742 253.374C109.841 253.408 109.972 253.673 110.038 253.805C110.037 254.136 109.936 254.433 109.836 254.731C109.868 254.963 109.637 254.995 109.471 255.16Z" fill="#85B472"/>
<path d="M127.151 240.697C126.521 240.926 125.86 240.924 125.299 240.624C125.101 240.557 124.969 240.292 124.838 240.027C124.806 239.796 125.171 239.367 125.468 239.467C126.096 239.568 126.758 239.571 127.352 239.771C127.551 239.838 127.715 240.004 127.748 240.236C127.813 240.368 127.515 240.599 127.481 240.698C127.317 240.532 127.184 240.598 127.151 240.697Z" fill="#85B472"/>
<path d="M129.607 237.662C129.376 237.694 129.011 237.792 128.813 237.725C128.615 237.658 128.45 237.492 128.385 237.36C128.319 237.227 128.419 236.93 128.552 236.864C129.05 236.369 129.678 236.471 130.339 236.473C130.438 236.507 130.603 236.673 130.669 236.805C130.734 236.938 130.568 237.102 130.535 237.202C130.236 237.432 129.872 237.53 129.607 237.662Z" fill="#85B472"/>
<path d="M200.514 147.193C199.642 150.432 198.638 153.737 196.841 156.774C194.079 161.363 191.186 165.687 187.534 169.644C185.475 171.821 183.351 173.865 180.898 175.577C176.19 178.736 170.894 180.042 165.305 179.923C163.222 179.883 161.139 179.512 159.057 179.141C155.917 178.634 152.811 178.028 149.671 177.521C147.159 177.115 144.647 176.71 142.002 176.37C140.548 176.1 139.224 176.427 138.095 177.482C137.432 178.141 136.571 178.403 135.644 178.532C134.056 178.659 132.566 179.15 131.11 179.542C129.786 179.868 128.66 180.261 127.401 180.72C127.037 180.818 126.673 180.916 126.342 180.915C125.78 180.946 125.353 180.25 125.652 179.689C125.852 179.425 126.051 179.161 126.35 178.93C126.814 178.535 127.344 178.272 127.809 177.876C129.93 176.494 131.623 174.747 132.822 172.501C133.721 170.817 134.719 169.166 135.618 167.482C138.548 162.067 141.907 157.017 145.728 152.233C148.585 148.67 151.904 145.373 155.75 142.806C159.463 140.304 163.505 138.465 167.972 137.653C170.09 137.264 172.207 137.205 174.291 137.245C177.465 137.322 180.642 136.737 183.622 135.755C184.119 135.591 184.715 135.461 185.245 135.198C188.159 134.083 191.102 134.193 193.977 134.831C195.398 135.2 196.653 135.733 197.807 136.564C199.424 137.662 200.443 139.22 200.668 141.172C200.991 143.159 200.885 145.11 200.514 147.193ZM132.769 177.893C133.563 177.83 134.391 177.667 135.185 177.604C136.21 177.508 137.071 177.246 137.967 176.555C138.929 175.665 140.154 175.305 141.477 175.31C142.899 175.348 144.321 175.386 145.709 175.523C149.742 176 153.742 176.576 157.742 177.152C159.956 177.457 162.171 177.762 164.42 177.638C169.547 177.49 174.282 175.885 178.394 172.855C180.583 171.275 182.507 169.495 184.4 167.483C187.72 163.856 190.81 159.929 193.702 155.936C195.397 153.527 196.796 151.018 197.765 148.143C198.367 146.359 198.87 144.541 198.976 142.589C199.085 139.976 197.934 138.153 195.656 137.053C195.359 136.953 195.095 136.754 194.797 136.653C191.89 135.783 188.981 135.575 186.001 136.557C184.875 136.95 183.65 137.31 182.492 137.471C179.613 137.825 176.834 138.213 173.891 138.104C172.898 138.1 171.873 138.196 170.847 138.292C167.076 138.676 163.598 140.153 160.416 142.061C156.803 144.265 153.883 147.034 151.126 150.299C148.037 153.895 145.212 157.69 142.651 161.684C140.788 164.589 139.189 167.693 137.492 170.764C136.027 173.472 134.794 175.816 132.769 177.893Z" fill="#85B472"/>
<path d="M168.781 106.46C167.941 109.931 166.903 113.335 165.206 116.405C163.707 119.212 161.649 121.389 159.063 123.166C157.936 123.89 156.842 124.515 155.649 125.106C154.059 125.895 152.369 126.65 150.746 127.538C149.95 127.932 149.254 128.36 148.459 128.754C145.941 130.003 143.917 131.749 142.354 134.092C141.324 135.511 140.327 136.831 139.297 138.25C138.898 138.778 138.466 139.405 138.43 140.166C138.462 140.398 138.296 140.563 138.229 140.761C137.963 141.223 137.235 141.419 136.806 141.054C136.542 140.854 136.312 140.556 136.081 140.257C135.819 139.727 135.556 139.197 135.426 138.601C134.249 134.892 133.965 131.153 134.475 127.35C134.646 125.862 135.114 124.474 135.78 123.153C136.48 121.733 137.08 120.279 137.681 118.826C138.949 115.72 139.622 112.414 139.965 109.107C140.308 105.8 140.452 102.426 140.993 99.1862C141.804 94.4913 143.21 89.9969 145.507 85.8033C146.006 84.978 146.538 84.0535 147.137 83.2616C148.167 81.8426 149.593 80.888 151.314 80.3646C154.128 79.5472 157.006 79.5239 159.847 80.2614C161.763 80.7973 163.38 81.8945 164.598 83.5197C166.638 86.3055 168.148 89.3542 168.863 92.7972C169.448 95.6443 169.57 98.5559 169.295 101.334C169.289 102.988 169.018 104.773 168.781 106.46ZM138.635 138.248C140.232 135.806 141.728 133.66 143.158 131.382C143.857 130.293 144.72 129.37 145.714 128.712C147.405 127.626 149.228 126.474 150.919 125.388C152.742 124.236 154.664 123.118 156.422 121.834C159.075 119.858 161.168 117.252 162.501 114.279C164.935 109.027 166.112 103.573 166.265 97.883C166.275 95.2365 166.053 92.6222 165.368 90.0726C164.846 88.0197 164.026 86.1974 162.841 84.4731C161.953 83.1798 160.832 82.2497 159.411 81.8809C156.901 81.1446 154.486 81.1032 151.971 81.6901C150.548 81.983 149.387 82.8061 148.457 83.9277C147.859 84.7196 147.261 85.5116 146.728 86.4361C143.999 91.2567 142.458 96.4784 141.942 101.935C141.668 104.713 141.69 107.591 141.515 110.403C141.37 113.777 141.027 117.084 140.057 120.289C139.655 121.479 139.288 122.569 138.886 123.759C138.352 125.345 138.048 126.899 137.943 128.52C137.734 131.43 137.955 134.375 138.308 137.255C138.374 137.387 138.505 137.652 138.635 138.248Z" fill="#85B472"/>
<path d="M163.373 147.364C163.735 147.928 163.568 148.424 163.5 148.953C163.297 150.209 163.061 151.565 162.858 152.821C162.757 153.118 162.789 153.35 162.822 153.582C163.151 153.914 163.351 153.65 163.616 153.518C166.135 151.939 168.818 150.856 171.697 150.172C175.173 149.356 178.65 148.21 182.029 146.7C183.718 145.945 185.539 145.455 187.294 144.832C187.691 144.635 188.155 144.571 188.682 144.969C188.384 145.2 188.119 145.331 187.854 145.463C185.369 146.612 182.918 147.663 180.334 148.779C178.148 149.697 175.996 150.517 173.843 151.337C172.088 151.959 170.398 152.714 168.84 153.735C168.409 154.031 168.077 154.361 167.514 154.723C167.877 154.955 168.075 155.022 168.273 155.089C170.916 155.76 173.593 156.331 176.27 156.903C176.765 157.07 177.195 157.104 177.724 157.172C177.789 157.636 177.656 157.702 177.292 157.8C176.829 157.864 176.365 157.929 175.936 157.894C172.828 157.619 169.688 157.112 166.715 156.109C166.517 156.042 166.319 155.976 165.988 155.975C163.865 157.688 162.137 159.865 160.541 162.308C161.829 162.742 162.886 163.209 164.075 163.61C166.156 164.312 168.237 165.014 170.384 165.848C170.78 165.982 171.143 166.214 171.407 166.414C171.671 166.613 171.636 167.043 171.272 167.141C170.908 167.239 170.544 167.337 170.213 167.336C169.684 167.268 169.155 167.2 168.759 167.066C165.752 166.163 162.58 165.424 159.774 163.926C159.675 163.893 159.576 163.859 159.345 163.892C159.046 164.122 158.813 164.485 158.481 164.815C154.065 169.729 148.499 172.489 142.047 173.294C141.584 173.359 141.12 173.423 140.69 173.389C139.633 173.253 139.206 172.226 139.838 171.335C140.203 170.906 140.634 170.61 141.165 170.347C141.96 169.952 142.721 169.657 143.483 169.362C145.173 168.607 146.829 167.951 148.419 167.162C150.937 165.914 153.06 164.201 154.986 162.09C155.75 161.133 156.514 160.177 157.344 159.352C158.24 158.33 159.27 157.242 160.265 156.253C160.763 155.758 160.996 155.395 160.999 154.733C161.169 153.245 161.439 151.791 161.742 150.237C161.877 149.509 162.211 148.849 162.478 148.056C162.711 147.693 162.843 147.627 163.373 147.364Z" fill="#85B472"/>
<path d="M187.66 153.236C187.494 153.401 187.428 153.599 187.295 153.665C187.03 153.796 186.666 153.894 186.468 153.828C185.575 153.858 184.681 153.888 183.756 153.686C183.326 153.651 182.963 153.419 182.501 153.152C182.402 153.119 182.403 152.788 182.371 152.556C182.405 152.457 182.571 152.292 182.67 152.326C182.802 152.26 182.935 152.194 183.133 152.261C184.488 152.497 185.877 152.635 187.331 152.904C187.396 153.037 187.496 153.07 187.66 153.236Z" fill="#85B472"/>
<path d="M177.759 165.575C177.066 165.341 176.537 165.273 175.942 165.073C175.645 164.972 175.514 164.707 175.25 164.508C175.085 164.342 175.318 163.979 175.549 163.946C175.682 163.881 175.88 163.948 175.979 163.981C177.069 164.349 178.193 164.617 179.283 164.985L179.382 165.018C179.448 165.151 179.579 165.416 179.545 165.515C179.512 165.614 179.247 165.746 179.114 165.811C178.784 165.81 178.486 165.71 178.255 165.742C178.09 165.576 177.892 165.509 177.759 165.575Z" fill="#85B472"/>
<path d="M152.652 158.211C152.422 157.913 152.158 157.713 151.993 157.547C151.567 156.52 151.472 155.494 151.475 154.502C151.509 154.403 151.542 154.304 151.575 154.205C151.708 154.139 151.775 153.941 151.874 153.974C151.973 154.007 152.171 154.074 152.237 154.207C152.303 154.339 152.368 154.472 152.434 154.605C152.529 155.63 152.724 156.69 152.819 157.716C152.786 157.815 152.719 158.013 152.652 158.211Z" fill="#85B472"/>
<path d="M141.753 126.713C141.754 126.382 141.623 126.117 141.656 126.018C141.758 125.39 141.958 124.795 142.192 124.101C143.629 120.169 145.725 116.571 147.921 113.005C148.586 112.015 149.317 111.157 150.147 110.333C151.806 108.685 152.574 106.736 152.88 104.52C150.706 102.131 149.724 99.15 149.107 96.0713C148.815 94.6477 148.721 93.291 148.527 91.9009C148.429 91.5367 148.563 91.1402 149.191 91.2416C149.42 91.8709 149.418 92.5325 149.614 93.261C149.744 93.8569 149.84 94.552 150.07 95.1813C150.265 95.9098 150.396 96.5057 150.591 97.2342C150.787 97.9627 151.016 98.592 151.246 99.2214C151.475 99.8507 151.704 100.48 151.967 101.01C152.295 101.673 152.524 102.302 153.217 102.867C153.35 102.471 153.451 102.173 153.452 101.842C153.588 100.784 153.823 99.7595 153.959 98.7013C154.061 98.0731 154.261 97.4783 154.429 96.9826C154.495 96.7844 154.596 96.487 154.762 96.3221C155.127 95.8933 155.789 95.8956 156.018 96.5249C156.215 96.9226 156.279 97.3859 156.344 97.8493C156.408 98.3127 156.506 98.6769 156.603 99.372C157.001 98.844 157.367 98.4152 157.699 98.0855C158.862 96.6008 160.09 95.2486 161.253 93.7639C161.453 93.4999 161.884 93.2036 162.149 93.0722C162.281 93.0065 162.578 93.1068 162.678 93.1402C162.743 93.2727 162.775 93.5044 162.841 93.637C162.808 93.7361 162.741 93.9344 162.707 94.0335C161.543 95.8491 160.577 97.7314 159.084 99.215C158.353 100.073 157.557 100.798 156.594 101.688C156.56 102.118 156.557 102.779 156.456 103.407C156.286 104.565 156.216 105.756 156.046 106.913C155.91 107.971 155.576 108.962 155.043 109.887C154.976 110.085 154.909 110.283 154.643 110.746C155.14 110.582 155.371 110.55 155.636 110.418C156.398 110.123 157.259 109.861 158.021 109.566C158.385 109.468 158.749 109.37 159.212 109.306C159.543 109.307 159.973 109.341 160.071 109.705C160.202 109.971 159.936 110.433 159.538 110.63C157.716 111.451 155.993 112.305 154.106 112.993C153.609 113.157 153.112 113.321 152.683 113.286C152.154 113.218 151.723 113.514 151.391 113.844C150.793 114.636 150.161 115.527 149.464 116.286C148.368 117.572 147.337 118.991 146.142 120.244C144.747 121.761 143.617 123.478 142.849 125.427C142.583 125.889 142.515 126.418 141.753 126.713Z" fill="#85B472"/>
<path d="M155.278 90.8651C155.014 90.6657 154.717 90.5655 154.684 90.3338C154.258 89.3068 153.832 88.2798 153.406 87.2528C153.373 87.0211 153.341 86.7894 153.442 86.492C153.542 86.1946 154.005 86.13 154.17 86.296C154.269 86.3294 154.368 86.3629 154.434 86.4954C154.926 87.655 155.483 88.9471 155.611 90.2046C155.544 90.4029 155.378 90.5677 155.278 90.8651Z" fill="#85B472"/>
<path d="M144.65 103.069C145.542 103.37 146.268 103.836 146.795 104.565C146.86 104.698 146.793 104.896 146.76 104.995C146.726 105.094 146.461 105.226 146.362 105.192C145.603 104.826 144.909 104.592 144.183 104.126C143.985 104.059 143.887 103.695 144.087 103.431C144.253 103.266 144.518 103.135 144.65 103.069Z" fill="#85B472"/>
<path d="M162.644 102.403C162.51 102.799 162.542 103.031 162.509 103.13C162.077 103.757 161.513 104.119 160.884 104.349C160.619 104.48 160.321 104.38 160.091 104.081C159.861 103.783 159.961 103.485 160.16 103.221C160.823 102.893 161.618 102.499 162.644 102.403Z" fill="#85B472"/>
<path d="M157.956 91.1058C157.824 90.8407 157.66 90.6747 157.693 90.5756C157.861 89.7491 158.095 89.0552 158.66 88.3624C158.66 88.3624 158.694 88.2633 158.793 88.2967C158.925 88.231 159.157 88.1987 159.222 88.3312C159.322 88.3647 159.486 88.5306 159.453 88.6298C159.485 88.8615 159.418 89.0597 159.351 89.258C159.052 89.8194 158.883 90.6458 157.956 91.1058Z" fill="#85B472"/>
<path d="M155.006 120.142C154.442 120.504 153.946 120.668 153.548 120.865C153.415 120.93 153.217 120.864 153.152 120.731C153.086 120.599 153.02 120.466 153.054 120.367C153.087 120.268 153.154 120.069 153.287 120.004C153.652 119.575 153.983 119.576 155.006 120.142Z" fill="#85B472"/>
<path d="M41.484 170.733C42.6195 167.694 44.5132 165.351 47.4944 164.038C50.2107 162.857 53.0892 162.503 56.0979 162.744C59.0075 162.953 61.4837 164.119 63.5264 166.243C64.1854 166.907 64.9113 167.373 65.5703 168.037C66.2628 168.601 67.0543 169.2 67.7134 169.864C68.142 170.229 68.3055 170.726 68.7007 171.19C68.9311 171.489 69.1615 171.787 69.3585 172.185C71.1684 174.672 71.8524 177.553 71.3784 180.595C71.3437 181.025 71.1766 181.52 71.0428 181.917C70.8422 182.512 70.5425 183.073 70.6392 183.768C70.7037 184.231 70.4374 184.694 70.2046 185.057C69.3724 186.543 68.3754 187.863 67.1802 189.116C66.5164 189.775 65.7535 190.401 65.0574 190.829C61.909 192.637 58.5659 193.387 54.928 193.374C52.8447 193.334 50.9296 192.468 49.38 191.172C47.8303 189.877 46.2806 188.581 44.7644 187.186C43.8415 186.323 43.118 185.196 42.6262 184.036C41.0193 180.293 40.5705 176.387 41.2798 172.321C41.2822 171.659 41.3503 171.13 41.484 170.733ZM67.7594 184.453C69.4179 183.135 70.1175 181.715 70.2561 179.995C70.5642 177.118 69.7799 174.535 67.8697 172.345C65.3661 169.624 62.1975 167.893 58.4617 167.516C54.9576 167.107 51.845 168.155 49.4869 170.893C48.0589 172.509 47.1264 174.292 46.5568 176.309C45.1502 181.134 46.4252 185.207 49.9185 188.593C51.8956 190.585 54.3073 191.288 57.1858 190.934C59.5021 190.611 61.6213 189.891 63.6427 188.806C65.2664 187.918 66.6598 186.732 67.8884 185.38C68.0878 185.116 67.8573 184.817 67.7594 184.453ZM61.64 166.601C61.4752 166.435 61.4096 166.302 61.3439 166.17C60.1894 165.339 58.8689 164.673 57.4147 164.403C54.9362 163.898 52.5543 164.089 50.1043 164.808C48.1511 165.364 46.3948 166.317 44.9668 167.933C43.8707 169.22 43.171 170.64 42.8343 172.293C42.5298 174.178 42.1262 176.029 42.3506 177.981C42.5415 180.033 42.9975 181.953 43.6517 183.941C43.881 184.57 44.1102 185.199 44.6044 185.697C44.7692 185.863 44.8683 185.897 45.2647 186.03C45.0355 185.401 44.9376 185.037 44.7406 184.639C43.9538 182.718 43.6304 180.732 43.9026 178.615C44.4126 174.813 45.8466 171.542 48.6345 168.839C50.0947 167.455 51.7519 166.468 53.6717 166.011C55.9557 165.457 58.2708 165.464 60.5834 166.134C60.8472 166.333 61.1445 166.434 61.64 166.601Z" fill="#85B472"/>
<path d="M46.3051 217.627C45.9052 218.486 45.4717 219.443 45.0717 220.302C45.0049 220.5 44.8389 220.665 44.772 220.864C44.4365 222.186 43.6389 223.242 42.7757 224.165C42.0784 224.923 41.3155 225.549 40.6182 226.308C39.2905 227.627 37.7002 228.415 35.8138 228.773C33.1 229.293 30.422 229.052 27.7799 228.051C26.5907 227.65 25.5019 226.951 24.579 226.088C23.7553 225.258 22.9315 224.428 22.1077 223.598C20.4936 221.839 19.5421 219.752 19.3189 217.468C19.1614 215.318 18.5406 213.231 18.284 211.047C18.1885 210.021 18.093 208.995 17.9641 208.069C17.8984 207.936 17.9653 207.738 18.0322 207.539C18.5014 205.821 18.6734 204.002 19.3743 202.251C19.8412 201.194 20.3414 200.038 21.0065 199.047C21.9044 197.694 23.1652 196.574 24.7221 195.884C26.1799 195.161 27.6699 194.67 29.3247 194.345C34.9505 193.372 39.5077 195.24 42.9639 199.718C44.7416 201.974 45.4925 204.656 46.1109 207.404C46.2732 208.231 46.4021 209.158 46.6636 210.019C47.2163 212.634 47.1744 215.049 46.3051 217.627ZM44.3519 218.182C44.4856 217.786 44.6528 217.29 44.7865 216.894C46.1919 212.399 44.1278 207.066 41.7221 204.709C40.2393 203.215 38.5559 202.316 36.5059 202.177C33.2 201.835 30.122 202.453 27.2386 204.13C24.3887 205.709 22.7589 208.25 22.1523 211.358C21.849 212.912 21.8429 214.566 21.9694 216.154C22.3514 220.258 24.4908 223.077 27.8564 225.206C29.8359 226.536 32.1497 226.875 34.5638 226.916C36.5481 226.923 38.3032 226.3 39.8291 225.048C40.592 224.422 41.3884 223.697 42.1513 223.071C42.6158 222.676 43.0468 222.379 42.9835 221.585C42.9179 221.453 43.0838 221.288 43.2498 221.123C43.7489 220.298 44.1166 219.207 44.3519 218.182ZM40.3146 200.701C40.1498 200.535 40.1176 200.304 39.9528 200.138C38.7996 198.976 37.4469 198.078 35.9282 197.345C34.1123 196.512 32.1292 196.174 30.1437 196.498C28.6214 196.758 27.1648 197.15 25.7404 197.773C24.1501 198.562 22.9884 199.716 22.1562 201.202C21.1246 202.952 20.6875 204.902 20.3496 206.886C20.2827 207.084 20.414 207.349 20.4128 207.68C20.5131 207.383 20.6791 207.218 20.7125 207.119C21.6785 205.236 23.0074 203.587 24.8305 202.435C28.6428 199.967 32.8132 199.055 37.2749 199.897C38.3327 200.033 39.2245 200.334 40.3146 200.701Z" fill="#85B472"/>
<path d="M36.6924 214.716C36.9241 214.684 37.0566 214.618 37.1557 214.651C38.8069 215.318 40.0927 216.415 41.1457 217.874C41.2113 218.006 41.3427 218.271 41.2758 218.47C41.1755 218.767 40.9439 218.799 40.6131 218.798C40.2168 218.665 39.6879 218.597 39.2915 218.463C38.6969 218.262 38.2683 217.897 37.5078 217.861C37.5722 218.325 37.7358 218.822 37.7012 219.251C37.7656 219.715 37.731 220.145 37.6629 220.674C37.6283 221.104 37.0982 221.367 36.6361 221.1C36.4379 221.034 36.1741 220.834 36.0428 220.569C35.6476 220.105 35.2858 219.541 34.9241 218.977C34.825 218.944 34.8919 218.746 35.0244 218.68C35.0578 218.581 35.2895 218.549 35.3885 218.582C35.5867 218.649 35.7515 218.815 35.9162 218.981C36.1801 219.18 36.4105 219.479 36.74 219.811C36.8403 219.513 36.8738 219.414 36.8081 219.282C36.7436 218.818 36.6457 218.454 36.5813 217.991C36.4202 216.832 36.8512 216.536 37.9412 216.903C38.3376 217.037 38.8331 217.204 39.196 217.437C39.3942 217.504 39.5589 217.67 39.9553 217.804C39.7583 217.406 39.6927 217.273 39.5279 217.107C38.8689 216.444 38.143 215.978 37.3837 215.611C37.2524 215.346 36.856 215.213 36.6924 214.716Z" fill="#85B472"/>
<path d="M39.3856 210.656C39.154 210.688 38.9558 210.621 38.8567 210.588C38.526 210.587 38.2622 210.387 38.0974 210.221C37.867 209.923 37.7034 209.426 37.6068 208.731C38.2694 208.403 38.4652 209.131 38.8281 209.364C39.0932 209.232 39.3917 209.002 39.6567 208.87C40.1868 208.608 40.6489 208.874 40.779 209.47C40.8112 209.701 40.8434 209.933 40.7766 210.131C40.7061 211.322 40.1736 212.247 39.3103 213.17C39.1778 213.236 39.1444 213.335 39.0119 213.4C38.8793 213.466 38.6811 213.399 38.5821 213.366C38.483 213.332 38.4507 213.101 38.4842 213.002C38.6179 212.605 38.7851 212.109 39.0179 211.746C39.2507 211.383 39.2519 211.052 39.3856 210.656Z" fill="#85B472"/>
<path d="M31.5514 209.67C31.5168 210.1 31.5156 210.43 31.5144 210.761C31.4797 211.191 31.1478 211.521 30.6845 211.585C30.1556 211.517 29.7258 211.483 29.2304 211.316C29.0322 211.249 28.8674 211.083 28.9343 210.885C29.0011 210.686 29.1671 210.522 29.3987 210.489C29.8285 210.524 30.1927 210.426 30.7216 210.494C30.6906 209.931 30.6261 209.468 30.5617 209.005C30.5306 208.442 30.9616 208.146 31.4571 208.313C31.5562 208.346 31.6553 208.38 31.6553 208.38C33.008 209.278 34.0288 210.505 34.6185 212.029C34.3857 212.392 34.2866 212.359 34.0227 212.159C33.7923 211.861 33.5619 211.562 33.3315 211.264C32.8372 210.766 32.343 210.268 31.5514 209.67Z" fill="#85B472"/>
<path d="M29.5636 219.488C29.2007 219.255 28.9368 219.056 28.7721 218.89C28.7733 218.559 29.0383 218.428 29.2365 218.495C29.4681 218.462 29.7654 218.563 29.9636 218.629C30.4591 218.796 30.6226 219.293 30.4555 219.789C30.3217 220.185 30.2214 220.483 29.9886 220.846C30.8817 220.816 31.4786 220.355 32.109 219.795C32.1413 220.026 32.1735 220.258 32.1401 220.357C32.0398 220.654 31.8404 220.918 31.5753 221.05C30.8124 221.676 30.0841 221.872 29.1576 222.001C28.8269 222 28.5296 221.9 28.3983 221.634C28.2669 221.369 28.3338 221.171 28.4341 220.874C28.8986 220.478 29.1648 220.016 29.5636 219.488Z" fill="#85B472"/>
<path d="M35.979 210.611C35.7809 210.544 35.7809 210.544 35.6818 210.511C35.2532 210.146 35.0574 209.417 35.3236 208.955C35.4239 208.657 35.689 208.526 36.0197 208.527C36.3504 208.528 36.6143 208.728 36.6131 209.059C36.5784 209.488 36.5438 209.918 36.3766 210.414C36.3432 210.513 36.1116 210.546 35.979 210.611Z" fill="#85B472"/>
<path d="M33.5507 223.372C33.6832 223.307 33.8826 223.043 34.1811 222.812C34.4796 222.582 34.8425 222.814 35.0729 223.113C35.2043 223.378 35.2031 223.709 34.9046 223.939C34.7386 224.104 34.4401 224.335 34.1751 224.466C34.0425 224.532 33.7118 224.531 33.6462 224.398C33.5805 224.266 33.5483 224.034 33.4826 223.901C33.3179 223.735 33.4504 223.67 33.5507 223.372Z" fill="#85B472"/>
<path d="M29.1163 215.253C28.9181 215.186 28.819 215.152 28.7533 215.02C28.4895 214.821 28.425 214.357 28.7235 214.127C29.1545 213.83 29.7169 213.799 30.1455 214.165C30.3102 214.33 30.4416 214.596 30.2422 214.86C30.1753 215.058 29.9102 215.189 29.7777 215.255C29.4136 215.353 29.2154 215.286 29.1163 215.253Z" fill="#85B472"/>
<path d="M26.9229 218.487C26.4275 218.32 26.363 217.856 26.529 217.691C26.8609 217.362 27.2585 217.165 27.6883 217.199C28.019 217.2 28.1837 217.366 28.1825 217.697C28.2148 217.929 28.1479 218.127 27.9819 218.292C27.6835 218.522 27.2202 218.587 26.9229 218.487Z" fill="#85B472"/>
<path d="M42.0465 215.529C41.6499 215.395 41.5519 215.031 41.718 214.866C42.0167 214.635 42.3153 214.405 42.7454 214.439C42.9772 214.407 43.2412 214.606 43.24 214.937C43.1731 215.136 43.1062 215.334 42.9736 215.4C42.6092 215.498 42.2783 215.497 42.0465 215.529Z" fill="#85B472"/>
<path d="M55.1665 173.361C55.33 173.857 55.5927 174.388 55.7562 174.884C55.9854 175.514 55.355 176.074 54.7605 175.873C54.3306 175.839 54.2328 175.475 54.5981 175.046C54.6315 174.947 54.6315 174.947 54.7975 174.782C54.5683 174.153 54.3391 173.523 54.1099 172.894C54.012 172.53 53.9475 172.066 53.9822 171.636C54.0168 171.206 54.5135 171.043 54.8764 171.275C55.0746 171.342 55.1403 171.475 55.2059 171.607C56.1276 172.801 56.9502 173.962 57.7393 175.222C57.8384 175.255 57.7715 175.454 57.639 175.519C57.6056 175.619 57.374 175.651 57.2749 175.617C56.9119 175.385 56.549 175.152 56.3186 174.853C55.9234 174.389 55.5616 173.825 55.1008 173.228C55.299 173.295 55.299 173.295 55.1665 173.361Z" fill="#85B472"/>
<path d="M60.0309 181.515C59.2692 181.81 59.1677 182.439 58.8023 182.867C58.5707 182.9 58.5051 182.767 58.4728 182.535C58.5397 182.337 58.5731 182.238 58.64 182.04C59.0734 181.082 59.3719 180.851 60.3975 180.756C60.2674 180.16 59.5403 180.025 59.2776 179.495C59.477 179.231 59.5761 179.264 59.7743 179.331C59.9725 179.398 60.2363 179.597 60.4011 179.763C61.4231 180.66 62.2791 181.721 62.87 182.914C63.1983 183.577 63.1637 184.007 62.9321 184.039C62.4354 184.203 62.205 183.905 61.9746 183.606C61.5794 183.142 61.1842 182.677 60.69 182.179C60.5252 182.013 60.2613 181.814 60.0309 181.515Z" fill="#85B472"/>
<path d="M55.8363 180.211C56.0644 181.171 55.071 181.499 55.0686 182.16C55.9294 181.898 56.2303 181.006 56.8607 180.446C57.158 180.546 57.1246 180.645 57.1568 180.877C56.6219 182.463 55.4279 183.385 53.8722 183.744C53.7397 183.81 53.4424 183.71 53.2777 183.544C53.212 183.411 53.2132 183.08 53.3457 183.014C53.7445 182.486 54.209 182.091 54.6078 181.563C54.9397 181.233 55.305 180.805 55.8363 180.211Z" fill="#85B472"/>
<path d="M63.1231 176.928C63.9195 176.203 64.846 176.073 65.6399 176.01C65.7724 175.944 66.0363 176.144 66.102 176.276C66.2333 176.541 66.0673 176.706 65.9014 176.871C65.3378 177.233 64.7743 177.595 64.0137 177.559C63.7499 177.36 63.486 177.161 63.1231 176.928Z" fill="#85B472"/>
<path d="M59.0856 186.607C58.9209 186.441 58.6236 186.341 58.5914 186.109C58.4278 185.612 58.2977 185.016 58.2332 184.553C58.2667 184.454 58.3335 184.256 58.4661 184.19C58.5986 184.124 58.7968 184.191 58.8959 184.224C59.5227 184.657 59.6528 185.252 59.716 186.047C59.6826 186.146 59.6492 186.245 59.6492 186.245C59.5166 186.311 59.3507 186.475 59.0856 186.607Z" fill="#85B472"/>
<path d="M52.5311 179.207C52.1347 179.073 51.8374 178.973 51.8386 178.642C51.8398 178.311 52.1383 178.081 52.5681 178.115C52.8988 178.117 53.3286 178.151 53.6259 178.251C53.9232 178.352 54.0211 178.716 53.9542 178.914C53.8539 179.212 53.5889 179.343 53.3907 179.276C53.1591 179.308 52.7293 179.274 52.5311 179.207Z" fill="#85B472"/>
<path d="M61.6493 173.119C61.5155 173.516 61.1177 173.713 60.7211 173.579C60.4236 173.479 60.2265 173.081 60.3937 172.585C60.4941 172.287 60.9254 171.991 61.2229 172.091C61.5203 172.191 61.7831 172.722 61.6493 173.119Z" fill="#85B472"/>
<path d="M65.7921 180.146C64.9648 180.308 64.9648 180.308 63.9081 179.841C63.9428 179.412 64.2735 179.413 64.5051 179.38C65.0006 179.547 65.5295 179.615 65.7921 180.146Z" fill="#85B472"/>
<path d="M61.7816 264.028C58.7754 263.125 55.2486 259.838 55.232 255.305C55.201 254.743 55.17 254.18 55.2715 253.552C55.4435 251.733 56.0775 250.18 57.4052 248.862C59.0314 247.312 60.8211 246.26 62.8735 245.738C65.29 245.117 67.4378 245.621 69.4173 246.951C69.8794 247.217 70.2423 247.45 70.8369 247.65C71.7287 247.951 72.5203 248.549 72.8474 249.543C73.1745 250.537 73.5016 251.53 73.6962 252.589C74.0853 254.708 73.813 256.824 73.1109 258.906C71.807 262.772 68.1631 264.414 65.1198 264.602C63.9295 264.532 62.8382 264.495 61.7816 264.028ZM68.1255 247.509C66.1436 246.84 64.5234 246.736 62.9665 247.425C62.0723 247.786 61.1446 248.246 60.316 248.739C58.0618 250.187 56.9956 252.367 57.3166 255.015L57.2832 255.114C57.6353 258.324 59.3139 260.546 62.319 261.78C65.9186 263.215 70.9857 261.281 71.5004 256.155C71.7405 253.807 71.3848 251.589 70.5658 249.436C70.2709 248.674 69.711 248.044 68.9517 247.677C68.5875 247.775 68.2246 247.542 68.1255 247.509Z" fill="#85B472"/>
<path d="M65.7925 252.463C65.7901 253.125 65.8212 253.687 65.8856 254.151C65.9166 254.713 65.6504 255.175 65.0546 255.306C64.4588 255.436 63.9634 255.269 63.6673 254.838C63.3712 254.407 63.0751 253.976 62.8125 253.445C62.3158 253.609 61.8191 253.773 61.3225 253.936C60.4616 254.198 59.7345 254.063 59.3394 253.599C58.9776 253.035 58.9478 252.142 59.5125 251.449C59.8779 251.02 60.2098 250.691 60.7065 250.527C61.2032 250.363 61.5351 250.034 61.7679 249.67C62.3004 248.746 63.0956 248.352 64.1534 248.488C64.3516 248.554 64.7492 248.357 64.9808 248.325C65.4441 248.26 65.8082 248.162 66.238 248.197C67.5609 248.201 68.4838 249.065 68.6115 250.322C68.7404 251.249 68.3082 251.876 67.3817 252.005C67.1501 252.038 66.9519 251.971 66.7202 252.003C66.4218 252.234 66.1567 252.365 65.7925 252.463ZM63.179 252.686C63.4095 252.984 63.6733 253.184 63.8046 253.449C64.035 253.747 64.1329 254.111 64.3634 254.41C64.429 254.543 64.6606 254.51 64.7597 254.544C64.8923 254.478 65.0248 254.412 64.9591 254.28C64.9938 253.85 64.9293 253.386 64.9305 253.056C64.8685 251.931 65.3329 251.535 66.4576 251.473C66.7883 251.474 66.9865 251.541 67.3172 251.542C67.6479 251.543 67.8808 251.18 67.882 250.849C67.7865 249.823 67.1275 249.159 66.1019 249.255C65.7712 249.254 65.5061 249.385 65.142 249.483C64.7778 249.581 64.4137 249.679 63.9838 249.645C63.2567 249.51 62.7266 249.773 62.4269 250.334C62.0938 250.995 61.6294 251.39 61.0002 251.62C60.5035 251.783 60.2707 252.146 60.0044 252.609C59.8707 253.005 60.1667 253.436 60.5309 253.338C60.9941 253.274 61.3917 253.077 61.8884 252.913C62.3517 252.848 62.7158 252.75 63.179 252.686Z" fill="#85B472"/>
<path d="M64.3104 250.97C64.2423 251.499 63.6784 251.862 63.2817 251.728C63.1826 251.694 62.9186 251.495 62.9855 251.296C62.9544 250.734 63.6175 250.405 64.0798 250.671C64.179 250.705 64.2112 250.937 64.3104 250.97Z" fill="#85B472"/>
<path d="M160.558 57.5366C160.735 54.3944 163.032 50.2008 167.501 49.0582C168.097 48.9279 168.593 48.7642 169.189 48.6339C171.042 48.3756 172.728 48.6129 174.279 49.5776C176.093 50.7416 177.576 52.2354 178.694 54.158C179.843 56.3122 179.868 58.5288 179.099 60.8089C178.932 61.3045 178.765 61.8002 178.796 62.3627C178.792 63.3551 178.392 64.2139 177.431 64.773C176.569 65.3656 175.642 65.8255 174.714 66.2855C172.759 67.1721 170.576 67.4293 168.427 67.2565C164.459 66.9122 161.858 63.8266 160.976 60.8793C160.583 59.7532 160.521 58.6282 160.558 57.5366ZM178.144 59.7139C178.383 57.6967 177.926 56.1072 176.972 54.6814C176.38 53.8192 175.754 53.0562 174.963 52.458C172.919 50.6646 170.672 50.1276 168.122 51.1445L167.989 51.2102C164.975 52.2916 163.214 54.5683 162.707 57.7093C162.163 61.6112 165.19 66.0545 170.418 65.2784C172.734 64.9555 174.821 64.0032 176.678 62.7524C177.374 62.3248 177.84 61.5985 178.008 60.7721C178.076 60.243 178.111 59.813 178.144 59.7139Z" fill="#85B472"/>
<path d="M172.758 58.67C172.128 58.8995 171.632 59.0632 171.168 59.1278C170.573 59.2581 170.176 59.1244 169.781 58.6599C169.518 58.1297 169.587 57.6006 169.853 57.1383C170.218 56.7095 170.55 56.3798 171.015 55.9844C170.718 55.5534 170.422 55.1223 170.126 54.6912C169.6 53.9616 169.636 53.2008 170.034 52.6729C170.433 52.1449 171.36 52.0158 172.152 52.2831C172.648 52.4502 173.11 52.7165 173.373 53.2467C173.669 53.6777 174.032 53.9106 174.527 54.0777C175.518 54.4119 176.177 55.0758 176.273 56.1016C176.305 56.3333 176.535 56.6318 176.567 56.8635C176.764 57.2612 176.961 57.6588 177.059 58.0231C177.385 59.3475 176.819 60.3711 175.561 60.8299C174.667 61.1908 174.006 60.8577 173.612 60.0624C173.481 59.7973 173.548 59.599 173.417 59.3339C173.119 59.2337 172.988 58.9686 172.758 58.67ZM171.94 56.1861C171.74 56.4501 171.541 56.714 171.342 56.978C171.142 57.242 170.745 57.4391 170.545 57.7031C170.512 57.8022 170.445 58.0005 170.511 58.1331C170.576 58.2656 170.774 58.3324 170.907 58.2667C171.271 58.1687 171.768 58.005 172.132 57.907C173.125 57.5796 173.752 58.0118 173.98 58.9719C174.012 59.2036 174.11 59.5679 174.142 59.7996C174.24 60.1638 174.538 60.2641 174.902 60.1661C175.895 59.8386 176.295 58.9799 175.935 58.0854C175.803 57.8203 175.672 57.5552 175.475 57.1575C175.377 56.7933 175.048 56.4614 175.049 56.1305C175.085 55.3698 174.656 55.0044 173.929 54.8696C173.202 54.7348 172.773 54.3694 172.312 53.7724C172.214 53.4081 171.818 53.2744 171.323 53.1073C170.893 53.0728 170.561 53.4025 170.758 53.8001C170.955 54.1978 171.251 54.6289 171.448 55.0265C171.645 55.4242 171.743 55.7884 171.94 56.1861Z" fill="#85B472"/>
<path d="M173.922 56.8555C173.458 56.9202 172.963 56.4219 172.899 55.9583C172.932 55.8591 173.132 55.5949 173.231 55.6284C173.728 55.4646 174.189 56.062 174.121 56.5914C174.088 56.6906 173.955 56.7563 173.922 56.8555Z" fill="#85B472"/>
<path d="M128.889 35.5943C125.883 34.6908 122.455 31.437 122.373 26.7722C122.342 26.2097 122.311 25.6472 122.412 25.0189C122.584 23.2 123.317 21.6807 124.645 20.362C126.271 18.8127 128.061 17.7602 130.212 17.2713C132.629 16.651 134.777 17.1545 136.756 18.4846C137.218 18.7508 137.581 18.9836 138.176 19.1841C139.068 19.4849 139.859 20.0831 140.186 21.0767C140.513 22.0703 140.84 23.0638 140.936 24.0897C141.325 26.2083 141.019 28.4238 140.351 30.4064C139.047 34.2726 135.403 35.9142 132.294 35.9698C131.003 36.197 129.945 36.061 128.889 35.5943ZM135.298 19.2074C133.316 18.539 131.696 18.4342 130.139 19.1236C129.245 19.4845 128.317 19.9445 127.489 20.4379C125.235 21.8858 124.069 24.0321 124.49 26.7132L124.456 26.8124C124.808 30.0225 126.487 32.2448 129.492 33.4791C133.091 34.9139 138.224 33.1119 138.739 27.9859C138.979 25.6379 138.623 23.4202 137.804 21.2671C137.509 20.5052 136.95 19.8747 136.19 19.5082C135.794 19.3745 135.397 19.2408 135.298 19.2074Z" fill="#85B472"/>
<path d="M132.998 24.0628C132.995 24.7244 133.026 25.2869 133.057 25.8494C133.089 26.4119 132.822 26.8742 132.226 27.0044C131.631 27.1347 131.135 26.9676 130.839 26.5366C130.543 26.1055 130.247 25.6744 129.984 25.1442C129.488 25.3079 128.991 25.4716 128.494 25.6353C127.633 25.8971 126.906 25.7622 126.511 25.2977C126.149 24.7341 126.12 23.8408 126.684 23.148C127.05 22.7192 127.382 22.3895 127.878 22.2258C128.375 22.0621 128.707 21.7324 128.94 21.3693C129.472 20.4448 130.267 20.0505 131.325 20.1864C131.523 20.2533 131.921 20.0562 132.153 20.0239C132.616 19.9593 132.98 19.8613 133.41 19.8958C134.733 19.9003 135.656 20.7636 135.783 22.0212C135.912 22.9479 135.48 23.575 134.554 23.7042C134.322 23.7365 134.124 23.6696 133.892 23.7019C133.594 23.9325 133.362 23.9648 132.998 24.0628ZM130.384 24.2854C130.615 24.5839 130.879 24.7833 131.01 25.0484C131.24 25.347 131.338 25.7112 131.569 26.0097C131.634 26.1423 131.866 26.11 131.965 26.1434C132.098 26.0777 132.23 26.012 132.164 25.8794C132.199 25.4495 132.135 24.9861 132.136 24.6553C132.074 23.5303 132.538 23.1349 133.663 23.0726C133.994 23.0737 134.192 23.1405 134.523 23.1417C134.853 23.1428 135.086 22.7797 135.087 22.4489C134.992 21.423 134.234 20.7257 133.307 20.8549C132.976 20.8537 132.711 20.9852 132.347 21.0832C131.983 21.1812 131.619 21.2792 131.189 21.2446C130.462 21.1098 129.932 21.3726 129.632 21.934C129.299 22.5945 128.835 22.9899 128.205 23.2194C127.709 23.3831 127.476 23.7462 127.21 24.2084C127.076 24.6049 127.372 25.036 127.736 24.938C128.199 24.8734 128.597 24.6763 129.094 24.5126C129.557 24.448 129.921 24.35 130.384 24.2854Z" fill="#85B472"/>
<path d="M131.516 22.5691C131.448 23.0985 130.884 23.4607 130.488 23.3269C130.389 23.2935 130.257 23.0282 130.192 22.8956C130.16 22.3327 130.824 22.004 131.286 22.2704C131.385 22.3038 131.417 22.5356 131.516 22.5691Z" fill="#85B472"/>
<path d="M118.009 171.591C117.104 174.929 112.923 178.488 107.964 178.14C105.054 177.932 102.877 176.535 101.663 173.917C100.447 171.63 99.8611 169.114 100.301 166.502C100.335 166.072 100.435 165.775 100.569 165.378C101.769 162.802 103.398 160.591 105.884 159.111C107.938 157.927 110.122 157.67 112.301 158.736C112.499 158.802 112.697 158.869 112.862 159.035C113.851 160.031 115.138 160.796 115.994 161.858C116.685 162.754 117.277 163.616 117.836 164.577C118.362 165.307 118.624 166.168 118.654 167.061C118.681 168.616 118.51 170.104 118.009 171.591ZM114.834 162.35C114.338 162.514 113.94 162.711 113.644 162.28C113.513 162.015 113.348 161.849 113.084 161.65C111.404 159.758 109.322 159.387 107.069 160.504C104.949 161.556 103.521 163.172 102.488 165.252C101.922 166.276 101.653 167.4 101.814 168.558C101.973 170.378 102.496 172.1 103.516 173.659C104.863 175.88 107.01 176.714 109.491 176.557C113.229 176.272 116.316 173.339 116.726 169.502C116.795 168.973 116.829 168.543 116.897 168.014C116.9 167.353 116.803 166.658 116.673 166.062C116.214 164.803 115.657 163.511 114.834 162.35Z" fill="#85B472"/>
<path d="M108.011 147.241C108.765 148.931 108.23 150.517 107.2 151.936C105.172 154.675 102.389 156.055 98.9496 156.109C97.6268 156.105 96.5367 155.737 95.4813 154.94C94.4259 154.142 93.4708 153.047 92.7473 151.92C92.5504 151.522 92.3199 151.224 92.1564 150.727C91.2073 147.978 91.3495 145.266 92.9793 142.724C94.1434 140.908 95.834 139.822 97.8195 139.498C99.5734 139.207 101.127 139.51 102.611 140.673C102.775 140.839 103.039 141.038 103.303 141.237C103.437 140.841 103.571 140.444 103.77 140.18C104.036 139.718 104.566 139.455 105.062 139.622C105.557 139.789 105.754 140.187 105.819 140.65C105.851 140.882 105.751 141.18 105.783 141.411C105.815 141.643 105.748 141.841 105.747 142.172C106.177 142.206 106.64 142.142 107.037 142.276C107.764 142.41 107.994 142.709 107.958 143.47C107.925 143.569 107.858 143.767 107.89 143.999C108.287 144.132 108.649 144.365 109.046 144.499C109.607 144.799 109.836 145.428 109.437 145.956C108.94 146.45 108.376 146.812 108.011 147.241ZM103.725 143.588C104.054 143.92 104.449 144.384 104.745 144.815C105.14 145.28 105.502 145.843 105.897 146.308C105.963 146.44 105.93 146.539 105.895 146.969C105.17 146.173 104.577 145.642 104.017 145.011C103.523 144.513 102.929 143.982 103.032 143.023C103.099 142.825 102.934 142.659 102.769 142.493C101.847 141.629 100.823 141.063 99.6665 140.894C96.4931 140.486 93.9702 143.058 93.3982 145.736C92.7916 148.843 93.7085 151.361 96.2144 153.42C97.0717 154.151 97.9635 154.452 99.0548 154.489C101.667 154.597 103.788 153.546 105.482 151.467C105.914 150.84 106.38 150.114 106.481 149.486C106.518 148.394 106.952 147.436 107.088 146.378C107.552 145.983 108.577 146.218 108.614 145.126C108.118 144.959 107.722 144.825 107.226 144.658C106.929 144.558 106.665 144.359 106.601 143.895C106.568 143.663 106.536 143.432 106.438 143.068C105.843 143.198 105.247 143.328 104.818 142.963C104.323 142.796 103.991 143.125 103.725 143.588Z" fill="#85B472"/>
<path d="M110.569 162.236C110.569 162.236 110.701 162.17 110.834 162.104C112.026 161.513 112.984 161.946 113.343 163.172C113.473 163.768 113.306 164.263 112.842 164.659C112.543 164.889 112.112 165.185 111.681 165.482C112.043 166.045 112.339 166.476 112.602 167.007C112.93 167.669 112.961 168.232 112.43 168.826C112.031 169.354 111.368 169.682 110.675 169.448C110.278 169.314 109.915 169.082 109.552 168.849C109.223 168.517 108.992 168.218 108.663 167.886C108.433 167.588 108.102 167.587 107.803 167.817C107.505 168.048 107.206 168.278 106.908 168.509C105.714 169.431 104.226 169.261 103.271 168.166C102.447 167.336 102.387 165.88 103.315 165.089C104.41 164.134 105.307 163.111 106.039 161.923C106.471 161.296 107.233 161 108.125 161.301C108.917 161.569 109.677 161.935 110.569 162.236ZM109.112 162.628C108.716 162.494 108.22 162.327 107.824 162.193C107.427 162.06 107.03 162.257 106.83 162.521C106.598 162.884 106.365 163.247 106.231 163.644C105.931 164.205 105.533 164.733 104.969 165.095C104.803 165.26 104.571 165.292 104.406 165.457C103.775 166.017 103.64 166.745 104.002 167.308C104.528 168.038 105.42 168.339 106.15 167.812C106.448 167.581 106.747 167.351 107.045 167.12C107.941 166.428 108.834 166.398 109.624 167.327C109.954 167.659 110.151 168.057 110.48 168.389C110.81 168.721 111.239 168.755 111.439 168.491C111.737 168.261 111.739 167.93 111.607 167.665C111.41 167.267 111.114 166.836 110.818 166.405C110.456 165.841 110.558 165.213 111.056 164.719C111.388 164.389 111.819 164.093 112.216 163.896C112.184 163.664 112.217 163.565 112.152 163.432C111.889 162.902 111.493 162.768 111.226 163.231C111.193 163.33 111.16 163.429 111.027 163.495C110.794 163.858 110.594 164.452 110.065 164.385C109.338 164.25 109.572 163.556 109.408 163.059C109.342 162.926 109.243 162.893 109.112 162.628Z" fill="#85B472"/>
<path d="M108.348 163.916C108.744 164.049 109.007 164.58 108.873 164.976C108.706 165.472 108.176 165.735 107.714 165.468C107.218 165.301 107.088 164.705 107.255 164.21C107.356 163.912 107.852 163.749 108.348 163.916Z" fill="#85B472"/>
<path d="M68.5911 55.9989C69.8185 54.9776 71.2751 54.5855 72.8284 54.8886C73.9853 55.0579 75.0753 55.4256 76.0985 55.9915C78.2105 57.2558 79.9906 58.8498 81.1403 61.0041C81.3373 61.4017 81.5343 61.7994 81.7312 62.197C83.0791 64.4181 84.5929 66.4744 86.5378 68.2344C87.8236 69.3305 89.076 70.5257 90.129 71.9849C92.3341 74.9368 93.7774 78.1838 94.5581 81.7593C95.4379 85.3682 95.6229 89.0741 95.3446 92.8445C94.9958 97.8056 94.2506 102.633 93.0422 107.525C92.6398 109.046 92.3365 110.599 91.9675 112.021C91.5305 113.971 91.5232 115.956 92.0449 118.009C92.1094 118.472 92.2729 118.969 92.3374 119.432C92.3696 119.664 92.3684 119.995 92.3672 120.326C92.3326 120.756 91.6043 120.952 91.2748 120.62C91.11 120.454 90.8796 120.155 90.7483 119.89C90.2886 118.962 89.7299 118.001 89.1378 117.139C88.3808 116.111 87.7565 115.017 86.9995 113.989C86.5387 113.392 86.2104 112.729 86.1137 112.034C85.986 110.776 85.3938 109.914 84.4041 109.249C82.6885 108.118 81.0063 106.889 79.1915 105.724C77.0139 104.328 74.8362 102.931 72.6585 101.534C71.2067 100.603 69.755 99.6713 68.4691 98.5752C64.9746 95.5197 62.6729 91.8728 61.5316 87.4028C61.0111 85.0191 60.8214 82.6366 60.7642 80.1883C60.7798 75.8877 61.4569 71.5893 62.2988 67.4569C62.9042 64.6801 64.1041 62.1038 65.3364 59.7592C66.4002 58.241 67.3637 57.0203 68.5911 55.9989ZM90.0287 108.607C90.7332 105.863 91.5368 103.153 91.9106 100.409C92.5196 96.6393 92.9304 92.8032 93.1097 88.9993C93.2542 85.6255 93.0347 82.3496 92.0546 79.038C91.1723 76.0907 89.9916 73.3739 87.9167 71.018C87.3567 70.3875 86.7968 69.7571 86.2035 69.2257C84.4234 67.6317 82.9083 65.9063 81.4267 64.0817C80.8011 63.3187 80.3081 62.4899 79.8484 61.5621C78.6331 59.2752 76.7862 57.8795 74.6073 56.8134C74.4091 56.7466 74.1118 56.6463 73.9136 56.5795C71.9317 55.9111 70.2101 56.4345 68.8812 58.0841C67.8185 59.2714 67.1189 60.6915 66.5517 62.046C65.5845 64.2592 65.0472 66.5069 64.6746 68.9207C64.1969 72.955 63.8517 76.9237 63.8373 80.8935C63.8623 83.1101 64.0198 85.261 64.409 87.3796C65.2541 91.4185 67.1595 94.9317 70.1586 97.8201C71.51 99.0487 72.9284 100.079 74.4458 101.143C77.1178 103.038 79.8232 104.833 82.4951 106.728C83.3857 107.36 84.3086 108.223 85.1658 108.954C85.924 109.651 86.3836 110.579 86.5782 111.638C86.7405 112.466 87.0354 113.228 87.6287 113.759C88.0239 114.224 88.5182 114.722 88.9134 115.186C88.9218 112.87 89.5248 110.755 90.0287 108.607Z" fill="#85B472"/>
<path d="M87.4862 80.1469C86.9896 80.3107 86.7567 80.6738 86.5239 81.0369C85.9914 81.9614 85.3598 82.8524 84.7282 83.7435C84.5622 83.9083 84.4953 84.1066 84.3294 84.2714C83.9987 84.2703 83.9664 84.0386 83.9342 83.8069C83.2812 81.489 82.2306 79.3681 80.915 77.3787C79.3033 74.9582 77.8575 72.3729 76.6768 69.6561C76.0536 68.2314 75.2645 66.9716 74.6079 65.6461C74.4765 65.381 74.2795 64.9833 73.7172 65.0145C73.7494 65.2462 73.7817 65.4779 73.913 65.743C74.7654 67.797 75.6512 69.7518 76.6027 71.8393C77.3572 73.529 78.2108 75.2522 79.0978 76.8763C79.7545 78.2018 80.3776 79.6264 80.7692 81.0834C80.8671 81.4476 80.9315 81.911 80.996 82.3744C80.6987 82.2741 80.4671 82.3064 80.3023 82.1404C78.3551 81.0421 76.5069 79.9771 74.5597 78.8788C74.1967 78.646 73.8338 78.4131 73.5699 78.2138C73.2714 78.4443 73.3371 78.5769 73.5019 78.7428C73.7323 79.0414 73.9627 79.3399 74.2265 79.5393C76.2382 81.101 78.3168 82.4645 80.7273 83.4982C80.9255 83.5651 80.9912 83.6976 81.1894 83.7645C81.446 85.9488 81.3385 88.2311 80.9002 90.5123C79.9427 90.0789 78.9518 89.7447 78.0933 89.3448C76.4422 88.6775 74.8244 87.9111 73.1732 87.2438C72.876 87.1436 72.5787 87.0433 72.248 87.0422C72.0498 86.9753 71.8169 87.3384 71.9483 87.6035C72.0796 87.8687 72.2109 88.1338 72.5082 88.234C72.8711 88.4668 73.2341 88.6996 73.4979 88.899C75.7759 89.9985 78.0861 91.3297 80.5312 91.9335C80.6303 91.9669 80.6303 91.9669 80.7951 92.1329C80.7939 92.4637 80.7927 92.7946 80.7915 93.1254C80.7388 98.5176 82.508 103.089 85.9655 107.236C86.1959 107.535 86.4263 107.833 86.6902 108.032C87.3826 108.597 88.2769 108.236 88.2471 107.343C88.2817 106.913 88.2173 106.45 88.0203 106.052C87.7911 105.423 87.4628 104.76 87.1344 104.097C86.4778 102.772 85.9203 101.48 85.3962 100.088C84.5773 97.9352 84.2215 95.7175 84.2956 93.5343C84.2993 92.5419 84.402 91.5828 84.4056 90.5904C84.4426 89.4988 84.414 88.2747 84.352 87.1497C84.3209 86.5872 84.4547 86.1906 84.6875 85.8275C85.3525 84.8373 86.051 83.748 86.7161 82.7578C87.0158 82.1964 87.2164 81.6016 87.3835 81.106C87.7155 80.7763 87.7489 80.6772 87.4862 80.1469Z" fill="#85B472"/>
<path d="M69.8289 70.3273C69.7955 70.4264 69.7286 70.6247 69.7943 70.7572C69.9256 71.0223 69.9912 71.1549 70.156 71.3208C70.6503 71.8188 71.2436 72.3501 71.7713 72.7489C72.0352 72.9483 72.465 72.9828 72.7623 73.0831C72.8614 73.1165 73.0273 72.9517 73.0608 72.8525C73.0942 72.7534 73.0285 72.6209 73.062 72.5217C72.9963 72.3892 72.9306 72.2566 72.8315 72.2232C71.9409 71.5916 70.9512 70.9266 70.0271 70.3941C70.0605 70.295 70.0271 70.3941 69.8289 70.3273Z" fill="#85B472"/>
<path d="M68.9551 83.0611C69.4171 83.3274 69.8792 83.5936 70.3747 83.7607C70.5729 83.8276 70.8045 83.7953 71.0361 83.763C71.2677 83.7307 71.2689 83.3999 71.2033 83.2673C71.1376 83.1348 71.0385 83.1013 70.9394 83.0679C70.081 82.668 69.2226 82.2681 68.3642 81.8682L68.2651 81.8348C68.1325 81.9005 67.9009 81.9328 67.8675 82.0319C67.834 82.131 67.8663 82.3627 67.9319 82.4953C68.0967 82.6612 68.2614 82.8272 68.5587 82.9275C68.6578 82.9609 68.856 83.0277 68.9551 83.0611Z" fill="#85B472"/>
<path d="M87.9389 92.5543C88.2696 92.5554 88.5012 92.5231 88.7328 92.4908C89.528 92.0965 90.125 91.6354 90.6897 90.9426C90.7232 90.8435 90.7566 90.7444 90.7566 90.7444C90.79 90.6452 90.7244 90.5127 90.6587 90.3801C90.5596 90.3467 90.4605 90.3133 90.3614 90.2799C90.2289 90.3456 90.0964 90.4113 90.0629 90.5104C89.4325 91.0707 88.8021 91.6309 88.1717 92.1912C88.0726 92.1577 88.0057 92.356 87.9389 92.5543Z" fill="#85B472"/>
</g>
<defs>
<clipPath id="clip0_153_1214">
<rect width="156.763" height="264.161" fill="white" transform="translate(84.6992 0.707642) rotate(18.6371)"/>
</clipPath>
</defs>
</svg>
