<svg width="194" height="170" viewBox="0 0 194 170" fill="none" xmlns="http://www.w3.org/2000/svg">
<g opacity="0.15" clip-path="url(#clip0_2176_2)">
<path d="M114.237 2.37599C114.047 5.7935 113.1 9.21101 114.047 12.6285C114.237 13.1981 114.615 13.5778 115.184 13.5778C118.215 13.388 121.246 13.7677 124.277 13.5778C125.035 13.5778 125.603 12.8184 125.414 12.0589C124.846 9.21101 124.277 6.17323 124.846 3.13544C125.035 2.37599 124.656 1.99627 124.088 1.61654C122.762 1.04696 121.246 0.857098 119.731 0.667236C118.404 0.667236 116.889 0.667236 115.563 1.23682C114.994 1.61654 114.615 2.18613 114.805 2.75572C114.994 3.3253 115.752 3.89489 116.32 3.51516C118.594 2.75572 121.246 3.13544 123.519 3.89489C123.33 3.3253 122.951 2.94558 122.762 2.37599C122.004 5.7935 122.572 9.21101 123.33 12.4387C123.519 12.2488 123.898 11.6792 124.277 11.1096C121.246 11.2995 118.215 10.9198 115.184 11.1096C115.563 11.4894 115.942 11.6792 116.32 12.0589C115.942 10.54 115.942 9.02115 116.131 7.3124C116.32 5.60364 116.51 4.08475 116.699 2.37599C116.699 1.80641 116.131 1.23682 115.563 1.23682C114.805 1.23682 114.237 1.80641 114.237 2.37599Z" fill="#85B472"/>
<path d="M114.236 11.1104C108.931 15.857 108.742 24.5906 107.984 31.0459C107.415 35.2229 106.468 39.2099 106.089 43.3869C105.71 48.703 105.9 53.8293 106.279 59.1454C107.037 67.8791 109.12 75.8533 113.667 83.4477C118.214 90.6625 124.276 96.7381 131.475 101.105C139.053 105.851 147.768 108.32 156.672 109.079C165.386 109.649 175.048 108.13 182.057 102.244C184.899 99.7758 187.362 96.3583 187.741 92.5611C188.12 88.574 186.225 85.3464 183.194 82.8782C176.185 76.9924 167.091 75.0938 159.324 70.727C149.852 65.221 144.358 55.9178 139.242 46.6146C136.211 40.9187 133.37 35.4127 130.528 29.527C129.202 26.6791 127.686 23.8311 126.171 20.9832C124.655 18.3252 123.14 14.9076 123.708 11.8699C123.897 10.351 121.624 9.78138 121.435 11.3003C120.866 15.4772 122.761 19.4643 124.655 23.0717C127.118 27.6284 129.202 32.1851 131.475 36.9316C135.454 45.0957 139.621 53.8293 145.115 61.0441C150.23 67.8791 156.672 72.4358 164.439 75.8533C168.417 77.562 172.585 79.0809 176.374 81.1694C179.974 83.068 184.331 85.9159 185.089 90.0929C185.846 94.6496 182.436 98.8265 179.026 101.295C175.427 103.953 171.259 105.472 166.902 106.041C158.187 107.56 148.525 106.041 140.379 102.814C125.034 96.7381 112.341 82.4984 109.31 66.1703C107.415 55.7279 107.605 44.9058 109.499 34.4634C110.257 30.6662 110.447 26.8689 111.204 23.0717C111.962 19.4643 112.72 15.0975 115.751 12.6293C117.077 11.8699 115.372 10.1611 114.236 11.1104Z" fill="#85B472"/>
<path d="M187.931 93.5103C191.152 88.0043 192.668 81.1693 193.236 74.9038C193.994 67.4992 191.341 60.4743 187.363 54.2089C178.27 40.1591 163.114 30.0965 149.095 21.9324C145.116 19.8439 141.138 17.5656 136.97 15.4771C132.992 13.3886 128.824 11.49 124.277 11.1103C122.762 10.9204 122.762 13.3886 124.277 13.3886C128.445 13.5785 132.234 15.4771 135.834 17.3757C139.244 19.0845 142.654 20.9831 145.874 22.8817C152.694 26.6789 159.325 31.0458 165.577 35.7923C176.754 44.3361 190.962 56.867 190.962 72.0559C190.962 78.7011 189.257 86.4854 185.847 92.3711C185.279 93.7002 187.174 94.8393 187.931 93.5103Z" fill="#85B472"/>
<path d="M186.414 93.3197C186.414 106.04 169.932 113.065 159.513 115.154C153.261 116.483 146.441 116.103 140.189 115.534C132.611 114.774 125.033 113.255 118.024 110.217C111.014 107.369 104.762 103.003 100.026 97.1169C95.1007 91.4211 92.8273 84.2063 91.5012 76.8017C90.1751 69.0174 90.3645 61.0432 91.1223 53.069C91.6907 47.9427 92.4485 43.1962 94.3429 38.4496C96.6163 32.7538 99.2685 27.2478 102.489 22.1215C104.194 19.4635 108.93 11.869 113.098 13.7676C114.424 14.3372 115.75 12.2487 114.235 11.6791C110.067 9.78051 106.278 13.198 103.626 16.2358C99.6474 20.9824 96.8057 26.4883 94.1535 32.1842C92.259 36.551 90.3645 40.9178 89.6068 45.4745C88.0912 53.6386 87.5228 61.8026 88.0912 70.1566C88.6595 78.3206 90.1751 86.4847 94.1535 93.6994C98.1319 100.534 104.384 106.23 111.204 110.028C118.213 114.015 126.17 116.293 134.127 117.432C141.326 118.571 149.093 119.141 156.481 118.192C163.87 117.242 171.448 114.394 177.51 110.217C183.193 106.42 188.308 100.724 188.308 93.5096C188.687 91.8008 186.414 91.8008 186.414 93.3197Z" fill="#85B472"/>
<path d="M184.522 95.0289C174.67 96.1681 164.63 95.2188 155.157 92.7506C145.117 90.0925 135.455 85.5358 128.067 78.3211C124.088 74.5238 121.057 69.7773 119.163 64.4612C118.594 62.9423 116.321 63.7017 116.889 65.0308C123.899 85.5358 147.011 95.0289 166.714 97.3072C172.587 98.0667 178.459 98.0667 184.332 97.3072C185.848 97.1174 186.037 94.839 184.522 95.0289Z" fill="#85B472"/>
<path d="M118.972 11.8694C117.267 20.4132 119.351 28.7671 120.867 37.3109C122.193 45.475 124.087 53.4492 127.876 60.8538C134.507 73.9542 145.495 86.4851 160.082 90.4722C164.061 91.6114 168.228 92.181 172.396 93.1303C176.943 94.0796 180.921 96.1681 185.658 96.1681C187.173 96.1681 187.173 93.8897 185.658 93.8897C181.679 93.8897 178.08 92.181 174.291 91.2317C170.881 90.2823 167.471 89.9026 164.061 89.1432C157.241 87.6243 151.178 84.7764 145.874 80.2197C134.318 69.9671 126.74 56.1072 123.898 40.9183C122.193 31.8049 119.541 21.9321 121.435 12.8187C121.435 10.9201 119.162 10.3505 118.972 11.8694Z" fill="#85B472"/>
<path d="M187.554 92.5609C187.364 85.3462 188.501 77.9416 186.038 71.1065C183.765 64.6512 179.408 59.1453 174.861 54.2088C169.556 48.513 163.873 43.3867 158 38.2605C152.506 33.7038 147.202 29.337 141.139 25.7296C137.729 23.6411 134.319 21.7425 131.478 19.0844C128.636 16.4264 126.362 13.3886 123.142 11.3001C121.816 10.5406 120.679 12.6291 122.005 13.3886C125.036 15.2872 126.931 17.9452 129.394 20.2236C131.478 22.3121 133.94 24.0208 136.593 25.5397C142.276 29.1471 147.959 32.7545 153.264 36.9314C159.137 41.8678 165.01 46.8042 170.314 52.3102C175.05 57.0568 179.597 62.183 182.628 68.0688C186.606 75.8531 185.28 84.207 185.47 92.5609C185.28 94.0798 187.554 94.0798 187.554 92.5609Z" fill="#85B472"/>
<path d="M186.227 83.8267C183.953 79.4598 181.87 75.093 179.217 71.1059C176.376 66.929 172.966 63.7013 169.177 60.2838C160.652 52.4995 152.316 44.5253 143.791 36.9308C142.654 35.9815 140.949 37.5004 142.086 38.6396C150.421 46.0442 158.568 53.8285 166.903 61.423C170.692 64.8405 174.292 68.0681 177.133 72.435C179.786 76.4221 182.059 80.7889 184.143 85.1557C184.901 86.4847 186.985 85.3456 186.227 83.8267Z" fill="#85B472"/>
<path d="M185.28 98.0664C183.575 102.433 178.838 104.901 174.671 106.61C170.692 108.129 166.335 109.268 162.167 110.028C149.285 112.496 136.971 108.889 125.414 103.003C120.489 100.535 115.753 97.4969 111.964 93.3199C107.985 88.9531 105.523 83.8268 103.817 78.3208C102.302 73.0047 101.355 67.6886 100.218 62.3724C99.0813 57.2462 98.8919 52.3097 99.4602 47.1835C100.597 35.2222 104.954 23.071 112.153 13.3881C113.1 12.0591 111.016 10.9199 110.069 12.2489C103.249 21.742 98.8919 33.3236 97.3763 44.9051C95.8607 56.2969 98.3235 67.4987 101.544 78.5107C103.249 84.2065 105.523 89.5227 109.501 94.2692C113.29 98.636 118.026 102.054 123.141 104.712C134.508 110.787 147.011 114.774 160.083 113.066C165.767 112.306 171.45 110.787 176.754 108.699C181.301 106.8 185.848 103.952 187.742 99.0158C188.121 97.307 185.848 96.5476 185.28 98.0664Z" fill="#85B472"/>
</g>
<g opacity="0.15" clip-path="url(#clip1_2176_2)">
<path d="M26.2366 53.8047C26.0471 57.2222 25.0999 60.6397 26.0471 64.0572C26.2366 64.6268 26.6155 65.0065 27.1838 65.0065C30.2149 64.8167 33.2461 65.1964 36.2772 65.0065C37.035 65.0065 37.6034 64.2471 37.4139 63.4876C36.8456 60.6397 36.2772 57.6019 36.8456 54.5641C37.035 53.8047 36.6561 53.425 36.0878 53.0453C34.7617 52.4757 33.2461 52.2858 31.7305 52.0959C30.4044 52.0959 28.8888 52.0959 27.5627 52.6655C26.9943 53.0453 26.6155 53.6148 26.8049 54.1844C26.9943 54.754 27.7521 55.3236 28.3205 54.9439C30.5938 54.1844 33.2461 54.5641 35.5194 55.3236C35.33 54.754 34.9511 54.3743 34.7617 53.8047C34.0039 57.2222 34.5722 60.6397 35.33 63.8674C35.5194 63.6775 35.8983 63.1079 36.2772 62.5383C33.2461 62.7282 30.2149 62.3485 27.1838 62.5383C27.5627 62.9181 27.9416 63.1079 28.3205 63.4876C27.9416 61.9688 27.9416 60.4499 28.131 58.7411C28.3205 57.0324 28.5099 55.5135 28.6994 53.8047C28.6994 53.2351 28.131 52.6655 27.5627 52.6655C26.8049 52.6655 26.2366 53.2351 26.2366 53.8047Z" fill="#85B472"/>
<path d="M26.2375 62.5384C20.933 67.2849 20.7435 76.0186 19.9858 82.4739C19.4174 86.6508 18.4702 90.6379 18.0913 94.8149C17.7124 100.131 17.9018 105.257 18.2807 110.573C19.0385 119.307 21.1224 127.281 25.6692 134.876C30.2159 142.09 36.2782 148.166 43.4771 152.533C51.055 157.279 59.7695 159.748 68.6735 160.507C77.3881 161.077 87.0499 159.558 94.0594 153.672C96.9011 151.204 99.3639 147.786 99.7428 143.989C100.122 140.002 98.2272 136.774 95.1961 134.306C88.1865 128.42 79.0931 126.522 71.3258 122.155C61.8535 116.649 56.3595 107.346 51.2444 98.0425C48.2133 92.3467 45.3716 86.8407 42.5299 80.955C41.2038 78.1071 39.6882 75.2591 38.1726 72.4112C36.6571 69.7531 35.1415 66.3356 35.7098 63.2978C35.8993 61.7789 33.6259 61.2094 33.4365 62.7283C32.8681 66.9052 34.7626 70.8923 36.6571 74.4997C39.1199 79.0564 41.2038 83.613 43.4771 88.3596C47.4555 96.5236 51.6233 105.257 57.1173 112.472C62.2324 119.307 68.6735 123.864 76.4409 127.281C80.4192 128.99 84.5871 130.509 88.376 132.597C91.9755 134.496 96.3327 137.344 97.0905 141.521C97.8483 146.078 94.4383 150.255 91.0283 152.723C87.4288 155.381 83.2609 156.9 78.9037 157.469C70.1891 158.988 60.5273 157.469 52.3811 154.242C37.036 148.166 24.343 133.926 21.3119 117.598C19.4174 107.156 19.6069 96.3338 21.5013 85.8914C22.2591 82.0942 22.4486 78.2969 23.2064 74.4997C23.9641 70.8923 24.7219 66.5255 27.7531 64.0573C29.0792 63.2978 27.3742 61.5891 26.2375 62.5384Z" fill="#85B472"/>
<path d="M99.9352 144.939C103.156 139.433 104.671 132.598 105.24 126.332C105.998 118.927 103.345 111.903 99.3669 105.637C90.2735 91.5874 75.1178 81.5247 61.0987 73.3606C57.1203 71.2721 53.142 68.9938 48.9741 66.9053C44.9958 64.8168 40.8279 62.9182 36.2812 62.5385C34.7656 62.3486 34.7656 64.8168 36.2812 64.8168C40.449 65.0067 44.238 66.9053 47.8375 68.8039C51.2475 70.5127 54.6575 72.4113 57.8781 74.3099C64.6982 78.1072 71.3288 82.474 77.5806 87.2205C88.7579 95.7643 102.966 108.295 102.966 123.484C102.966 130.129 101.261 137.914 97.8513 143.799C97.283 145.128 99.1775 146.268 99.9352 144.939Z" fill="#85B472"/>
<path d="M98.4198 144.748C98.4198 157.469 81.938 164.494 71.5184 166.582C65.2667 167.911 58.4466 167.532 52.1949 166.962C44.617 166.203 37.0391 164.684 30.0296 161.646C23.0201 158.798 16.7683 154.431 12.0322 148.545C7.10657 142.85 4.83321 135.635 3.50708 128.23C2.18096 120.446 2.3704 112.472 3.12819 104.497C3.69653 99.3712 4.45432 94.6246 6.34878 89.8781C8.62214 84.1822 11.2744 78.6763 14.495 73.55C16.2 70.8919 20.9362 63.2975 25.104 65.1961C26.4301 65.7657 27.7562 63.6772 26.2407 63.1076C22.0728 61.209 18.2839 64.6265 15.6317 67.6643C11.6533 72.4108 8.81159 77.9168 6.15933 83.6127C4.26487 87.9795 2.3704 92.3463 1.61262 96.903C0.0970434 105.067 -0.471296 113.231 0.0970435 121.585C0.665383 129.749 2.18096 137.913 6.15933 145.128C10.1377 151.963 16.3895 157.659 23.2095 161.456C30.2191 165.443 38.1758 167.721 46.1326 168.861C53.3315 170 61.0989 170.569 68.4873 169.62C75.8757 168.671 83.4535 165.823 89.5158 161.646C95.1992 157.849 100.314 152.153 100.314 144.938C100.693 143.229 98.4198 143.229 98.4198 144.748Z" fill="#85B472"/>
<path d="M96.5256 146.457C86.6744 147.596 76.6337 146.647 67.1614 144.179C57.1207 141.521 47.459 136.964 40.0705 129.749C36.0922 125.952 33.061 121.206 31.1665 115.889C30.5982 114.371 28.3248 115.13 28.8932 116.459C35.9027 136.964 59.0152 146.457 78.7176 148.735C84.5905 149.495 90.4633 149.495 96.3362 148.735C97.8517 148.546 98.0412 146.267 96.5256 146.457Z" fill="#85B472"/>
<path d="M30.9723 63.2979C29.2673 71.8417 31.3512 80.1956 32.8668 88.7394C34.1929 96.9034 36.0874 104.878 39.8763 112.282C46.5069 125.383 57.4949 137.914 72.0822 141.901C76.0606 143.04 80.2284 143.609 84.3963 144.559C88.943 145.508 92.9214 147.597 97.6575 147.597C99.1731 147.597 99.1731 145.318 97.6575 145.318C93.6791 145.318 90.0797 143.609 86.2907 142.66C82.8807 141.711 79.4707 141.331 76.0606 140.572C69.2405 139.053 63.1782 136.205 57.8737 131.648C46.3175 121.396 38.7396 107.536 35.8979 92.3468C34.1929 83.2334 31.5407 73.3606 33.4351 64.2472C33.4351 62.3486 31.1618 61.779 30.9723 63.2979Z" fill="#85B472"/>
<path d="M99.5537 143.989C99.3643 136.774 100.501 129.37 98.0381 122.535C95.7648 116.079 91.4075 110.573 86.8608 105.637C81.5563 99.941 75.8729 94.8147 70 89.6884C64.5061 85.1318 59.2016 80.7649 53.1393 77.1576C49.7293 75.0691 46.3192 73.1705 43.4775 70.5124C40.6358 67.8543 38.3625 64.8165 35.1419 62.7281C33.8157 61.9686 32.6791 64.0571 34.0052 64.8165C37.0363 66.7152 38.9308 69.3732 41.3936 71.6516C43.4775 73.74 45.9403 75.4488 48.5926 76.9677C54.276 80.5751 59.9594 84.1824 65.2639 88.3594C71.1367 93.2958 77.0096 98.2322 82.3141 103.738C87.0502 108.485 91.597 113.611 94.6281 119.497C98.6065 127.281 97.2803 135.635 97.4698 143.989C97.2803 145.508 99.5537 145.508 99.5537 143.989Z" fill="#85B472"/>
<path d="M98.2288 135.255C95.9554 130.889 93.8715 126.522 91.2193 122.535C88.3776 118.358 84.9675 115.13 81.1786 111.713C72.6535 103.928 64.3179 95.954 55.7928 88.3595C54.6561 87.4102 52.9511 88.9291 54.0877 90.0683C62.4234 97.4729 70.5696 105.257 78.9052 112.852C82.6942 116.269 86.2937 119.497 89.1354 123.864C91.7876 127.851 94.061 132.218 96.1449 136.584C96.9027 137.913 98.9866 136.774 98.2288 135.255Z" fill="#85B472"/>
<path d="M97.2854 149.495C95.5804 153.862 90.8442 156.33 86.6764 158.039C82.698 159.558 78.3407 160.697 74.1729 161.456C61.2905 163.924 48.9765 160.317 37.4203 154.431C32.4947 151.963 27.7585 148.925 23.9696 144.748C19.9912 140.382 17.5284 135.255 15.8233 129.749C14.3078 124.433 13.3605 119.117 12.2239 113.801C11.0872 108.675 10.8977 103.738 11.4661 98.6119C12.6028 86.6507 16.96 74.4995 24.159 64.8166C25.1062 63.4875 23.0223 62.3484 22.0751 63.6774C15.255 73.1705 10.8977 84.752 9.38217 96.3336C7.86659 107.725 10.3294 118.927 13.55 129.939C15.255 135.635 17.5284 140.951 21.5067 145.698C25.2957 150.064 30.0318 153.482 35.1469 156.14C46.5137 162.216 59.0172 166.203 72.089 164.494C77.7724 163.735 83.4558 162.216 88.7603 160.127C93.307 158.229 97.8537 155.381 99.7482 150.444C100.127 148.735 97.8537 147.976 97.2854 149.495Z" fill="#85B472"/>
</g>
<defs>
<clipPath id="clip0_2176_2">
<rect width="105.143" height="117.714" fill="white" transform="translate(88.2852 0.857178)"/>
</clipPath>
<clipPath id="clip1_2176_2">
<rect width="105.143" height="117.714" fill="white" transform="translate(0.285156 52.2856)"/>
</clipPath>
</defs>
</svg>
