<svg width="182" height="125" viewBox="0 0 182 125" fill="none" xmlns="http://www.w3.org/2000/svg">
<g opacity="0.15" clip-path="url(#clip0_124_5433)">
<path d="M49.8192 6.48831C54.3015 16.5589 58.5598 30.4338 49.371 39.3854C43.0957 45.4278 33.6828 47.2181 26.0628 51.0225C11.4952 58.6314 2.97877 74.7442 0.961714 90.4095C-1.27945 106.522 2.75465 123.754 11.7193 137.405C16.2017 144.119 22.0287 149.938 28.7522 154.19C35.6998 158.442 43.5439 161.351 51.388 163.365C68.645 168.288 87.0226 169.631 104.952 168.065C122.433 166.498 140.362 161.799 155.154 152.176C162.102 147.7 168.377 142.329 173.308 135.615C179.135 127.782 182.496 117.936 183.617 108.313C186.082 88.3954 180.479 67.3592 170.394 50.1273C160.309 32.8955 143.052 21.706 122.881 21.2584C112.348 21.0347 102.263 23.7201 92.4014 26.6294C87.2467 27.9721 81.6438 29.3149 76.9373 26.6294C72.2309 23.9439 69.5415 19.0205 67.9727 13.8734C66.4039 9.62137 65.5074 5.14557 63.9386 0.89356C63.7144 0.22219 63.0421 -0.22539 62.1456 -0.00160006C58.5598 0.66977 54.7498 0.89356 51.388 2.46009C49.8192 3.13146 51.1639 5.59315 52.7327 4.92178C55.8704 3.57904 59.4562 3.35525 62.818 2.90767C62.1456 2.68388 61.6974 2.2363 61.025 2.01251C63.9386 9.84516 65.0592 19.4681 71.1103 25.7342C78.5062 33.5669 88.1432 30.8814 97.332 28.4197C107.193 25.5105 117.503 23.7201 127.812 24.6153C137.673 25.5105 147.086 29.5387 154.706 35.8048C170.394 48.5608 178.686 70.2684 181.152 89.962C182.272 100.033 181.824 110.327 178.686 119.95C175.773 128.901 170.394 136.734 163.222 143C150.224 154.637 133.191 161.127 116.158 164.036C98.4526 167.17 79.8509 166.946 62.1456 163.365C46.2333 160.232 29.8728 154.861 18.8911 142.329C7.90934 129.797 2.53053 112.789 3.20288 96.4519C3.87523 80.5628 11.047 63.1072 25.1663 54.8269C32.5622 50.5749 41.0786 48.7846 48.0263 44.085C55.6462 38.9379 58.7839 29.9863 57.4392 21.0347C56.5427 15.4399 54.5257 10.2927 52.2845 5.36936C51.6121 3.57904 49.1469 4.92178 49.8192 6.48831Z" fill="#85B472"/>
<path d="M57.2137 12.9792C59.2308 19.2453 61.9202 25.2877 63.489 31.5538C64.1613 34.6868 64.6096 37.8199 64.6096 40.953C64.3855 44.5336 63.2649 47.8905 62.1443 51.2473C58.5584 61.9892 52.2831 71.6122 49.3696 82.5779C43.7667 102.943 50.042 125.993 62.8166 142.33C69.9884 151.505 79.4013 158.89 90.383 162.919C92.176 163.59 92.8483 160.904 91.0554 160.233C71.109 152.848 57.2137 134.497 52.059 114.356C49.3696 103.614 49.1455 92.4247 52.5073 81.6827C55.6449 71.1646 61.6961 61.7654 65.0578 51.2473C67.0749 44.7574 67.9713 38.9389 66.4025 32.2252C65.0578 25.2877 61.9202 18.7978 59.679 12.3078C59.2308 10.5175 56.5414 11.1889 57.2137 12.9792Z" fill="#85B472"/>
<path d="M73.1239 41.6243C91.5015 68.4791 114.586 93.9912 123.774 125.769C126.464 134.945 127.808 144.568 127.36 154.191C127.36 155.981 130.05 155.981 130.05 154.191C131.618 119.503 111.224 89.5154 91.5015 62.6606C86.1227 55.2755 80.5197 47.6666 75.1409 40.0578C74.4686 38.715 72.0033 40.0578 73.1239 41.6243Z" fill="#85B472"/>
<path d="M71.3347 65.1231C66.8524 96.6775 79.627 129.351 99.3493 153.744C100.47 155.087 102.487 153.073 101.366 151.73C82.5405 128.232 69.7659 96.4537 74.0241 66.0183C74.2482 64.2279 71.5588 63.3328 71.3347 65.1231Z" fill="#85B472"/>
<path d="M85.6775 89.2921C93.2975 100.034 97.3316 112.79 99.7968 125.546C100.021 127.336 102.71 126.665 102.486 124.875C100.245 111.895 95.7627 98.915 88.1428 87.9493C87.0222 86.3828 84.781 87.9493 85.6775 89.2921Z" fill="#85B472"/>
<path d="M88.589 41.4006C101.14 48.7857 113.466 56.8421 123.103 67.8078C133.412 79.4449 139.464 93.5437 143.722 108.538C146.635 118.832 149.101 130.021 146.187 140.763C145.739 142.554 148.428 143.225 148.876 141.435C151.342 132.259 150.221 122.636 147.98 113.461C145.963 104.957 143.274 96.4529 139.688 88.3965C133.636 74.9691 124.224 63.332 112.569 54.1566C105.398 48.5619 97.7778 43.6385 90.1578 39.1627C88.3648 38.0437 87.0201 40.5054 88.589 41.4006Z" fill="#85B472"/>
<path d="M99.5732 37.1485C114.589 36.7009 129.605 40.9529 141.707 49.9045C155.602 60.1988 164.567 75.4165 166.36 92.4246C167.481 102.719 166.808 113.237 166.808 123.531C166.808 125.322 169.498 125.322 169.498 123.531C169.498 104.285 171.515 84.1443 160.981 66.9125C152.913 53.7089 140.587 43.4146 126.019 38.0436C117.503 34.9106 108.538 33.7916 99.5732 34.0154C97.7803 34.2392 97.7803 37.1485 99.5732 37.1485Z" fill="#85B472"/>
<path d="M136.101 63.5561C143.048 70.4936 148.427 79.4452 149.099 89.5158C149.324 91.3061 152.013 91.3061 151.789 89.5158C150.892 78.7738 145.514 69.3747 137.894 61.7658C136.773 60.1993 134.756 62.2134 136.101 63.5561Z" fill="#85B472"/>
<path d="M101.584 61.3178C109.652 70.2694 116.376 80.3399 122.203 90.858C123.099 92.4246 125.565 91.0818 124.668 89.5153C118.617 78.7734 111.894 68.479 103.601 59.3037C102.481 57.9609 100.464 59.975 101.584 61.3178Z" fill="#85B472"/>
<path d="M133.411 115.923C135.652 122.413 137.669 128.679 136.997 135.616C136.773 137.407 139.686 137.407 139.686 135.616C140.359 128.455 138.117 121.741 135.876 115.028C135.652 113.461 132.739 114.132 133.411 115.923Z" fill="#85B472"/>
<path d="M45.3313 52.1422C37.9354 63.5555 29.419 74.745 27.1778 88.3962C24.9366 102.943 27.8501 118.384 35.0219 131.14C39.2801 138.525 44.6589 145.015 50.9342 150.834C52.2789 151.953 54.2959 150.162 52.9512 148.819C38.8319 136.063 30.0913 119.279 29.419 100.033C28.9707 91.3054 30.7637 82.8014 34.5737 74.9688C38.3836 67.3599 43.3142 60.4224 48.0207 53.4849C48.9171 52.1422 46.4519 50.5756 45.3313 52.1422Z" fill="#85B472"/>
<path d="M17.541 77.2068C15.2999 84.3681 13.0587 91.5294 12.1622 98.9145C11.4899 106.523 12.8346 113.908 16.1963 120.846C17.0928 122.412 19.334 121.07 18.6616 119.503C15.2999 112.789 14.4034 105.628 15.0757 98.2431C15.9722 91.3056 18.2134 84.5919 20.2304 78.102C20.9028 76.0879 18.2134 75.4165 17.541 77.2068Z" fill="#85B472"/>
</g>
<defs>
<clipPath id="clip0_124_5433">
<rect width="184" height="124.571" fill="white" transform="translate(0.285156)"/>
</clipPath>
</defs>
</svg>
