<svg width="126" height="95" viewBox="0 0 126 95" fill="none" xmlns="http://www.w3.org/2000/svg">
<path d="M48.7354 34.7349C47.5675 32.4128 48.0314 29.4739 49.5486 27.3619C51.063 25.2499 53.4861 23.9128 56.0157 23.3124C58.2369 22.7858 60.6164 22.794 62.7639 23.5662C64.9114 24.3384 66.8024 25.9211 67.7383 28.0032C68.9117 30.6173 68.4478 33.8126 66.8379 36.1839C65.2279 38.5552 62.5865 40.1214 59.7868 40.7381C57.4346 41.2566 54.8478 41.112 52.8013 39.8431C50.7547 38.5742 48.9646 36.6232 48.7354 34.7349Z" fill="#D2E4CB" fill-opacity="0.5"/>
<path d="M26.0054 47.1905C16.8641 51.068 4.99958 42.639 1.14387 36.2756C0.737292 35.6043 0.366178 34.772 0.701812 34.0625C1.062 33.3067 2.02525 33.0938 2.86024 33.0229C7.68465 32.6027 12.6346 33.7706 16.7631 36.2974C20.8945 38.8242 24.1853 42.7017 26.0054 47.1905Z" fill="#BED1B7" fill-opacity="0.5"/>
<path d="M14.0969 44.4053C12.929 42.0832 13.3929 39.1443 14.9073 37.0323C16.4218 34.9202 18.8449 33.5832 21.3744 32.9828C23.5956 32.4562 25.9751 32.4644 28.1226 33.2366C30.2701 34.0089 32.1611 35.5915 33.0971 37.6735C34.2704 40.2877 33.8066 43.483 32.1966 45.8543C30.5866 48.2255 27.9452 49.7919 25.1455 50.4086C22.7934 50.927 20.2065 50.7824 18.16 49.5135C16.1134 48.2447 14.3234 46.2936 14.0969 44.4053Z" fill="#D2E4CB" fill-opacity="0.5"/>
<path d="M63.7994 35.2776C62.7515 30.2949 64.7981 23.4512 66.8009 18.7714C68.8038 14.0916 72.2775 10.0531 76.6053 7.37078C76.9082 7.1825 77.252 6.9942 77.6013 7.06787C77.9697 7.14428 78.2152 7.47993 78.4144 7.79919C81.7544 13.1175 82.0109 20.2286 79.0611 25.7706C76.1141 31.31 70.0727 35.0729 63.7994 35.2776Z" fill="#BED1B7" fill-opacity="0.5"/>
<path d="M96.6057 18.864C97.9237 16.2199 99.2472 13.5594 100.052 10.7188C100.857 7.87816 101.125 4.81651 100.306 1.97863C100.183 1.55567 99.9976 1.09449 99.591 0.922584C99.1953 0.756131 98.7478 0.933496 98.3603 1.11632C93.2849 3.52579 88.9953 7.56162 86.2802 12.4815C83.5679 17.4042 82.4436 23.1863 83.1176 28.7639L83.1613 30.2401C88.4169 31.9811 93.7051 31.3698 98.7424 29.0668C102.658 27.2767 106.432 25.0119 109.341 21.8356C112.25 18.6621 114.233 14.4871 114.149 10.1812C107.406 10.2822 100.775 13.5621 96.6057 18.864Z" fill="#BED1B7" fill-opacity="0.5"/>
<path d="M35.3068 23.9478C29.8002 20.3868 23.0357 19.2898 16.4785 19.2352C17.1361 25.7078 20.4788 31.8638 25.5488 35.9406C30.6161 40.0173 37.3479 41.9629 43.8095 41.2207L44.0278 40.4539C44.8 33.9431 40.8161 27.5088 35.3068 23.9478Z" fill="#BED1B7" fill-opacity="0.5"/>
<path d="M5.46875 45.5841C5.46875 45.5841 14.6346 72.5304 35.3893 86.9927C63.7109 106.727 108.312 84.5723 117.26 67.7469C128.587 46.4437 124.466 17.923 124.466 17.923L5.46875 45.5841Z" fill="#97AE8E" fill-opacity="0.5"/>
<path d="M119.13 25.2953C119.139 25.3225 118.767 25.4508 118.052 25.6664C117.253 25.8983 116.211 26.1985 114.914 26.5723C112.186 27.3445 108.224 28.4142 103.32 29.694C93.5103 32.259 79.9102 35.6181 64.8094 38.9935C49.7031 42.3662 35.9667 45.1141 25.9959 46.9669C21.0132 47.8946 16.972 48.6123 14.175 49.0762C12.8434 49.289 11.771 49.4609 10.9497 49.5919C10.2102 49.701 9.81997 49.7447 9.81451 49.7147C9.80905 49.6847 10.1883 49.5864 10.9169 49.4227C11.7301 49.2508 12.7916 49.0298 14.1123 48.7514C16.9856 48.173 20.9832 47.368 25.8786 46.3802C35.8139 44.3773 49.5258 41.5394 64.6211 38.1694C79.711 34.7967 93.3247 31.5304 103.167 29.1155C108.019 27.923 111.978 26.9516 114.824 26.253C116.137 25.942 117.193 25.6909 118.001 25.4999C118.737 25.3389 119.125 25.268 119.13 25.2953Z" fill="white" fill-opacity="0.5"/>
</svg>
