<svg width="53" height="80" viewBox="0 0 53 80" fill="none" xmlns="http://www.w3.org/2000/svg">
<path d="M10.2053 22.572C4.63864 14.2112 -5.69783 9.28033 -15.7014 10.2163C-25.7022 11.1522 -34.9471 17.9113 -38.8683 27.1618C-42.1701 34.9496 -41.7362 44.0608 -38.4754 51.865C-35.2146 59.6692 -29.2932 66.1991 -22.3022 70.958C-3.99236 83.4256 22.5637 82.8662 39.5774 68.6822C45.8971 63.413 50.9698 56.2228 52.1323 48.0775C53.4775 38.6634 49.0816 28.6626 41.2364 23.287C33.3913 17.9141 22.4764 17.4256 14.1838 22.0808" fill="#BED1B7"/>
<path d="M10.2706 22.5354C9.1955 18.0739 4.46931 14.8131 -0.0849515 15.3943C1.95614 17.8283 3.99997 20.2596 6.04107 22.6909C2.71747 23.1084 -0.289605 25.4688 -1.49025 28.5959C-1.77677 29.3463 -1.86408 30.3942 -1.15188 30.768C-0.679813 31.0163 -0.106769 30.8143 0.384404 30.6097C2.86483 29.581 5.34797 28.5495 7.82839 27.5208C8.3332 31.6576 9.87221 35.6661 12.2653 39.077C13.9599 35.4396 14.9204 31.4611 15.0732 27.4498C17.8156 28.6641 20.5552 29.8784 23.2976 31.0954C22.6563 28.7405 21.292 26.5876 19.431 25.0049C21.8623 24.5383 24.2063 23.6242 26.3101 22.3225C26.9432 21.9296 27.6417 21.2501 27.3552 20.5625C27.1342 20.0331 26.4629 19.8858 25.8926 19.8312C20.4979 19.3045 14.9504 20.4561 10.2106 23.0866" fill="#97AE8E"/>
<path d="M9.72966 25.6059C11.0149 17.3242 10.3054 8.73963 7.68311 0.777176C9.64234 0.340579 12.0573 0.0458998 13.3261 1.60401C14.0602 2.50449 14.142 3.75697 14.1584 4.91941C14.2594 12.7454 12.7531 20.5878 9.76241 27.819" fill="#97AE8E"/>
</svg>
