<svg width="98" height="95" viewBox="0 0 98 95" fill="none" xmlns="http://www.w3.org/2000/svg">
<path d="M20.7364 34.7357C19.5685 32.4135 20.0324 29.4747 21.5496 27.3626C23.064 25.2506 25.4871 23.9135 28.0167 23.3132C30.2379 22.7865 32.6173 22.7947 34.7649 23.567C36.9124 24.3392 38.8034 25.9219 39.7393 28.0039C40.9127 30.618 40.4488 33.8134 38.8388 36.1847C37.2289 38.5559 34.5875 40.1222 31.7878 40.7389C29.4356 41.2573 26.8488 41.1127 24.8022 39.8439C22.7557 38.575 20.9656 36.624 20.7364 34.7357Z" fill="#D2E4CB" fill-opacity="0.5"/>
<path d="M-13.9021 44.4061C-15.07 42.0839 -14.6061 39.1451 -13.0917 37.033C-11.5772 34.921 -9.15411 33.5839 -6.62457 32.9836C-4.40338 32.4569 -2.02392 32.4651 0.123593 33.2374C2.27111 34.0096 4.16212 35.5922 5.09807 37.6743C6.27143 40.2884 5.80754 43.4837 4.19759 45.855C2.58763 48.2263 -0.0537844 49.7926 -2.85347 50.4093C-5.20564 50.9278 -7.79247 50.7831 -9.83903 49.5143C-11.8856 48.2454 -13.6756 46.2944 -13.9021 44.4061Z" fill="#D2E4CB" fill-opacity="0.5"/>
<path d="M35.8008 35.279C34.753 30.2964 36.7995 23.4527 38.8024 18.7729C40.8053 14.0931 44.279 10.0546 48.6068 7.37225C48.9097 7.18396 49.2535 6.99566 49.6028 7.06934C49.9711 7.14574 50.2167 7.48139 50.4159 7.80065C53.7559 13.119 54.0124 20.23 51.0626 25.7721C48.1156 31.3114 42.0742 35.0744 35.8008 35.279Z" fill="#BED1B7" fill-opacity="0.5"/>
<path d="M68.6058 18.8653C69.9237 16.2211 71.2472 13.5606 72.0522 10.72C72.8571 7.87938 73.1246 4.81773 72.3059 1.97985C72.1831 1.55689 71.9976 1.09571 71.591 0.923804C71.1954 0.757352 70.7478 0.934717 70.3603 1.11754C65.2849 3.52702 60.9953 7.56284 58.2802 12.4828C55.5679 17.4054 54.4436 23.1876 55.1176 28.7651L55.1613 30.2414C60.4169 31.9823 65.7051 31.3711 70.7424 29.068C74.6581 27.278 78.432 25.0131 81.3408 21.8368C84.2496 18.6633 86.2334 14.4884 86.1488 10.1824C79.4061 10.2834 72.7753 13.5633 68.6058 18.8653Z" fill="#BED1B7" fill-opacity="0.5"/>
<path d="M7.30727 23.9484C1.80068 20.3874 -4.96384 19.2904 -11.521 19.2358C-10.8634 25.7084 -7.52068 31.8645 -2.45068 35.9412C2.61658 40.0179 9.34838 41.9635 15.81 41.2213L16.0283 40.4545C16.8005 33.9437 12.8166 27.5094 7.30727 23.9484Z" fill="#BED1B7" fill-opacity="0.5"/>
<path d="M-22.5308 45.5848C-22.5308 45.5848 -13.3649 72.531 7.38984 86.9933C35.7114 106.728 80.3126 84.5729 89.2601 67.7475C100.587 46.4443 96.4667 17.9236 96.4667 17.9236L-22.5308 45.5848Z" fill="#97AE8E" fill-opacity="0.5"/>
<path d="M91.1285 25.2957C91.1367 25.323 90.7655 25.4513 90.0506 25.6669C89.2511 25.8988 88.2087 26.199 86.9125 26.5728C84.1838 27.345 80.2217 28.4147 75.3182 29.6945C65.5084 32.2595 51.9083 35.6186 36.8075 38.994C21.7012 42.3667 7.96477 45.1146 -2.00603 46.9674C-6.98871 47.8951 -11.03 48.6128 -13.8269 49.0767C-15.1585 49.2895 -16.2309 49.4614 -17.0523 49.5924C-17.7918 49.7015 -18.182 49.7452 -18.1874 49.7152C-18.1929 49.6852 -17.8136 49.5869 -17.085 49.4232C-16.2719 49.2513 -15.2104 49.0303 -13.8897 48.7519C-11.0163 48.1734 -7.01872 47.3685 -2.12337 46.3807C7.81196 44.3778 21.5238 41.5399 36.6192 38.1699C51.7091 34.7972 65.3228 31.5309 75.1654 29.116C80.017 27.9235 83.9764 26.9521 86.8225 26.2535C88.135 25.9425 89.1911 25.6914 89.9988 25.5004C90.7355 25.3394 91.123 25.2685 91.1285 25.2957Z" fill="white" fill-opacity="0.5"/>
</svg>
