<svg width="75" height="101" viewBox="0 0 75 101" fill="none" xmlns="http://www.w3.org/2000/svg">
<path d="M34.7693 34.3671C34.5565 28.0856 31.7459 21.9295 27.1397 17.6536C22.5309 13.3777 16.1839 11.0337 9.90232 11.2875C9.31564 11.312 8.67166 11.383 8.2569 11.8005C7.67022 12.3953 7.82576 13.3777 8.0577 14.1799C9.73315 19.9976 13.2942 25.2531 18.0695 28.9724C22.8475 32.6889 28.8179 34.8474 34.8675 35.0466" fill="#97AE8E" fill-opacity="0.5"/>
<path d="M10.0498 83.9356C18.2879 95.0279 28.3569 101.645 38.9799 100.046C41.1029 99.7213 42.4345 98.0322 44.4265 97.5356C45.4688 97.4101 46.8059 97.9122 48.042 98.1659C48.6997 98.2833 49.3409 98.3542 49.8757 98.2314C60.6652 95.5846 68.5021 86.1595 72.336 72.1556C77.657 52.5497 71.3154 33.7678 58.1793 30.1822C56.3074 29.661 54.5719 29.3363 52.8937 29.189C50.8499 29.0443 48.8797 29.148 46.7813 29.6174C43.0921 30.3896 39.0399 32.1988 33.6998 35.2931C33.5279 35.3996 33.3287 35.5114 33.1541 35.6179C22.5666 33.1511 14.7542 34.6028 7.87503 39.6919C-3.03991 47.8317 -2.06576 67.6287 10.0498 83.9356Z" fill="#BED1B7" fill-opacity="0.5"/>
<path d="M6.82227 65.7062C6.75678 65.7499 5.88905 64.5438 5.14137 62.2844C4.38824 60.0414 3.92434 56.6987 4.52193 53.0995C5.1359 49.5003 6.6722 46.4959 8.11843 44.624C9.56466 42.7357 10.7817 41.8789 10.8281 41.9444C10.9345 42.0536 9.8812 43.055 8.60688 44.9706C7.3271 46.8725 5.94636 49.7868 5.35422 53.2414C4.78119 56.6987 5.12775 59.9022 5.71442 62.1207C6.29292 64.3473 6.9587 65.638 6.82227 65.7062Z" fill="#E0ECDB" fill-opacity="0.5"/>
<path d="M10.6444 73.8248C10.4315 73.9203 9.88308 73.1453 9.42192 72.0948C8.96077 71.0442 8.76156 70.1192 8.97441 70.0237C9.18725 69.9309 9.73572 70.7031 10.1969 71.7537C10.658 72.8042 10.86 73.7293 10.6444 73.8248Z" fill="#E0ECDB" fill-opacity="0.5"/>
<path d="M54.0639 0.291823C54.1539 0.430989 52.0009 1.7326 48.9966 4.4013C47.4849 5.72201 45.8203 7.44657 44.1231 9.48221C42.464 11.5479 40.7913 13.941 39.3123 16.6206C37.8633 19.3166 36.7582 22.0208 35.9232 24.5339C35.1346 27.0635 34.5861 29.3965 34.2969 31.383C33.6829 35.3561 33.7566 37.8693 33.5901 37.8693C33.5328 37.872 33.4837 37.2471 33.4482 36.1092C33.4209 35.5416 33.4128 34.8458 33.4755 34.0381C33.5274 33.2331 33.5437 32.3081 33.702 31.3012C33.9203 29.2737 34.4142 26.8888 35.1783 24.302C35.9887 21.7288 37.0911 18.9618 38.5701 16.2167C40.0764 13.488 41.8036 11.0594 43.5255 8.98558C45.2882 6.94176 47.0237 5.23356 48.6091 3.95106C49.3677 3.26887 50.1372 2.75588 50.7866 2.27562C51.4306 1.78717 52.02 1.41607 52.5139 1.12955C53.4826 0.54287 54.0338 0.242706 54.0639 0.291823Z" fill="#97AE8E" fill-opacity="0.5"/>
</svg>
