<svg width="55" height="112" viewBox="0 0 55 112" fill="none" xmlns="http://www.w3.org/2000/svg">
<path d="M37.0576 3.90013C54.6455 3.35606 72.3622 7.90623 87.5132 16.8548C82.3159 24.237 75.5121 30.4796 67.7061 35.0211" fill="#CEDFC7"/>
<path d="M4.1875 49.6482C5.91135 58.9633 10.0807 67.8116 16.1629 75.0707C17.397 76.5454 18.8173 78.0202 20.6786 78.5098C22.8807 79.0883 25.2574 78.1146 26.9326 76.5712C28.6078 75.0277 29.7131 72.9803 30.7869 70.973" fill="#CEDFC7"/>
<path d="M70.6645 66.1363L61.9823 72.1583C54.4827 84.0735 55.651 100.788 64.737 111.543C74.5103 103.554 79.0662 89.7032 75.945 77.4701C89.0457 81.7483 104.701 76.1701 112.143 64.5728C99.1768 58.3131 83.1266 58.9173 70.6645 66.1363Z" fill="#CEDFC7"/>
<path d="M2.4202 2.71511C2.4202 2.71511 43.4261 -6.70024 66.1712 17.9234C88.9192 42.5469 69.2123 71.5947 69.2123 71.5947C69.2123 71.5947 39.4058 82.8627 15.7071 64.5418C-7.99159 46.2209 2.4202 2.71511 2.4202 2.71511Z" fill="#CEDFC7"/>
<path d="M32.5189 8.53712C32.5905 8.54857 32.5733 9.15281 32.4015 10.2324C32.2296 11.3091 31.8574 12.8554 31.173 14.6938C29.8358 18.3534 26.9636 23.2071 22.213 26.9669C17.4595 30.7239 12.0732 32.4019 8.20458 32.8601C6.25737 33.1035 4.66804 33.1092 3.5799 33.0261C2.49175 32.946 1.899 32.8228 1.90187 32.7513C1.90759 32.5479 4.31587 32.7255 8.07856 32.0497C11.8126 31.3996 16.9384 29.6615 21.4942 26.0591C26.0473 22.4568 28.9194 17.8723 30.4142 14.3845C31.9376 10.8795 32.3185 8.49703 32.5189 8.53712Z" fill="#BAD0B1"/>
<path d="M23.7515 10.4293C22.629 8.73413 19.8914 8.44495 18.4425 9.87386C16.9935 11.2999 17.2427 14.046 18.9264 15.1857C20.6102 16.3254 23.2532 15.5379 24.035 13.6594C24.8167 11.7838 23.5081 9.34983 21.5123 8.96611" fill="white"/>
<path d="M3.82037 48.6371C3.86619 48.6142 4.13246 49.0495 4.65362 49.8684C5.17479 50.6874 5.96512 51.8872 7.04754 53.402C9.24101 56.3916 12.3451 60.9303 17.72 65.028C28.1634 73.779 48.7665 76.7313 69.6761 70.8754L69.1721 71.3278C72.2705 64.1861 75.2829 56.34 76.2565 47.904C76.9867 41.1432 76.3653 34.0932 73.1467 28.5694C69.9882 22.9454 65.4495 18.4067 60.7819 14.7127C56.0686 11.0388 51.063 8.19528 46.0891 6.27099C43.6665 5.13989 41.141 4.55575 38.7928 3.76255C36.3989 3.13543 34.0536 2.6973 31.8344 2.21909C13.6938 -0.412502 2.43438 3.37311 2.42006 2.7145C2.40861 2.65723 3.09585 2.48541 4.41881 2.20765C5.92503 1.9127 7.85221 1.53754 10.2347 1.07365C15.3261 0.56394 22.8371 -0.389598 32.0205 1.03358C34.2856 1.4803 36.6824 1.88979 39.1307 2.49686C41.5361 3.27001 44.119 3.83986 46.6103 4.96523C51.7131 6.87521 56.8674 9.73873 61.7383 13.4785C66.5605 17.2469 71.2511 21.8658 74.5957 27.7619C78.0749 33.7495 78.6819 41.0602 77.9374 48.093C76.9266 56.8297 73.8283 64.8018 70.6726 71.995L70.5151 72.3501L70.1658 72.4474C59.3874 75.4284 48.8668 76.0469 39.5918 74.8585C34.9528 74.2515 30.6804 73.066 26.8318 71.6141C23.0061 70.0678 19.7531 68.0147 17.0643 65.8584C11.635 61.5316 8.62253 56.8096 6.57223 53.7227C5.55568 52.1478 4.83697 50.8907 4.39312 50.0173C3.955 49.1382 3.77742 48.6571 3.82037 48.6371Z" fill="#BAD0B1"/>
<path d="M44.4275 34.7756C44.5135 34.6983 45.2265 35.2824 46.5122 36.3649C47.7893 37.453 49.622 39.0509 51.7954 41.1412C52.8807 42.1864 54.0519 43.3576 55.2403 44.6978C55.8359 45.365 56.4401 46.0751 57.0071 46.874C57.5684 47.6787 58.1783 48.4805 58.436 49.792C58.582 52.2432 57.2877 54.2992 55.6469 55.9228C53.9545 57.5379 51.8355 58.5888 49.7651 59.5596C47.7292 60.4902 45.3525 61.6614 42.761 60.8939C41.5096 60.5045 40.5245 59.5739 39.906 58.6117C39.2731 57.641 38.8895 56.6302 38.5573 55.6709C37.4405 52.0027 36.4097 48.6151 35.4819 45.5683C33.7895 39.8068 32.8531 36.2131 33.0793 36.1444C33.3055 36.0756 34.6428 39.5434 36.6244 45.2017C37.6524 48.1999 38.7949 51.5388 40.0291 55.1497C40.6705 56.9337 41.5783 58.8179 43.262 59.3133C44.9429 59.8459 47.0305 58.9897 49.0378 58.0276C51.0967 57.0683 53.0411 56.0889 54.4986 54.7202C55.9247 53.4087 56.967 51.5159 56.8782 49.9638C56.5775 48.5464 55.1916 46.9056 54.1693 45.617C53.064 44.2797 51.9586 43.077 50.9392 41.9889C46.8243 37.6621 44.2099 34.9818 44.4275 34.7756Z" fill="#BAD0B1"/>
</svg>
