<svg width="282" height="301" viewBox="0 0 282 301" fill="none" xmlns="http://www.w3.org/2000/svg">
<g opacity="0.2" clip-path="url(#clip0_138_8107)">
<path d="M94.4553 162.49C94.3822 162.406 94.3921 162.25 94.402 162.094C94.4849 162.021 94.4118 161.938 94.4948 161.865C94.5046 161.709 94.4414 161.47 94.3683 161.387C94.2952 161.303 94.2221 161.22 94.1392 161.293C94.0562 161.366 93.9831 161.283 93.9001 161.356C93.8271 161.272 93.754 161.189 93.754 161.189C93.5248 161.095 93.3786 160.929 93.1495 160.835C92.9203 160.742 92.5351 160.638 92.223 160.617C90.9014 160.451 89.6095 159.816 88.4301 158.641C87.6161 157.881 86.739 156.883 85.9645 155.499C85.8183 155.332 85.8282 155.176 85.682 155.01L85.5358 154.843C85.1071 154.188 84.9174 153.47 84.7376 152.596C84.4411 151.087 84.5398 149.526 84.8873 147.747C84.9998 147.206 85.1855 146.748 85.464 146.061C85.4738 145.905 85.6398 145.759 85.6496 145.603C85.6595 145.447 85.6693 145.291 85.5232 145.124C85.6792 145.135 85.6792 145.135 85.8451 144.989L85.9281 144.916L86.011 144.843C86.0308 144.531 86.0505 144.219 85.9873 143.979C85.9971 143.823 85.924 143.74 85.9339 143.584L85.9438 143.428L85.4953 143.085C85.2029 142.752 84.9007 142.575 84.6083 142.242C84.4621 142.076 84.3159 141.909 84.0868 141.815C84.0137 141.732 83.7845 141.639 83.6186 141.784L83.3796 141.847C82.7356 142.118 82.1015 142.232 81.5307 142.586C80.8038 142.93 80.306 143.367 79.8082 143.804C78.6468 144.824 77.7046 146.094 76.9916 147.457C76.3616 148.747 75.8777 150.204 75.6329 151.599C75.3486 153.618 75.7715 155.605 76.9115 157.405C77.3402 158.06 77.7689 158.716 78.2806 159.299C79.3039 160.464 80.5663 161.567 82.1506 162.534C82.7551 162.888 83.3596 163.241 83.8081 163.585C85.2462 164.385 86.7041 164.874 88.3476 164.905C89.9082 165.009 91.1764 164.78 92.3912 164.155C92.8791 163.874 93.367 163.593 93.8549 163.312L94.2598 163.104C94.3329 163.187 94.6549 163.052 94.4553 162.49ZM83.2078 143.325C83.0419 143.47 83.0419 143.47 82.8859 143.46C81.9101 144.022 81.0805 144.751 80.324 145.562C79.0598 146.967 78.098 148.549 77.2625 150.61C76.7984 151.755 76.6464 152.92 76.8065 154.106C76.9666 155.293 77.2926 156.333 77.6187 157.374C77.4823 157.051 77.3361 156.885 77.1998 156.562C76.4352 155.022 76.2217 153.441 76.5594 151.817C77.0491 149.028 78.3724 146.687 80.2903 144.855C81.1199 144.126 82.0226 143.481 83.2078 143.325ZM85.0509 143.917C84.8316 143.668 84.6124 143.418 84.3101 143.241L84.237 143.158C84.5393 143.335 84.6855 143.501 84.9047 143.751C84.9047 143.751 84.9778 143.834 85.0509 143.917L85.124 144L85.0509 143.917ZM84.5474 145.686C84.5375 145.842 84.4545 145.915 84.3617 146.144C84.1859 146.446 84.0003 146.904 83.8976 147.289C83.3012 149.287 83.1927 151.004 83.4694 152.825C83.7026 154.094 84.0286 155.135 84.5206 156.03L84.8031 156.519C85.3049 157.257 85.7237 158.069 86.3816 158.818C86.5278 158.985 86.674 159.151 86.7471 159.234C87.2588 159.817 87.8534 160.327 88.448 160.836C89.7203 161.783 90.949 162.178 92.2804 162.188C92.4365 162.199 92.5925 162.209 92.5925 162.209C92.7486 162.219 92.7486 162.219 92.9046 162.23C93.0607 162.24 93.2167 162.251 93.4558 162.188C93.3728 162.261 93.4459 162.344 93.3629 162.417C93.1338 162.323 93.0508 162.396 92.8948 162.386C92.8948 162.386 92.8948 162.386 92.8118 162.459C91.6997 162.698 90.7436 162.948 89.6315 163.188C88.9144 163.375 88.2902 163.334 87.7489 163.219C87.6758 163.136 87.5198 163.126 87.4368 163.199L87.3637 163.116C86.8225 163.001 86.3642 162.814 86.1547 162.408C85.7893 161.992 85.4139 161.732 84.8726 161.618C84.2583 161.42 83.7269 161.15 83.1224 160.796C82.3717 160.276 81.7869 159.61 81.5241 158.809C81.3344 158.091 80.9788 157.519 80.6133 157.102C80.1115 156.364 79.7756 155.479 79.7617 154.46C79.7478 153.44 79.7142 152.732 79.5245 152.014C79.5343 151.858 79.4711 151.619 79.481 151.463C79.4276 151.067 79.5303 150.682 79.789 150.308C80.0478 149.933 80.2236 149.631 80.4823 149.256C80.824 148.809 81.0926 148.278 81.3514 147.903C81.6101 147.529 81.7859 147.227 82.1079 147.092C82.3469 147.029 82.5128 146.883 82.6056 146.655C82.6985 146.426 82.7913 146.197 82.8841 145.968L82.9769 145.739C83.0599 145.666 82.9868 145.583 82.9137 145.499L82.7675 145.333L82.5285 145.395C82.5285 145.395 82.3724 145.385 82.3626 145.541C82.2796 145.614 82.2697 145.77 82.1868 145.843C82.0011 146.301 81.7523 146.519 81.3473 146.728C81.1814 146.873 80.9325 147.092 80.7567 147.394C80.3222 148.07 79.8047 148.82 79.2043 149.642C78.6038 150.464 78.4715 151.317 78.6514 152.191C78.8312 153.065 78.9379 153.856 79.0348 154.803C79.1317 155.75 79.3115 156.624 79.9694 157.373C80.325 157.945 80.6806 158.518 80.9434 159.319C81.143 159.881 81.3524 160.286 81.6448 160.619C81.7179 160.703 81.7179 160.703 81.791 160.786C82.4488 161.535 83.1995 162.055 84.2722 162.44C84.4282 162.45 84.5013 162.533 84.6574 162.544C85.0426 162.648 85.3449 162.825 85.5641 163.074C85.5641 163.074 85.5641 163.074 85.6372 163.158C86.1489 163.74 86.8462 163.865 87.2315 163.969L87.3875 163.979C87.6996 164 87.9288 164.094 88.2409 164.114C88.553 164.135 88.8651 164.156 89.2602 164.104C90.3723 163.864 91.4844 163.625 92.5966 163.385L92.8356 163.322C91.3719 164.166 90.084 164.707 87.753 164.395C86.2754 164.219 84.9736 163.74 83.7744 162.877C82.7215 162.18 81.7515 161.41 81.0205 160.578C79.6219 159.153 78.7209 157.29 78.2447 154.907C78.0213 153.482 78.0271 152.15 78.6572 150.859C79.38 149.34 80.0002 148.206 80.7666 147.238C81.367 146.415 82.1966 145.687 83.1724 145.125L83.7433 144.771L84.0456 144.948C84.3478 145.124 84.5671 145.374 84.8693 145.551C84.8693 145.551 84.9424 145.634 85.0985 145.645C85.0155 145.717 84.9424 145.634 84.9326 145.79C84.7231 145.385 84.5572 145.53 84.5474 145.686Z" fill="#85B472"/>
<path d="M88.0576 180.639L87.872 181.097C87.6034 181.628 87.4177 182.086 87.1491 182.616C86.602 183.834 86.5962 185.166 86.8097 186.748C87.0962 188.412 87.7877 189.869 88.7281 191.107C89.0936 191.523 89.4492 192.096 89.9609 192.678C91.0475 194.083 92.3098 195.186 93.5821 196.132C94.2597 196.569 94.8642 196.923 95.5418 197.36C97.3651 198.265 99.467 198.483 101.379 197.983C102.813 197.608 104.101 197.066 105.336 196.13C106.726 195.203 107.815 194.1 108.674 192.903C109.015 192.456 109.45 191.779 109.728 191.092C110.007 190.405 110.129 189.708 110.242 189.167L110.335 188.938C110.345 188.782 110.354 188.626 110.208 188.459C110.062 188.293 109.916 188.127 109.77 187.96C109.477 187.627 109.175 187.45 108.883 187.117L108.434 186.774L108.351 186.847C108.195 186.837 108.039 186.826 107.956 186.899C107.644 186.878 107.405 186.941 107.166 187.003L107.083 187.076L107 187.149C106.99 187.305 106.907 187.378 106.98 187.461C106.834 187.295 106.678 187.284 106.512 187.43C106.429 187.503 106.19 187.565 106.107 187.638C105.536 187.992 105.049 188.273 104.571 188.398C102.888 188.992 101.39 189.127 99.8296 189.024C98.8933 188.961 98.196 188.837 97.4354 188.473L97.2063 188.379C96.9771 188.285 96.904 188.202 96.6749 188.109C95.3098 187.391 94.1739 186.767 93.36 186.007C92.0976 184.905 91.3864 183.76 90.9971 182.48C90.9339 182.241 90.7976 181.918 90.6613 181.596C90.598 181.357 90.4518 181.19 90.3056 181.024C90.2325 180.94 90.1594 180.857 90.0765 180.93C90.1594 180.857 90.0863 180.774 90.1693 180.701C90.0962 180.618 90.1792 180.545 90.1061 180.462C90.033 180.379 89.8769 180.368 89.6379 180.431C89.5549 180.503 89.4818 180.42 89.3989 180.493C89.2428 180.483 89.1599 180.556 89.0038 180.545C88.3262 180.108 88.0675 180.483 88.0576 180.639ZM109.296 189.261C108.988 190.416 108.533 191.405 108.006 192.31C106.38 194.475 104.243 196.057 101.531 196.817C99.9311 197.338 98.2875 197.307 96.7566 196.735C96.5274 196.641 96.2252 196.465 95.9131 196.444C96.9126 196.745 98.005 196.818 99.1705 196.974C100.419 197.057 101.614 196.744 102.59 196.182C104.458 195.131 106.025 193.903 107.206 192.57C107.88 191.831 108.49 190.853 109.027 189.792C109.11 189.719 109.037 189.636 109.12 189.563L109.203 189.49L109.296 189.261ZM108.312 187.471C108.541 187.565 108.614 187.648 108.687 187.731C108.906 187.981 109.136 188.075 109.355 188.324L109.282 188.241C109.063 187.991 108.76 187.815 108.541 187.565C108.385 187.555 108.312 187.471 108.312 187.471ZM106.951 187.929C107.034 187.857 106.961 187.773 107.044 187.701C107.117 187.784 107.117 187.784 107.19 187.867C107.409 188.117 107.628 188.366 107.848 188.616L108.067 188.866L107.715 189.469C107.261 190.458 106.578 191.353 105.904 192.092C105.065 192.977 103.996 193.768 102.532 194.611C101.391 195.319 100.04 195.621 98.562 195.444C96.2211 195.289 94.2318 194.53 92.6672 193.25C91.7704 192.563 90.8833 191.721 90.0793 190.805C89.129 189.723 88.4276 188.423 88.1312 186.914C87.572 184.604 87.8899 183.293 88.6128 181.773L88.5931 182.085C88.441 183.251 88.372 184.343 88.2931 185.592C88.2734 185.904 88.3267 186.3 88.39 186.539C88.4532 186.778 88.4335 187.091 88.5698 187.413L88.5599 187.569C88.6864 188.048 88.8859 188.61 89.4806 189.12C89.7828 189.296 90.0021 189.546 90.0555 189.941C90.1286 190.025 90.1187 190.181 90.2649 190.347C90.83 191.325 91.4147 191.991 92.2385 192.594C92.3116 192.678 92.3116 192.678 92.3847 192.761C92.7601 193.021 93.2184 193.208 93.7596 193.323C94.53 193.531 95.1444 193.728 95.7489 194.082C96.5826 194.529 97.509 194.747 98.4552 194.653C99.4014 194.56 100.182 194.611 101.118 194.674C102.127 194.819 102.928 194.559 103.601 193.82C104.431 193.091 105.094 192.508 105.675 191.998C105.924 191.78 106.173 191.561 106.266 191.332C106.368 190.947 106.7 190.656 107.105 190.448C107.188 190.375 107.271 190.302 107.437 190.156C107.52 190.083 107.447 190 107.53 189.927L107.54 189.771L107.31 189.678C107.237 189.594 107.154 189.667 106.998 189.657L106.759 189.719C106.52 189.782 106.271 190 106.032 190.063C105.867 190.209 105.701 190.354 105.608 190.583C105.505 190.968 105.256 191.187 104.924 191.478C104.51 191.843 104.095 192.207 103.607 192.488C103.275 192.779 102.943 193.071 102.694 193.289C102.362 193.581 102.04 193.716 101.645 193.768C101.489 193.758 101.25 193.82 101.094 193.81C100.314 193.758 99.5337 193.706 98.5875 193.8C97.6413 193.894 96.6319 193.749 95.8812 193.228C95.3498 192.958 94.8184 192.688 93.965 192.552C93.1116 192.417 92.434 191.98 91.8591 191.159C91.3475 190.576 91.0649 190.087 90.8654 189.525C90.6658 188.963 90.3734 188.63 89.842 188.36C89.4667 188.1 89.1743 187.767 88.9747 187.205L88.9016 187.122C88.8285 187.039 88.8384 186.882 88.7653 186.799C88.5657 186.237 88.4491 185.603 88.4886 184.978C88.5577 183.886 88.7828 182.803 88.8518 181.711C88.9348 181.638 88.9446 181.482 88.7984 181.315C88.8814 181.242 89.0374 181.253 89.0374 181.253C89.0276 181.409 89.0177 181.565 89.081 181.804C89.0711 181.96 89.1442 182.044 89.1343 182.2C89.1245 182.356 89.1976 182.439 89.1877 182.595C89.3379 183.937 89.9662 185.155 90.9896 186.32C91.5012 186.903 92.0959 187.412 92.7735 187.849C92.9196 188.016 93.1488 188.109 93.2219 188.193C93.9726 188.713 94.8062 189.16 95.6498 189.451L96.1081 189.638C97.0978 190.096 98.0242 190.314 99.3557 190.324C101.155 190.366 102.901 190.012 104.75 189.272C105.072 189.137 105.477 188.929 105.726 188.71C105.809 188.637 105.975 188.492 106.131 188.502C106.858 188.158 106.941 188.086 106.951 187.929Z" fill="#85B472"/>
<path d="M199.772 220.667C200.021 220.449 200.197 220.147 200.363 220.001C200.788 219.481 201.339 219.439 201.963 219.481C202.348 219.585 202.65 219.762 202.963 219.782C203.431 219.813 203.889 220.001 204.367 219.876C204.835 219.907 205.011 219.605 204.885 219.126C204.758 218.648 204.559 218.086 204.515 217.534C204.452 217.295 204.315 216.972 204.252 216.733C204.145 215.942 204.331 215.484 204.975 215.214C205.297 215.078 205.619 214.943 205.785 214.797C206.273 214.516 206.449 214.214 206.488 213.59C206.445 213.039 206.474 212.57 206.431 212.019C206.407 211.155 206.383 210.291 206.515 209.438C206.707 207.648 207.722 206.462 209.332 205.785C210.298 205.379 210.995 205.504 211.643 206.409C212.082 206.908 212.52 207.408 212.876 207.98C213.514 209.041 214.474 209.967 215.444 210.737C215.893 211.08 216.331 211.58 216.697 211.996C217.355 212.745 217.617 213.546 217.402 214.472C217.3 214.857 217.28 215.169 217.177 215.554C216.664 217.48 217.096 219.311 218.163 221.028C218.592 221.683 218.948 222.255 219.293 222.984C220.068 224.368 219.77 225.367 218.701 226.158C218.618 226.231 218.618 226.231 218.535 226.303C217.954 226.813 217.53 227.334 217.407 228.031C217.314 228.26 217.295 228.572 217.202 228.801C216.821 229.873 216.011 230.289 214.938 229.905C214.709 229.811 214.407 229.634 214.105 229.457C213.646 229.27 213.271 229.01 212.896 228.75C212.593 228.573 212.208 228.469 211.896 228.448C211.033 228.469 210.345 228.189 209.585 227.825C208.897 227.544 208.21 227.263 207.522 226.982C205.46 226.14 203.358 225.922 201.227 226.172C201.071 226.161 200.915 226.151 200.895 226.463C201.353 226.65 201.729 226.911 202.114 227.015C204.176 227.857 206.238 228.699 208.374 229.625C210.895 230.655 213.352 231.445 216.078 231.705C217.483 231.798 218.784 232.276 220.086 232.755C220.315 232.848 220.545 232.942 220.857 232.963C221.345 232.682 221.53 232.224 221.643 231.683C221.828 231.225 222.014 230.767 222.117 230.382C222.376 230.007 222.634 229.632 223.176 229.747C223.946 229.955 224.517 229.601 225.088 229.247C225.576 228.966 225.981 228.758 226.468 228.476C227.434 228.07 228.205 228.278 228.946 228.955C229.092 229.121 229.311 229.371 229.457 229.537C229.667 229.943 230.032 230.359 230.242 230.765C230.66 231.576 231.265 231.93 232.118 232.065C232.66 232.18 233.284 232.221 233.752 232.252C235 232.335 236.176 232.335 237.424 232.418C238.985 232.522 240.462 232.698 242.013 232.958C243.179 233.114 244.178 233.415 245.168 233.873C245.855 234.154 246.46 234.508 246.972 235.09C247.849 236.089 247.853 237.265 246.784 238.056C246.203 238.566 245.476 238.909 244.676 239.17C242.837 239.753 240.862 240.013 238.989 239.889C237.429 239.785 235.868 239.682 234.391 239.505C234.235 239.495 233.932 239.318 233.674 239.692C234.507 240.14 235.331 240.743 236.165 241.19C237.676 242.074 239.197 242.803 240.791 243.614C241.396 243.968 242.156 244.332 242.678 244.758C243.053 245.018 243.429 245.278 243.711 245.767C244.359 246.672 244.134 247.755 243.085 248.234C242.68 248.442 242.285 248.494 241.817 248.463C241.432 248.359 240.964 248.328 240.661 248.151C239.515 247.683 238.214 247.204 236.995 246.653C236.38 246.456 235.776 246.102 235.088 245.821C234.63 245.634 234.245 245.53 233.601 245.801C233.591 245.957 233.498 246.186 233.562 246.425C233.522 247.049 233.639 247.684 233.599 248.308C233.633 249.016 233.51 249.713 233.242 250.244C232.861 251.316 232.051 251.732 230.885 251.576C230.417 251.545 229.959 251.358 229.501 251.171C227.199 250.391 225.083 249.153 223.226 247.541C221.369 245.928 219.264 244.534 217.158 243.14C212.258 240.072 207.432 237.086 202.44 234.246C200.627 233.185 198.823 231.968 197.01 230.907C196.03 230.294 195.206 229.69 194.226 229.077C193.997 228.983 193.768 228.889 193.539 228.796C193.104 229.472 192.826 230.159 192.474 230.763C192.123 231.366 191.771 231.97 191.336 232.646C191.483 232.813 191.712 232.906 191.858 233.073C192.516 233.822 193.184 234.415 193.841 235.164C195.43 237.307 196.779 239.513 197.963 241.865C198.873 243.571 199.618 245.423 200.446 247.202C202.365 251.562 204.449 255.776 206.689 260C207.255 260.978 207.746 261.873 208.624 262.872C208.716 262.643 208.809 262.414 208.819 262.258C208.785 261.55 208.825 260.926 208.791 260.218C208.811 259.906 208.748 259.667 208.768 259.354C208.807 258.73 209.295 258.449 209.909 258.647C210.138 258.74 210.441 258.917 210.587 259.083C210.743 259.094 210.889 259.26 211.118 259.354C210.919 258.792 210.709 258.386 210.656 257.991C210.549 257.2 210.974 256.68 211.754 256.731C212.149 256.679 212.534 256.783 212.91 257.043C213.597 257.324 214.358 257.688 215.045 257.969C215.201 257.979 215.43 258.073 215.586 258.083C215.46 257.605 215.407 257.209 215.353 256.814C215.247 256.023 215.681 255.347 216.471 255.242C216.866 255.19 217.334 255.221 217.803 255.253C218.656 255.388 219.426 255.596 220.28 255.731C221.591 256.053 222.913 256.219 224.308 256.469C225.546 256.708 226.805 256.635 228.073 256.405C228.229 256.416 228.312 256.343 228.634 256.208C227.727 255.677 226.893 255.23 226.133 254.866C222.403 253.129 218.624 252.172 214.507 252.839C213.873 252.954 213.249 252.912 212.625 252.871C211.064 252.767 210.031 251.758 209.579 250.239C209.525 249.843 209.472 249.448 209.419 249.052C209.375 248.501 209.249 248.022 209.049 247.46C208.84 247.055 208.786 246.659 208.733 246.264C208.67 246.025 208.616 245.629 208.636 245.317C208.519 244.682 208.3 244.433 207.593 244.464C207.198 244.516 206.803 244.568 206.408 244.62C205.618 244.724 204.93 244.444 204.428 243.705C204.063 243.289 203.707 242.717 203.425 242.228C202.231 240.032 200.789 238.055 199.025 236.214C198.211 235.454 197.47 234.778 196.739 233.946C196.374 233.53 196.081 233.197 195.716 232.781C195.57 232.614 195.506 232.375 195.433 232.292C195.37 232.052 195.546 231.751 195.775 231.844C195.931 231.855 196.16 231.948 196.316 231.959C196.692 232.219 197.067 232.479 197.359 232.812C198.32 233.738 199.436 234.674 200.313 235.673C202.014 237.275 203.466 239.095 204.586 241.208C204.796 241.613 205.088 241.946 205.297 242.352C205.58 242.841 205.965 242.945 206.516 242.903C206.911 242.851 207.306 242.799 207.701 242.747C208.95 242.83 209.92 243.6 209.997 244.859C210.06 245.098 210.041 245.41 210.104 245.65C210.24 245.972 210.293 246.368 210.513 246.617C210.951 247.117 211.068 247.751 211.185 248.386C211.238 248.782 211.218 249.094 211.354 249.416C211.617 250.217 211.993 250.478 212.783 250.373C213.334 250.332 213.968 250.217 214.529 250.019C215.724 249.707 217.055 249.717 218.304 249.8C222.82 250.257 226.613 252.233 230.386 254.521C230.615 254.615 230.761 254.781 230.907 254.948C231.054 255.114 231.2 255.281 231.346 255.447C231.838 256.342 231.632 257.112 230.823 257.529C230.335 257.81 229.774 258.007 229.14 258.122C226.437 258.726 223.711 258.467 221.005 257.895C220.078 257.677 219.225 257.542 218.382 257.25C218.152 257.157 217.913 257.219 217.601 257.198C217.738 257.521 217.874 257.844 217.927 258.239C217.981 258.634 218.19 259.04 218.17 259.352C218.267 260.299 217.53 260.799 216.677 260.664C216.365 260.643 216.063 260.466 215.76 260.289C214.927 259.842 214.093 259.395 213.26 258.948C213.03 258.854 212.811 258.604 212.489 258.74C212.625 259.062 212.689 259.302 212.825 259.624C213.034 260.03 213.317 260.519 213.443 260.998C213.58 261.32 213.477 261.705 213.301 262.007C213.052 262.225 212.74 262.205 212.282 262.018C211.98 261.841 211.751 261.747 211.531 261.497C211.156 261.237 210.864 260.904 210.415 260.561C210.269 260.395 210.04 260.301 209.811 260.207C209.844 260.915 209.878 261.623 209.838 262.247C209.809 262.715 209.696 263.256 209.511 263.714C209.242 264.245 208.681 264.443 208.233 264.1C207.93 263.923 207.638 263.59 207.346 263.257C206.04 261.603 204.9 259.803 203.926 257.857C201.895 254.038 200.103 250.158 198.321 246.12C196.884 242.812 195.199 239.722 193.275 236.694C192.783 235.799 192.052 234.967 191.321 234.134C191.101 233.885 190.892 233.479 190.424 233.448C189.458 233.854 188.638 234.426 187.682 234.676C186.404 235.062 185.209 235.374 183.858 235.676C181.79 236.166 179.761 236.031 177.762 235.428C174.222 234.409 170.95 232.859 168.206 230.404C166.057 228.458 163.981 226.596 161.914 224.578C159.326 222.133 157.07 219.397 154.731 216.733C147.797 208.67 140.872 200.451 134.021 192.315C130.157 187.748 126.449 183.191 122.584 178.624C117.624 172.808 112.829 166.847 108.605 160.531C107.246 158.481 106.043 156.442 105.088 154.184C104.753 153.3 104.417 152.415 104.164 151.458C103.974 150.74 103.94 150.033 103.98 149.408C103.976 148.232 104.805 147.504 105.981 147.504C106.449 147.535 106.917 147.566 107.385 147.597C108.083 147.722 108.853 147.93 109.54 148.21C111.154 148.71 112.675 149.438 114.104 150.395C116.439 151.882 118.93 153.38 121.182 154.94C127.261 159.185 133.349 163.273 139.521 167.288C144.941 170.783 150.269 174.508 155.607 178.076C158.391 179.906 161.164 181.893 163.772 184.026C167.652 187.105 171.605 190.268 175.568 193.274C179.155 196.021 182.577 198.913 185.823 202.106C187.304 203.459 188.62 204.957 189.926 206.611C190.574 207.516 191.461 208.359 192.109 209.264C193.269 210.752 194.584 212.25 195.412 214.029C196.256 214.321 196.329 214.404 196.674 215.132C197.419 216.984 197.696 218.805 197.339 220.741C197.236 221.126 197.206 221.594 197.094 222.135C198.767 221.698 198.933 221.552 199.772 220.667ZM106.222 151.125C106.592 152.717 107.283 154.173 108.131 155.64C110.245 159.386 112.929 162.778 115.531 166.242C118.499 170.123 121.632 173.858 124.921 177.604C129.234 182.514 133.225 187.56 137.454 192.544C145.183 201.678 152.828 210.886 160.796 219.958C163.866 223.454 167.351 226.585 170.919 229.644C173.443 231.849 176.422 233.066 179.67 233.752C181.523 234.189 183.342 233.918 185.171 233.491C186.283 233.251 187.322 232.928 188.371 232.449C189.42 231.97 190.25 231.242 190.704 230.253C191.871 227.901 193.112 225.632 194.508 223.374C195.387 221.865 195.881 220.252 195.833 218.525C195.819 217.505 195.722 216.558 195.709 215.538C195.479 215.445 195.167 215.424 194.938 215.33C194.709 215.237 194.646 214.997 194.5 214.831C194.28 214.581 194.061 214.332 193.769 213.999C193.33 213.499 192.965 213.083 192.526 212.584C191.868 211.835 191.283 211.169 190.625 210.42C190.187 209.92 189.748 209.421 189.31 208.922C188.004 207.267 186.532 205.759 184.977 204.323C180.157 200.006 175.151 196.146 170.072 192.204C169.926 192.037 169.624 191.86 169.321 191.683C169.136 192.141 169.033 192.526 168.847 192.984C168.745 193.369 168.569 193.671 168.31 194.046C167.949 194.805 167.431 195.555 166.767 196.138C166.519 196.356 166.197 196.492 165.875 196.627C165.553 196.762 165.26 196.429 165.28 196.117C165.3 195.805 165.476 195.503 165.651 195.201C166.262 194.223 166.872 193.245 167.409 192.183C167.678 191.653 167.937 191.278 168.361 190.757C168.142 190.508 167.84 190.331 167.62 190.081C163 186.326 158.13 182.789 153.168 179.481C148.351 176.339 143.701 173.052 138.885 169.911C135.351 167.56 131.743 165.125 128.458 162.556C128.156 162.379 128.01 162.213 127.634 161.953C127.531 162.338 127.512 162.65 127.409 163.035C127.389 163.347 127.214 163.649 127.038 163.951C126.862 164.252 126.686 164.554 126.584 164.939C126.408 165.241 126.315 165.47 126.139 165.772C125.963 166.074 125.788 166.375 125.612 166.677C125.001 167.656 124.245 168.467 123.342 169.113C122.927 169.477 122.449 169.602 122.044 169.81C121.722 169.946 121.42 169.769 121.274 169.602C121.128 169.436 121.148 169.124 121.314 168.978C121.479 168.832 121.572 168.603 121.738 168.457C122.495 167.646 123.251 166.834 123.935 165.939C124.618 165.044 125.301 164.149 125.912 163.17C126.253 162.723 126.522 162.192 126.791 161.661C126.718 161.578 126.801 161.505 126.727 161.422C123.13 158.832 119.542 156.085 115.779 153.641C114.57 152.934 113.361 152.226 112.152 151.519C110.943 150.812 109.568 150.25 108.174 150C107.559 149.803 107.018 149.689 106.301 149.876C105.896 150.084 106.096 150.646 106.222 151.125ZM244.947 236.131C244.186 235.767 243.343 235.476 242.572 235.268C241.178 235.019 239.783 234.769 238.379 234.676C237.13 234.593 235.882 234.51 234.633 234.427C233.78 234.292 232.917 234.313 232.063 234.178C230.669 233.928 229.689 233.314 228.904 232.087C228.622 231.598 228.329 231.265 228.047 230.776C227.974 230.693 227.828 230.526 227.672 230.516C227.203 230.485 226.872 230.776 226.467 230.984C225.647 231.557 224.837 231.973 223.818 231.984C223.642 232.286 223.622 232.598 223.373 232.816C223.115 233.191 222.846 233.722 222.587 234.096C221.831 234.908 220.948 235.241 219.875 234.857C219.646 234.763 219.417 234.669 219.032 234.565C217.959 234.181 216.959 233.879 215.867 233.807C213.141 233.547 210.527 232.746 208.007 231.717C205.184 230.51 202.351 229.46 199.528 228.253C198.611 227.879 197.768 227.588 196.924 227.297C196.466 227.109 195.852 226.912 195.579 226.267C195.164 226.631 195.052 227.172 194.71 227.62C194.939 227.713 195.012 227.796 195.085 227.88C196.387 228.358 197.669 229.149 198.961 229.783C201.306 231.115 203.578 232.363 205.923 233.694C207.59 234.589 209.257 235.483 210.842 236.451C213.708 238.209 216.575 239.967 219.524 241.652C221.713 242.973 223.663 244.356 225.427 246.198C227.045 247.873 229.088 249.027 231.306 249.88C231.379 249.963 231.535 249.974 231.691 249.984C231.764 250.067 231.847 249.995 231.93 249.922C232.189 249.547 232.219 249.079 232.248 248.61C232.214 247.903 232.254 247.279 232.22 246.571C232.163 245 233.002 244.115 234.646 244.146C235.197 244.104 235.811 244.302 236.353 244.416C236.967 244.614 237.571 244.967 238.186 245.165C239.102 245.539 240.092 245.997 241.009 246.371C241.029 246.059 240.799 245.966 240.643 245.955C239.205 245.154 237.684 244.426 236.246 243.625C234.359 242.481 232.546 241.42 230.659 240.276C230.357 240.099 230.055 239.922 229.909 239.756C229.324 239.09 229.539 238.164 230.422 237.83C230.9 237.705 231.295 237.653 231.69 237.601C232.626 237.663 233.563 237.726 234.499 237.788C235.904 237.881 237.298 238.131 238.703 238.224C240.336 238.411 241.917 238.203 243.507 237.838C244.224 237.651 245.024 237.39 245.678 236.963C245.551 236.485 245.176 236.225 244.947 236.131ZM208.222 209.708C208.183 210.333 208.143 210.957 208.104 211.581C208.064 212.206 208.098 212.913 208.141 213.465C208.209 214.88 207.608 215.702 206.394 216.327C206.311 216.4 206.154 216.389 206.072 216.462C205.989 216.535 205.989 216.535 205.823 216.681C205.72 217.066 205.939 217.315 205.993 217.711C206.119 218.189 206.319 218.751 206.362 219.303C206.542 220.177 206.181 220.937 205.371 221.353C204.644 221.697 203.937 221.728 203.166 221.52C202.625 221.406 202.011 221.208 201.469 221.094C200.64 221.822 200.185 222.811 199.137 223.29C198.244 223.779 197.424 224.352 196.458 224.758C196.614 224.768 196.77 224.778 196.926 224.789C198.35 224.57 199.858 224.278 201.199 224.132C204.037 223.851 206.754 224.266 209.421 225.462C209.952 225.733 210.41 225.92 210.942 226.191C211.4 226.378 211.785 226.482 212.326 226.596C212.868 226.71 213.482 226.908 214.013 227.178C214.545 227.449 215.076 227.719 215.608 227.99C215.886 227.303 216.092 226.533 216.516 226.012C216.868 225.409 217.366 224.972 217.79 224.451C217.674 223.817 217.235 223.317 216.953 222.828C216.461 221.933 216.042 221.122 215.633 220.154C215.161 218.947 215.073 217.844 215.235 216.523C215.275 215.898 215.47 215.284 215.51 214.66C215.705 214.046 215.496 213.64 215.057 213.141C214.838 212.891 214.619 212.641 214.243 212.381C213.054 211.362 212.031 210.197 211.173 208.886C210.891 208.397 210.598 208.064 210.233 207.647C209.038 207.96 208.447 208.626 208.222 209.708Z" fill="#85B472"/>
<path d="M140.78 194.489C141.072 194.822 141.281 195.227 141.501 195.477C142.232 196.309 142.88 197.215 143.611 198.047C144.122 198.629 144.717 199.139 145.229 199.722C147.753 201.927 150.278 204.133 152.72 206.411C158.563 211.894 164.314 217.605 170.065 223.317C171.537 224.825 173.092 226.261 174.72 227.78C175.46 228.456 176.284 229.06 177.191 229.59C178.473 230.381 179.941 230.713 181.511 230.661C182.457 230.567 183.174 230.38 183.921 229.724C184.087 229.578 184.253 229.432 184.263 229.276C184.439 228.975 184.229 228.569 183.917 228.548C183.678 228.61 183.449 228.517 183.283 228.663C181.517 229.329 179.893 228.986 178.226 228.091C177.392 227.644 176.724 227.051 175.974 226.531C172.762 224.045 169.798 221.34 166.835 218.635C162.4 214.422 157.882 210.281 153.53 205.995C151.244 203.727 149.114 201.469 147.243 198.837C146.021 197.11 144.539 195.757 142.974 194.478C142.672 194.301 142.453 194.051 142.224 193.958C141.994 193.864 141.765 193.77 141.536 193.677C141.307 193.583 140.912 193.635 140.819 193.864C140.726 194.093 140.789 194.333 140.78 194.489Z" fill="#85B472"/>
<path d="M165.998 208.313C166.652 207.886 167.223 207.532 167.721 207.095C169.453 205.721 170.893 204.014 171.884 201.964C172.329 201.131 172.7 200.215 173.154 199.227C173.34 198.769 173.443 198.384 173.545 197.999C173.638 197.77 173.575 197.531 173.512 197.291C173.448 197.052 173.302 196.885 173.073 196.792C172.844 196.698 172.605 196.761 172.512 196.99C172.346 197.135 172.336 197.291 172.243 197.52C170.93 199.706 169.387 201.798 167.772 203.807C166.839 204.92 165.824 206.107 164.673 206.971C164.424 207.189 164.175 207.408 164.082 207.637C163.906 207.938 164.106 208.5 164.501 208.448C165.042 208.563 165.603 208.365 165.998 208.313Z" fill="#85B472"/>
<path d="M147.671 193.301C148.169 192.864 148.823 192.437 149.248 191.916C150.668 190.522 151.869 188.877 152.767 187.056C153.388 185.922 153.852 184.777 154.316 183.632C154.419 183.247 154.521 182.862 154.624 182.477C154.717 182.248 154.497 181.999 154.268 181.905C154.039 181.811 153.8 181.874 153.634 182.02C153.458 182.321 153.21 182.54 153.034 182.842C151.11 186.006 149.04 189.003 146.512 191.813C146.346 191.959 146.253 192.188 146.087 192.333C145.994 192.562 145.975 192.874 146.121 193.041C146.34 193.291 146.569 193.384 146.808 193.322C146.964 193.332 147.047 193.259 147.203 193.27C147.432 193.363 147.515 193.29 147.671 193.301Z" fill="#85B472"/>
<path d="M136.605 187.392C136.561 186.841 136.269 186.508 136.059 186.102C134.647 183.657 132.985 181.43 131.241 179.277C130.154 177.872 128.912 176.457 127.825 175.053C127.533 174.72 127.313 174.47 126.938 174.21C126.792 174.043 126.397 174.096 126.304 174.325C126.221 174.397 126.201 174.71 126.191 174.866C126.328 175.188 126.391 175.428 126.61 175.677C127.248 176.738 127.969 177.727 128.774 178.642C130.245 180.151 131.634 181.732 133.023 183.314C133.827 184.229 134.465 185.29 135.269 186.206C135.562 186.539 135.927 186.955 136.302 187.215C136.21 187.444 136.366 187.454 136.605 187.392Z" fill="#85B472"/>
<path d="M187.548 210.763C187.422 210.285 186.88 210.17 186.632 210.389C186.383 210.607 186.207 210.909 186.031 211.211C185.338 212.262 184.718 213.397 184.024 214.448C183.248 215.572 182.472 216.696 181.393 217.643C181.31 217.716 181.31 217.716 181.227 217.789C181.062 217.934 180.969 218.163 181.115 218.33C181.261 218.496 181.407 218.663 181.563 218.673C181.719 218.683 181.958 218.621 182.114 218.631C182.436 218.496 182.758 218.361 182.924 218.215C184.667 216.685 186.18 215.061 187.098 212.928C187.284 212.47 187.479 211.856 187.592 211.315C187.528 211.075 187.465 210.836 187.548 210.763Z" fill="#85B472"/>
<path d="M136.948 178.245C137.758 177.829 138.495 177.329 139.085 176.663C139.769 175.768 140.452 174.873 141.062 173.895C141.321 173.52 141.351 173.052 141.453 172.667C141.473 172.354 141.181 172.021 140.786 172.074C140.63 172.063 140.464 172.209 140.298 172.355C139.253 174.009 137.843 175.248 136.569 176.809C136.393 177.111 136.144 177.33 135.968 177.631C135.958 177.787 135.865 178.016 136.012 178.183C136.075 178.422 136.387 178.443 136.626 178.38C136.709 178.308 136.792 178.235 136.948 178.245Z" fill="#85B472"/>
<path d="M182.143 211.972C182.289 212.138 182.592 212.315 182.831 212.253C183.07 212.19 183.392 212.055 183.484 211.826C184.261 210.702 184.964 209.495 185.209 208.1C185.301 207.871 185.238 207.632 185.175 207.393C185.195 207.08 185.049 206.914 184.746 206.737C184.517 206.643 184.268 206.862 184.092 207.164C184 207.393 183.834 207.538 183.741 207.767C183.472 208.298 183.277 208.912 183.091 209.37C182.813 210.057 182.69 210.754 182.11 211.264C181.944 211.41 182.007 211.649 182.143 211.972Z" fill="#85B472"/>
<path d="M163.223 193.943C163.306 193.87 163.545 193.807 163.711 193.662C164.375 193.079 164.965 192.413 165.41 191.58C165.502 191.351 165.522 191.039 165.542 190.727C165.489 190.331 165.03 190.144 164.854 190.446C164.098 191.258 163.341 192.07 162.585 192.881C162.502 192.954 162.492 193.11 162.409 193.183C162.316 193.412 162.38 193.652 162.526 193.818C162.589 194.057 162.901 194.078 163.223 193.943Z" fill="#85B472"/>
<path d="M147.901 184.694C147.735 184.84 147.423 184.819 147.247 185.121C146.325 186.079 145.412 186.88 144.49 187.838C144.324 187.983 144.148 188.285 144.055 188.514C143.963 188.743 144.255 189.076 144.494 189.014C144.733 188.951 145.055 188.816 145.221 188.67C146.299 187.723 147.232 186.609 148.008 185.485C148.101 185.256 148.194 185.027 147.901 184.694Z" fill="#85B472"/>
<path d="M118.142 157.167C118.059 157.24 117.82 157.302 117.737 157.375C117.229 157.969 116.712 158.718 116.204 159.311C116.038 159.457 115.945 159.686 115.853 159.915C115.667 160.373 116.106 160.872 116.584 160.747C116.823 160.685 117.062 160.622 117.154 160.393C117.745 159.727 118.18 159.051 118.468 158.208C118.644 157.906 118.59 157.51 118.142 157.167Z" fill="#85B472"/>
<path d="M134.586 172.21C134.42 172.356 134.337 172.429 134.172 172.575C133.498 173.314 132.824 174.053 132.151 174.792C131.985 174.937 131.965 175.249 132.111 175.416C132.258 175.582 132.487 175.676 132.809 175.541C132.892 175.468 133.131 175.405 133.214 175.332C133.877 174.75 134.468 174.083 134.839 173.168C135.015 172.866 135.035 172.554 134.586 172.21Z" fill="#85B472"/>
<path d="M202.936 166.878C199.783 169.647 196.285 171.687 192.567 173.478C191.758 173.894 190.875 174.228 189.992 174.561C183.416 176.945 177.325 175.365 172.007 171.485C167.357 168.197 164.19 163.755 162.102 158.365C160.568 154.109 160.835 149.895 162.579 145.857C163.043 144.712 163.809 143.744 164.502 142.693C165.528 141.351 166.879 141.049 168.42 141.464C169.034 141.662 169.721 141.943 170.409 142.224C174.148 143.805 177.732 145.375 181.471 146.956C187.805 149.65 194.231 152.114 200.75 154.35C202.593 154.943 204.426 155.692 206.084 156.742C206.532 157.086 206.99 157.273 207.356 157.689C207.648 158.022 207.785 158.345 207.911 158.823C208.037 159.302 208.081 159.853 208.125 160.405C208.178 160.8 207.992 161.258 207.816 161.56C207.094 163.079 205.912 164.412 204.668 165.505C204.087 166.015 203.59 166.452 202.936 166.878ZM170.085 144.867C169.909 145.169 169.651 145.543 169.392 145.918C168.772 147.052 168.464 148.207 168.385 149.456C168.091 151.631 168.504 153.775 169 155.845C169.549 158.311 170.752 160.351 172.443 162.109C174.134 163.867 176.25 165.105 178.561 165.729C180.258 166.155 181.985 166.113 183.618 166.3C185.949 166.612 188.017 166.122 190.115 165.164C193.74 163.603 196.946 161.229 199.786 158.44C198.972 157.681 196.222 156.557 193.39 155.507C193.234 155.497 193.078 155.486 192.912 155.632C193.111 156.194 193.394 156.683 193.603 157.089C194.275 158.857 193.927 160.637 192.59 161.959C191.668 162.916 190.502 162.76 189.708 161.689C189.426 161.2 189.216 160.794 189.017 160.232C188.953 159.993 188.734 159.743 188.451 159.254C188.256 159.868 188.153 160.253 188.051 160.638C187.845 161.408 187.411 162.085 186.82 162.751C186.239 163.261 185.615 163.219 185.103 162.637C184.446 161.888 184.193 160.93 184.408 160.004C184.491 159.931 184.574 159.858 184.74 159.713C185.095 160.285 185.524 160.94 185.87 161.669C186.119 161.45 186.285 161.305 186.451 161.159C186.636 160.701 186.749 160.16 186.934 159.702C186.964 159.234 186.994 158.765 187.179 158.307C187.209 157.839 187.395 157.381 188.029 157.267C188.507 157.142 188.955 157.485 189.165 157.891C189.52 158.463 189.876 159.035 190.158 159.524C190.441 160.013 190.64 160.575 191.162 161.002C191.328 160.856 191.567 160.794 191.65 160.721C192.416 159.753 192.631 158.827 192.159 157.62C191.75 156.652 191.341 155.684 191.015 154.644C187.588 153.084 184.16 151.524 180.65 150.036C179.66 149.579 178.641 149.589 177.3 149.735C177.748 150.078 177.894 150.245 178.114 150.495C178.927 151.254 178.951 152.118 178.268 153.013C177.76 153.606 177.189 153.96 176.482 153.991C175.931 154.033 175.38 154.075 174.902 154.2C174.663 154.262 174.341 154.398 173.697 154.668C174.228 154.939 174.448 155.188 174.687 155.126C175.706 155.115 176.725 155.105 177.671 155.011C178.223 154.969 178.857 154.855 179.481 154.896C180.105 154.938 180.637 155.208 180.617 155.52C180.66 156.072 180.255 156.28 180.006 156.498C179.592 156.863 178.948 157.133 178.42 158.039C181.069 157.039 182.675 155.187 184.876 153.844C184.763 154.385 184.743 154.697 184.577 154.843C183.323 156.092 181.986 157.414 180.293 158.163C179.649 158.434 179.088 158.632 178.454 158.746C178.059 158.799 177.757 158.622 177.537 158.372C177.328 157.966 177.504 157.664 177.753 157.446C178.002 157.227 178.167 157.082 178.416 156.863C178.582 156.717 178.977 156.665 178.851 156.186C178.456 156.239 178.061 156.291 177.666 156.343C176.875 156.447 176.075 156.707 175.212 156.728C174.505 156.76 173.808 156.635 173.11 156.51C172.798 156.49 172.506 156.157 172.287 155.907C171.566 154.919 171.893 153.451 173.025 152.899C173.596 152.546 174.386 152.441 174.947 152.244C175.342 152.191 175.737 152.139 176.371 152.025C175.996 151.765 175.85 151.598 175.621 151.505C175.475 151.338 175.245 151.244 175.099 151.078C174.139 150.152 174.261 149.455 175.257 148.581C175.423 148.435 175.589 148.289 175.838 148.071C174.014 147.166 172.347 146.271 170.753 145.46C170.47 144.971 170.314 144.96 170.085 144.867ZM167.448 143.202C166.711 143.702 166.34 144.618 165.978 145.378C163.839 149.468 163.344 153.588 165.106 157.938C166.596 161.642 168.832 164.69 171.713 167.468C174.008 169.58 176.572 171.161 179.581 171.91C182.278 172.637 184.94 172.658 187.579 171.814C189.262 171.221 190.945 170.627 192.482 169.867C196.127 167.993 199.406 165.703 202.548 163.091C203.461 162.289 204.3 161.405 205.213 160.603C205.296 160.53 205.306 160.374 205.315 160.218C204.399 159.844 203.316 159.615 202.234 159.386C201.985 159.605 201.736 159.824 201.643 160.053C201.033 161.031 200.203 161.759 199.301 162.405C196.417 164.643 193.333 166.319 189.884 167.578C187.723 168.297 185.509 168.62 183.261 168.235C182.334 168.017 181.398 167.955 180.462 167.893C175.727 167.186 172.202 164.679 169.381 160.965C168.158 159.238 167.662 157.167 167.239 155.18C166.457 151.444 166.684 147.854 168.847 144.628C168.847 144.628 168.856 144.472 168.866 144.316C168.667 143.754 168.218 143.41 167.448 143.202Z" fill="#85B472"/>
<path d="M181.979 161.253C181.647 161.545 181.023 161.503 180.73 161.17C180.219 160.588 180.278 159.651 180.785 159.058C181.044 158.683 181.678 158.569 182.044 158.985C182.565 159.411 182.642 160.671 181.979 161.253Z" fill="#85B472"/>
<path d="M196.67 159.409C196.338 159.7 195.787 159.742 195.567 159.492C195.275 159.159 195.304 158.691 195.636 158.399C195.885 158.18 196.281 158.128 196.583 158.305C196.876 158.638 196.919 159.19 196.67 159.409Z" fill="#85B472"/>
<path d="M84.3981 17.852C85.7255 16.6863 87.1161 15.7599 88.7161 15.2392C89.0381 15.1039 89.5892 15.0621 89.9013 15.0829C90.3695 15.114 90.9838 15.3116 91.4422 15.4988C91.8274 15.6028 92.2027 15.8628 92.4951 16.1958C92.8606 16.6119 93.07 17.0177 93.2696 17.5796C94.0974 19.3588 94.5302 21.1901 94.9531 23.1775C96.3285 29.9306 97.9429 36.6212 99.7964 43.2493C100.881 47.1617 101.976 50.918 103.061 54.8303C103.25 55.5483 103.44 56.2662 103.557 56.901C103.843 58.5658 103.369 59.8667 101.832 60.6266C100.701 61.1784 99.6419 61.8134 98.4468 62.1258C94.1445 63.2506 90.004 63.0537 85.982 60.9839C80.8971 58.3731 76.9105 54.503 74.2512 49.4671C71.173 43.6197 70.4653 37.4596 73.6057 31.1634C74.0501 30.3309 74.4945 29.4983 75.012 28.749C77.2676 25.2937 79.7425 22.0882 82.895 19.3196C83.3927 18.8824 83.9003 18.2892 84.3981 17.852ZM100.364 54.1025C99.6924 52.3336 99.0207 50.5648 98.4318 48.7231C98.183 48.9417 98.0171 49.0874 97.8511 49.2331C96.8556 50.1074 96.2314 50.0659 95.3542 49.0671C95.208 48.9007 95.1448 48.6614 94.9986 48.4949C94.8524 48.3284 94.7892 48.0891 94.5798 47.6833C94.3842 48.2973 94.2816 48.6824 94.1789 49.0674C93.9004 49.7542 93.7049 50.3682 93.2802 50.8886C92.5869 51.9398 91.0896 52.0754 90.2026 51.2327C89.9833 50.983 89.6909 50.6501 89.7106 50.3379C89.677 49.6303 89.6434 48.9227 89.7658 48.2255C89.8981 47.3722 90.2595 46.6125 90.4649 45.8424C90.5676 45.4574 90.6702 45.0723 90.7729 44.6873C90.3146 44.5001 90.2119 44.8851 90.046 45.0308C89.7971 45.2494 89.6312 45.3951 89.3823 45.6137C89.1335 45.8323 88.8115 45.9676 88.4361 45.7076C88.1339 45.5307 88.0074 45.0521 88.1832 44.7503C88.3787 44.1363 88.6473 43.6055 88.9989 43.0019C89.9608 41.42 91.4442 40.2647 92.8447 39.1822C93.0106 39.0364 93.3958 39.1404 93.8738 39.0154C92.1021 41.0137 90.1307 42.4502 88.8805 44.875C89.7734 44.3857 90.042 43.855 90.6128 43.5011C90.9447 43.2096 91.2034 42.835 91.6617 43.0222C92.0469 43.1261 92.2564 43.5319 92.1339 44.2291C92.0945 44.8535 91.8259 45.3842 91.7864 46.0086C91.6443 47.018 91.429 47.9442 91.2869 48.9536C91.1941 49.1825 91.4134 49.4322 91.6129 49.9941C91.8815 49.4633 92.0573 49.1615 92.2331 48.8597C92.4187 48.4018 92.4582 47.7774 92.6438 47.3196C92.9223 46.6327 93.2739 46.0291 93.8447 45.6752C94.8205 45.113 95.6739 45.2481 96.3219 46.1533C96.4681 46.3198 96.6044 46.6423 96.9699 47.0585C97.2879 45.7473 97.43 44.7379 97.104 43.6974C96.0824 40.0243 94.9048 36.3409 93.8733 32.824C92.8105 32.2831 91.9769 31.8358 91.0701 31.3053C89.9342 30.6812 88.9149 30.6918 87.9292 31.4101C87.8463 31.4829 87.7535 31.7119 87.5875 31.8576C87.8701 32.3466 88.4015 32.617 88.923 33.0436C89.4445 33.4701 89.9759 33.7405 90.4145 34.2399C90.7069 34.5728 91.0724 34.989 90.8867 35.4469C90.7011 35.9048 90.2962 36.113 89.745 36.1547C89.2769 36.1236 88.8087 36.0925 88.3307 36.2175C87.7795 36.2592 87.3015 36.3842 86.8235 36.5092C86.5844 36.5716 86.4916 36.8006 86.2427 37.0192C86.8374 37.5289 87.515 37.9658 88.0365 38.3923C87.8706 38.5381 87.8607 38.6942 87.7047 38.6838C86.7585 38.7776 85.8418 38.4032 85.184 37.6542C84.6723 37.0715 84.7118 36.4472 85.2925 35.9372C85.9562 35.3543 86.7562 35.094 87.5463 34.9897C87.9414 34.9376 88.3365 34.8855 88.9706 34.7709C88.5221 34.4276 88.3759 34.2612 88.0737 34.0843C87.6252 33.741 87.1669 33.5538 86.7185 33.2105C85.6754 32.3575 85.7543 31.1088 86.8229 30.3177C88.3064 29.1623 90.1158 29.0475 91.7831 29.942C92.2414 30.1292 92.6899 30.4725 93.1383 30.8158C93.2311 30.5869 93.3141 30.514 93.324 30.3579C92.6481 27.4132 91.8064 24.6142 91.2413 23.6362C88.1086 26.0926 85.4242 28.8924 83.3247 32.358C82.1041 34.3145 81.4247 36.3855 81.3597 38.6539C81.3342 40.2981 81.0696 42.0047 81.2732 43.7424C81.5836 46.271 82.5477 48.3727 84.0729 50.2767C85.598 52.1806 87.4649 53.637 89.8394 54.5002C91.8287 55.2594 93.9009 55.9457 96.0956 55.9348C97.3539 55.8617 98.6122 55.7886 99.7342 55.3929C100.056 55.2576 100.461 55.0494 100.866 54.8412C100.418 54.4979 100.427 54.3418 100.364 54.1025ZM101.036 55.8713C100.88 55.861 100.88 55.861 100.724 55.8506C97.2454 57.5787 93.6561 57.3401 90.0529 56.0818C88.1367 55.4059 86.1474 54.6467 84.5926 53.211C81.1908 50.0067 79.1597 46.1882 79.1534 41.3287C79.2126 40.3922 79.1987 39.3724 79.1749 38.5087C79.0839 36.2299 79.6901 34.0757 80.6816 32.0256C82.2932 28.841 84.4363 25.9269 87.0278 23.3561C87.7843 22.5443 88.6139 21.8157 89.6628 21.3368C89.9018 21.2744 90.0776 20.9726 90.3996 20.8372C90.3126 19.7342 90.2987 18.7144 89.9726 17.6739C89.7336 17.7364 89.5776 17.726 89.5776 17.726C88.5919 18.4443 87.6062 19.1625 86.7668 20.0471C83.7703 22.8262 81.0762 25.782 78.7475 29.154C77.7954 30.5798 76.8335 32.1617 76.1838 33.7643C75.0067 36.2724 74.6829 38.9155 75.0565 41.6834C75.4834 44.8467 76.6472 47.5103 78.445 50.0594C80.8276 53.2742 83.5617 55.8855 87.0425 57.8411C91.1278 60.1503 95.2781 60.191 99.61 58.598C100.41 58.3376 101.293 58.0045 101.957 57.4216C101.674 56.9326 101.319 56.3603 101.036 55.8713Z" fill="#85B472"/>
<path d="M85.7668 40.8276C85.4349 41.1191 85.3955 41.7434 85.6879 42.0764C86.1995 42.659 87.1359 42.7212 87.7897 42.2944C88.1946 42.0862 88.3901 41.4722 88.0247 41.0561C87.5861 40.5567 86.3475 40.3176 85.7668 40.8276Z" fill="#85B472"/>
<path d="M89.4106 26.5717C89.0786 26.8633 88.966 27.4048 89.1854 27.6546C89.478 27.9877 89.9464 28.0189 90.2785 27.7273C90.5275 27.5085 90.6303 27.1233 90.4939 26.8005C90.2843 26.3945 89.8158 26.3633 89.4106 26.5717Z" fill="#85B472"/>
<path d="M160.387 65.2226C162.6 67.4073 164.407 69.8003 165.966 72.4118C167.033 74.1286 168.256 75.8557 169.24 77.6452C170.516 79.7678 171.543 82.1088 172.332 84.5124C174.225 90.5162 175.806 96.4992 176.669 102.67C177.936 111.14 177.33 119.485 175.32 127.738C174.449 131.598 172.818 135.095 170.499 138.311C169.039 140.33 167.278 142.172 165.379 143.692C164.882 144.129 164.155 144.473 163.657 144.91C163.086 145.264 162.515 145.618 162.017 146.055C158.821 148.272 155.416 150.083 151.529 150.844C151.05 150.969 150.499 151.01 150.021 151.135C145.334 152.156 140.798 152.011 136.166 150.92C132.085 149.787 128.189 148.195 124.728 145.928C122.018 144.18 120.044 141.933 118.412 139.238C116.697 136.616 115.626 133.723 114.868 130.852C113.486 125.43 113.207 119.926 113.719 114.317C114.23 108.708 115.355 103.297 117.178 98.0103C118.63 93.6396 120.237 89.2792 122.22 85.1788C124.203 81.0785 126.791 77.3319 129.983 73.9389C131.496 72.3152 133.082 70.7748 134.741 69.3176C136.161 67.923 137.654 66.6115 139.221 65.3833C140.621 64.3008 142.095 63.3015 143.568 62.3022C145.042 61.3029 146.652 60.6262 148.252 60.1056C151.525 59.1475 154.709 59.5943 157.825 61.1337C158.887 61.6745 159.618 62.5068 160.183 63.4849C160.549 63.901 160.539 64.0571 160.387 65.2226ZM122.561 126.896C122.644 126.823 122.727 126.75 122.561 126.896C122.727 126.75 122.644 126.823 122.561 126.896C122.366 127.51 122.087 128.197 121.809 128.883C121.726 128.956 121.872 129.123 121.945 129.206C122.482 128.144 122.658 127.843 122.625 127.135C122.708 127.062 122.552 127.052 122.561 126.896ZM154.764 148.002C154.159 147.649 153.525 147.763 152.891 147.878C152.413 148.003 152.33 148.076 151.75 148.586C152.467 148.398 153.101 148.284 153.652 148.242C154.047 148.19 154.442 148.138 154.764 148.002C154.847 147.929 154.764 148.002 154.764 148.002C154.774 147.846 154.774 147.846 154.93 147.856C154.847 147.929 154.847 147.929 154.764 148.002ZM119.997 119.123C120.08 119.05 120.163 118.977 120.163 118.977C120.163 118.977 120.08 119.05 119.997 119.123C119.625 120.039 119.025 120.861 118.727 121.86C118.883 121.871 118.956 121.954 118.956 121.954C119.859 121.308 120.001 120.299 120.143 119.29C120.153 119.134 119.997 119.123 119.997 119.123ZM158.169 64.3698C157.866 64.193 157.72 64.0265 157.491 63.9329C155.804 63.3505 154.19 62.8514 152.473 62.7373C151.464 62.5919 150.435 62.7586 149.396 63.0814C146.123 64.0394 143.205 65.5697 140.706 67.9116C139.379 69.0773 138.271 70.4927 137.163 71.9082C135.113 74.5933 133.521 77.4657 132.377 80.6813C131.605 82.9812 130.989 85.2914 130.602 87.6952C129.775 92.1075 129.03 96.4469 128.203 100.859C128.061 101.869 127.836 102.951 127.694 103.96C126.851 109.86 126.788 115.813 127.661 121.827C128.322 126.26 130.021 130.37 132.125 134.271C133.391 136.55 135.312 138.402 137.5 139.723C140.367 141.481 143.585 142.635 146.813 143.633C151.269 145.027 155.668 144.849 160.044 143.808C161.478 143.433 162.849 142.818 164.083 141.882C166.811 139.633 168.935 137.031 170.463 133.92C171.723 131.339 172.525 128.571 173.098 125.709C174.693 117.821 174.811 109.756 173.432 101.827C172.552 97.1451 171.434 92.5251 170.159 87.8948C169.191 84.6172 167.984 81.402 166.289 78.4679C164.52 75.4506 162.835 72.3605 160.984 69.416C160.063 67.8658 159.226 66.2426 157.797 65.2856C157.807 65.1295 157.817 64.9734 157.9 64.9006C157.993 64.6716 158.076 64.5988 158.169 64.3698ZM116.871 111.548C117.13 111.174 117.306 110.872 117.481 110.57C118.824 107.916 120.397 105.356 121.959 102.952C122.662 101.745 123.292 100.454 123.766 99.1535C123.776 98.9974 123.786 98.8414 123.806 98.5292C123.069 99.0288 122.863 99.7989 122.595 100.33C121.613 102.224 120.632 104.118 119.577 105.929C118.967 106.907 118.419 108.125 117.434 108.843C117.268 108.988 117.102 109.134 117.092 109.29C116.97 109.987 116.764 110.758 116.871 111.548ZM132.991 144.126C131.942 144.604 131.444 145.042 130.927 145.791C131.834 146.321 132.594 146.685 133.594 146.987C133.384 146.581 133.102 146.092 133.048 145.697C132.932 145.062 132.961 144.594 132.991 144.126ZM124.917 113.18C124.214 114.388 123.667 115.605 123.339 117.072C124.003 116.49 124.417 116.125 124.998 115.615C124.891 114.824 124.941 114.044 124.917 113.18ZM116.425 114.889C116.439 115.909 116.38 116.845 116.32 117.782C116.311 117.938 116.208 118.323 116.52 118.343C116.901 117.272 117.126 116.189 117.507 115.117C117.59 115.045 117.517 114.961 117.527 114.805C117.454 114.722 117.454 114.722 117.464 114.566C117.225 114.628 116.83 114.681 116.425 114.889ZM121.032 123.816C122.306 122.255 122.76 121.266 122.747 120.246C121.439 121.1 121.277 122.422 121.032 123.816ZM126.306 99.871C124.681 102.036 124.144 103.097 123.972 104.575C124.231 104.2 124.407 103.898 124.582 103.597C124.934 102.993 125.212 102.306 125.71 101.869C126.135 101.349 126.33 100.735 126.306 99.871ZM117.352 127.49C117.674 127.355 117.84 127.209 117.84 127.209C118.036 126.595 118.148 126.054 118.417 125.523C118.5 125.45 118.354 125.284 118.281 125.201C117.866 125.565 117.451 125.929 116.963 126.21C117.099 126.533 117.226 127.011 117.352 127.49ZM137.28 148.172C137.509 148.266 137.582 148.349 137.738 148.36C138.123 148.464 138.509 148.568 138.977 148.599C138.996 148.287 139.006 148.13 139.026 147.818C137.704 147.652 137.704 147.652 137.28 148.172ZM129.6 77.5186C130.244 77.2479 130.244 77.2479 131.205 75.666C130.542 76.2488 130.034 76.8421 129.6 77.5186ZM127.973 142.93C127.495 143.055 127.037 142.868 126.924 143.409C127.227 143.586 127.456 143.679 127.758 143.856C127.861 143.471 127.881 143.159 127.973 142.93ZM128.006 131.255C127.727 131.941 127.727 131.941 127.688 132.566C127.937 132.347 128.103 132.202 128.342 132.139C128.362 131.827 128.464 131.442 128.006 131.255ZM133.068 139.193C132.726 139.641 132.623 140.026 132.657 140.733C133.145 140.452 133.477 140.161 133.662 139.703C133.443 139.453 133.214 139.36 133.068 139.193ZM116.538 120.539C116.352 120.997 116.396 121.548 116.668 122.194C116.854 121.736 117.03 121.434 117.123 121.205C117.225 120.82 117.006 120.57 116.538 120.539ZM121.106 136.282C120.731 136.022 120.512 135.772 120.292 135.523C120.399 136.313 120.399 136.313 121.106 136.282ZM128.48 87.7893C128.397 87.8622 128.241 87.8518 128.314 87.9351C128.305 88.0912 128.212 88.3201 128.202 88.4762C128.285 88.4033 128.358 88.4866 128.441 88.4137C128.534 88.1848 128.544 88.0287 128.636 87.7997C128.553 87.8726 128.553 87.8726 128.48 87.7893ZM123.392 138.55C123.548 138.56 123.704 138.571 123.787 138.498C123.953 138.352 123.973 138.04 123.817 138.03C123.661 138.019 123.578 138.092 123.495 138.165C123.339 138.155 123.412 138.238 123.392 138.55ZM157.038 146.743C156.799 146.805 156.56 146.868 156.477 146.94L156.467 147.097C156.623 147.107 156.779 147.117 156.945 146.972C157.101 146.982 157.111 146.826 157.038 146.743ZM129.747 138.424C129.757 138.268 129.757 138.268 129.767 138.112C129.611 138.101 129.454 138.091 129.454 138.091C129.372 138.164 129.445 138.247 129.435 138.403C129.508 138.486 129.591 138.413 129.747 138.424ZM144.887 149.305L144.96 149.388C145.116 149.399 145.282 149.253 145.438 149.263L145.365 149.18C145.209 149.17 145.053 149.159 144.887 149.305C144.887 149.305 144.814 149.222 144.887 149.305ZM125.801 125.23C125.718 125.303 125.791 125.386 125.708 125.459C125.781 125.542 125.781 125.542 125.937 125.553C126.02 125.48 125.947 125.397 126.03 125.324C125.957 125.24 125.957 125.24 125.801 125.23Z" fill="#85B472"/>
<path d="M145.217 130.439C142.4 127.901 140.529 125.269 139.395 122.137C137.998 118.204 137.62 114.26 138.813 110.264C139.615 107.496 140.646 104.821 142.208 102.417C142.994 101.137 144.082 100.034 145.307 99.2531C146.449 98.5452 147.498 98.0663 148.819 98.2326C149.131 98.2533 149.526 98.2012 149.921 98.1491C150.878 97.8991 151.751 97.722 152.634 97.3889C153.746 97.1493 154.838 97.2219 155.838 97.5234C157.296 98.0122 158.661 98.7299 159.933 99.6766C162.614 101.892 164.797 104.545 166.399 107.708C167.247 109.175 167.616 110.768 167.83 112.349C168.193 115.273 168.006 118.239 167.204 121.007C165.982 125.471 163.633 129.155 159.637 131.633C155.724 134.038 151.647 134.08 147.542 132.083C146.635 131.552 145.821 130.793 145.217 130.439ZM146.56 100.512C145.823 101.012 145.076 101.667 144.642 102.344C142.23 105.789 140.891 109.618 140.625 113.833C140.585 114.457 140.619 115.165 140.735 115.799C141.22 120.534 143.573 124.217 146.902 127.338C148.383 128.691 150.133 129.512 152.142 129.959C153.693 130.219 155.264 130.167 156.708 129.636C158.722 128.751 160.445 127.533 161.739 125.66C164.14 122.371 165.011 118.51 164.799 114.421C164.699 112.298 164.193 110.383 163.126 108.667C161.713 106.221 159.969 104.068 157.893 102.206C157.079 101.446 156.172 100.916 155.265 100.385C154.202 99.8443 152.891 99.522 151.778 99.7616C150.822 100.012 149.876 100.105 148.837 100.428C148.037 100.688 147.393 100.959 146.56 100.512Z" fill="#85B472"/>
<path d="M168.423 130.257C168.496 130.341 168.642 130.507 168.559 130.58C168.271 131.423 168.065 132.193 167.631 132.87C166.566 134.836 165.346 136.793 163.906 138.5C162.466 140.207 160.617 140.946 158.432 140.801C158.12 140.78 157.652 140.749 157.267 140.645C155.331 140.281 153.448 140.313 151.473 140.573C150.048 140.792 148.561 140.772 147.176 140.366C146.562 140.169 145.791 139.961 145.27 139.534C143.842 138.577 142.413 137.62 141.058 136.746C140.005 136.049 138.796 135.342 137.743 134.645C136.159 133.678 134.989 132.346 134.244 130.494C133.636 128.964 132.715 127.414 132.024 125.957C131.678 125.229 131.322 124.657 130.977 123.928C130.285 122.472 129.989 120.963 130.087 119.402C130.338 116.676 130.433 113.939 130.527 111.202C130.675 108.861 130.979 106.53 131.595 104.22C132.016 102.523 132.28 100.817 132.233 99.0895C132.263 98.6212 132.209 98.2258 132.239 97.7575C132.021 95 132.345 92.3569 132.752 89.6409C132.997 88.2464 133.231 87.0081 133.705 85.7072C134.932 82.4187 136.231 79.2135 137.531 76.0082C137.902 75.0924 138.43 74.187 138.884 73.1983C139.856 71.4603 141.276 70.0656 143.061 69.0871C144.276 68.4625 145.574 67.765 146.789 67.1404C147.111 67.0051 147.433 66.8697 147.672 66.8072C147.828 66.8176 148.057 66.9112 148.359 67.088C148.11 67.3066 148.101 67.4627 147.935 67.6084C146.129 68.8991 144.241 70.2627 142.436 71.5534C140.962 72.5527 140.01 73.9785 139.287 75.4979C138.462 77.4024 137.709 79.39 136.883 81.2945C136.244 82.741 135.76 84.198 135.276 85.6549C134.719 87.0286 134.318 88.4126 134.146 89.8903L134.136 90.0464C133.647 92.8352 133.469 95.6449 133.448 98.4648C133.466 100.66 133.181 102.679 132.502 104.75C131.896 106.904 131.519 109.152 131.454 111.421C131.286 114.074 131.035 116.8 130.795 119.371C130.593 121.317 130.88 122.982 131.874 124.615C132.648 125.999 133.422 127.383 134.114 128.839C134.397 129.328 134.596 129.89 134.796 130.452C135.311 132.211 136.564 133.469 138.075 134.354C139.513 135.154 140.868 136.028 142.38 136.912C144.266 138.057 146.236 139.128 148.411 139.429C149.264 139.564 150.2 139.627 151.064 139.606C153.195 139.355 155.39 139.345 157.545 139.958C157.774 140.052 158.013 139.989 158.242 140.083C160.407 140.54 162.256 139.801 163.613 138.167C165.551 136.023 167.196 133.546 168.31 130.799C168.247 130.559 168.34 130.33 168.423 130.257C168.423 130.257 168.506 130.185 168.423 130.257Z" fill="#85B472"/>
<path d="M139.956 128.131C139.395 128.329 138.937 128.141 138.489 127.798C137.299 126.778 136.11 125.759 135.253 124.448C132.836 120.526 131.615 116.291 132.535 111.649C132.903 109.558 133.655 107.57 134.71 105.759C135.061 105.156 135.486 104.635 136.213 104.292C136.379 104.146 136.691 104.167 136.847 104.177C137.149 104.354 137.212 104.593 137.193 104.905C137.08 105.447 137.051 105.915 136.865 106.373C136.547 107.684 136.073 108.985 135.755 110.296C134.841 113.605 134.956 116.748 136.08 120.036C136.941 122.523 138.052 124.791 139.64 126.934C140.162 127.361 140.079 127.433 139.956 128.131Z" fill="#85B472"/>
<path d="M171.127 118.446C170.981 118.28 170.835 118.113 170.918 118.041C170.884 117.333 171.007 116.636 170.973 115.928C171.091 114.055 171.137 112.099 170.87 110.122C170.719 108.779 170.735 107.291 170.741 105.96C170.737 104.784 170.816 103.535 170.895 102.286C170.92 100.642 170.707 99.0604 170.254 97.5413C169.549 95.0649 168.76 92.6613 168.055 90.1848C167.792 89.3837 167.456 88.4992 167.038 87.6877C165.655 84.7743 164.032 81.9235 162.328 79.1455C161.972 78.5733 161.699 77.9282 161.5 77.3663C160.881 75.9929 160.346 74.5466 159.727 73.1731C159.172 72.039 158.69 70.9881 157.969 69.9997C157.467 69.261 156.8 68.668 155.966 68.2208C154.308 67.1701 152.465 66.5774 150.612 66.1407C150.632 65.8286 150.861 65.9222 151.1 65.8597C151.256 65.8701 151.495 65.8076 151.642 65.974C153.558 66.65 155.65 67.0242 157.37 68.3141C157.892 68.7406 158.487 69.2504 158.759 69.8955C159.534 71.2793 160.391 72.5902 161.092 73.8908C162.149 75.7636 163.216 77.4804 164.273 79.3532C166.032 82.5266 167.634 85.6896 168.509 89.1962C168.879 90.7882 169.414 92.2345 169.784 93.8265C170.246 95.1896 170.552 96.5423 171.015 97.9053C171.467 99.4245 171.608 100.923 171.509 102.484C171.401 104.201 171.375 105.845 171.267 107.562C171.217 108.342 171.241 109.206 171.348 109.997C171.794 112.848 171.617 115.658 171.127 118.446Z" fill="#85B472"/>
<path d="M153.705 94.0895C153.851 94.2559 153.997 94.4224 154.07 94.5056C154.133 94.7449 154.28 94.9114 154.187 95.1403C154.084 95.5254 153.772 95.5046 153.543 95.411C151.295 95.0265 149.227 95.516 147.066 96.2345C145.061 96.9633 143.056 97.6922 141.177 98.8997C141.011 99.0454 140.772 99.1079 140.533 99.1704C140.45 99.2432 140.294 99.2328 140.221 99.1496C140.148 99.0664 140.075 98.9832 139.929 98.8167C139.856 98.7335 139.939 98.6606 140.022 98.5877C140.114 98.3588 140.29 98.057 140.456 97.9113C142.613 96.0169 144.843 94.2058 147.638 93.3728C149.155 92.925 150.726 92.8726 152.184 93.3614C152.788 93.715 153.319 93.9855 153.705 94.0895Z" fill="#85B472"/>
<path d="M150.639 133.934C150.536 134.32 150.287 134.538 150.048 134.601C148.073 134.861 146.21 134.581 144.655 133.145L144.582 133.062C144.519 132.822 144.455 132.583 144.465 132.427C144.558 132.198 144.87 132.219 145.099 132.312C145.402 132.489 145.787 132.593 146.089 132.77C147.308 133.321 148.537 133.716 149.868 133.727C150.107 133.664 150.336 133.758 150.565 133.851C150.565 133.851 150.639 133.934 150.639 133.934Z" fill="#85B472"/>
<path d="M169.185 128.113C169.135 128.894 169.013 129.591 168.432 130.101C168.628 129.487 168.75 128.79 169.185 128.113Z" fill="#85B472"/>
<path d="M169.909 124.086C170.056 124.253 170.285 124.346 170.192 124.575C170.089 124.961 170.07 125.273 170.05 125.585C169.821 125.492 169.757 125.252 169.767 125.096C169.86 124.867 169.807 124.471 169.909 124.086Z" fill="#85B472"/>
<path d="M171.128 118.446C171.035 118.675 171.098 118.915 170.986 119.456C170.713 118.811 170.806 118.582 171.128 118.446Z" fill="#85B472"/>
<path d="M170.246 122.463C170.705 122.65 170.363 123.098 170.656 123.431C170.197 123.244 170.383 122.786 170.246 122.463Z" fill="#85B472"/>
<path d="M170.863 120.153L170.78 120.225L170.79 120.07C170.79 120.07 170.79 120.07 170.863 120.153Z" fill="#85B472"/>
<path d="M170.638 121.234C170.566 121.151 170.566 121.151 170.648 121.079L170.721 121.162L170.638 121.234Z" fill="#85B472"/>
<path d="M170.246 122.463C170.329 122.39 170.329 122.39 170.339 122.234L170.422 122.161L170.412 122.317C170.403 122.474 170.329 122.39 170.246 122.463Z" fill="#85B472"/>
<path d="M170.04 125.74C169.947 125.969 169.938 126.126 169.845 126.355C169.552 126.022 169.635 125.949 170.04 125.74C170.04 125.74 170.123 125.667 170.04 125.74Z" fill="#85B472"/>
<path d="M169.732 126.896C169.439 126.563 169.522 126.49 169.927 126.282C169.834 126.511 169.742 126.74 169.732 126.896C169.732 126.896 169.649 126.969 169.732 126.896Z" fill="#85B472"/>
<path d="M169.537 127.51C169.244 127.177 169.244 127.177 169.733 126.896C169.64 127.125 169.547 127.354 169.537 127.51Z" fill="#85B472"/>
<path d="M169.258 128.197C169.048 127.791 169.214 127.645 169.61 127.593C169.444 127.739 169.351 127.968 169.258 128.197Z" fill="#85B472"/>
<path d="M159.239 109.427C160.228 109.885 160.876 110.79 161.451 111.612C162.382 113.006 162.907 114.608 163.267 116.356C163.437 117.386 163.295 118.396 162.997 119.395C162.523 120.696 161.673 121.736 160.605 122.528C159.609 123.402 158.341 123.631 157.039 123.153C155.206 122.404 153.871 121.218 153.043 119.439C152.76 118.95 152.644 118.315 152.6 117.763C152.3 115.079 154.18 111.363 156.912 110.291C157.317 110.083 157.795 109.958 158.273 109.833C158.439 109.687 158.761 109.552 159.239 109.427ZM159.837 111.112C156.935 111.155 155.349 112.695 154.338 115.057C153.224 117.805 154.68 120.801 157.523 121.696C158.293 121.904 159.001 121.872 159.498 121.435C161.158 119.978 162.129 118.24 161.726 115.94C161.493 114.671 161.094 113.547 160.612 112.496C160.485 112.018 160.12 111.601 159.837 111.112Z" fill="#85B472"/>
<path d="M70.2573 76.7091C71.0335 75.5851 72.1654 75.0334 73.5067 74.8874C74.4529 74.7935 75.4722 74.7829 76.4718 75.0845C78.4709 75.6876 80.2943 76.5925 81.7562 78.2571C81.9755 78.5068 82.2679 78.8397 82.4871 79.0894C84.032 80.6812 85.8258 82.0543 87.7223 83.0425C89.0142 83.677 90.2963 84.4675 91.4954 85.331C93.9569 87.2971 95.8377 89.7733 97.3135 92.4577C98.8625 95.2253 99.8406 98.3468 100.424 101.52C101.259 105.651 101.617 109.907 101.663 114.142C101.657 115.474 101.652 116.806 101.802 118.149C101.849 119.876 102.292 121.551 103.14 123.018C103.349 123.424 103.485 123.747 103.695 124.152C103.758 124.392 103.821 124.631 103.884 124.87C103.938 125.266 103.45 125.547 103.065 125.443C102.836 125.349 102.689 125.183 102.47 124.933C101.885 124.267 101.3 123.601 100.633 123.008C99.8188 122.249 99.0049 121.49 98.1811 120.886C97.5766 120.533 97.2941 120.044 97.0214 119.398C96.6954 118.358 95.9447 117.838 94.955 117.38C93.268 116.798 91.581 116.215 89.8939 115.633C87.8217 114.947 85.6665 114.333 83.5211 113.564C82.1364 113.158 80.7615 112.597 79.3865 112.035C75.8959 110.235 73.0788 107.697 71.1841 104.201C70.2002 102.412 69.4652 100.403 69.0423 98.4159C68.0938 94.8261 67.6964 91.1946 67.5381 87.5006C67.4569 85.0656 67.8439 82.6618 68.377 80.4244C68.934 79.0507 69.408 77.7499 70.2573 76.7091ZM99.5259 115.725C99.4447 113.29 99.5196 110.865 99.3555 108.503C99.0944 105.194 98.5944 101.948 97.8553 98.7635C97.2526 95.902 96.3279 93.1759 94.8422 90.6476C93.4928 88.4419 91.8215 86.3715 89.6425 84.8943C89.038 84.5406 88.5164 84.1141 87.829 83.8333C86.0056 82.9284 84.4312 81.8049 82.7836 80.5982C82.106 80.1613 81.5212 79.4954 80.9364 78.8296C79.3916 77.2378 77.6413 76.4162 75.5493 76.042C75.3202 75.9484 75.0812 76.0109 74.9251 76.0005C73.0524 75.876 71.8277 76.6567 71.095 78.3322C70.5479 79.5498 70.23 80.861 70.0681 82.1826C69.7838 84.2014 69.8117 86.241 69.9955 88.2909C70.4857 91.6935 70.9759 95.0961 71.9441 98.3737C72.4598 100.132 73.0487 101.974 73.8864 103.597C75.4887 106.76 77.8376 109.267 80.9332 111.119C82.2982 111.837 83.7463 112.481 85.2041 112.97C87.8078 113.927 90.4944 114.811 93.0882 115.924C94.0048 116.298 94.8384 116.745 95.755 117.12C96.5887 117.567 97.1735 118.233 97.4362 119.034C97.7089 119.679 98.1475 120.179 98.8251 120.616C99.3565 120.886 99.722 121.302 100.253 121.573C99.6013 119.492 99.5636 117.608 99.5259 115.725Z" fill="#85B472"/>
<path d="M91.1881 92.6767C90.7832 92.8849 90.6805 93.2699 90.5778 93.655C90.2895 94.4979 90.0011 95.3409 89.7859 96.267C89.6931 96.496 89.6832 96.6521 89.5173 96.7978C89.1953 96.9331 89.1321 96.6938 89.0688 96.4545C88.085 94.6649 86.6961 93.0835 85.2145 91.7311C83.2844 90.0353 81.5933 88.2771 79.995 86.2899C79.1179 85.2912 78.3138 84.3756 77.3537 83.4497C77.1344 83.2 76.9151 82.9503 76.4371 83.0753C76.5833 83.2418 76.6465 83.4811 76.7927 83.6476C77.9524 85.1353 79.1121 86.6231 80.2717 88.1109C81.2852 89.4322 82.3086 90.5975 83.405 91.8459C84.2822 92.8447 85.0862 93.7602 85.7145 94.9776C85.8508 95.3001 85.9872 95.6227 86.1966 96.0285C85.8845 96.0077 85.7284 95.9973 85.5724 95.987C83.7194 95.5503 81.9494 95.0408 80.0234 94.521C79.6382 94.417 79.409 94.3234 79.0238 94.2194C78.7749 94.438 78.9211 94.6044 78.9942 94.6877C79.2965 94.8645 79.5158 95.1142 79.8279 95.1349C81.8902 95.9774 83.9625 96.6637 86.0545 97.0379C86.2105 97.0482 86.2836 97.1315 86.5957 97.1522C87.2675 98.9211 87.7003 100.752 87.8841 102.802C86.9478 102.74 86.0944 102.605 85.241 102.47C83.6903 102.21 82.2127 102.033 80.662 101.774C80.3499 101.753 80.0378 101.732 79.7988 101.795C79.6427 101.784 79.467 102.086 79.6131 102.253C79.7593 102.419 79.9055 102.585 80.1347 102.679C80.4369 102.856 80.8221 102.96 81.1343 102.981C83.2993 103.438 85.3814 103.968 87.6492 104.041C87.6492 104.041 87.8052 104.051 87.8783 104.134C87.9416 104.374 88.0779 104.696 88.0582 105.008C89.1865 109.472 91.6323 112.926 95.4589 115.61C95.7611 115.787 95.9804 116.037 96.2925 116.058C96.98 116.338 97.5607 115.828 97.4539 115.037C97.4006 114.642 97.1912 114.236 96.9719 113.987C96.6893 113.498 96.1678 113.071 95.8853 112.582C95.1642 111.594 94.287 110.595 93.5659 109.606C92.4161 107.963 91.6614 106.267 91.1555 104.352C90.9757 103.478 90.869 102.687 90.6062 101.886C90.3532 100.929 90.1003 99.9714 89.8474 99.0141C89.7209 98.5355 89.7406 98.2233 89.8433 97.8383C90.2146 96.9225 90.5958 95.8506 90.894 94.8516C91.0065 94.3105 91.0361 93.8422 91.1487 93.3011C91.5536 93.0929 91.4805 93.0096 91.1881 92.6767Z" fill="#85B472"/>
<path d="M74.4577 88.3522C74.4479 88.5082 74.438 88.6643 74.5111 88.7476C74.6573 88.914 74.8035 89.0805 74.9596 89.0909C75.491 89.3613 76.0955 89.715 76.6269 89.9854C76.856 90.079 77.2511 90.0269 77.5632 90.0476C77.6462 89.9748 77.7291 89.9019 77.739 89.7458C77.8219 89.673 77.6757 89.5065 77.6757 89.5065C77.6026 89.4233 77.5296 89.34 77.3735 89.3297C76.4569 88.9553 75.5304 88.7369 74.6138 88.3625C74.6968 88.2897 74.5407 88.2793 74.4577 88.3522Z" fill="#85B472"/>
<path d="M76.4401 99.1428C76.9083 99.1739 77.3666 99.3611 77.6787 99.3819C77.8348 99.3922 78.0738 99.3298 78.3128 99.2673C78.3958 99.1944 78.4155 98.8822 78.3424 98.799C78.2693 98.7158 78.1962 98.6325 78.0402 98.6222C77.2697 98.4142 76.4895 98.3624 75.719 98.1544C75.719 98.1544 75.6459 98.0712 75.563 98.144C75.48 98.2169 75.241 98.2794 75.3141 98.3626C75.3042 98.5187 75.3773 98.6019 75.4504 98.6852C75.6796 98.7788 75.8356 98.7891 75.9818 98.9556C76.211 99.0492 76.367 99.0596 76.4401 99.1428Z" fill="#85B472"/>
<path d="M94.2291 102.833C94.4681 102.77 94.7071 102.708 94.7901 102.635C95.3708 102.125 95.7955 101.604 96.0739 100.918C96.1569 100.845 96.0838 100.761 96.0838 100.761C96.0107 100.678 96.0206 100.522 95.9475 100.439C95.8744 100.356 95.7914 100.429 95.6354 100.418C95.5524 100.491 95.4694 100.564 95.3865 100.637C95.0349 101.24 94.5273 101.834 94.1757 102.437C94.3219 102.604 94.3219 102.604 94.2291 102.833Z" fill="#85B472"/>
</g>
<defs>
<clipPath id="clip0_138_8107">
<rect width="278.259" height="138.236" fill="white" transform="translate(104.724) rotate(48.7092)"/>
</clipPath>
</defs>
</svg>
