<svg width="64" height="62" viewBox="0 0 64 62" fill="none" xmlns="http://www.w3.org/2000/svg">
<path d="M29.1454 22.1476C24.3222 20.0563 18.3783 20.8284 14.2487 24.0839C10.1202 27.3385 7.97952 32.9371 8.8865 38.1167C9.64982 42.4776 12.4309 46.3579 16.0826 48.8601C19.7344 51.3623 24.1929 52.5481 28.6179 52.6516C40.2083 52.9244 51.7185 45.1283 55.1619 34.0584C56.4408 29.9462 56.6256 25.3444 54.8205 21.4347C52.7351 16.9155 47.9601 13.7708 42.9844 13.6391C38.0095 13.5087 33.0744 16.3973 30.754 20.8006" fill="#BED1B7" fill-opacity="0.5"/>
<path d="M29.1628 22.1129C27.4219 20.4581 24.418 20.369 22.582 21.9192C24.171 22.4085 25.7603 22.8957 27.3485 23.3838C26.0067 24.5122 25.3564 26.4043 25.7179 28.1198C25.8054 28.531 26.0649 29.0163 26.4842 28.9781C26.7622 28.953 26.9566 28.7013 27.1142 28.4717C27.9117 27.3144 28.7096 26.1552 29.507 24.998C30.905 26.6722 32.721 27.9961 34.7423 28.8145C34.4528 26.7344 33.7437 24.713 32.6704 22.907C34.2207 22.6609 35.7698 22.4155 37.3208 22.1706C36.3695 21.3181 35.1579 20.76 33.8901 20.5936C34.8258 19.6973 35.5959 18.6292 36.1503 17.4591C36.3168 17.1065 36.4306 16.6093 36.1092 16.3886C35.8615 16.2188 35.5247 16.3449 35.2586 16.4831C32.7383 17.7854 30.628 19.8687 29.2931 22.3722" fill="#97AE8E" fill-opacity="0.5"/>
<path d="M29.7988 23.6157C28.0089 19.6112 25.2564 16.0406 21.8403 13.2873C22.5771 12.5385 23.5545 11.7224 24.555 12.0463C25.1336 12.2333 25.5257 12.7604 25.8633 13.2665C28.1328 16.6767 29.7006 20.551 30.4423 24.5788" fill="#97AE8E" fill-opacity="0.5"/>
<path d="M20.723 48.0741C20.7163 48.1006 20.3807 48.0473 19.792 47.8736C19.2029 47.7019 18.37 47.3767 17.4072 46.8379C15.4937 45.7864 13.0706 43.6714 11.7045 40.5426C10.3456 37.4091 10.4511 34.1939 10.9852 32.0776C11.2467 31.0068 11.5778 30.1752 11.8523 29.6267C12.1261 29.0771 12.3165 28.7956 12.3405 28.809C12.4283 28.8475 11.7401 30.0344 11.3106 32.1494C10.8708 34.2354 10.8286 37.3381 12.1373 40.3544C13.4531 43.3661 15.7514 45.4512 17.5772 46.551C19.4176 47.6787 20.7547 47.9839 20.723 48.0741Z" fill="white" fill-opacity="0.5"/>
<path d="M26.126 48.4686C26.1544 48.5914 25.5033 48.8392 24.6621 48.7983C23.82 48.7614 23.1936 48.4557 23.2336 48.3362C23.2726 48.2072 23.9088 48.294 24.6836 48.3268C25.4571 48.3656 26.0993 48.3379 26.126 48.4686Z" fill="white" fill-opacity="0.5"/>
</svg>
