<svg width="304" height="335" viewBox="0 0 304 335" fill="none" xmlns="http://www.w3.org/2000/svg">
<g opacity="0.2" clip-path="url(#clip0_124_5191)">
<path d="M176.296 218.256C176.223 218.353 176.054 218.378 175.885 218.403C175.789 218.331 175.717 218.428 175.62 218.356C175.451 218.38 175.21 218.502 175.138 218.599C175.065 218.696 174.993 218.793 175.09 218.865C175.186 218.937 175.114 219.034 175.211 219.106C175.138 219.203 175.066 219.3 175.066 219.3C175.018 219.566 174.873 219.76 174.825 220.026C174.777 220.292 174.754 220.726 174.802 221.064C174.925 222.513 174.54 224.037 173.552 225.562C172.926 226.604 172.058 227.767 170.756 228.908C170.612 229.101 170.443 229.126 170.298 229.32L170.154 229.514C169.551 230.12 168.827 230.486 167.935 230.876C166.391 231.535 164.702 231.783 162.723 231.816C162.12 231.818 161.589 231.724 160.792 231.582C160.623 231.607 160.43 231.463 160.261 231.488C160.092 231.513 159.923 231.537 159.779 231.731C159.754 231.562 159.754 231.562 159.561 231.418L159.465 231.346L159.368 231.274C159.03 231.324 158.692 231.373 158.451 231.495C158.282 231.52 158.21 231.617 158.041 231.642L157.872 231.667L157.607 232.223C157.318 232.611 157.198 232.974 156.909 233.362C156.764 233.556 156.619 233.749 156.571 234.015C156.499 234.112 156.451 234.378 156.644 234.522L156.765 234.763C157.2 235.389 157.467 236.041 157.974 236.57C158.506 237.268 159.085 237.701 159.665 238.133C161.017 239.142 162.587 239.86 164.204 240.312C165.725 240.692 167.39 240.878 168.935 240.824C171.155 240.669 173.181 239.767 174.844 238.142C175.447 237.536 176.05 236.929 176.556 236.251C177.568 234.894 178.459 233.296 179.133 231.385C179.374 230.659 179.614 229.933 179.879 229.377C180.408 227.659 180.599 225.992 180.26 224.23C180.017 222.54 179.484 221.238 178.542 220.083C178.131 219.625 177.72 219.168 177.31 218.711L176.996 218.326C177.068 218.229 176.85 217.916 176.296 218.256ZM158.382 234.612C158.575 234.756 158.575 234.756 158.6 234.925C159.421 235.839 160.387 236.56 161.426 237.183C163.212 238.215 165.12 238.883 167.509 239.308C168.837 239.544 170.116 239.442 171.346 239.002C172.576 238.562 173.613 237.978 174.651 237.394C174.337 237.613 174.193 237.806 173.879 238.025C172.408 239.191 170.768 239.777 168.958 239.785C165.869 239.894 163.068 239.012 160.678 237.38C159.712 236.659 158.818 235.842 158.382 234.612ZM158.597 232.509C158.38 232.8 158.163 233.091 158.043 233.454L157.971 233.55C158.091 233.188 158.236 232.994 158.452 232.703C158.452 232.703 158.525 232.606 158.597 232.509L158.669 232.412L158.597 232.509ZM160.6 232.646C160.769 232.621 160.866 232.693 161.131 232.74C161.493 232.859 162.024 232.954 162.459 232.976C164.727 233.16 166.585 232.886 168.467 232.178C169.77 231.641 170.807 231.057 171.651 230.329L172.109 229.916C172.784 229.213 173.555 228.582 174.206 227.71C174.351 227.516 174.495 227.322 174.567 227.225C175.074 226.546 175.483 225.796 175.892 225.045C176.615 223.472 176.758 222.071 176.467 220.647C176.443 220.478 176.418 220.309 176.418 220.309C176.394 220.14 176.394 220.14 176.37 219.971C176.345 219.802 176.321 219.633 176.2 219.392C176.297 219.464 176.369 219.367 176.466 219.439C176.418 219.705 176.514 219.777 176.539 219.946C176.539 219.946 176.539 219.946 176.635 220.018C177.143 221.151 177.627 222.115 178.135 223.249C178.498 223.972 178.595 224.648 178.596 225.252C178.523 225.348 178.548 225.517 178.644 225.59L178.572 225.686C178.573 226.29 178.477 226.822 178.091 227.138C177.729 227.622 177.537 228.082 177.537 228.686C177.466 229.387 177.297 230.016 177.057 230.741C176.672 231.661 176.093 232.436 175.297 232.898C174.574 233.264 174.043 233.773 173.682 234.258C173.007 234.961 172.139 235.52 171.053 235.766C169.967 236.012 169.219 236.209 168.496 236.574C168.327 236.599 168.086 236.721 167.917 236.746C167.507 236.892 167.072 236.87 166.614 236.679C166.155 236.487 165.793 236.368 165.334 236.177C164.779 235.913 164.151 235.747 163.692 235.556C163.234 235.364 162.871 235.245 162.654 234.932C162.533 234.691 162.34 234.547 162.074 234.5C161.809 234.452 161.543 234.405 161.278 234.358L161.012 234.311C160.916 234.239 160.843 234.336 160.771 234.433L160.626 234.626L160.747 234.867C160.747 234.867 160.772 235.036 160.941 235.012C161.037 235.084 161.206 235.059 161.303 235.131C161.834 235.225 162.124 235.441 162.438 235.827C162.631 235.971 162.921 236.187 163.283 236.306C164.104 236.617 165.021 236.999 166.035 237.454C167.049 237.909 167.99 237.857 168.883 237.466C169.775 237.076 170.596 236.783 171.585 236.465C172.574 236.147 173.466 235.756 174.117 234.884C174.647 234.375 175.178 233.865 175.974 233.403C176.528 233.062 176.914 232.747 177.203 232.359C177.276 232.262 177.276 232.262 177.348 232.165C177.999 231.293 178.384 230.373 178.551 229.141C178.527 228.972 178.599 228.875 178.575 228.706C178.599 228.271 178.719 227.908 178.936 227.617C178.936 227.617 178.936 227.617 179.008 227.52C179.514 226.842 179.489 226.069 179.513 225.634L179.489 225.465C179.44 225.127 179.488 224.861 179.439 224.523C179.391 224.185 179.342 223.847 179.197 223.437C178.689 222.304 178.181 221.171 177.673 220.038L177.552 219.797C178.784 221.169 179.654 222.421 179.85 224.981C179.997 226.598 179.781 228.097 179.131 229.573C178.626 230.855 178.024 232.066 177.301 233.035C176.096 234.852 174.312 236.236 171.875 237.285C170.404 237.846 168.98 238.142 167.459 237.762C165.673 237.335 164.321 236.93 163.114 236.331C162.1 235.876 161.134 235.156 160.312 234.241L159.805 233.712L159.925 233.349C160.046 232.986 160.262 232.695 160.383 232.333C160.383 232.333 160.455 232.236 160.431 232.067C160.527 232.139 160.455 232.236 160.624 232.211C160.238 232.526 160.431 232.671 160.6 232.646Z" fill="#85B472"/>
<path d="M197.132 220.971L197.663 221.066C198.29 221.232 198.821 221.326 199.449 221.493C200.873 221.801 202.297 221.505 203.937 220.919C205.65 220.235 207.048 219.166 208.157 217.882C208.518 217.397 209.049 216.888 209.555 216.209C210.808 214.73 211.7 213.132 212.422 211.559C212.735 210.737 212.975 210.011 213.288 209.188C213.841 207.036 213.597 204.743 212.63 202.814C211.904 201.368 211.034 200.116 209.754 199.01C208.45 197.735 207.025 196.823 205.552 196.177C204.997 195.914 204.176 195.603 203.379 195.461C202.583 195.32 201.81 195.347 201.207 195.35L200.942 195.303C200.773 195.327 200.604 195.352 200.459 195.546C200.315 195.74 200.17 195.934 200.025 196.128C199.736 196.515 199.616 196.878 199.327 197.266L199.062 197.823L199.158 197.895C199.183 198.064 199.207 198.233 199.304 198.305C199.352 198.643 199.473 198.884 199.594 199.125L199.691 199.197L199.787 199.269C199.956 199.244 200.053 199.316 200.125 199.219C199.981 199.413 200.005 199.582 200.198 199.726C200.295 199.798 200.416 200.039 200.512 200.111C201.02 200.641 201.43 201.098 201.672 201.58C202.688 203.242 203.172 204.81 203.415 206.5C203.561 207.514 203.586 208.287 203.37 209.182L203.322 209.448C203.274 209.713 203.201 209.81 203.153 210.076C202.696 211.697 202.288 213.051 201.661 214.092C200.77 215.69 199.709 216.709 198.431 217.415C198.19 217.537 197.876 217.755 197.563 217.974C197.322 218.096 197.177 218.29 197.032 218.484C196.96 218.581 196.888 218.678 196.984 218.75C196.888 218.678 196.815 218.774 196.719 218.702C196.647 218.799 196.55 218.727 196.478 218.824C196.405 218.921 196.43 219.09 196.551 219.331C196.647 219.403 196.575 219.5 196.672 219.572C196.696 219.741 196.792 219.813 196.817 219.982C196.504 220.805 196.963 220.996 197.132 220.971ZM201.522 196.339C202.825 196.406 203.984 196.667 205.07 197.024C207.75 198.269 209.924 200.193 211.351 202.916C212.27 204.507 212.609 206.269 212.346 208.033C212.298 208.299 212.178 208.662 212.226 209C212.321 207.864 212.151 206.681 212.053 205.401C211.859 204.049 211.254 202.844 210.433 201.93C208.886 200.173 207.22 198.779 205.53 197.82C204.588 197.268 203.405 196.838 202.15 196.505C202.053 196.433 201.981 196.53 201.884 196.458L201.787 196.386L201.522 196.339ZM199.834 197.795C199.882 197.529 199.954 197.432 200.027 197.335C200.244 197.045 200.292 196.779 200.508 196.488L200.436 196.585C200.219 196.876 200.099 197.238 199.882 197.529C199.906 197.698 199.834 197.795 199.834 197.795ZM200.632 199.145C200.535 199.072 200.463 199.169 200.366 199.097C200.439 199 200.439 199 200.511 198.903C200.728 198.613 200.945 198.322 201.162 198.031L201.379 197.74L202.103 197.979C203.261 198.24 204.372 198.767 205.314 199.318C206.449 200.014 207.536 200.976 208.768 202.347C209.783 203.406 210.412 204.78 210.558 206.398C210.923 208.933 210.563 211.229 209.552 213.19C209.022 214.303 208.323 215.441 207.528 216.507C206.588 217.767 205.359 218.811 203.815 219.47C201.475 220.591 200.003 220.549 198.217 220.121L198.554 220.072C199.833 219.97 201.016 219.796 202.367 219.597C202.705 219.547 203.115 219.4 203.356 219.279C203.597 219.157 203.935 219.107 204.249 218.888L204.417 218.863C204.9 218.62 205.455 218.279 205.864 217.529C205.984 217.166 206.201 216.875 206.611 216.729C206.684 216.632 206.852 216.607 206.997 216.413C207.913 215.588 208.492 214.813 208.949 213.796C209.021 213.699 209.021 213.699 209.094 213.602C209.286 213.142 209.382 212.611 209.382 212.007C209.429 211.137 209.501 210.436 209.741 209.711C210.03 208.719 210.053 207.68 209.738 206.691C209.423 205.702 209.302 204.857 209.156 203.843C209.082 202.732 208.623 201.937 207.681 201.386C206.715 200.665 205.942 200.089 205.266 199.584C204.976 199.368 204.686 199.152 204.421 199.105C203.986 199.082 203.6 198.794 203.286 198.409C203.189 198.337 203.093 198.265 202.899 198.121C202.803 198.048 202.73 198.145 202.634 198.073L202.465 198.098L202.417 198.364C202.345 198.461 202.441 198.533 202.466 198.702L202.586 198.943C202.707 199.184 202.997 199.4 203.118 199.641C203.311 199.786 203.505 199.93 203.77 199.977C204.205 199.999 204.494 200.215 204.881 200.504C205.364 200.864 205.847 201.224 206.258 201.681C206.644 201.97 207.03 202.258 207.32 202.474C207.707 202.762 207.924 203.075 208.069 203.486C208.094 203.654 208.215 203.896 208.239 204.065C208.361 204.909 208.482 205.754 208.797 206.743C209.112 207.732 209.185 208.843 208.8 209.763C208.632 210.392 208.464 211.02 208.513 211.962C208.562 212.904 208.249 213.727 207.502 214.527C206.996 215.205 206.538 215.618 205.983 215.958C205.428 216.299 205.139 216.686 204.971 217.315C204.778 217.775 204.489 218.163 203.934 218.503L203.862 218.6C203.79 218.697 203.621 218.722 203.549 218.819C202.994 219.159 202.343 219.428 201.667 219.527C200.485 219.701 199.278 219.706 198.096 219.88C197.999 219.808 197.83 219.833 197.686 220.027C197.589 219.955 197.565 219.786 197.565 219.786C197.734 219.761 197.902 219.736 198.144 219.614C198.313 219.589 198.385 219.493 198.554 219.468C198.723 219.443 198.795 219.346 198.964 219.321C200.363 218.856 201.52 217.909 202.533 216.552C203.039 215.874 203.448 215.123 203.761 214.301C203.906 214.107 203.954 213.841 204.026 213.744C204.411 212.825 204.7 211.833 204.819 210.866L204.915 210.335C205.179 209.174 205.203 208.135 204.911 206.711C204.547 204.78 203.773 202.996 202.565 201.19C202.347 200.877 202.033 200.491 201.743 200.275C201.647 200.203 201.453 200.059 201.429 199.89C200.897 199.192 200.801 199.12 200.632 199.145Z" fill="#85B472"/>
<path d="M214.538 92.6105C214.248 92.3944 213.886 92.2751 213.693 92.131C213.041 91.7955 212.872 91.2165 212.774 90.5406C212.798 90.1057 212.918 89.7428 212.87 89.4049C212.797 88.8979 212.893 88.3661 212.651 87.884C212.578 87.3771 212.216 87.2578 211.733 87.5014C211.251 87.7449 210.696 88.0854 210.117 88.2569C209.876 88.3787 209.563 88.5974 209.321 88.7192C208.501 89.0125 207.97 88.9181 207.535 88.2919C207.318 87.9788 207.1 87.6657 206.907 87.5215C206.496 87.0643 206.134 86.9451 205.458 87.0445C204.879 87.216 204.373 87.2906 203.794 87.4621C202.877 87.6833 201.96 87.9046 201.019 87.9568C199.064 88.1582 197.567 87.3432 196.48 85.7776C195.827 84.8383 195.802 84.0654 196.622 83.1683C197.055 82.5868 197.489 82.0052 198.02 81.4957C199.008 80.5737 199.779 79.3386 200.381 78.1283C200.646 77.5716 201.08 76.9901 201.441 76.5055C202.092 75.6332 202.888 75.1709 203.926 75.1907C204.36 75.2131 204.698 75.1633 205.132 75.1857C207.304 75.2974 209.162 74.42 210.753 72.8916C211.355 72.2852 211.886 71.7757 212.585 71.2414C213.887 70.1007 215.021 70.1925 216.108 71.1542C216.205 71.2263 216.205 71.2263 216.302 71.2983C216.978 71.8028 217.63 72.1382 218.402 72.1108C218.668 72.158 219.005 72.1083 219.271 72.1555C220.502 72.3195 221.13 73.0898 220.962 74.3224C220.914 74.5883 220.794 74.9511 220.674 75.314C220.578 75.8458 220.385 76.3055 220.193 76.7653C220.072 77.1281 220.049 77.563 220.097 77.901C220.316 78.818 220.172 79.6157 219.955 80.5103C219.811 81.3081 219.667 82.1058 219.524 82.9035C219.092 85.2967 219.335 87.5904 220.086 89.8095C220.11 89.9785 220.134 90.1475 220.472 90.0978C220.568 89.566 220.761 89.1062 220.784 88.6713C221.216 86.2782 221.648 83.885 222.152 81.3949C222.68 78.4699 222.967 75.6667 222.626 72.6971C222.407 71.1762 222.623 69.6777 222.838 68.1792C222.886 67.9133 222.934 67.6474 222.886 67.3094C222.475 66.8522 221.944 66.7578 221.341 66.7603C220.81 66.6659 220.279 66.5715 219.844 66.5491C219.385 66.3578 218.927 66.1665 218.926 65.5626C218.973 64.6928 218.466 64.1635 217.959 63.6342C217.548 63.177 217.234 62.7918 216.823 62.3346C216.171 61.3953 216.218 60.5255 216.772 59.5811C216.917 59.3873 217.133 59.0965 217.278 58.9027C217.664 58.587 218.025 58.1024 218.411 57.7868C219.183 57.1555 219.423 56.4299 219.374 55.488C219.373 54.8842 219.276 54.2082 219.203 53.7013C219.009 52.3494 218.742 51.0944 218.547 49.7426C218.304 48.0527 218.158 46.4349 218.084 44.7202C217.986 43.4404 218.081 42.3047 218.345 41.1442C218.489 40.3464 218.73 39.6208 219.236 38.9423C220.103 37.7793 221.358 37.5083 222.445 38.47C223.121 38.9744 223.653 39.6727 224.112 40.4679C225.152 42.2993 225.878 44.3495 226.17 46.3773C226.413 48.0671 226.656 49.757 226.803 51.3748C226.827 51.5438 226.707 51.9066 227.165 52.0979C227.454 51.1064 227.911 50.0899 228.2 49.0984C228.801 47.2842 229.234 45.4949 229.739 43.6087C229.979 42.883 230.195 41.9884 230.533 41.3348C230.725 40.8751 230.918 40.4153 231.376 40.0027C232.195 39.1056 233.402 39.1005 234.151 40.1119C234.465 40.4971 234.611 40.9071 234.684 41.4141C234.66 41.849 234.733 42.3559 234.613 42.7187C234.373 44.0483 234.157 45.5468 233.845 46.9733C233.773 47.6741 233.533 48.3997 233.389 49.1975C233.293 49.7293 233.269 50.1642 233.704 50.7904C233.873 50.7655 234.138 50.8127 234.38 50.6909C235.055 50.5915 235.707 50.3231 236.382 50.2236C237.13 50.0273 237.902 49.9999 238.53 50.1663C239.761 50.3303 240.389 51.1006 240.487 52.3804C240.56 52.8874 240.464 53.4192 240.368 53.951C240.057 56.5852 239.215 59.125 237.914 61.4735C236.614 63.822 235.603 66.3867 234.592 68.9513C232.426 74.8784 230.333 80.7085 228.433 86.6828C227.711 88.8598 226.82 91.0616 226.099 93.2386C225.665 94.424 225.208 95.4404 224.775 96.6258C224.727 96.8918 224.679 97.1577 224.631 97.4236C225.452 97.7341 226.248 97.8757 226.972 98.1143C227.697 98.3528 228.421 98.5913 229.242 98.9019C229.386 98.7081 229.434 98.4422 229.579 98.2483C230.23 97.376 230.711 96.5286 231.362 95.6563C233.29 93.4742 235.34 91.5333 237.582 89.7364C239.198 88.377 241.006 87.1617 242.718 85.8743C246.938 82.8373 250.965 79.6561 254.968 76.306C255.884 75.4809 256.728 74.7527 257.595 73.5896C257.33 73.5424 257.064 73.4952 256.896 73.5201C256.148 73.7165 255.472 73.8159 254.724 74.0123C254.386 74.062 254.145 74.1838 253.807 74.2335C253.132 74.3329 252.721 73.8757 252.793 73.1749C252.841 72.909 252.961 72.5462 253.105 72.3523C253.081 72.1833 253.226 71.9895 253.274 71.7236C252.719 72.0641 252.333 72.3797 251.923 72.5263C251.103 72.8196 250.451 72.4842 250.329 71.6393C250.184 71.2292 250.208 70.7943 250.4 70.3346C250.544 69.5369 250.761 68.6422 250.905 67.8445C250.88 67.6755 250.928 67.4096 250.904 67.2406C250.422 67.4842 250.011 67.6308 249.601 67.7775C248.781 68.0708 247.96 67.7602 247.67 66.9401C247.525 66.5301 247.452 66.0231 247.379 65.5162C247.329 64.5743 247.377 63.7045 247.328 62.7627C247.374 61.289 247.252 59.8403 247.202 58.2945C247.177 56.9178 246.813 55.5908 246.281 54.2886C246.257 54.1196 246.16 54.0476 245.942 53.7345C245.582 54.823 245.293 55.8145 245.077 56.7092C244.068 61.0855 243.903 65.3375 245.549 69.5819C245.815 70.233 245.912 70.9089 246.01 71.5848C246.253 73.2747 245.409 74.6067 243.89 75.4344C243.48 75.581 243.07 75.7277 242.66 75.8743C242.081 76.0458 241.598 76.2894 241.043 76.6299C240.658 76.9455 240.248 77.0921 239.837 77.2388C239.596 77.3606 239.186 77.5072 238.848 77.5569C238.197 77.8254 237.98 78.1161 238.174 78.8641C238.319 79.2741 238.464 79.6842 238.61 80.0942C238.9 80.9143 238.756 81.712 238.081 82.4153C237.72 82.8999 237.189 83.4094 236.731 83.822C234.658 85.594 232.874 87.5821 231.308 89.8834C230.681 90.9247 230.127 91.8691 229.404 92.8383C229.043 93.3229 228.754 93.7106 228.392 94.1952C228.248 94.3891 228.006 94.5108 227.934 94.6078C227.693 94.7295 227.331 94.6103 227.379 94.3444C227.354 94.1754 227.402 93.9095 227.378 93.7405C227.571 93.2808 227.763 92.821 228.052 92.4333C228.823 91.1982 229.57 89.7941 230.438 88.631C231.763 86.4515 233.377 84.4882 235.379 82.8131C235.765 82.4975 236.054 82.1098 236.44 81.7942C236.898 81.3816 236.921 80.9467 236.752 80.3677C236.607 79.9577 236.461 79.5476 236.316 79.1376C236.122 77.7857 236.724 76.5754 238.051 76.2076C238.292 76.0858 238.63 76.0361 238.871 75.9143C239.184 75.6956 239.594 75.5489 239.811 75.2582C240.245 74.6766 240.896 74.4082 241.548 74.1398C241.958 73.9931 242.296 73.9434 242.609 73.7247C243.405 73.2624 243.598 72.8027 243.307 71.9826C243.138 71.4036 242.871 70.7525 242.533 70.1984C241.928 68.9931 241.637 67.5692 241.443 66.2173C240.907 61.2919 242.157 56.7938 243.745 52.246C243.793 51.9801 243.937 51.7863 244.082 51.5924C244.227 51.3986 244.371 51.2047 244.516 51.0109C245.36 50.2827 246.228 50.3274 246.857 51.0977C247.267 51.555 247.606 52.1091 247.872 52.7602C249.13 55.5086 249.471 58.4783 249.474 61.4977C249.451 62.5364 249.5 63.4783 249.381 64.445C249.333 64.7109 249.454 64.952 249.502 65.2899C249.816 65.0712 250.129 64.8525 250.539 64.7059C250.949 64.5592 251.335 64.2436 251.673 64.1939C252.662 63.8757 253.363 64.5491 253.412 65.491C253.461 65.8289 253.34 66.1918 253.22 66.5546C252.931 67.5462 252.643 68.5377 252.354 69.5293C252.306 69.7952 252.089 70.086 252.307 70.3991C252.621 70.1804 252.862 70.0586 253.175 69.8399C253.561 69.5243 254.019 69.1117 254.501 68.8681C254.815 68.6494 255.249 68.6718 255.612 68.791C255.901 69.0072 255.95 69.3452 255.854 69.877C255.734 70.2398 255.686 70.5057 255.469 70.7965C255.276 71.2563 254.987 71.644 254.722 72.2006C254.578 72.3945 254.53 72.6604 254.482 72.9263C255.23 72.7299 255.977 72.5335 256.653 72.4341C257.16 72.3595 257.763 72.357 258.294 72.4514C258.922 72.6179 259.26 73.172 258.995 73.7287C258.875 74.0915 258.586 74.4792 258.297 74.8669C256.826 76.6364 255.163 78.2617 253.306 79.7429C249.69 82.7775 245.952 85.5709 242.045 88.3892C238.838 90.6732 235.921 93.1734 233.124 95.9146C232.28 96.6428 231.557 97.612 230.834 98.5812C230.617 98.872 230.232 99.1876 230.304 99.6946C230.957 100.634 231.754 101.379 232.238 102.344C232.939 103.621 233.544 104.826 234.173 106.2C235.164 108.298 235.48 110.494 235.29 112.766C235.004 116.777 234.091 120.621 232.092 124.108C230.502 126.844 228.984 129.483 227.298 132.148C225.274 135.465 222.864 138.495 220.551 141.596C213.514 150.829 206.308 160.086 199.174 169.247C195.173 174.408 191.148 179.401 187.148 184.563C182.063 191.178 176.784 197.65 170.999 203.592C169.118 205.508 167.214 207.255 165.019 208.786C164.151 209.346 163.283 209.905 162.318 210.392C161.594 210.757 160.846 210.954 160.171 211.053C158.916 211.324 157.95 210.603 157.683 209.348C157.61 208.841 157.537 208.334 157.465 207.828C157.44 207.055 157.487 206.185 157.631 205.387C157.798 203.551 158.23 201.761 158.928 200.019C159.987 197.189 161.022 194.189 162.177 191.431C165.331 183.978 168.316 176.55 171.204 169.049C173.706 162.469 176.475 155.935 179.074 149.427C180.398 146.039 181.891 142.627 183.577 139.359C185.985 134.518 188.465 129.58 190.777 124.667C192.896 120.214 195.208 115.904 197.882 111.714C198.991 109.826 200.292 108.081 201.762 106.312C202.582 105.414 203.28 104.276 204.1 103.379C205.426 101.803 206.727 100.059 208.439 98.7714C208.559 97.8047 208.631 97.7078 209.33 97.1735C211.139 95.9582 213.021 95.2498 215.168 95.1925C215.603 95.2149 216.11 95.1403 216.713 95.1378C215.866 93.4504 215.673 93.3063 214.538 92.6105ZM161.495 208.27C163.111 207.514 164.51 206.445 165.884 205.208C169.404 202.101 172.417 198.465 175.526 194.902C178.997 190.853 182.275 186.661 185.528 182.299C189.794 176.581 194.277 171.175 198.639 165.529C206.64 155.205 214.738 144.954 222.619 134.389C225.655 130.319 228.208 125.888 230.665 121.384C232.448 118.188 233.071 114.732 233.068 111.108C233.114 109.031 232.412 107.15 231.541 105.293C231.033 104.16 230.453 103.124 229.704 102.113C228.955 101.101 227.988 100.381 226.83 100.12C224.054 99.4067 221.35 98.5967 218.622 97.6178C216.811 97.0214 214.977 96.86 213.143 97.3025C212.058 97.5486 211.069 97.8667 209.983 98.1128C209.935 98.3787 209.984 98.7167 209.936 98.9826C209.888 99.2485 209.646 99.3703 209.502 99.5641C209.285 99.8549 209.068 100.146 208.779 100.533C208.345 101.115 207.984 101.599 207.55 102.181C206.899 103.053 206.321 103.829 205.67 104.701C205.236 105.283 204.802 105.864 204.369 106.446C202.898 108.215 201.621 110.129 200.441 112.114C196.924 118.24 193.938 124.461 190.88 130.778C190.735 130.972 190.615 131.335 190.495 131.697C191.026 131.792 191.46 131.814 191.991 131.909C192.426 131.931 192.788 132.05 193.246 132.241C194.14 132.455 195.057 132.838 195.83 133.414C196.12 133.63 196.337 133.944 196.555 134.257C196.772 134.57 196.483 134.957 196.145 135.007C195.808 135.057 195.445 134.938 195.083 134.818C193.9 134.389 192.717 133.959 191.462 133.626C190.834 133.459 190.376 133.268 189.724 132.933C189.507 133.223 189.387 133.586 189.17 133.877C186.207 139.662 183.535 145.664 181.128 151.713C178.866 157.568 176.41 163.279 174.148 169.134C172.439 173.44 170.658 177.844 168.659 181.935C168.539 182.298 168.394 182.491 168.202 182.951C168.636 182.974 168.974 182.924 169.408 182.946C169.746 182.896 170.108 183.016 170.47 183.135C170.832 183.254 171.195 183.373 171.629 183.396C171.991 183.515 172.257 183.562 172.619 183.682C172.981 183.801 173.343 183.92 173.705 184.039C174.888 184.469 175.926 185.093 176.82 185.91C177.303 186.271 177.545 186.753 177.859 187.138C178.077 187.451 177.956 187.814 177.812 188.008C177.667 188.202 177.329 188.251 177.136 188.107C176.943 187.963 176.678 187.916 176.484 187.772C175.446 187.148 174.408 186.524 173.297 185.998C172.186 185.471 171.076 184.944 169.893 184.514C169.337 184.251 168.71 184.084 168.082 183.918C168.01 184.015 167.913 183.943 167.841 184.04C165.891 188.468 163.772 192.922 162.015 197.494C161.534 198.946 161.053 200.397 160.571 201.848C160.09 203.3 159.802 204.895 159.852 206.441C159.781 207.142 159.781 207.745 160.144 208.469C160.458 208.854 161.013 208.513 161.495 208.27ZM220.807 40.8682C220.59 41.7628 220.471 42.7295 220.423 43.5993C220.473 45.145 220.523 46.6908 220.742 48.2116C220.936 49.5635 221.131 50.9154 221.325 52.2673C221.375 53.2091 221.593 54.1261 221.642 55.0679C221.692 56.6137 221.259 57.7991 220.126 58.9149C219.668 59.3275 219.378 59.7152 218.92 60.1277C218.848 60.2246 218.703 60.4185 218.728 60.5875C218.801 61.0944 219.187 61.3827 219.501 61.7678C220.298 62.5133 220.927 63.2837 221.169 64.3696C221.531 64.4889 221.869 64.4392 222.159 64.6554C222.618 64.8467 223.245 65.0131 223.704 65.2045C224.742 65.8282 225.298 66.6954 225.131 67.928C225.083 68.1939 225.035 68.4599 225.011 68.8947C224.843 70.1274 224.748 71.263 224.918 72.4459C225.259 75.4156 224.997 78.3878 224.469 81.3128C223.821 84.6006 223.342 87.8635 222.694 91.1513C222.502 92.2149 222.382 93.1816 222.262 94.1484C222.166 94.6802 222.095 95.381 221.468 95.8184C221.951 96.1787 222.554 96.1762 223.109 96.4396C223.157 96.1737 223.23 96.0767 223.302 95.9798C223.518 94.4813 224.071 92.933 224.456 91.4097C225.346 88.6039 226.163 85.8952 227.053 83.0894C227.63 81.1063 228.207 79.1232 228.881 77.2121C230.108 73.7528 231.335 70.2935 232.466 66.7621C233.38 64.1254 234.415 61.7297 235.982 59.4284C237.403 57.321 238.173 54.8781 238.58 52.3159C238.653 52.219 238.628 52.05 238.604 51.881C238.676 51.7841 238.58 51.712 238.483 51.64C238.024 51.4487 237.518 51.5232 237.011 51.5978C236.263 51.7942 235.588 51.8936 234.84 52.09C233.175 52.5076 232.04 51.8118 231.7 50.0499C231.531 49.4709 231.602 48.7701 231.602 48.1663C231.673 47.4655 231.914 46.7398 231.986 46.039C232.177 44.9754 232.442 43.8148 232.634 42.7512C232.296 42.8009 232.248 43.0668 232.272 43.2358C231.743 44.953 231.311 46.7423 230.781 48.4595C229.987 50.7334 229.266 52.9104 228.472 55.1843C228.351 55.5471 228.231 55.91 228.087 56.1038C227.508 56.8792 226.47 56.8594 225.915 55.9921C225.673 55.51 225.527 55.1 225.382 54.69C225.236 53.6761 225.09 52.6621 224.945 51.6482C224.726 50.1274 224.676 48.5817 224.457 47.0608C224.286 45.274 223.705 43.6339 222.956 42.0187C222.593 41.2955 222.133 40.5003 221.529 39.899C221.047 40.1425 220.855 40.6023 220.807 40.8682ZM200.92 86.0731C201.596 85.9737 202.272 85.8742 202.947 85.7748C203.623 85.6753 204.371 85.479 204.95 85.3075C206.446 84.9147 207.46 85.3694 208.402 86.5249C208.499 86.597 208.523 86.766 208.62 86.8381C208.716 86.9101 208.716 86.9101 208.909 87.0542C209.344 87.0766 209.561 86.7858 209.971 86.6392C210.453 86.3956 211.008 86.0551 211.587 85.8836C212.479 85.4934 213.373 85.707 214.001 86.4774C214.532 87.1757 214.726 87.9237 214.679 88.7935C214.68 89.3973 214.608 90.0981 214.609 90.702C215.575 91.4226 216.733 91.6835 217.483 92.6949C218.207 93.5373 219.005 94.2827 219.657 95.2221C219.633 95.0531 219.609 94.8841 219.584 94.7151C219.028 93.244 218.374 91.7008 217.914 90.3017C216.97 87.3346 216.798 84.34 217.47 81.2212C217.639 80.5925 217.735 80.0607 217.903 79.4319C217.999 78.9001 218.023 78.4652 218.022 77.8614C218.021 77.2575 218.093 76.5567 218.261 75.9279C218.43 75.2992 218.598 74.6705 218.766 74.0417C217.97 73.9001 217.101 73.8555 216.449 73.52C215.724 73.2815 215.145 72.8491 214.493 72.5137C213.842 72.7821 213.408 73.3636 212.95 73.7762C212.106 74.5044 211.334 75.1356 210.394 75.7917C209.212 76.5696 208.054 76.9126 206.606 77.0395C205.931 77.1389 205.231 77.0694 204.555 77.1688C203.855 77.0993 203.469 77.4149 203.036 77.9964C202.819 78.2872 202.602 78.578 202.409 79.0377C201.59 80.5388 200.578 81.8957 199.373 83.1085C198.915 83.521 198.625 83.9087 198.264 84.3933C198.869 85.5986 199.714 86.0781 200.92 86.0731Z" fill="#85B472"/>
<path d="M199.961 161.538C200.25 161.15 200.636 160.834 200.853 160.544C201.576 159.574 202.395 158.677 203.118 157.708C203.625 157.03 204.034 156.279 204.54 155.601C206.323 152.405 208.105 149.209 209.984 146.085C214.513 138.602 219.308 131.166 224.102 123.731C225.379 121.817 226.56 119.831 227.813 117.749C228.367 116.805 228.824 115.788 229.185 114.7C229.738 113.151 229.761 111.509 229.349 109.844C229.034 108.855 228.671 108.132 227.802 107.483C227.609 107.339 227.415 107.195 227.246 107.22C226.884 107.1 226.499 107.416 226.547 107.754C226.668 107.995 226.62 108.261 226.813 108.405C227.925 110.14 227.927 111.951 227.35 113.934C227.062 114.926 226.58 115.773 226.195 116.693C224.268 120.686 222.052 124.464 219.836 128.241C216.342 133.932 212.946 139.696 209.356 145.315C207.452 148.269 205.525 151.055 203.138 153.65C201.571 155.347 200.463 157.236 199.452 159.197C199.332 159.56 199.115 159.85 199.067 160.116C199.019 160.382 198.971 160.648 198.923 160.914C198.875 161.18 199.02 161.59 199.285 161.637C199.551 161.684 199.792 161.563 199.961 161.538Z" fill="#85B472"/>
<path d="M209.003 131.475C208.399 130.874 207.891 130.344 207.312 129.912C205.452 128.374 203.303 127.223 200.889 126.63C199.899 126.344 198.837 126.155 197.679 125.894C197.148 125.8 196.713 125.778 196.279 125.755C196.013 125.708 195.772 125.83 195.531 125.952C195.29 126.073 195.145 126.267 195.097 126.533C195.049 126.799 195.17 127.04 195.435 127.087C195.629 127.231 195.798 127.207 196.063 127.254C198.695 128.161 201.278 129.333 203.789 130.603C205.19 131.346 206.687 132.161 207.87 133.195C208.16 133.411 208.45 133.627 208.715 133.674C209.078 133.794 209.632 133.453 209.487 133.043C209.486 132.439 209.148 131.885 209.003 131.475Z" fill="#85B472"/>
<path d="M197.132 154.448C196.552 154.016 195.948 153.414 195.296 153.079C193.485 151.879 191.457 150.969 189.308 150.423C187.957 150.018 186.629 149.782 185.301 149.546C184.867 149.523 184.433 149.501 183.998 149.479C183.733 149.431 183.516 149.722 183.468 149.988C183.42 150.254 183.541 150.495 183.734 150.639C184.096 150.758 184.386 150.975 184.748 151.094C188.562 152.431 192.232 153.961 195.806 156.024C195.999 156.168 196.265 156.215 196.458 156.359C196.724 156.406 197.061 156.357 197.206 156.163C197.423 155.872 197.471 155.606 197.35 155.365C197.326 155.196 197.229 155.124 197.205 154.955C197.253 154.689 197.156 154.617 197.132 154.448Z" fill="#85B472"/>
<path d="M193.331 167.604C192.752 167.776 192.463 168.163 192.077 168.479C189.787 170.542 187.786 172.821 185.882 175.172C184.629 176.651 183.4 178.298 182.147 179.777C181.857 180.165 181.641 180.455 181.448 180.915C181.303 181.109 181.449 181.519 181.714 181.566C181.811 181.638 182.149 181.589 182.317 181.564C182.631 181.345 182.872 181.223 183.089 180.932C184.077 180.01 184.969 179.016 185.765 177.95C187.042 176.037 188.415 174.195 189.789 172.354C190.584 171.287 191.573 170.365 192.368 169.299C192.657 168.911 193.019 168.427 193.211 167.967C193.477 168.014 193.452 167.845 193.331 167.604Z" fill="#85B472"/>
<path d="M206.735 107.909C206.252 108.153 206.253 108.757 206.543 108.973C206.833 109.189 207.195 109.308 207.557 109.427C208.836 109.929 210.188 110.334 211.468 110.836C212.844 111.41 214.22 111.984 215.476 112.921C215.573 112.993 215.573 112.993 215.669 113.065C215.863 113.209 216.128 113.256 216.273 113.063C216.417 112.869 216.562 112.675 216.538 112.506C216.513 112.337 216.392 112.096 216.368 111.927C216.15 111.614 215.933 111.301 215.74 111.157C213.711 109.643 211.634 108.396 209.148 107.899C208.617 107.805 207.917 107.735 207.314 107.738C207.072 107.859 206.831 107.981 206.735 107.909Z" fill="#85B472"/>
<path d="M183.486 169.312C182.858 168.542 182.157 167.868 181.312 167.389C180.201 166.862 179.091 166.335 177.908 165.905C177.449 165.714 176.942 165.789 176.508 165.766C176.17 165.816 175.881 166.204 176.026 166.614C176.051 166.783 176.244 166.927 176.437 167.071C178.441 167.811 180.083 169.036 182.039 170.043C182.401 170.162 182.691 170.378 183.053 170.498C183.222 170.473 183.487 170.52 183.632 170.326C183.873 170.204 183.825 169.866 183.704 169.625C183.607 169.553 183.51 169.481 183.486 169.312Z" fill="#85B472"/>
<path d="M209.252 113.406C209.396 113.212 209.517 112.849 209.396 112.608C209.275 112.367 209.057 112.054 208.792 112.007C207.415 111.433 205.967 110.956 204.423 111.011C204.157 110.963 203.916 111.085 203.675 111.207C203.337 111.257 203.192 111.451 203.072 111.813C203.024 112.079 203.314 112.296 203.676 112.415C203.941 112.462 204.135 112.606 204.4 112.653C205.028 112.82 205.728 112.889 206.259 112.984C207.055 113.125 207.827 113.098 208.504 113.602C208.697 113.747 208.938 113.625 209.252 113.406Z" fill="#85B472"/>
<path d="M194.291 137.696C194.195 137.624 194.074 137.383 193.88 137.239C193.108 136.662 192.262 136.183 191.273 135.897C191.007 135.85 190.669 135.9 190.331 135.949C189.921 136.096 189.825 136.628 190.188 136.747C191.226 137.371 192.264 137.994 193.303 138.618C193.399 138.69 193.568 138.665 193.665 138.737C193.93 138.785 194.171 138.663 194.316 138.469C194.557 138.347 194.509 138.009 194.291 137.696Z" fill="#85B472"/>
<path d="M187.891 156.153C188.085 156.297 188.133 156.635 188.495 156.755C189.727 157.522 190.79 158.315 192.021 159.083C192.214 159.227 192.577 159.346 192.842 159.394C193.108 159.441 193.397 159.053 193.276 158.812C193.155 158.571 192.937 158.258 192.744 158.114C191.488 157.177 190.088 156.434 188.712 155.86C188.446 155.813 188.181 155.766 187.891 156.153Z" fill="#85B472"/>
<path d="M165.246 194.172C165.342 194.244 165.463 194.485 165.56 194.557C166.309 194.964 167.226 195.347 167.975 195.754C168.168 195.898 168.433 195.946 168.699 195.993C169.23 196.087 169.664 195.506 169.422 195.024C169.301 194.783 169.18 194.542 168.914 194.494C168.069 194.015 167.248 193.704 166.283 193.587C165.921 193.468 165.511 193.615 165.246 194.172Z" fill="#85B472"/>
<path d="M177.578 173.202C177.771 173.346 177.868 173.418 178.061 173.562C179.003 174.113 179.944 174.665 180.886 175.217C181.079 175.361 181.417 175.311 181.562 175.117C181.706 174.923 181.754 174.658 181.537 174.344C181.44 174.272 181.319 174.031 181.223 173.959C180.45 173.383 179.605 172.903 178.543 172.714C178.181 172.595 177.843 172.645 177.578 173.202Z" fill="#85B472"/>
<path d="M156.389 101.429C160.06 104.167 163.031 107.44 165.786 111.003C166.415 111.773 166.971 112.641 167.527 113.508C171.564 119.989 171.257 126.85 168.32 133.408C165.864 139.119 161.839 143.508 156.557 146.96C152.361 149.562 147.8 150.234 143.093 149.287C141.766 149.051 140.559 148.452 139.279 147.95C137.613 147.16 136.984 145.786 137.079 144.046C137.15 143.346 137.294 142.548 137.438 141.75C138.278 137.399 139.143 133.216 139.983 128.865C141.423 121.492 142.598 114.071 143.507 106.603C143.722 104.501 144.106 102.374 144.852 100.366C145.117 99.8089 145.213 99.2771 145.574 98.7925C145.863 98.4048 146.177 98.1861 146.659 97.9425C147.142 97.699 147.721 97.5275 148.3 97.3559C148.71 97.2093 149.241 97.3037 149.603 97.423C151.389 97.8503 153.08 98.8094 154.529 99.8904C155.205 100.395 155.785 100.827 156.389 101.429ZM140.334 141.497C140.696 141.616 141.155 141.807 141.614 141.998C142.966 142.403 144.269 142.47 145.62 142.272C148.009 142.092 150.204 141.165 152.303 140.166C154.811 139.021 156.716 137.273 158.21 135.069C159.704 132.865 160.546 130.325 160.688 127.716C160.758 125.807 160.322 123.973 160.151 122.186C159.955 119.627 158.964 117.529 157.465 115.506C154.976 111.99 151.715 109.105 148.092 106.705C147.466 107.746 146.89 110.937 146.411 114.2C146.435 114.369 146.46 114.538 146.653 114.682C147.207 114.342 147.666 113.929 148.051 113.613C149.788 112.495 151.767 112.463 153.481 113.591C154.713 114.359 154.811 115.638 153.847 116.729C153.388 117.142 153.003 117.458 152.448 117.798C152.207 117.92 151.99 118.211 151.532 118.623C152.232 118.693 152.666 118.715 153.101 118.737C153.969 118.782 154.79 119.093 155.635 119.572C156.312 120.077 156.409 120.753 155.903 121.431C155.252 122.303 154.287 122.79 153.25 122.771C153.153 122.699 153.056 122.627 152.863 122.482C153.394 121.973 153.996 121.367 154.696 120.832C154.406 120.616 154.212 120.472 154.019 120.328C153.488 120.233 152.885 120.236 152.354 120.141C151.847 120.216 151.34 120.291 150.809 120.196C150.303 120.271 149.772 120.176 149.506 119.525C149.264 119.043 149.529 118.487 149.914 118.171C150.445 117.661 150.975 117.152 151.433 116.739C151.891 116.327 152.446 115.986 152.783 115.333C152.59 115.189 152.469 114.948 152.373 114.876C151.165 114.277 150.127 114.257 148.946 115.035C148.005 115.691 147.065 116.347 146.028 116.931C145.139 120.945 144.25 124.958 143.458 129.044C143.194 130.204 143.436 131.29 143.896 132.689C144.161 132.132 144.306 131.939 144.523 131.648C145.149 130.607 146.066 130.385 147.177 130.912C147.925 131.32 148.433 131.849 148.626 132.597C148.796 133.176 148.966 133.755 149.207 134.237C149.328 134.478 149.546 134.791 149.981 135.417C150.149 134.789 150.366 134.498 150.245 134.257C150.003 133.171 149.76 132.085 149.445 131.096C149.276 130.517 149.01 129.866 148.912 129.19C148.815 128.514 148.983 127.885 149.321 127.835C149.9 127.664 150.214 128.049 150.504 128.265C150.987 128.626 151.422 129.252 152.509 129.61C150.841 127.008 148.499 125.713 146.566 123.668C147.169 123.666 147.507 123.616 147.7 123.76C149.318 124.816 151.033 125.944 152.217 127.582C152.652 128.208 152.99 128.762 153.257 129.413C153.402 129.823 153.282 130.186 153.065 130.477C152.679 130.793 152.317 130.673 152.027 130.457C151.737 130.241 151.544 130.097 151.254 129.881C151.061 129.736 150.916 129.326 150.433 129.57C150.578 129.98 150.724 130.39 150.869 130.8C151.159 131.62 151.619 132.415 151.837 133.332C152.031 134.08 152.056 134.853 152.081 135.626C152.129 135.964 151.84 136.352 151.623 136.642C150.731 137.637 149.09 137.619 148.244 136.536C147.737 136.007 147.447 135.186 147.108 134.632C146.963 134.222 146.818 133.812 146.552 133.161C146.359 133.621 146.214 133.815 146.166 134.081C146.022 134.275 145.974 134.54 145.829 134.734C145.058 135.969 144.286 135.997 143.127 135.132C142.934 134.988 142.74 134.844 142.451 134.628C141.898 136.78 141.321 138.763 140.816 140.649C140.358 141.062 140.382 141.231 140.334 141.497ZM139.155 144.69C139.855 145.363 140.918 145.552 141.811 145.766C146.663 147.122 151.175 146.717 155.42 143.849C159.037 141.418 161.785 138.339 164.098 134.634C165.832 131.704 166.939 128.607 167.056 125.225C167.222 122.181 166.64 119.333 165.141 116.706C164.125 115.044 163.11 113.381 161.95 111.913C159.123 108.446 155.934 105.464 152.432 102.701C151.369 101.908 150.234 101.213 149.172 100.42C149.075 100.348 148.906 100.373 148.737 100.398C148.545 101.461 148.547 102.669 148.548 103.877C148.838 104.093 149.128 104.309 149.393 104.356C150.576 104.786 151.542 105.507 152.436 106.324C155.479 108.896 157.968 111.809 160.095 115.206C161.353 117.35 162.2 119.641 162.299 122.129C162.276 123.168 162.422 124.182 162.567 125.196C162.887 130.412 161.009 134.743 157.683 138.598C156.116 140.295 154.017 141.294 151.991 142.197C148.18 143.879 144.295 144.451 140.36 142.873C140.36 142.873 140.191 142.898 140.022 142.923C139.467 143.263 139.202 143.82 139.155 144.69Z" fill="#85B472"/>
<path d="M155.136 125.082C155.522 125.37 155.62 126.046 155.331 126.434C154.824 127.112 153.811 127.261 153.062 126.854C152.604 126.662 152.338 126.011 152.699 125.527C153.036 124.873 154.363 124.505 155.136 125.082Z" fill="#85B472"/>
<path d="M149.834 109.814C150.22 110.102 150.39 110.681 150.173 110.972C149.884 111.359 149.377 111.434 148.991 111.146C148.701 110.929 148.556 110.519 148.676 110.157C148.965 109.769 149.544 109.597 149.834 109.814Z" fill="#85B472"/>
<path d="M24.1389 261.792C22.5932 260.639 21.2886 259.364 20.3699 257.774C20.1524 257.46 19.9828 256.881 19.9342 256.543C19.8613 256.036 19.9329 255.336 20.0289 254.804C20.0526 254.369 20.2452 253.909 20.5344 253.522C20.8958 253.037 21.2816 252.721 21.8363 252.381C23.5484 251.093 25.4057 250.216 27.4319 249.314C34.3308 246.314 41.1088 243.073 47.7658 239.591C51.6973 237.546 55.4599 235.525 59.3914 233.479C60.115 233.114 60.8386 232.749 61.4899 232.48C63.2027 231.797 64.6991 232.008 65.859 233.477C66.7048 234.56 67.6229 235.547 68.2275 236.752C70.4041 241.091 71.1328 245.556 69.8346 250.32C68.1999 256.342 64.9715 261.476 60.1974 265.458C54.6517 270.07 48.2346 272.223 40.7996 270.297C39.8098 270.011 38.8201 269.726 37.9026 269.343C33.7018 267.718 29.7178 265.802 26.0467 263.064C25.4671 262.632 24.7185 262.224 24.1389 261.792ZM59.2257 236.524C57.4893 237.642 55.7529 238.761 53.9199 239.807C54.2097 240.023 54.4029 240.167 54.5962 240.311C55.7555 241.176 55.8527 241.852 54.9851 243.015C54.8405 243.209 54.5993 243.331 54.4547 243.524C54.3102 243.718 54.069 243.84 53.6832 244.156C54.3831 244.225 54.8175 244.248 55.2519 244.27C56.0485 244.412 56.7484 244.481 57.4003 244.817C58.6799 245.318 59.1642 246.887 58.4656 248.025C58.2487 248.316 57.9595 248.703 57.6217 248.753C56.8738 248.949 56.1258 249.146 55.3536 249.173C54.4125 249.225 53.5193 249.012 52.6505 248.967C52.2161 248.945 51.7817 248.922 51.3473 248.9C51.2513 249.432 51.6857 249.454 51.8789 249.598C52.1687 249.814 52.362 249.959 52.6518 250.175C52.9416 250.391 53.1591 250.704 52.9666 251.164C52.8463 251.527 52.3639 251.77 52.0018 251.651C51.3018 251.581 50.6742 251.415 49.95 251.176C48.0427 250.508 46.4727 249.186 44.9993 247.936C44.8061 247.792 44.8297 247.357 44.5879 246.875C47.1234 248.314 49.1042 250.093 51.9768 250.878C51.2519 250.036 50.6243 249.869 50.1169 249.34C49.7305 249.052 49.2718 248.86 49.3678 248.328C49.3914 247.894 49.7772 247.578 50.5495 247.551C51.2251 247.451 51.8527 247.618 52.5283 247.518C53.6384 247.441 54.6761 247.461 55.7861 247.384C56.0516 247.431 56.2685 247.14 56.8232 246.8C56.1956 246.633 55.8335 246.514 55.4714 246.395C54.9403 246.3 54.2647 246.4 53.7337 246.305C52.9372 246.164 52.2129 245.925 51.7056 245.396C50.8841 244.481 50.8348 243.54 51.6544 242.642C51.799 242.449 52.1125 242.23 52.474 241.745C51.0018 241.703 49.8918 241.78 48.8547 242.364C45.1644 244.288 41.4984 246.381 37.977 248.279C37.6404 249.537 37.3519 250.528 36.991 251.617C36.5822 252.971 36.8247 254.057 37.815 254.947C37.9117 255.019 38.1772 255.066 38.3704 255.21C38.8285 254.798 38.9967 254.169 39.3339 253.515C39.6711 252.862 39.8394 252.233 40.2731 251.652C40.5623 251.264 40.9238 250.779 41.4548 250.874C41.9859 250.968 42.3 251.353 42.4695 251.932C42.5425 252.439 42.6154 252.946 42.8572 253.428C43.0268 254.007 43.2686 254.489 43.5105 254.971C43.6314 255.212 43.8969 255.26 44.1867 255.476C44.5962 254.725 44.909 253.903 45.2462 253.249C45.4394 253.393 45.6083 253.368 45.6326 253.537C45.9474 254.526 45.7555 255.59 45.1048 256.462C44.5987 257.141 43.9231 257.24 43.2468 256.736C42.474 256.159 42.0146 255.364 41.7242 254.544C41.5789 254.134 41.4337 253.724 41.1676 253.073C40.9027 253.63 40.7581 253.824 40.6378 254.186C40.3729 254.743 40.277 255.275 40.0121 255.832C39.3377 257.139 37.9865 257.338 36.8995 256.376C35.3295 255.054 34.7965 253.148 35.3736 251.165C35.4696 250.633 35.7345 250.076 35.9994 249.52C35.7338 249.472 35.6372 249.4 35.4683 249.425C32.4773 250.815 29.6795 252.348 28.7633 253.173C32.0966 255.961 35.6948 258.193 39.8713 259.649C42.2372 260.508 44.6025 260.764 47.0395 260.319C48.8008 259.974 50.6831 259.869 52.4924 259.258C55.122 258.353 57.1475 256.847 58.8347 254.787C60.5218 252.726 61.6536 250.403 62.0369 247.672C62.3964 245.375 62.6594 243.007 62.1501 240.666C61.7868 239.339 61.4234 238.012 60.7465 236.904C60.5289 236.591 60.2148 236.206 59.9007 235.82C59.6358 236.377 59.4669 236.402 59.2257 236.524ZM60.9621 235.405C60.9864 235.574 60.9864 235.574 61.0107 235.743C63.6447 239.066 64.2039 242.952 63.6773 247.085C63.39 249.284 63.0304 251.581 61.85 253.566C59.2 257.925 55.5832 260.96 50.3958 262.068C49.3824 262.218 48.2967 262.464 47.3799 262.685C44.9672 263.299 42.5296 263.14 40.1157 262.546C36.3499 261.547 32.7524 259.92 29.4197 257.736C28.3813 257.112 27.4153 256.391 26.6661 255.38C26.5452 255.139 26.183 255.02 25.9655 254.707C24.8075 255.05 23.7218 255.296 22.6847 255.88C22.8056 256.121 22.8299 256.29 22.8299 256.29C23.8203 257.179 24.8107 258.069 25.9457 258.765C29.5924 261.334 33.3595 263.541 37.4881 265.263C39.2264 265.956 41.1336 266.624 42.9922 266.955C45.9371 267.643 48.8328 267.389 51.7035 266.363C54.9844 265.189 57.5646 263.343 59.8788 260.845C62.7713 257.572 64.9395 254.061 66.2383 249.901C67.7777 245.015 66.8801 240.574 64.1969 236.31C63.7375 235.515 63.1815 234.647 62.4087 234.071C61.9506 234.483 61.4202 234.993 60.9621 235.405Z" fill="#85B472"/>
<path d="M48.3603 255.12C48.7468 255.409 49.4224 255.309 49.7116 254.921C50.2176 254.243 50.0718 253.229 49.4678 252.628C49.1537 252.243 48.4537 252.173 48.0923 252.658C47.6585 253.239 47.6841 254.616 48.3603 255.12Z" fill="#85B472"/>
<path d="M32.3132 254.463C32.6996 254.751 33.303 254.748 33.5199 254.458C33.809 254.07 33.7361 253.563 33.3497 253.275C33.0599 253.059 32.6254 253.036 32.3119 253.255C31.9261 253.571 31.9991 254.077 32.3132 254.463Z" fill="#85B472"/>
<path d="M57.492 169.911C59.3231 167.053 61.4683 164.58 63.9034 162.324C65.4945 160.795 67.0614 159.098 68.7492 157.641C70.7261 155.797 72.9929 154.169 75.3806 152.783C81.362 149.4 87.392 146.356 93.7848 144.034C102.542 140.761 111.59 139.515 120.858 139.79C125.177 139.845 129.281 140.794 133.241 142.541C135.727 143.641 138.094 145.105 140.147 146.787C140.727 147.22 141.258 147.918 141.838 148.35C142.345 148.88 142.853 149.409 143.432 149.841C146.524 152.751 149.231 155.977 150.924 159.955C151.166 160.437 151.336 161.016 151.578 161.498C153.73 166.272 154.604 171.148 154.489 176.342C154.204 180.956 153.389 185.477 151.752 189.687C150.501 192.977 148.549 195.594 146.041 197.947C143.63 200.373 140.785 202.172 137.89 203.634C132.415 206.338 126.601 207.884 120.496 208.61C114.391 209.336 108.358 209.361 102.299 208.614C97.3033 208.055 92.2829 207.327 87.455 206.139C82.6272 204.952 78.0399 203.038 73.6932 200.4C71.6164 199.152 69.612 197.808 67.6798 196.367C65.8686 195.166 64.1297 193.869 62.463 192.475C60.9896 191.225 59.5885 189.879 58.1873 188.532C56.7862 187.185 55.6986 185.619 54.7798 184.029C53.0147 180.751 52.7697 177.25 53.707 173.574C54.0435 172.317 54.7665 171.348 55.6827 170.522C56.0442 170.038 56.2131 170.013 57.492 169.911ZM131.922 196.316C131.728 196.171 131.825 196.243 131.922 196.316C131.728 196.171 131.825 196.243 131.922 196.316C132.622 196.385 133.418 196.527 134.215 196.668C134.311 196.74 134.456 196.547 134.528 196.45C133.273 196.117 132.911 195.997 132.163 196.194C132.066 196.122 132.091 196.291 131.922 196.316ZM147.157 157.145C146.916 157.87 147.182 158.521 147.448 159.173C147.69 159.655 147.787 159.727 148.463 160.231C148.1 159.508 147.834 158.857 147.665 158.278C147.519 157.868 147.374 157.458 147.157 157.145C147.157 157.145 147.06 157.073 147.157 157.145C146.988 157.17 146.988 157.17 146.963 157.001C147.06 157.073 147.06 157.073 147.157 157.145ZM124.204 200.817C124.107 200.744 124.011 200.672 124.011 200.672C124.011 200.672 124.107 200.744 124.204 200.817C125.266 201.005 126.28 201.46 127.414 201.552C127.39 201.383 127.462 201.286 127.462 201.286C126.569 200.468 125.459 200.546 124.348 200.623C124.18 200.648 124.204 200.817 124.204 200.817ZM57.0844 172.473C56.9642 172.836 56.8196 173.03 56.7716 173.296C56.5323 175.229 56.3653 177.066 56.6327 178.924C56.7063 180.035 57.1177 181.096 57.6979 182.133C59.4631 185.41 61.7586 188.179 64.8258 190.316C66.3715 191.469 68.1341 192.331 69.8967 193.193C73.2287 194.773 76.6567 195.822 80.3496 196.314C82.9804 196.617 85.5869 196.751 88.2414 196.619C93.1402 196.502 97.9425 196.313 102.841 196.196C103.951 196.118 105.158 196.113 106.268 196.036C112.759 195.599 119.129 194.316 125.353 192.019C129.936 190.309 133.94 187.563 137.629 184.432C139.775 182.563 141.316 180.092 142.231 177.456C143.458 173.996 143.961 170.298 144.295 166.625C144.772 161.551 143.585 156.894 141.48 152.458C140.755 151.012 139.788 149.687 138.508 148.582C135.489 146.179 132.229 144.501 128.56 143.575C125.518 142.814 122.381 142.586 119.195 142.624C110.411 142.709 101.773 144.411 93.6197 147.682C88.8194 149.683 84.14 151.925 79.4848 154.336C76.2046 156.113 73.0453 158.131 70.2968 160.606C67.4759 163.178 64.5585 165.678 61.8343 168.323C60.3877 169.657 58.8445 170.92 58.1465 172.662C57.9776 172.687 57.8087 172.712 57.7121 172.64C57.4466 172.592 57.3499 172.52 57.0844 172.473ZM116.825 205.872C116.366 205.68 116.004 205.561 115.642 205.442C112.503 204.609 109.413 203.511 106.492 202.388C105.043 201.911 103.523 201.531 102.026 201.32C101.857 201.345 101.688 201.37 101.351 201.419C102.051 202.093 102.92 202.137 103.548 202.304C105.793 202.922 108.038 203.541 110.21 204.257C111.393 204.687 112.818 204.995 113.808 205.884C114.001 206.028 114.194 206.172 114.363 206.148C115.135 206.12 116.004 206.165 116.825 205.872ZM147.954 181.272C148.703 182.284 149.283 182.716 150.201 183.099C150.561 182.01 150.778 181.116 150.873 179.98C150.487 180.296 150.029 180.708 149.619 180.855C148.968 181.123 148.461 181.198 147.954 181.272ZM116.743 196.91C118.191 197.387 119.615 197.696 121.256 197.713C120.484 197.136 120 196.776 119.324 196.272C118.504 196.565 117.66 196.689 116.743 196.91ZM120.492 205.591C121.578 205.344 122.592 205.195 123.605 205.046C123.774 205.021 124.208 205.044 124.16 204.706C122.929 204.542 121.722 204.547 120.491 204.383C120.395 204.311 120.322 204.408 120.153 204.433C120.081 204.529 120.081 204.529 119.912 204.554C120.033 204.795 120.178 205.205 120.492 205.591ZM128.98 198.647C127.024 197.64 125.865 197.38 124.78 197.626C125.988 198.828 127.435 198.702 128.98 198.647ZM102.216 198.445C104.896 199.689 106.152 200.022 107.768 199.871C107.31 199.679 106.948 199.56 106.585 199.441C105.861 199.202 105.065 199.061 104.485 198.628C103.833 198.293 103.133 198.223 102.216 198.445ZM133.737 201.743C133.52 201.43 133.327 201.286 133.327 201.286C132.627 201.216 132.023 201.219 131.396 201.052C131.299 200.98 131.155 201.174 131.082 201.271C131.565 201.631 132.048 201.991 132.459 202.449C132.773 202.23 133.255 201.986 133.737 201.743ZM151.303 175.775C151.351 175.509 151.423 175.412 151.399 175.243C151.423 174.808 151.446 174.374 151.373 173.867C151.036 173.916 150.867 173.941 150.529 173.991C150.651 175.44 150.651 175.44 151.303 175.775ZM77.6023 199.997C77.1673 199.371 77.1673 199.371 75.26 198.702C76.0329 199.279 76.7815 199.686 77.6023 199.997ZM147.815 186.901C148.057 187.383 147.961 187.915 148.565 187.912C148.685 187.55 148.733 187.284 148.853 186.921C148.419 186.899 148.081 186.948 147.815 186.901ZM135.341 189.514C136.138 189.655 136.138 189.655 136.814 189.556C136.524 189.34 136.331 189.196 136.21 188.954C135.872 189.004 135.437 188.982 135.341 189.514ZM142.67 182.309C143.226 182.572 143.66 182.595 144.408 182.398C143.997 181.941 143.611 181.653 143.08 181.558C142.863 181.849 142.815 182.115 142.67 182.309ZM126.5 204.189C127.031 204.283 127.61 204.112 128.237 203.674C127.706 203.58 127.344 203.46 127.078 203.413C126.644 203.391 126.427 203.682 126.5 204.189ZM142.274 195.741C142.082 196.201 141.865 196.491 141.648 196.782C142.468 196.489 142.468 196.489 142.274 195.741ZM88.8229 198.863C88.9195 198.935 88.9438 199.104 89.0161 199.007C89.185 198.982 89.4506 199.029 89.6195 199.004C89.5229 198.932 89.5952 198.835 89.4985 198.763C89.233 198.716 89.0641 198.741 88.7986 198.694C88.8952 198.766 88.8952 198.766 88.8229 198.863ZM144.178 192.786C144.153 192.617 144.129 192.448 144.032 192.376C143.839 192.232 143.501 192.282 143.526 192.451C143.55 192.62 143.646 192.692 143.743 192.764C143.767 192.933 143.84 192.836 144.178 192.786ZM145.296 155.003C145.417 155.244 145.538 155.485 145.635 155.557L145.803 155.532C145.779 155.363 145.755 155.194 145.562 155.05C145.537 154.881 145.368 154.906 145.296 155.003ZM142.602 186.029C142.433 186.054 142.433 186.054 142.264 186.079C142.288 186.248 142.313 186.417 142.313 186.417C142.409 186.489 142.481 186.392 142.65 186.367C142.723 186.27 142.626 186.198 142.602 186.029ZM150.787 167.395L150.86 167.299C150.835 167.13 150.642 166.985 150.618 166.816L150.545 166.913C150.57 167.082 150.594 167.251 150.787 167.395C150.787 167.395 150.715 167.492 150.787 167.395ZM129.409 193.234C129.505 193.306 129.578 193.209 129.674 193.281C129.746 193.184 129.746 193.184 129.722 193.015C129.626 192.943 129.553 193.04 129.457 192.968C129.384 193.065 129.384 193.065 129.409 193.234Z" fill="#85B472"/>
<path d="M130.57 171.321C128.499 174.904 126.112 177.499 123.025 179.42C119.142 181.803 115.017 183.101 110.48 182.733C107.342 182.505 104.253 182.011 101.331 180.887C99.7863 180.338 98.3615 179.426 97.2502 178.296C96.2355 177.237 95.4863 176.226 95.3641 174.777C95.3155 174.439 95.1703 174.029 95.0251 173.619C94.5414 172.655 94.1543 171.763 93.5983 170.895C93.0904 169.762 92.9202 168.579 93.0155 167.444C93.2068 165.776 93.6636 164.156 94.386 162.583C96.1441 159.218 98.4819 156.285 101.496 153.857C102.87 152.62 104.486 151.864 106.127 151.277C109.166 150.226 112.376 149.754 115.513 149.982C120.557 150.275 125.024 151.947 128.575 155.652C132.03 159.285 133 163.629 131.798 168.465C131.437 169.554 130.811 170.595 130.57 171.321ZM98.3104 176.673C99.0109 177.346 99.8804 177.995 100.701 178.306C104.926 180.099 109.319 180.661 113.88 179.99C114.555 179.89 115.303 179.694 115.954 179.425C120.9 177.835 124.299 174.487 126.877 170.225C127.985 168.336 128.466 166.281 128.487 164.034C128.413 162.32 128.001 160.655 127.107 159.233C125.705 157.283 124.014 155.72 121.72 154.763C117.664 152.944 113.344 152.89 109.026 154.043C106.782 154.632 104.852 155.606 103.261 157.135C100.971 159.198 99.0667 161.549 97.5491 164.188C96.9227 165.229 96.5619 166.318 96.201 167.406C95.8645 168.664 95.8178 170.137 96.3258 171.27C96.8094 172.235 97.1242 173.224 97.7045 174.26C98.1639 175.055 98.5989 175.681 98.3104 176.673Z" fill="#85B472"/>
<path d="M125.11 146.585C125.183 146.488 125.327 146.294 125.424 146.366C126.389 146.483 127.258 146.527 128.079 146.838C130.421 147.529 132.786 148.388 134.936 149.539C137.085 150.689 138.293 152.496 138.633 154.862C138.682 155.199 138.755 155.706 138.731 156.141C138.782 158.291 139.243 160.294 139.969 162.344C140.525 163.815 140.841 165.408 140.722 166.979C140.65 167.679 140.603 168.549 140.265 169.203C139.567 170.945 138.869 172.687 138.244 174.332C137.738 175.615 137.257 177.066 136.752 178.348C136.078 180.259 134.921 181.81 133.113 183.025C131.617 184.022 130.171 185.357 128.772 186.425C128.073 186.96 127.543 187.469 126.843 188.003C125.445 189.072 123.901 189.731 122.212 189.979C119.244 190.33 116.3 190.849 113.356 191.369C110.823 191.742 108.265 191.946 105.659 191.812C103.752 191.747 101.87 191.852 100.036 192.294C99.5293 192.369 99.1192 192.515 98.6125 192.59C95.7175 193.448 92.8218 193.701 89.8295 193.883C88.285 193.938 86.9095 193.967 85.413 193.756C81.6236 193.192 77.9064 192.532 74.1892 191.871C73.1272 191.682 72.0408 191.324 70.8822 191.063C68.806 190.42 66.9948 189.22 65.5451 187.535C64.6027 186.379 63.5636 185.152 62.6212 183.996C62.4037 183.683 62.1862 183.37 62.0653 183.129C62.041 182.96 62.0889 182.694 62.2092 182.331C62.4991 182.547 62.668 182.523 62.8612 182.667C64.6487 184.302 66.5329 186.009 68.3205 187.644C69.7216 188.991 71.4599 189.684 73.2462 190.111C75.4669 190.561 77.7599 190.914 79.9806 191.363C81.6703 191.719 83.3356 191.905 85.001 192.091C86.5941 192.375 88.1628 192.489 89.7796 192.337L89.9485 192.312C93.0374 192.203 96.0777 191.755 99.0937 191.139C101.434 190.622 103.654 190.467 106.019 190.723C108.457 190.882 110.943 190.775 113.38 190.33C116.251 189.908 119.219 189.557 122.018 189.231C124.141 189.005 125.854 188.321 127.373 186.89C128.675 185.749 129.977 184.609 131.376 183.54C131.834 183.127 132.388 182.787 132.943 182.446C134.704 181.497 135.764 179.874 136.365 178.06C136.894 176.343 137.52 174.698 138.122 172.883C138.916 170.61 139.613 168.264 139.441 165.873C139.392 164.931 139.246 163.917 139.028 163C138.278 160.781 137.768 158.44 137.935 156C137.983 155.734 137.862 155.493 137.91 155.227C137.907 152.811 136.699 151.005 134.646 149.926C131.918 148.344 128.9 147.148 125.714 146.582C125.472 146.704 125.207 146.657 125.11 146.585C125.11 146.585 125.014 146.512 125.11 146.585Z" fill="#85B472"/>
<path d="M129.293 177.461C129.632 178.016 129.536 178.547 129.271 179.104C128.452 180.605 127.633 182.106 126.428 183.319C122.787 186.788 118.542 189.052 113.378 189.122C111.061 189.205 108.768 188.852 106.595 188.136C105.871 187.898 105.219 187.562 104.688 186.864C104.494 186.72 104.446 186.382 104.421 186.213C104.542 185.85 104.783 185.728 105.121 185.679C105.724 185.676 106.231 185.601 106.762 185.696C108.234 185.738 109.73 185.949 111.203 185.991C114.943 186.217 118.273 185.382 121.529 183.436C123.989 181.952 126.159 180.252 128.087 178.07C128.425 177.417 128.521 177.489 129.293 177.461Z" fill="#85B472"/>
<path d="M111.888 146.374C111.744 146.568 111.599 146.762 111.502 146.69C110.755 146.886 109.982 146.913 109.234 147.11C107.208 147.408 105.108 147.803 103.058 148.536C101.659 149.001 100.066 149.322 98.6427 149.618C97.3881 149.889 96.0368 150.088 94.6856 150.286C92.9243 150.632 91.2838 151.219 89.7643 152.046C87.28 153.361 84.8923 154.748 82.408 156.063C81.6121 156.525 80.7439 157.084 79.9723 157.715C77.1752 159.853 74.4989 162.231 71.9193 164.681C71.3889 165.191 70.7619 165.628 70.2072 165.969C68.8809 166.941 67.458 167.84 66.1317 168.812C65.0466 169.662 64.0338 170.415 63.142 171.409C62.467 172.112 61.9852 172.96 61.6967 173.951C60.9507 175.959 60.7357 178.062 60.6896 180.139C60.3518 180.189 60.3998 179.923 60.2789 179.682C60.2546 179.513 60.1336 179.272 60.2782 179.078C60.5655 176.879 60.4907 174.56 61.4779 172.431C61.815 171.777 62.2245 171.026 62.8515 170.589C64.1535 169.448 65.3588 168.235 66.5885 167.192C68.3486 165.638 69.9398 164.11 71.6998 162.557C74.6896 159.96 77.7036 157.531 81.2494 155.802C82.8655 155.046 84.2884 154.146 85.9045 153.391C87.2551 152.588 88.63 151.954 89.9806 151.152C91.5001 150.324 93.0682 149.834 94.7573 149.586C96.6152 149.312 98.3766 148.967 100.235 148.693C101.079 148.569 101.996 148.348 102.816 148.054C105.759 146.931 108.799 146.483 111.888 146.374Z" fill="#85B472"/>
<path d="M89.8298 170.501C89.9744 170.307 90.119 170.113 90.1913 170.016C90.4325 169.894 90.577 169.7 90.8426 169.748C91.277 169.77 91.3256 170.108 91.2776 170.374C91.3768 172.861 92.3684 174.959 93.6256 177.103C94.8585 179.079 96.0913 181.054 97.8066 182.786C97.9998 182.93 98.1207 183.172 98.2416 183.413C98.3383 183.485 98.3626 183.654 98.2903 183.751C98.218 183.847 98.1457 183.944 98.0011 184.138C97.9288 184.235 97.8322 184.163 97.7356 184.091C97.4701 184.044 97.1079 183.925 96.9147 183.78C94.4029 181.907 91.9634 179.936 90.4401 177.141C89.618 175.622 89.206 173.957 89.3973 172.29C89.6378 171.564 89.8061 170.935 89.8298 170.501Z" fill="#85B472"/>
<path d="M133.07 164.74C133.504 164.762 133.794 164.978 133.915 165.22C134.641 167.27 134.764 169.322 133.583 171.308L133.511 171.405C133.27 171.527 133.029 171.649 132.86 171.673C132.594 171.626 132.545 171.288 132.593 171.022C132.714 170.659 132.737 170.225 132.858 169.862C133.17 168.435 133.313 167.034 133.022 165.61C132.901 165.369 132.949 165.103 132.997 164.837L133.07 164.74Z" fill="#85B472"/>
<path d="M122.648 146.257C123.493 146.132 124.265 146.105 124.941 146.609C124.242 146.54 123.469 146.567 122.648 146.257Z" fill="#85B472"/>
<path d="M118.184 146.396C118.329 146.202 118.377 145.936 118.642 145.984C119.076 146.006 119.414 145.956 119.752 145.907C119.704 146.172 119.463 146.294 119.294 146.319C119.028 146.272 118.618 146.418 118.184 146.396Z" fill="#85B472"/>
<path d="M111.888 146.374C112.153 146.421 112.394 146.299 112.997 146.297C112.37 146.734 112.105 146.687 111.888 146.374Z" fill="#85B472"/>
<path d="M116.376 146.404C116.472 145.872 117.027 146.135 117.316 145.748C117.22 146.279 116.689 146.185 116.376 146.404Z" fill="#85B472"/>
<path d="M113.77 146.269L113.866 146.341L113.697 146.366C113.697 146.366 113.697 146.366 113.77 146.269Z" fill="#85B472"/>
<path d="M114.974 146.264C114.901 146.362 114.901 146.362 114.805 146.289L114.877 146.192L114.974 146.264Z" fill="#85B472"/>
<path d="M116.376 146.404C116.279 146.331 116.279 146.331 116.11 146.356L116.014 146.284L116.183 146.259C116.352 146.235 116.279 146.331 116.376 146.404Z" fill="#85B472"/>
<path d="M119.921 145.881C120.186 145.929 120.355 145.904 120.621 145.951C120.331 146.338 120.235 146.266 119.921 145.881C119.921 145.881 119.824 145.809 119.921 145.881Z" fill="#85B472"/>
<path d="M121.228 145.948C120.939 146.336 120.842 146.264 120.528 145.879C120.794 145.926 121.059 145.973 121.228 145.948C121.325 146.02 121.228 145.948 121.228 145.948Z" fill="#85B472"/>
<path d="M121.925 146.018C121.636 146.405 121.636 146.405 121.226 145.948C121.491 145.996 121.756 146.043 121.925 146.018Z" fill="#85B472"/>
<path d="M122.723 146.16C122.338 146.475 122.144 146.331 121.999 145.921C122.192 146.065 122.458 146.112 122.723 146.16Z" fill="#85B472"/>
<path d="M104.952 161.113C105.216 159.953 106.036 159.056 106.783 158.255C108.061 156.946 109.652 156.021 111.437 155.241C112.499 154.826 113.609 154.749 114.743 154.84C116.24 155.052 117.544 155.723 118.631 156.684C119.79 157.549 120.322 158.851 120.107 160.35C119.723 162.477 118.759 164.172 117.047 165.459C116.589 165.872 115.938 166.14 115.359 166.312C112.56 167.241 108.167 166.076 106.402 163.402C106.088 163.017 105.846 162.535 105.604 162.053C105.411 161.909 105.194 161.596 104.952 161.113ZM106.616 160.092C107.319 163.181 109.324 164.525 112.075 165.069C115.261 165.636 118.131 163.401 118.441 160.163C118.489 159.294 118.295 158.546 117.715 158.113C115.783 156.672 113.707 156.028 111.343 156.98C110.04 157.517 108.931 158.198 107.918 158.951C107.436 159.195 107.074 159.679 106.616 160.092Z" fill="#85B472"/>
<path d="M90.1916 263.545C88.8155 262.971 87.9697 261.887 87.5097 260.488C87.1949 259.499 86.9524 258.413 87.0478 257.277C87.2384 255.006 87.7912 252.854 89.2372 250.915C89.454 250.625 89.7432 250.237 89.9601 249.946C91.3095 247.936 92.369 245.709 92.994 243.46C93.3786 241.937 93.932 240.388 94.582 238.912C96.1233 235.838 98.3408 233.268 100.872 231.084C103.476 228.802 106.588 227.05 109.844 225.708C114.066 223.879 118.529 222.531 123.041 221.522C124.464 221.226 125.888 220.931 127.287 220.466C129.12 220.023 130.809 219.171 132.183 217.933C132.569 217.618 132.882 217.399 133.268 217.083C133.509 216.962 133.751 216.84 133.992 216.718C134.402 216.571 134.813 217.029 134.789 217.463C134.741 217.729 134.596 217.923 134.38 218.214C133.801 218.989 133.223 219.765 132.741 220.612C132.115 221.653 131.488 222.695 131.031 223.711C130.79 224.437 130.332 224.849 129.705 225.287C128.668 225.871 128.283 226.79 128.019 227.951C127.779 229.884 127.54 231.818 127.301 233.751C127.038 236.119 126.872 238.56 126.536 241.025C126.417 242.596 126.129 244.191 125.841 245.786C124.712 249.922 122.64 253.505 119.337 256.321C117.649 257.778 115.671 259.018 113.645 259.92C110.027 261.747 106.239 262.994 102.331 264.001C99.7494 264.64 97.095 264.772 94.5851 264.71C92.992 264.427 91.4955 264.215 90.1916 263.545ZM125.215 223.446C122.633 224.084 120.027 224.554 117.542 225.265C114.068 226.294 110.715 227.564 107.483 229.075C104.564 230.368 101.863 231.973 99.5001 234.133C97.4509 236.074 95.6191 238.328 94.5359 240.99C94.2954 241.715 93.9582 242.369 93.8142 243.167C93.2615 245.319 92.4188 247.255 91.5039 249.288C91.1911 250.11 90.6127 250.885 90.0343 251.661C88.685 253.671 88.2045 255.727 88.2794 258.045C88.2314 258.311 88.3523 258.552 88.3766 258.721C88.6683 260.749 89.7796 261.88 91.7348 262.282C93.159 262.59 94.6311 262.632 96.079 262.505C98.2991 262.351 100.471 261.859 102.618 261.198C106.14 259.903 109.662 258.608 112.942 256.831C114.703 255.882 116.536 254.835 118.079 253.573C121.093 251.145 123.237 248.068 124.513 244.343C124.969 242.722 125.33 241.03 125.521 239.363C125.952 236.366 126.287 233.296 126.887 230.275C127.079 229.211 127.367 228.219 127.559 227.156C127.848 226.164 128.426 225.389 129.222 224.926C129.849 224.489 130.283 223.908 130.596 223.085C130.764 222.456 131.126 221.972 131.294 221.343C129.22 222.511 127.217 222.978 125.215 223.446Z" fill="#85B472"/>
<path d="M102.497 237.575C102.811 237.96 103.245 237.982 103.68 238.005C104.645 238.121 105.611 238.238 106.649 238.258C106.914 238.305 107.083 238.28 107.276 238.424C107.494 238.737 107.252 238.859 107.011 238.981C105.324 240.437 103.95 242.279 102.842 244.168C101.469 246.613 99.9748 248.817 98.2154 250.975C97.3478 252.138 96.5526 253.204 95.7816 254.439C95.5647 254.73 95.3478 255.02 95.5897 255.503C95.7343 255.309 95.9755 255.187 96.1201 254.993C97.4457 253.417 98.7714 251.842 100.097 250.266C101.278 248.884 102.29 247.528 103.375 246.074C104.242 244.911 105.038 243.844 106.195 242.898C106.508 242.679 106.822 242.46 107.208 242.145C107.256 242.483 107.281 242.652 107.305 242.82C107.259 244.898 107.116 246.903 106.998 249.078C106.974 249.513 106.926 249.779 106.902 250.214C107.192 250.43 107.337 250.236 107.409 250.139C107.529 249.776 107.746 249.485 107.698 249.147C108.13 246.754 108.393 244.386 108.318 242.067C108.293 241.898 108.366 241.802 108.317 241.464C110.053 240.345 111.911 239.468 114.058 238.807C114.204 239.821 114.253 240.762 114.302 241.704C114.377 243.419 114.523 245.037 114.597 246.751C114.646 247.089 114.694 247.427 114.815 247.668C114.84 247.837 115.202 247.957 115.346 247.763C115.491 247.569 115.636 247.375 115.684 247.109C115.804 246.746 115.828 246.312 115.779 245.974C115.776 243.558 115.87 241.215 115.433 238.777C115.433 238.777 115.409 238.608 115.481 238.511C115.723 238.389 116.036 238.17 116.374 238.121C120.884 235.904 124.018 232.509 126.016 227.814C126.137 227.452 126.353 227.161 126.305 226.823C126.449 226.025 125.773 225.521 124.952 225.814C124.542 225.961 124.156 226.276 123.94 226.567C123.481 226.98 123.144 227.633 122.686 228.046C121.794 229.04 120.927 230.203 120.035 231.197C118.54 232.797 116.901 233.988 114.971 234.962C114.078 235.352 113.258 235.646 112.462 236.108C111.498 236.595 110.533 237.082 109.568 237.569C109.085 237.813 108.748 237.863 108.313 237.84C107.251 237.652 106.02 237.488 104.886 237.396C104.283 237.398 103.776 237.473 103.173 237.475C102.858 237.09 102.786 237.187 102.497 237.575Z" fill="#85B472"/>
<path d="M101.67 256.419C101.839 256.394 102.008 256.369 102.08 256.272C102.225 256.078 102.369 255.885 102.345 255.716C102.513 255.087 102.754 254.361 102.922 253.732C102.97 253.467 102.825 253.057 102.776 252.719C102.679 252.647 102.583 252.574 102.414 252.599C102.317 252.527 102.173 252.721 102.173 252.721C102.1 252.818 102.028 252.915 102.052 253.084C101.86 254.148 101.837 255.186 101.646 256.25C101.549 256.178 101.573 256.347 101.67 256.419Z" fill="#85B472"/>
<path d="M112.743 251.856C112.67 251.349 112.766 250.817 112.718 250.479C112.693 250.31 112.573 250.069 112.452 249.828C112.355 249.756 112.017 249.806 111.945 249.903C111.873 250 111.8 250.096 111.825 250.265C111.777 251.135 111.899 251.98 111.851 252.85C111.851 252.85 111.779 252.947 111.876 253.019C111.972 253.091 112.093 253.332 112.166 253.235C112.335 253.21 112.407 253.113 112.479 253.016C112.527 252.751 112.503 252.582 112.647 252.388C112.695 252.122 112.671 251.953 112.743 251.856Z" fill="#85B472"/>
<path d="M112.651 232.025C112.53 231.784 112.409 231.543 112.312 231.471C111.636 230.966 110.984 230.631 110.188 230.489C110.091 230.417 110.019 230.514 110.019 230.514C109.946 230.611 109.777 230.636 109.705 230.733C109.633 230.83 109.729 230.902 109.754 231.071C109.85 231.143 109.947 231.215 110.044 231.287C110.768 231.525 111.516 231.933 112.241 232.171C112.385 231.978 112.385 231.978 112.651 232.025Z" fill="#85B472"/>
</g>
<defs>
<clipPath id="clip0_124_5191">
<rect width="303.742" height="150.896" fill="white" transform="translate(0.466797 244.136) rotate(-53.28)"/>
</clipPath>
</defs>
</svg>
